<svg width="14" height="11" viewBox="0 0 14 11" fill="none" xmlns="http://www.w3.org/2000/svg">
<path d="M11.6002 0.375819C11.8359 0.137608 12.1561 0.00250435 12.491 3.44663e-05C12.8258 -0.00243542 13.148 0.127929 13.3872 0.362638C13.6264 0.597346 13.763 0.917313 13.7673 1.25261C13.7716 1.58791 13.6432 1.91127 13.4101 2.15203L6.66601 10.5946C6.55015 10.7196 6.41034 10.8198 6.25493 10.8894C6.09952 10.959 5.9317 10.9966 5.76149 10.9998C5.59127 11.003 5.42216 10.9718 5.26424 10.9081C5.10632 10.8445 4.96284 10.7496 4.84236 10.6291L0.370973 6.15325C0.133362 5.9152 -8.0624e-05 5.59237 3.65456e-08 5.2558C8.06971e-05 4.91922 0.133678 4.59646 0.371403 4.35852C0.609127 4.12058 0.931505 3.98695 1.26762 3.98703C1.60373 3.98711 1.92604 4.12089 2.16365 4.35895L5.69999 7.90104L11.5666 0.415443C11.5773 0.401822 11.5888 0.388877 11.601 0.37668L11.6002 0.375819Z" fill="#3EB9FE"/>
</svg>
