<svg width="17" height="13" viewBox="0 0 17 13" fill="none" xmlns="http://www.w3.org/2000/svg">
<path d="M13.5021 0.436286C13.7764 0.159748 14.1492 0.00290729 14.5389 4.00117e-05C14.9287 -0.00282727 15.3037 0.148512 15.5821 0.420984C15.8605 0.693455 16.0195 1.0649 16.0245 1.45415C16.0295 1.84339 15.88 2.21878 15.6087 2.49828L7.75893 12.2993C7.62408 12.4443 7.46135 12.5607 7.28046 12.6415C7.09958 12.7223 6.90424 12.7658 6.70612 12.7696C6.508 12.7733 6.31115 12.7371 6.12734 12.6632C5.94353 12.5893 5.77652 12.4791 5.63629 12.3393L0.431796 7.14327C0.155228 6.86692 -9.38427e-05 6.49215 4.25375e-08 6.10142C9.39278e-05 5.71069 0.155595 5.336 0.432296 5.05978C0.708997 4.78356 1.08423 4.62843 1.47545 4.62852C1.86667 4.62861 2.24183 4.78392 2.5184 5.06028L6.63453 9.17227L13.463 0.482286C13.4755 0.466473 13.4888 0.451445 13.5031 0.437286L13.5021 0.436286Z" fill="#67E5B5"/>
</svg>
