<svg width="131" height="131" viewBox="0 0 131 131" fill="none" xmlns="http://www.w3.org/2000/svg">
<g filter="url(#filter0_d)">
<path d="M103.635 61.7356C103.635 71.8111 99.6324 81.474 92.5079 88.5985C85.3834 95.723 75.7205 99.7255 65.6449 99.7255C55.5694 99.7255 45.9065 95.723 38.782 88.5985C31.6575 81.474 27.655 71.8111 27.655 61.7356C27.655 51.66 31.6575 41.9971 38.782 34.8726C45.9065 27.7481 55.5694 23.7456 65.6449 23.7456C75.7205 23.7456 85.3834 27.7481 92.5079 34.8726C99.6324 41.9971 103.635 51.66 103.635 61.7356ZM59.8989 47.931C59.5439 47.6782 59.1261 47.528 58.6914 47.4969C58.2567 47.4657 57.8218 47.5548 57.4344 47.7544C57.0469 47.954 56.7219 48.2564 56.4949 48.6285C56.2679 49.0005 56.1477 49.4279 56.1474 49.8637V73.6074C56.1477 74.0432 56.2679 74.4706 56.4949 74.8426C56.7219 75.2147 57.0469 75.5171 57.4344 75.7167C57.8218 75.9163 58.2567 76.0054 58.6914 75.9743C59.1261 75.9431 59.5439 75.7929 59.8989 75.5401L76.5195 63.6683C76.8273 63.4487 77.0782 63.1587 77.2513 62.8225C77.4244 62.4863 77.5147 62.1137 77.5147 61.7356C77.5147 61.3574 77.4244 60.9848 77.2513 60.6486C77.0782 60.3124 76.8273 60.0225 76.5195 59.8028L59.8989 47.931Z" fill="#EDF3FF"/>
</g>
<defs>
<filter id="filter0_d" x="0.654968" y="0.745605" width="129.98" height="129.98" filterUnits="userSpaceOnUse" color-interpolation-filters="sRGB">
<feFlood flood-opacity="0" result="BackgroundImageFix"/>
<feColorMatrix in="SourceAlpha" type="matrix" values="0 0 0 0 0 0 0 0 0 0 0 0 0 0 0 0 0 0 127 0"/>
<feOffset dy="4"/>
<feGaussianBlur stdDeviation="13.5"/>
<feColorMatrix type="matrix" values="0 0 0 0 0.401667 0 0 0 0 0.7128 0 0 0 0 1 0 0 0 0.29 0"/>
<feBlend mode="normal" in2="BackgroundImageFix" result="effect1_dropShadow"/>
<feBlend mode="normal" in="SourceGraphic" in2="effect1_dropShadow" result="shape"/>
</filter>
</defs>
</svg>
