<svg width="40" height="40" viewBox="0 0 40 40" fill="none" xmlns="http://www.w3.org/2000/svg">
<g clip-path="url(#clip0)">
<path d="M18 0H7C4.23858 0 2 2.23858 2 5V34C2 36.7614 4.23858 39 7 39H18C20.7614 39 23 36.7614 23 34V5C23 2.23858 20.7614 0 18 0Z" fill="#E3EAFF"/>
<path d="M19 20.4998C20.2 18.0998 30.6667 16.6666 32 17.9999C34.1667 20 39 30.0003 38 30.5C38 30.9 35 38.5 22.5 38.4999H16L13 36.9999L14 34.9999C16.5 34.3332 21.6 32.8999 22 32.4999C22.4 32.0999 18.1667 28.3332 16 26.4999L11.5 21.9999L11 18.9999L13 18.4999L16 19.4999C16.5 20.8332 17.8 22.8998 19 20.4998Z" fill="white"/>
<path d="M24.5309 6.20563V14.2735C24.5309 14.9716 23.9871 15.5147 23.2879 15.5147C22.5887 15.5147 22.0449 14.9716 22.0449 14.2735V6.20563C22.0449 4.18868 20.4134 2.63719 18.4712 2.63719H7.20624C5.26401 2.63719 3.63254 4.26626 3.63254 6.20563V33.512C3.63254 35.529 5.26401 37.0805 7.20624 37.0805H8.83772C9.53692 37.0805 10.0807 37.6235 10.0807 38.3217C10.0807 39.0198 9.53692 39.5629 8.83772 39.5629H7.20624C3.8656 39.5629 1.14648 36.8477 1.14648 33.512V6.20563C1.14648 2.86991 3.8656 0.154785 7.20624 0.154785H18.4712C21.8118 0.23236 24.5309 2.86991 24.5309 6.20563Z" fill="#3E7BFA" stroke="#3E7BFA" stroke-width="0.5" stroke-miterlimit="10"/>
<path d="M37.5046 22.5744L31.8333 16.3684C31.2118 15.7478 30.3572 15.4375 29.5027 15.4375C28.6481 15.4375 27.7935 15.7478 27.172 16.3684C26.9389 16.6011 26.7058 16.9114 26.5505 17.2993C25.3074 16.6011 23.7536 16.8338 22.666 17.9199C22.4329 18.1526 22.1999 18.4629 22.0445 18.8508C20.8015 18.1526 19.17 18.3853 18.16 19.4714C17.927 19.7041 17.7716 19.9368 17.6162 20.2471L15.3632 17.9975C14.1202 16.7563 12.0226 16.7563 10.7019 17.9975C10.0803 18.6181 9.76953 19.4714 9.76953 20.3247C9.76953 21.178 10.0803 22.0314 10.7019 22.652L20.413 32.1937L15.1301 33.047C13.2656 33.2797 11.8672 34.9088 11.8672 36.7706C11.8672 38.2445 13.0325 39.4081 14.5086 39.4081H28.6481C30.9787 39.4081 33.1539 38.4772 34.7854 36.8482L37.1161 34.5209C38.7476 32.8918 39.6799 30.7197 39.6799 28.3925C39.7576 26.2204 38.9807 24.2035 37.5046 22.5744ZM28.7257 37.0809H14.5863C14.4309 37.0809 14.2756 36.9257 14.2756 36.7706C14.2756 36.0724 14.8194 35.4518 15.5186 35.3742L23.0544 34.2106C23.5206 34.133 23.8313 33.8227 23.9867 33.4349C24.1421 33.047 23.9867 32.5815 23.676 32.2712L12.411 20.9453C12.2556 20.7902 12.1003 20.5574 12.1003 20.2471C12.1003 20.0144 12.178 19.7041 12.411 19.549C12.5664 19.3938 12.7995 19.2387 13.1102 19.2387C13.3433 19.2387 13.5764 19.3162 13.8094 19.549L21.3453 27.0737C21.5783 27.3065 21.8891 27.384 22.1999 27.384C22.5106 27.384 22.8214 27.2289 23.0544 27.0737C23.2875 26.841 23.3652 26.5307 23.3652 26.2204C23.3652 25.9101 23.2098 25.5998 23.0544 25.3671L20.0246 22.3417C19.6361 21.9538 19.6361 21.3332 20.0246 20.9453C20.1799 20.7902 20.413 20.635 20.7238 20.635C20.9568 20.635 21.1899 20.7126 21.423 20.9453L24.4529 23.9707C24.919 24.4362 25.6182 24.4362 26.0843 23.9707C26.3174 23.738 26.3951 23.4277 26.3951 23.1174C26.3951 22.8071 26.2397 22.4968 26.0843 22.2641L24.5305 20.7126C24.1421 20.3247 24.1421 19.7041 24.5305 19.3162C24.6859 19.1611 24.919 19.0059 25.2297 19.0059C25.4628 19.0059 25.6959 19.0835 25.9289 19.3162L27.405 20.7902L27.6381 21.0229C28.1042 21.3332 28.7258 21.3332 29.1142 20.8677C29.5803 20.4023 29.5803 19.7041 29.1142 19.2387L28.9981 19.3162C28.8427 19.1611 28.5704 19.0059 28.5704 18.6956C28.5704 18.4629 28.6481 18.2302 28.8811 17.9975C29.2696 17.6096 29.8911 17.6096 30.2019 17.9975L35.7955 24.1259C36.8831 25.2895 37.427 26.841 37.427 28.3925C37.427 30.0991 36.7277 31.6506 35.5624 32.8918L33.2317 35.2191C32.0664 36.4603 30.4348 37.0809 28.7257 37.0809Z" fill="#3E7BFA" stroke="#3E7BFA" stroke-width="0.5" stroke-miterlimit="10"/>
</g>
<defs>
<clipPath id="clip0">
<rect width="40" height="40" fill="white"/>
</clipPath>
</defs>
</svg>
