<svg width="39" height="40" viewBox="0 0 39 40" fill="none" xmlns="http://www.w3.org/2000/svg">
<g clip-path="url(#clip0)">
<path d="M23.5397 6.20587V14.2737C23.5397 14.9718 22.9959 15.5149 22.2967 15.5149C21.5975 15.5149 21.0537 14.9718 21.0537 14.2737V6.20587C21.0537 4.18892 19.4222 2.63743 17.48 2.63743H6.21504C4.2728 2.63743 2.64133 4.2665 2.64133 6.20587V33.5122C2.64133 35.5292 4.2728 37.0807 6.21504 37.0807H7.84651C8.54571 37.0807 9.08954 37.6237 9.08954 38.3219C9.08954 39.02 8.54571 39.5631 7.84651 39.5631H6.21504C2.8744 39.5631 0.155273 36.8479 0.155273 33.5122V6.20587C0.155273 2.87015 2.8744 0.155029 6.21504 0.155029H17.48C20.8206 0.232604 23.5397 2.87015 23.5397 6.20587Z" fill="#3E7BFA" stroke="#3E7BFA" stroke-width="0.5" stroke-miterlimit="10"/>
<path d="M36.5139 22.5744L30.8426 16.3684C30.221 15.7478 29.3665 15.4375 28.5119 15.4375C27.6573 15.4375 26.8027 15.7478 26.1812 16.3684C25.9481 16.6011 25.7151 16.9114 25.5597 17.2993C24.3167 16.6011 22.7629 16.8338 21.6752 17.9199C21.4422 18.1526 21.2091 18.4629 21.0537 18.8508C19.8107 18.1526 18.1792 18.3853 17.1692 19.4714C16.9362 19.7041 16.7808 19.9368 16.6254 20.2471L14.3724 17.9975C13.1294 16.7563 11.0318 16.7563 9.71108 17.9975C9.08957 18.6181 8.77881 19.4714 8.77881 20.3247C8.77881 21.178 9.08957 22.0314 9.71108 22.652L19.4222 32.1937L14.1394 33.047C12.2748 33.2797 10.8764 34.9088 10.8764 36.7706C10.8764 38.2445 12.0418 39.4081 13.5179 39.4081H27.6573C29.988 39.4081 32.1633 38.4772 33.7947 36.8482L36.1254 34.5209C37.7569 32.8918 38.6892 30.7197 38.6892 28.3925C38.7669 26.2204 37.99 24.2035 36.5139 22.5744ZM27.735 37.0809H13.5955C13.4402 37.0809 13.2848 36.9257 13.2848 36.7706C13.2848 36.0724 13.8286 35.4518 14.5278 35.3742L22.0637 34.2106C22.5298 34.133 22.8406 33.8227 22.9959 33.4349C23.1513 33.047 22.9959 32.5815 22.6852 32.2712L11.4202 20.9453C11.2649 20.7902 11.1095 20.5574 11.1095 20.2471C11.1095 20.0144 11.1872 19.7041 11.4202 19.549C11.5756 19.3938 11.8087 19.2387 12.1194 19.2387C12.3525 19.2387 12.5856 19.3162 12.8186 19.549L20.3545 27.0737C20.5876 27.3065 20.8983 27.384 21.2091 27.384C21.5198 27.384 21.8306 27.2289 22.0637 27.0737C22.2967 26.841 22.3744 26.5307 22.3744 26.2204C22.3744 25.9101 22.219 25.5998 22.0637 25.3671L19.0338 22.3417C18.6453 21.9538 18.6453 21.3332 19.0338 20.9453C19.1892 20.7902 19.4222 20.635 19.733 20.635C19.9661 20.635 20.1991 20.7126 20.4322 20.9453L23.4621 23.9707C23.9282 24.4362 24.6274 24.4362 25.0935 23.9707C25.3266 23.738 25.4043 23.4277 25.4043 23.1174C25.4043 22.8071 25.2489 22.4968 25.0935 22.2641L23.5398 20.7126C23.1513 20.3247 23.1513 19.7041 23.5398 19.3162C23.6951 19.1611 23.9282 19.0059 24.239 19.0059C24.472 19.0059 24.7051 19.0835 24.9382 19.3162L26.4143 20.7902L26.6473 21.0229C27.1135 21.3332 27.735 21.3332 28.1234 20.8677C28.5896 20.4023 28.5896 19.7041 28.1234 19.2387L27.8904 19.3938C27.735 19.2387 27.5796 19.0059 27.5796 18.6956C27.5796 18.4629 27.6573 18.2302 27.8904 17.9975C28.2788 17.6096 28.9003 17.6096 29.2111 17.9975L34.8047 24.1259C35.8923 25.2895 36.4362 26.841 36.4362 28.3925C36.4362 30.0991 35.737 31.6506 34.5716 32.8918L32.241 35.2191C31.0756 36.4603 29.4441 37.0809 27.735 37.0809Z" fill="#3E7BFA" stroke="#3E7BFA" stroke-width="0.5" stroke-miterlimit="10"/>
</g>
<defs>
<clipPath id="clip0">
<rect width="39" height="39.7959" fill="white"/>
</clipPath>
</defs>
</svg>
