<svg width="40" height="40" viewBox="0 0 40 40" fill="none" xmlns="http://www.w3.org/2000/svg">
<path d="M31.5451 11.5622C31.5451 5.18675 26.3608 0 19.989 0C13.6169 0 8.43292 5.18675 8.43292 11.5622C8.43292 15.5111 10.4224 19.0035 13.4503 21.0902C10.6232 22.0664 8.03162 23.6788 5.85449 25.8571C2.07916 29.6344 0 34.6569 0 39.9988H3.12317C3.12317 30.6943 10.6891 23.1244 19.989 23.1244C26.3608 23.1244 31.5451 17.9376 31.5451 11.5622ZM19.989 19.9995C15.3391 19.9995 11.5561 16.2146 11.5561 11.5622C11.5561 6.90977 15.3391 3.12481 19.989 3.12481C24.6387 3.12481 28.4216 6.90977 28.4216 11.5622C28.4216 16.2146 24.6387 19.9995 19.989 19.9995ZM40 28.7493L32.6492 36.1039L30.4407 33.8942L34.0994 30.2335H31.3907C27.6486 30.2335 24.6014 33.2799 24.5984 37.0239L24.5956 40L21.4725 39.9976L21.4749 37.0211C21.4795 31.5553 25.9277 27.1084 31.3907 27.1084H33.9432L30.4407 23.604L32.6492 21.3946L40 28.7493Z" fill="#3E7BFA"/>
</svg>
