<svg width="42" height="40" viewBox="0 0 42 40" fill="none" xmlns="http://www.w3.org/2000/svg">
<path d="M39.6552 20C39.6552 29.7778 31.7285 37.7045 21.9506 37.7045C12.1728 37.7045 4.24609 29.7778 4.24609 20C4.24609 10.2221 12.1728 2.29541 21.9506 2.29541C31.7285 2.29541 39.6552 10.2221 39.6552 20Z" fill="#E3EAFF"/>
<path d="M2.29545 21.6983H27.3407C28.1938 21.6983 28.8861 21.006 28.8861 20.1529C28.8861 19.2997 28.1938 18.6074 27.3407 18.6074H2.29545C1.44229 18.6074 0.75 19.2997 0.75 20.1529C0.75 21.006 1.44229 21.6983 2.29545 21.6983Z" fill="#3E7BFA" stroke="#3E7BFA" stroke-width="0.5"/>
<path d="M25.1559 20.1513L19.339 25.9678L19.3389 25.9679C18.7354 26.5718 18.7353 27.5503 19.3388 28.154C19.6403 28.4572 20.0365 28.6073 20.4314 28.6073C20.8265 28.6073 21.2225 28.4571 21.5255 28.1521C21.5257 28.152 21.5258 28.1518 21.526 28.1516L28.4343 21.2434C29.0379 20.6397 29.0379 19.661 28.4343 19.0573L21.5253 12.1481L21.5253 12.1481C20.9216 11.5444 19.943 11.5444 19.339 12.148L19.339 12.1481C18.7353 12.7517 18.7353 13.7307 19.339 14.3344L25.1559 20.1513Z" fill="#3E7BFA" stroke="#3E7BFA" stroke-width="0.5"/>
<path d="M4.90692 25.0387L4.90609 25.0391C4.11327 25.352 3.72134 26.2497 4.03467 27.042C6.95508 34.4578 13.9872 39.25 21.951 39.25C32.5649 39.25 41.201 30.6139 41.201 20C41.201 9.38607 32.5649 0.75 21.951 0.75C13.9873 0.75 6.95523 5.54205 4.03477 12.9578C3.72126 13.7501 4.11319 14.648 4.90609 14.9609L4.90692 14.9613C5.6976 15.2701 6.59569 14.8852 6.91102 14.0878L6.91115 14.0875C9.36261 7.86293 15.2657 3.84089 21.951 3.84089C30.8602 3.84089 38.1101 11.0908 38.1101 20C38.1101 28.9092 30.8602 36.1591 21.951 36.1591C15.2657 36.1591 9.36268 32.1371 6.9112 25.9126C6.59769 25.1143 5.69712 24.7301 4.90692 25.0387Z" fill="#3E7BFA" stroke="#3E7BFA" stroke-width="0.5"/>
</svg>
