<svg width="158" height="40" viewBox="0 0 158 40" fill="none" xmlns="http://www.w3.org/2000/svg">
<path d="M49.1399 26.4312H52.994V15.8198H57.1596V12.7516H44.9549V15.8198H49.1399V26.4312Z" fill="#48508A"/>
<path d="M63.3459 26.7048C67.3947 26.7048 69.3801 24.6724 69.3801 22.2882C69.3801 17.2463 61.6524 18.8097 61.6524 16.7187C61.6524 16.0347 62.2364 15.4875 63.852 15.4875C65.0394 15.4875 66.3241 15.8393 67.6283 16.5428L68.8157 13.6701C67.4725 12.8884 65.6428 12.478 63.8715 12.478C59.8227 12.478 57.8372 14.4713 57.8372 16.9141C57.8372 21.9951 65.5844 20.4122 65.5844 22.5814C65.5844 23.2458 64.9615 23.6953 63.3654 23.6953C61.7887 23.6953 60.0758 23.1481 58.8689 22.3469L57.6037 25.2C58.8884 26.099 61.1074 26.7048 63.3459 26.7048Z" fill="#48508A"/>
<path d="M73.8707 26.4312H77.7248V15.8198H81.8904V12.7516H69.6857V15.8198H73.8707V26.4312Z" fill="#48508A"/>
<path d="M93.7794 26.7048C97.8282 26.7048 99.8136 24.6724 99.8136 22.2882C99.8136 17.2463 92.0859 18.8097 92.0859 16.7187C92.0859 16.0347 92.6699 15.4875 94.2855 15.4875C95.4729 15.4875 96.7576 15.8393 98.0617 16.5428L99.2491 13.6701C97.906 12.8884 96.0763 12.478 94.305 12.478C90.2562 12.478 88.2707 14.4713 88.2707 16.9141C88.2707 21.9951 96.0179 20.4122 96.0179 22.5814C96.0179 23.2458 95.395 23.6953 93.7989 23.6953C92.2222 23.6953 90.5092 23.1481 89.3024 22.3469L88.0371 25.2C89.3218 26.099 91.5409 26.7048 93.7794 26.7048Z" fill="#48508A"/>
<path d="M111.794 26.4312H115.804L109.769 12.7516H105.974L99.9588 26.4312H103.891L104.961 23.7735H110.723L111.794 26.4312ZM106.09 20.9203L107.842 16.5428L109.594 20.9203H106.09Z" fill="#48508A"/>
<path d="M116.896 26.4312H127.252V23.3631H120.75V12.7516H116.896V26.4312Z" fill="#48508A"/>
<path d="M134.931 26.7048C138.96 26.7048 141.335 24.4183 141.335 20.334V12.7516H137.539V20.2168C137.539 22.5618 136.566 23.4999 134.97 23.4999C133.354 23.4999 132.381 22.5618 132.381 20.2168V12.7516H128.527V20.334C128.527 24.4183 130.902 26.7048 134.931 26.7048Z" fill="#48508A"/>
<path d="M143.946 26.4312H150.389C154.905 26.4312 158 23.793 158 19.5914C158 15.3898 154.905 12.7516 150.389 12.7516H143.946V26.4312ZM147.8 23.3435V15.8393H150.233C152.55 15.8393 154.107 17.2268 154.107 19.5914C154.107 21.956 152.55 23.3435 150.233 23.3435H147.8Z" fill="#48508A"/>
<path d="M13.5502 6.08021C15.1812 6.08021 16.5034 4.71911 16.5034 3.04011C16.5034 1.3611 15.1812 0 13.5502 0C11.9192 0 10.5969 1.3611 10.5969 3.04011C10.5969 4.71911 11.9192 6.08021 13.5502 6.08021Z" fill="#6E7DEC"/>
<path d="M11.4658 8.85962C11.4658 8.85962 53.6798 16.5237 11.4658 29.7061C11.4658 29.7061 33.7243 18.8729 11.4658 8.85962Z" fill="#6E7DEC"/>
<path d="M16.5034 17.7195C16.5034 17.7195 -20.6293 25.5856 16.5034 39.0871C16.5034 39.0871 -3.07539 28.0027 16.5034 17.7195Z" fill="#6E7DEC"/>
</svg>
