<svg width="207" height="39" viewBox="0 0 207 39" fill="none" xmlns="http://www.w3.org/2000/svg">
<path d="M59.6642 28.8848H64.8805V14.5228H70.5184V10.3703H54V14.5228H59.6642V28.8848Z" fill="white"/>
<path d="M78.8912 29.2551C84.371 29.2551 87.0582 26.5044 87.0582 23.2776C87.0582 16.4536 76.5992 18.5696 76.5992 15.7395C76.5992 14.8138 77.3895 14.0732 79.5762 14.0732C81.1832 14.0732 82.922 14.5493 84.6871 15.5015L86.2942 11.6134C84.4763 10.5554 81.9999 10 79.6025 10C74.1227 10 71.4355 12.6978 71.4355 16.004C71.4355 22.8808 81.9209 20.7384 81.9209 23.6743C81.9209 24.5736 81.0778 25.1819 78.9175 25.1819C76.7836 25.1819 74.4652 24.4413 72.8318 23.3569L71.1194 27.2185C72.8582 28.4352 75.8615 29.2551 78.8912 29.2551Z" fill="white"/>
<path d="M93.1359 28.8848H98.3522V14.5228H103.99V10.3703H87.4717V14.5228H93.1359V28.8848Z" fill="white"/>
<path d="M120.081 29.2551C125.561 29.2551 128.248 26.5044 128.248 23.2776C128.248 16.4536 117.789 18.5696 117.789 15.7395C117.789 14.8138 118.579 14.0732 120.766 14.0732C122.373 14.0732 124.112 14.5493 125.877 15.5015L127.484 11.6134C125.666 10.5554 123.19 10 120.792 10C115.313 10 112.625 12.6978 112.625 16.004C112.625 22.8808 123.111 20.7384 123.111 23.6743C123.111 24.5736 122.268 25.1819 120.107 25.1819C117.974 25.1819 115.655 24.4413 114.022 23.3569L112.309 27.2185C114.048 28.4352 117.051 29.2551 120.081 29.2551Z" fill="white"/>
<path d="M144.462 28.8848H149.89L141.723 10.3703H136.585L128.445 28.8848H133.766L135.215 25.2877H143.014L144.462 28.8848ZM136.743 21.4261L139.114 15.5015L141.485 21.4261H136.743Z" fill="white"/>
<path d="M151.368 28.8848H165.384V24.7323H156.585V10.3703H151.368V28.8848Z" fill="white"/>
<path d="M175.778 29.2551C181.231 29.2551 184.445 26.1605 184.445 20.6326V10.3703H179.308V20.4739C179.308 23.6478 177.991 24.9174 175.83 24.9174C173.644 24.9174 172.326 23.6478 172.326 20.4739V10.3703H167.11V20.6326C167.11 26.1605 170.324 29.2551 175.778 29.2551Z" fill="white"/>
<path d="M187.979 28.8848H196.699C202.811 28.8848 207 25.3142 207 19.6276C207 13.9409 202.811 10.3703 196.699 10.3703H187.979V28.8848ZM193.195 24.7058V14.5493H196.488C199.623 14.5493 201.731 16.4272 201.731 19.6276C201.731 22.8279 199.623 24.7058 196.488 24.7058H193.195Z" fill="white"/>
<circle cx="19.3283" cy="19.3283" r="19.3283" fill="#3E6AFE"/>
<path d="M18.6778 10.3655C19.6465 10.3655 20.4318 9.55005 20.4318 8.5441C20.4318 7.53814 19.6465 6.72266 18.6778 6.72266C17.7091 6.72266 16.9238 7.53814 16.9238 8.5441C16.9238 9.55005 17.7091 10.3655 18.6778 10.3655Z" fill="white"/>
<path d="M17.3291 12.9292C17.3291 12.9292 44.9543 17.6127 17.3291 25.6683C17.3291 25.6683 31.8953 19.0483 17.3291 12.9292Z" fill="white"/>
<path d="M19.7576 18.7861C19.7576 18.7861 -4.5283 23.5836 19.7576 31.8181C19.7576 31.8181 6.95247 25.0578 19.7576 18.7861Z" fill="white"/>
</svg>
