<svg id="Capa_1" data-name="Capa 1" xmlns="http://www.w3.org/2000/svg" viewBox="0 0 66 66"><defs><style>.cls-1{fill:#e3eaff;}.cls-2{fill:#3e6afe;}</style></defs><title>medal</title><rect class="cls-1" width="66" height="66" rx="20" ry="20"/><path class="cls-2" d="M50.49,48.7,43.23,36.13a14.32,14.32,0,1,0-19.91,0L16.06,48.7a.84.84,0,0,0,1,1.24l5.6-1.51L24.1,54a.83.83,0,0,0,.7.62h.11a.84.84,0,0,0,.73-.42L33.28,41l7.63,13.22a.84.84,0,0,0,.73.42h.11a.83.83,0,0,0,.7-.62l1.49-5.6,5.6,1.51a.84.84,0,0,0,1-1.24ZM20.65,25.86A12.63,12.63,0,1,1,33.28,38.49,12.64,12.64,0,0,1,20.65,25.86ZM25.2,51.63,24,47.18a.77.77,0,0,0-.39-.51.89.89,0,0,0-.64-.09l-4.44,1.2,6.08-10.53a14.26,14.26,0,0,0,7.23,2.85Zm18.37-5.05a.89.89,0,0,0-.64.09.77.77,0,0,0-.39.51l-1.19,4.45L34.7,40.1a14.26,14.26,0,0,0,7.23-2.85L48,47.78Z"/><path class="cls-2" d="M41.64,54.8a1,1,0,0,1-.86-.49l-7.5-13-7.51,13a1,1,0,0,1-.86.49h-.13a1,1,0,0,1-.83-.72L22.5,48.61l-5.45,1.47a1.09,1.09,0,0,1-.26,0,1,1,0,0,1-.86-1.48l7.2-12.47a14.47,14.47,0,1,1,20.29,0l7.2,12.47a1,1,0,0,1-.08,1.1,1,1,0,0,1-.78.38,1.09,1.09,0,0,1-.26,0l-5.45-1.47L42.6,54.07a1,1,0,0,1-.83.72ZM23.2,46.4a1,1,0,0,1,.5.14,1,1,0,0,1,.46.6l1.09,4.1,6.36-11a14.4,14.4,0,0,1-6.95-2.76L18.85,47.54l4.09-1.1A1.17,1.17,0,0,1,23.2,46.4Zm18.1,4.84,1.09-4.1a1,1,0,0,1,.46-.6,1,1,0,0,1,.5-.14,1.17,1.17,0,0,1,.26,0l4.09,1.1L41.89,37.47a14.4,14.4,0,0,1-7,2.76Zm-8-37.86A12.48,12.48,0,1,0,45.75,25.86,12.5,12.5,0,0,0,33.28,13.38Z"/><path class="cls-2" d="M33.28,11.55a14.3,14.3,0,0,1,9.95,24.58L50.49,48.7a.87.87,0,0,1-.06.94.85.85,0,0,1-.67.32.82.82,0,0,1-.22,0l-5.6-1.51L42.45,54a.83.83,0,0,1-.7.62h-.11a.84.84,0,0,1-.73-.42L33.28,41,25.64,54.23a.84.84,0,0,1-.73.42H24.8a.83.83,0,0,1-.7-.62l-1.49-5.6L17,49.94a.78.78,0,0,1-.22,0,.85.85,0,0,1-.67-.32.87.87,0,0,1-.06-.94l7.26-12.57a14.3,14.3,0,0,1,10-24.58m0,26.94A12.63,12.63,0,1,0,20.65,25.86,12.64,12.64,0,0,0,33.28,38.49m8.07,13.14,1.19-4.45a.77.77,0,0,1,.39-.51.79.79,0,0,1,.42-.12.83.83,0,0,1,.22,0L48,47.78,41.93,37.25A14.26,14.26,0,0,1,34.7,40.1l6.65,11.53M18.54,47.78,23,46.58a.83.83,0,0,1,.22,0,.79.79,0,0,1,.42.12.77.77,0,0,1,.39.51l1.19,4.45L31.85,40.1a14.26,14.26,0,0,1-7.23-2.85L18.54,47.78M33.28,11.25A14.6,14.6,0,0,0,22.94,36.18L15.8,48.55a1.14,1.14,0,0,0,1,1.71,1.53,1.53,0,0,0,.3,0l5.3-1.43,1.42,5.3a1.13,1.13,0,0,0,1,.84h.15a1.14,1.14,0,0,0,1-.57l7.38-12.77,7.37,12.77a1.14,1.14,0,0,0,1,.57h.15a1.13,1.13,0,0,0,1-.84l1.42-5.3,5.3,1.43a1.53,1.53,0,0,0,.3,0,1.14,1.14,0,0,0,1-1.71L43.61,36.18A14.6,14.6,0,0,0,33.28,11.25Zm0,26.94A12.33,12.33,0,1,1,45.6,25.86,12.34,12.34,0,0,1,33.28,38.19Zm1.91,2.16a14.59,14.59,0,0,0,6.65-2.66l5.55,9.61-3.74-1a1.54,1.54,0,0,0-.3,0,1.14,1.14,0,0,0-.57.16,1.08,1.08,0,0,0-.53.69l-1,3.75-6.06-10.5Zm-16,6.95,5.55-9.61a14.58,14.58,0,0,0,6.66,2.66L25.3,50.85l-1-3.75a1.08,1.08,0,0,0-.53-.69,1.14,1.14,0,0,0-.57-.16,1.54,1.54,0,0,0-.3,0l-3.74,1Z"/><path class="cls-2" d="M28,24.14a1.53,1.53,0,0,0,.38,1.56L29.73,27l-.32,1.85A1.52,1.52,0,0,0,30,30.34a1.46,1.46,0,0,0,1.59.12l1.67-.88,1.66.88a1.52,1.52,0,0,0,1.6-.12,1.5,1.5,0,0,0,.6-1.48L36.82,27l1.35-1.31a1.53,1.53,0,0,0,.38-1.56,1.51,1.51,0,0,0-1.22-1l-1.86-.27-.84-1.68a1.5,1.5,0,0,0-1.36-.85h0a1.49,1.49,0,0,0-1.35.85l-.84,1.68-1.86.27a1.52,1.52,0,0,0-1.22,1Zm3.76.3A.83.83,0,0,0,32.4,24l.87-1.77L34.15,24a.83.83,0,0,0,.64.46l2,.29-1.42,1.38a.83.83,0,0,0-.24.75l.33,1.95-1.75-.92a.85.85,0,0,0-.79,0l-1.75.92.34-1.95a.87.87,0,0,0-.25-.75L29.8,24.73Z"/><path class="cls-2" d="M33.28,36.62a10.76,10.76,0,0,1-4.09-20.71,1,1,0,1,1,.75,1.83,8.78,8.78,0,1,0,6.68,0,1,1,0,0,1-.53-.54.92.92,0,0,1,0-.76,1,1,0,0,1,.91-.61,1,1,0,0,1,.38.08,10.76,10.76,0,0,1-4.1,20.7Z"/><path class="cls-2" d="M29.57,16a.86.86,0,0,1,.78.52.85.85,0,0,1-.46,1.1,8.93,8.93,0,1,0,6.79,0A.84.84,0,0,1,37,16a.87.87,0,0,1,.32.06,10.62,10.62,0,1,1-8.07,0,.71.71,0,0,1,.32-.07m0-.3a1.12,1.12,0,0,0-.44.09,10.91,10.91,0,1,0,8.31,0,1.12,1.12,0,0,0-.44-.09,1.14,1.14,0,0,0-.43,2.2,8.62,8.62,0,1,1-6.57,0,1.14,1.14,0,0,0,.62-1.49,1.13,1.13,0,0,0-1.05-.71Z"/><path class="cls-2" d="M33.29,17.09a1.05,1.05,0,0,1-.71-.29,1,1,0,0,1,.71-1.7,1,1,0,0,1,1,1,1,1,0,0,1-1,1Z"/><path class="cls-2" d="M33.29,15.25a.85.85,0,1,1-.6.25.83.83,0,0,1,.6-.25m0-.3a1.17,1.17,0,0,0-.81.34,1.12,1.12,0,0,0,0,1.61,1.13,1.13,0,0,0,.81.34,1.16,1.16,0,0,0,1.14-1.14,1.13,1.13,0,0,0-.34-.81,1.15,1.15,0,0,0-.8-.34Z"/></svg>