<svg width="29" height="25" viewBox="0 0 29 25" fill="none" xmlns="http://www.w3.org/2000/svg">
<path d="M26.2812 12.5H21.75V8.92857C21.75 6.97545 23.3359 5.35714 25.375 5.35714H25.8281C26.5645 5.35714 27.1875 4.79911 27.1875 4.01786V1.33929C27.1875 0.613839 26.5645 0 25.8281 0H25.375C20.334 0 16.3125 4.01786 16.3125 8.92857V22.3214C16.3125 23.8281 17.502 25 19.0312 25H26.2812C27.7539 25 29 23.8281 29 22.3214V15.1786C29 13.7277 27.7539 12.5 26.2812 12.5ZM9.96875 12.5H5.4375V8.92857C5.4375 6.97545 7.02344 5.35714 9.0625 5.35714H9.51562C10.252 5.35714 10.875 4.79911 10.875 4.01786V1.33929C10.875 0.613839 10.252 0 9.51562 0H9.0625C4.02148 0 0 4.01786 0 8.92857V22.3214C0 23.8281 1.18945 25 2.71875 25H9.96875C11.4414 25 12.6875 23.8281 12.6875 22.3214V15.1786C12.6875 13.7277 11.4414 12.5 9.96875 12.5Z" fill="#1565D8"/>
</svg>
