<svg width="42" height="42" viewBox="0 0 42 42" fill="none" xmlns="http://www.w3.org/2000/svg">
<path d="M30.6249 41.2561C24.7624 41.2561 19.9937 36.4874 19.9937 30.6249C19.9937 24.7624 24.7624 19.9937 30.6249 19.9937C36.4874 19.9937 41.2561 24.7624 41.2561 30.6249C41.2561 36.4874 36.4874 41.2561 30.6249 41.2561Z" fill="#E3EAFF"/>
<path d="M30.6255 41.9997C24.3535 41.9997 19.2505 36.8967 19.2505 30.6247C19.2505 24.3528 24.3535 19.2498 30.6255 19.2498C36.8975 19.2498 42.0005 24.3528 42.0005 30.6247C42.0005 36.8967 36.8975 41.9997 30.6255 41.9997ZM30.6255 21.8748C25.8007 21.8748 21.8755 25.8 21.8755 30.6247C21.8755 35.4495 25.8007 39.3747 30.6255 39.3747C35.4502 39.3747 39.3755 35.4495 39.3755 30.6247C39.3755 25.8 35.4502 21.8748 30.6255 21.8748Z" fill="#3E7BFA"/>
<path d="M28.8746 35.4373C28.5263 35.4373 28.1921 35.299 27.9471 35.0523L24.4471 31.5523C23.9343 31.0395 23.9343 30.2083 24.4471 29.6955C24.9598 29.1828 25.7911 29.1828 26.3038 29.6955L28.8116 32.2033L34.0126 26.2603C34.4903 25.7143 35.3181 25.6618 35.8641 26.1378C36.4101 26.6138 36.4661 27.445 35.9883 27.991L29.8633 34.991C29.6236 35.264 29.2823 35.4268 28.9183 35.439C28.9043 35.4373 28.8886 35.4373 28.8746 35.4373Z" fill="#3E7BFA"/>
<path d="M16.0825 36.75H4.8125C2.1595 36.75 0 34.5922 0 31.9375V10.0625C0 7.40775 2.1595 5.25 4.8125 5.25H8.10249C8.82699 5.25 9.41499 5.838 9.41499 6.5625C9.41499 7.287 8.82699 7.875 8.10249 7.875H4.8125C3.60675 7.875 2.625 8.85675 2.625 10.0625V31.9375C2.625 33.1432 3.60675 34.125 4.8125 34.125H16.0825C16.807 34.125 17.395 34.713 17.395 35.4375C17.395 36.162 16.807 36.75 16.0825 36.75Z" fill="#3E7BFA"/>
<path d="M28.437 16.7825C27.7125 16.7825 27.1245 16.1945 27.1245 15.47V10.0625C27.1245 8.85675 26.1428 7.875 24.937 7.875H21.6645C20.9401 7.875 20.3521 7.287 20.3521 6.5625C20.3521 5.838 20.9401 5.25 21.6645 5.25H24.937C27.59 5.25 29.7495 7.40775 29.7495 10.0625V15.47C29.7495 16.1945 29.1615 16.7825 28.437 16.7825Z" fill="#3E7BFA"/>
<path d="M19.687 11.375H10.062C8.37326 11.375 6.99951 10.0012 6.99951 8.31249V4.8125C6.99951 4.088 7.58751 3.5 8.31201 3.5H10.244C10.8163 1.48225 12.6765 0 14.8745 0C17.0725 0 18.9328 1.48225 19.505 3.5H21.437C22.1615 3.5 22.7495 4.088 22.7495 4.8125V8.31249C22.7495 10.0012 21.3758 11.375 19.687 11.375ZM9.62451 6.125V8.31249C9.62451 8.55399 9.82051 8.74999 10.062 8.74999H19.687C19.9285 8.74999 20.1245 8.55399 20.1245 8.31249V6.125H18.3745C17.65 6.125 17.062 5.537 17.062 4.8125C17.062 3.60675 16.0803 2.625 14.8745 2.625C13.6688 2.625 12.687 3.60675 12.687 4.8125C12.687 5.537 12.099 6.125 11.3745 6.125H9.62451Z" fill="#3E7BFA"/>
<path d="M23.1875 16.6248H6.5625C5.838 16.6248 5.25 16.0368 5.25 15.3123C5.25 14.5878 5.838 13.9998 6.5625 13.9998H23.1875C23.912 13.9998 24.5 14.5878 24.5 15.3123C24.5 16.0368 23.912 16.6248 23.1875 16.6248Z" fill="#3E7BFA"/>
<path d="M19.11 21.8748H6.5625C5.838 21.8748 5.25 21.2868 5.25 20.5623C5.25 19.8378 5.838 19.2498 6.5625 19.2498H19.11C19.8345 19.2498 20.4225 19.8378 20.4225 20.5623C20.4225 21.2868 19.8345 21.8748 19.11 21.8748Z" fill="#3E7BFA"/>
<path d="M16.0825 27.1248H6.5625C5.838 27.1248 5.25 26.5368 5.25 25.8123C5.25 25.0878 5.838 24.4998 6.5625 24.4998H16.0825C16.807 24.4998 17.395 25.0878 17.395 25.8123C17.395 26.5368 16.807 27.1248 16.0825 27.1248Z" fill="#3E7BFA"/>
</svg>
