<svg width="50" height="42" viewBox="0 0 50 42" fill="none" xmlns="http://www.w3.org/2000/svg">
<path d="M38.9049 10.927C40.5061 13.9016 41.3563 17.2441 41.3563 20.7178C41.3563 26.2443 39.2054 31.4397 35.2999 35.3477C31.3944 39.2554 26.2014 41.3793 20.6783 41.3793C15.1548 41.3793 9.9622 39.2554 6.05637 35.3477C2.15086 31.4397 0 26.2443 0 20.7178C0 15.1916 2.15086 9.99579 6.05637 6.08813C9.9622 2.18047 15.1548 0 20.6783 0C22.8651 0 24.9999 0.367044 27.0238 1.01711L24.384 3.65875C23.189 3.3991 21.9496 3.26107 20.6783 3.26107C11.0577 3.26107 3.23086 11.0922 3.23086 20.7178C3.23086 25.1213 4.86997 29.149 7.56825 32.2234C8.50714 28.0201 11.4185 24.554 15.2764 22.8518C13.6657 21.3824 12.6532 19.267 12.6532 16.9194C12.6532 12.4921 16.2531 8.88992 20.6783 8.88992C25.1031 8.88992 28.703 12.4918 28.703 16.9194C28.703 19.267 27.6909 21.3824 26.0802 22.8518C29.9377 24.554 32.8494 28.0201 33.788 32.2234C36.4866 29.1487 38.1254 25.1213 38.1254 20.7178C38.1254 18.084 37.5382 15.5848 36.4898 13.3434L38.9049 10.927ZM20.6783 21.7159C23.3216 21.7159 25.4722 19.5642 25.4722 16.9194C25.4722 14.2743 23.3216 12.1226 20.6783 12.1226C18.0346 12.1226 15.8841 14.2743 15.8841 16.9194C15.8841 19.5642 18.0346 21.7159 20.6783 21.7159ZM20.6783 38.1748C24.4825 38.1748 28.0057 36.9492 30.876 34.8733C30.7257 29.3752 26.209 24.9486 20.6783 24.9486C15.1476 24.9486 10.6305 29.3752 10.4806 34.8733C13.3509 36.9492 16.8738 38.1748 20.6783 38.1748Z" fill="#3E7BFA"/>
<circle cx="33.6209" cy="5.17214" r="2.58621" fill="#3E7BFA"/>
<circle cx="40.5174" cy="5.17214" r="2.58621" fill="#3E7BFA"/>
<circle cx="47.4138" cy="5.17214" r="2.58621" fill="#3E7BFA"/>
</svg>
