<svg width="20" height="16" viewBox="0 0 20 16" fill="none" xmlns="http://www.w3.org/2000/svg">
<path d="M6.28982 16C13.8373 16 17.9648 9.84491 17.9648 4.50777C17.9648 4.3329 17.9612 4.15892 17.953 3.98561C18.7541 3.41554 19.4507 2.70395 20 1.89429C19.2648 2.21582 18.4737 2.43234 17.6436 2.52997C18.4907 2.02998 19.1413 1.23867 19.4482 0.295562C18.6552 0.758386 17.7771 1.0947 16.8427 1.27607C16.0936 0.491037 15.0272 0 13.8473 0C11.581 0 9.7433 1.80898 9.7433 4.03868C9.7433 4.35574 9.77947 4.66384 9.84953 4.95963C6.4395 4.79102 3.41549 3.18356 1.3919 0.739802C1.03909 1.33652 0.835959 2.0302 0.835959 2.76978C0.835959 4.17101 1.56046 5.40812 2.6621 6.13202C1.98901 6.11165 1.35664 5.92938 0.803658 5.62666C0.802748 5.64345 0.802748 5.66047 0.802748 5.67816C0.802748 7.63447 2.21739 9.26767 4.09472 9.6378C3.7501 9.73027 3.38751 9.77998 3.01309 9.77998C2.74877 9.77998 2.49173 9.75401 2.24173 9.70721C2.76401 11.3118 4.27897 12.4797 6.07509 12.5126C4.67045 13.5961 2.90117 14.2416 0.978811 14.2416C0.64784 14.2416 0.32119 14.223 0 14.1856C1.81591 15.3312 3.97211 16 6.28982 16Z" fill="#DEE6FD"/>
</svg>
