<svg width="41" height="41" viewBox="0 0 41 41" fill="none" xmlns="http://www.w3.org/2000/svg">
<path d="M25.828 6.48645L28.0918 4.22144L32.0935 8.22535L38.7362 1.57866L41 3.84367L32.0935 12.7551L25.828 6.48645ZM38.5482 10.8268C40.1348 13.7741 40.9772 17.086 40.9772 20.5279C40.9772 26.0037 38.846 31.1515 34.9763 35.0237C31.1066 38.8955 25.9613 41 20.4887 41C15.0159 41 9.87088 38.8955 6.00085 35.0237C2.13114 31.1515 0 26.0037 0 20.5279C0 15.0523 2.13114 9.90416 6.00085 6.03232C9.87088 2.16048 15.0159 0 20.4887 0C22.6555 0 24.7707 0.363679 26.7761 1.00779L24.1604 3.62521C22.9765 3.36795 21.7484 3.23118 20.4887 3.23118C10.9563 3.23118 3.20125 10.9905 3.20125 20.5279C3.20125 24.8911 4.82533 28.8818 7.49888 31.928C8.42916 27.7633 11.3139 24.329 15.1363 22.6423C13.5404 21.1864 12.5372 19.0904 12.5372 16.7643C12.5372 12.3776 16.1041 8.80843 20.4887 8.80843C24.873 8.80843 28.4399 12.3773 28.4399 16.7643C28.4399 19.0904 27.4371 21.1864 25.8411 22.6423C29.6633 24.329 32.5483 27.7633 33.4783 31.928C36.1521 28.8815 37.7759 24.8911 37.7759 20.5279C37.7759 17.9183 37.1941 15.442 36.1553 13.2211L38.5482 10.8268ZM20.4887 21.5169C23.1079 21.5169 25.2387 19.3849 25.2387 16.7643C25.2387 14.1434 23.1079 12.0114 20.4887 12.0114C17.8693 12.0114 15.7385 14.1434 15.7385 16.7643C15.7385 19.3849 17.8693 21.5169 20.4887 21.5169ZM20.4887 37.8248C24.258 37.8248 27.7489 36.6105 30.593 34.5536C30.4441 29.1059 25.9688 24.7199 20.4887 24.7199C15.0087 24.7199 10.5331 29.1059 10.3845 34.5536C13.2285 36.6105 16.7191 37.8248 20.4887 37.8248Z" fill="#3E7BFA"/>
</svg>
