<svg width="515" height="390" viewBox="0 0 515 390" fill="none" xmlns="http://www.w3.org/2000/svg">
<rect x="106.751" y="72.6631" width="323.22" height="59.3064" rx="29.6532" fill="#DAE1F4"/>
<rect x="70.1792" y="129.992" width="432.936" height="64.2486" rx="32.1243" fill="#DAE1F4"/>
<rect x="119.601" y="194.241" width="366.711" height="52.3873" rx="26.1936" fill="#DAE1F4"/>
<rect x="36.5723" y="246.628" width="476.428" height="60.2948" rx="30.1474" fill="#DAE1F4"/>
<path d="M164.081 170.656C164.08 162.278 166.876 154.142 172.019 147.551C177.163 140.96 184.357 136.295 192.45 134.303C192.784 120.991 198.277 108.336 207.756 99.0376C217.235 89.7387 229.951 84.5309 243.194 84.5244C250.871 84.5209 258.448 86.2714 265.354 89.6437C272.26 93.016 278.313 97.922 283.058 103.991C286.918 99.0061 292.306 95.4415 298.386 93.8506C304.467 92.2597 310.899 92.7314 316.686 95.1926C322.472 97.6538 327.289 101.967 330.389 107.462C333.489 112.958 334.698 119.329 333.829 125.586C339.785 124.502 345.904 124.747 351.755 126.303C357.606 127.859 363.046 130.688 367.691 134.59C372.336 138.492 376.072 143.372 378.635 148.885C381.198 154.398 382.527 160.41 382.526 166.496C382.528 171.955 381.46 177.361 379.384 182.405C377.309 187.449 374.265 192.033 370.428 195.894C366.591 199.756 362.034 202.819 357.02 204.91C352.005 207.001 346.63 208.078 341.201 208.079H201.214C191.359 208.058 181.916 204.105 174.957 197.088C167.997 190.072 164.091 180.566 164.094 170.656H164.081Z" fill="white"/>
<rect x="161.313" y="158.917" width="255.073" height="164.563" rx="17" fill="#6A8CFF" stroke="#3F71FD" stroke-width="6"/>
<path d="M147 308.578C147 305.819 149.237 303.583 151.996 303.583H425.876C428.635 303.583 430.871 305.819 430.871 308.578V308.578C430.871 318.695 422.67 326.896 412.554 326.896H165.317C155.201 326.896 147 318.695 147 308.578V308.578Z" fill="#3F71FD"/>
<path fill-rule="evenodd" clip-rule="evenodd" d="M289.199 221.083C278.182 221.083 269.251 230.014 269.251 241.031C269.251 252.048 278.182 260.98 289.199 260.98C300.216 260.98 309.148 252.048 309.148 241.031C309.148 230.014 300.216 221.083 289.199 221.083ZM297.846 237.658C298.005 237.476 298.127 237.264 298.203 237.034C298.279 236.805 298.308 236.562 298.289 236.321C298.27 236.08 298.203 235.845 298.092 235.631C297.981 235.416 297.828 235.225 297.642 235.071C297.457 234.916 297.242 234.8 297.01 234.729C296.779 234.659 296.536 234.635 296.295 234.66C296.055 234.685 295.822 234.757 295.61 234.874C295.398 234.99 295.211 235.147 295.061 235.337L287.263 244.692L283.228 240.656C282.886 240.325 282.427 240.142 281.952 240.147C281.477 240.151 281.022 240.341 280.685 240.678C280.349 241.014 280.158 241.469 280.154 241.944C280.15 242.42 280.333 242.878 280.663 243.22L286.104 248.66C286.282 248.838 286.495 248.977 286.73 249.069C286.965 249.16 287.216 249.201 287.468 249.189C287.72 249.178 287.966 249.114 288.192 249.002C288.418 248.89 288.617 248.732 288.779 248.539L297.846 237.658Z" fill="white"/>
<rect x="45.0728" y="220.554" width="156.366" height="102.755" rx="16" fill="#6A8CFF" stroke="#3F71FD" stroke-width="6"/>
<path fill-rule="evenodd" clip-rule="evenodd" d="M122.764 254.951C114.576 254.951 107.938 261.589 107.938 269.778C107.938 277.966 114.576 284.604 122.764 284.604C130.952 284.604 137.591 277.966 137.591 269.778C137.591 261.589 130.952 254.951 122.764 254.951ZM129.191 267.271C129.309 267.135 129.399 266.978 129.456 266.807C129.512 266.637 129.534 266.456 129.52 266.277C129.506 266.098 129.456 265.924 129.373 265.764C129.291 265.604 129.177 265.463 129.039 265.348C128.901 265.233 128.741 265.146 128.57 265.094C128.398 265.042 128.217 265.024 128.038 265.042C127.859 265.061 127.686 265.115 127.528 265.201C127.371 265.288 127.232 265.405 127.12 265.545L121.325 272.499L118.326 269.499C118.071 269.253 117.731 269.117 117.377 269.12C117.024 269.124 116.686 269.265 116.436 269.515C116.186 269.765 116.044 270.103 116.041 270.457C116.038 270.81 116.174 271.15 116.42 271.405L120.463 275.448C120.596 275.581 120.754 275.684 120.929 275.752C121.103 275.819 121.29 275.85 121.477 275.841C121.664 275.833 121.848 275.785 122.015 275.702C122.183 275.619 122.331 275.502 122.451 275.358L129.191 267.271Z" fill="white"/>
<rect x="384.305" y="206.32" width="54.3049" height="117.45" rx="11" fill="#6A8CFF" stroke="#3F71FD" stroke-width="6"/>
<path fill-rule="evenodd" clip-rule="evenodd" d="M411.362 250.207C404.935 250.207 399.725 255.417 399.725 261.843C399.725 268.27 404.935 273.48 411.362 273.48C417.788 273.48 422.998 268.27 422.998 261.843C422.998 255.417 417.788 250.207 411.362 250.207ZM416.406 259.876C416.499 259.769 416.569 259.646 416.614 259.512C416.658 259.378 416.675 259.236 416.664 259.096C416.653 258.955 416.614 258.818 416.549 258.693C416.484 258.568 416.395 258.457 416.287 258.366C416.178 258.276 416.053 258.208 415.918 258.167C415.783 258.126 415.641 258.112 415.501 258.127C415.361 258.141 415.225 258.184 415.101 258.251C414.977 258.319 414.868 258.411 414.781 258.521L410.232 263.979L407.878 261.624C407.679 261.431 407.411 261.325 407.134 261.327C406.857 261.33 406.591 261.441 406.395 261.637C406.199 261.833 406.088 262.099 406.085 262.376C406.083 262.653 406.19 262.921 406.382 263.12L409.556 266.294C409.66 266.398 409.784 266.479 409.921 266.532C410.058 266.585 410.205 266.609 410.352 266.602C410.499 266.596 410.642 266.558 410.774 266.493C410.906 266.428 411.022 266.336 411.116 266.223L416.406 259.876Z" fill="white"/>
<path fill-rule="evenodd" clip-rule="evenodd" d="M267.794 53.365C267.494 53.065 267.087 52.8964 266.663 52.8963L266.661 52.894C266.45 52.8938 266.242 52.935 266.047 53.0155C265.853 53.0959 265.676 53.2139 265.527 53.3628C265.378 53.5116 265.26 53.6883 265.18 53.8829C265.099 54.0774 265.058 54.2859 265.058 54.4964L265.061 61.9489L257.608 61.9466C257.183 61.9466 256.776 62.1155 256.475 62.416C256.175 62.7164 256.006 63.124 256.006 63.549C256.006 63.9739 256.175 64.3815 256.475 64.682C256.776 64.9825 257.183 65.1513 257.608 65.1513L265.061 65.149L265.058 72.6016C265.058 72.812 265.1 73.0203 265.18 73.2147C265.261 73.4091 265.379 73.5858 265.528 73.7346C265.677 73.8834 265.853 74.0014 266.048 74.0819C266.242 74.1624 266.45 74.2039 266.661 74.2039C266.871 74.2039 267.08 74.1624 267.274 74.0819C267.468 74.0014 267.645 73.8834 267.794 73.7346C267.943 73.5858 268.061 73.4091 268.141 73.2147C268.222 73.0203 268.263 72.812 268.263 72.6016L268.261 65.149L275.713 65.1513C276.138 65.1513 276.546 64.9825 276.846 64.682C277.147 64.3815 277.316 63.9739 277.316 63.549C277.316 63.124 277.147 62.7164 276.846 62.416C276.546 62.1155 276.138 61.9466 275.713 61.9466L268.261 61.9489L268.263 54.4964C268.263 54.072 268.094 53.6651 267.794 53.365Z" fill="#66F6FF"/>
<path fill-rule="evenodd" clip-rule="evenodd" d="M139.875 82.9624C139.611 82.6979 139.252 82.5494 138.878 82.5493L138.876 82.5473C138.691 82.5471 138.507 82.5834 138.335 82.6543C138.164 82.7252 138.008 82.8292 137.877 82.9604C137.746 83.0916 137.642 83.2473 137.571 83.4187C137.5 83.5902 137.464 83.7739 137.464 83.9594L137.466 90.5274L130.898 90.5254C130.523 90.5254 130.164 90.6741 129.899 90.939C129.635 91.2038 129.486 91.563 129.486 91.9375C129.486 92.312 129.635 92.6712 129.899 92.936C130.164 93.2008 130.523 93.3496 130.898 93.3496L137.466 93.3476L137.464 99.9155C137.464 100.101 137.5 100.285 137.571 100.456C137.642 100.627 137.746 100.783 137.878 100.914C138.009 101.045 138.164 101.149 138.336 101.22C138.507 101.291 138.691 101.328 138.876 101.328C139.061 101.328 139.245 101.291 139.416 101.22C139.588 101.149 139.743 101.045 139.875 100.914C140.006 100.783 140.11 100.627 140.181 100.456C140.252 100.285 140.288 100.101 140.288 99.9155L140.286 93.3476L146.854 93.3496C147.229 93.3496 147.588 93.2008 147.853 92.936C148.117 92.6712 148.266 92.312 148.266 91.9375C148.266 91.563 148.117 91.2038 147.853 90.939C147.588 90.6741 147.229 90.5254 146.854 90.5254L140.286 90.5274L140.288 83.9594C140.288 83.5855 140.139 83.2268 139.875 82.9624Z" fill="#3F71FD"/>
<path fill-rule="evenodd" clip-rule="evenodd" d="M435.86 80.964C435.609 80.7135 435.27 80.5727 434.915 80.5727L434.914 80.5708C434.738 80.5706 434.564 80.605 434.401 80.6722C434.239 80.7393 434.091 80.8379 433.967 80.9621C433.843 81.0864 433.744 81.234 433.677 81.3964C433.61 81.5588 433.576 81.7329 433.576 81.9086L433.578 88.1309L427.355 88.129C427.001 88.129 426.66 88.2699 426.409 88.5208C426.159 88.7717 426.018 89.112 426.018 89.4668C426.018 89.8216 426.159 90.1618 426.409 90.4127C426.66 90.6636 427.001 90.8046 427.355 90.8046L433.578 90.8027L433.576 97.0249C433.576 97.2006 433.61 97.3746 433.678 97.5369C433.745 97.6992 433.843 97.8467 433.968 97.9709C434.092 98.0951 434.239 98.1936 434.402 98.2609C434.564 98.3281 434.738 98.3627 434.914 98.3627C435.089 98.3627 435.263 98.3281 435.425 98.2609C435.588 98.1936 435.735 98.0951 435.859 97.9709C435.984 97.8467 436.082 97.6992 436.149 97.5369C436.217 97.3746 436.251 97.2006 436.251 97.0249L436.249 90.8027L442.472 90.8046C442.826 90.8046 443.167 90.6636 443.418 90.4127C443.669 90.1618 443.809 89.8216 443.809 89.4668C443.809 89.112 443.669 88.7717 443.418 88.5208C443.167 88.2699 442.826 88.129 442.472 88.129L436.249 88.1309L436.251 81.9086C436.251 81.5543 436.111 81.2145 435.86 80.964Z" fill="#3F71FD"/>
<path fill-rule="evenodd" clip-rule="evenodd" d="M188.319 89.7239C188.155 89.5598 187.933 89.4676 187.701 89.4675L187.699 89.4663C187.584 89.4662 187.47 89.4887 187.364 89.5327C187.258 89.5767 187.161 89.6412 187.08 89.7226C186.998 89.804 186.934 89.9006 186.89 90.007C186.846 90.1134 186.823 90.2274 186.823 90.3425L186.824 94.4177L182.749 94.4165C182.517 94.4165 182.294 94.5088 182.13 94.6731C181.965 94.8374 181.873 95.0603 181.873 95.2927C181.873 95.525 181.965 95.7479 182.13 95.9122C182.294 96.0765 182.517 96.1688 182.749 96.1688L186.824 96.1676L186.823 100.243C186.823 100.358 186.846 100.472 186.89 100.578C186.934 100.684 186.998 100.781 187.08 100.862C187.161 100.944 187.258 101.008 187.364 101.052C187.47 101.096 187.584 101.119 187.699 101.119C187.814 101.119 187.928 101.096 188.035 101.052C188.141 101.008 188.238 100.944 188.319 100.862C188.4 100.781 188.465 100.684 188.509 100.578C188.553 100.472 188.576 100.358 188.576 100.243L188.574 96.1676L192.65 96.1688C192.882 96.1688 193.105 96.0765 193.269 95.9122C193.433 95.7479 193.526 95.525 193.526 95.2927C193.526 95.0603 193.433 94.8374 193.269 94.6731C193.105 94.5088 192.882 94.4165 192.65 94.4165L188.574 94.4177L188.576 90.3425C188.576 90.1104 188.483 89.8879 188.319 89.7239Z" fill="white"/>
<path fill-rule="evenodd" clip-rule="evenodd" d="M436.301 143.214C436.065 142.977 435.744 142.844 435.409 142.844L435.408 142.842C435.242 142.842 435.077 142.875 434.924 142.938C434.77 143.001 434.631 143.094 434.514 143.212C434.396 143.329 434.303 143.469 434.24 143.622C434.176 143.775 434.144 143.94 434.144 144.106L434.146 149.982L428.269 149.98C427.934 149.98 427.613 150.114 427.376 150.351C427.139 150.587 427.006 150.909 427.006 151.244C427.006 151.579 427.139 151.9 427.376 152.137C427.613 152.374 427.934 152.507 428.269 152.507L434.146 152.506L434.144 158.382C434.144 158.548 434.177 158.712 434.24 158.866C434.304 159.019 434.397 159.158 434.514 159.276C434.632 159.393 434.771 159.486 434.924 159.549C435.077 159.613 435.242 159.646 435.408 159.646C435.574 159.646 435.738 159.613 435.891 159.549C436.044 159.486 436.184 159.393 436.301 159.276C436.418 159.158 436.511 159.019 436.575 158.866C436.638 158.712 436.671 158.548 436.671 158.382L436.669 152.506L442.546 152.507C442.881 152.507 443.202 152.374 443.439 152.137C443.676 151.9 443.809 151.579 443.809 151.244C443.809 150.909 443.676 150.587 443.439 150.351C443.202 150.114 442.881 149.98 442.546 149.98L436.669 149.982L436.671 144.106C436.671 143.771 436.538 143.45 436.301 143.214Z" fill="white"/>
<path d="M273.463 279.11C273.463 278.86 273.373 278.664 273.194 278.524C273.019 278.384 272.708 278.24 272.262 278.09C271.816 277.94 271.451 277.795 271.168 277.655C270.247 277.203 269.786 276.581 269.786 275.79C269.786 275.396 269.9 275.049 270.128 274.75C270.359 274.447 270.685 274.213 271.104 274.047C271.524 273.878 271.996 273.793 272.521 273.793C273.032 273.793 273.489 273.884 273.893 274.066C274.299 274.249 274.615 274.509 274.84 274.848C275.064 275.183 275.177 275.567 275.177 276H273.468C273.468 275.71 273.378 275.486 273.199 275.326C273.023 275.167 272.784 275.087 272.481 275.087C272.175 275.087 271.933 275.155 271.754 275.292C271.578 275.425 271.49 275.596 271.49 275.805C271.49 275.987 271.588 276.153 271.783 276.303C271.979 276.449 272.322 276.602 272.813 276.762C273.305 276.918 273.709 277.087 274.024 277.27C274.793 277.712 275.177 278.323 275.177 279.101C275.177 279.722 274.942 280.211 274.474 280.565C274.005 280.92 273.362 281.098 272.545 281.098C271.969 281.098 271.446 280.995 270.978 280.79C270.512 280.582 270.16 280.299 269.923 279.94C269.688 279.579 269.571 279.164 269.571 278.695H271.29C271.29 279.076 271.388 279.358 271.583 279.54C271.782 279.719 272.102 279.809 272.545 279.809C272.828 279.809 273.051 279.748 273.214 279.628C273.38 279.504 273.463 279.332 273.463 279.11ZM275.772 278.31C275.772 277.782 275.875 277.313 276.08 276.903C276.285 276.49 276.58 276.173 276.964 275.951C277.348 275.73 277.799 275.619 278.316 275.619C279.107 275.619 279.731 275.865 280.187 276.356C280.642 276.845 280.87 277.51 280.87 278.354V278.412C280.87 279.236 280.641 279.89 280.182 280.375C279.726 280.857 279.107 281.098 278.326 281.098C277.574 281.098 276.97 280.873 276.515 280.424C276.059 279.971 275.813 279.359 275.777 278.588L275.772 278.31ZM277.418 278.412C277.418 278.9 277.494 279.258 277.647 279.486C277.8 279.714 278.027 279.828 278.326 279.828C278.912 279.828 279.212 279.377 279.225 278.476V278.31C279.225 277.362 278.922 276.889 278.316 276.889C277.766 276.889 277.468 277.297 277.423 278.114L277.418 278.412ZM283.331 281H281.681V273.5H283.331V281ZM287.496 280.429C287.148 280.875 286.677 281.098 286.085 281.098C285.506 281.098 285.066 280.93 284.767 280.595C284.47 280.256 284.322 279.771 284.322 279.14V275.717H285.968V279.149C285.968 279.602 286.188 279.828 286.627 279.828C287.005 279.828 287.273 279.693 287.433 279.423V275.717H289.088V281H287.545L287.496 280.429ZM292.228 279.828C292.459 279.828 292.638 279.766 292.765 279.643C292.892 279.516 292.953 279.34 292.95 279.115H294.493C294.493 279.695 294.285 280.17 293.868 280.541C293.455 280.912 292.921 281.098 292.267 281.098C291.498 281.098 290.893 280.857 290.45 280.375C290.007 279.893 289.786 279.226 289.786 278.373V278.305C289.786 277.771 289.884 277.3 290.079 276.894C290.278 276.483 290.562 276.169 290.934 275.951C291.305 275.73 291.744 275.619 292.252 275.619C292.939 275.619 293.484 275.81 293.888 276.19C294.291 276.571 294.493 277.087 294.493 277.738H292.95C292.95 277.465 292.883 277.255 292.75 277.108C292.617 276.962 292.438 276.889 292.213 276.889C291.786 276.889 291.537 277.16 291.466 277.704C291.443 277.877 291.432 278.114 291.432 278.417C291.432 278.948 291.495 279.315 291.622 279.521C291.749 279.726 291.951 279.828 292.228 279.828ZM296.925 281H295.274V275.717H296.925V281ZM295.177 274.354C295.177 274.12 295.261 273.928 295.431 273.778C295.6 273.629 295.82 273.554 296.09 273.554C296.36 273.554 296.58 273.629 296.749 273.778C296.918 273.928 297.003 274.12 297.003 274.354C297.003 274.589 296.918 274.781 296.749 274.931C296.58 275.08 296.36 275.155 296.09 275.155C295.82 275.155 295.6 275.08 295.431 274.931C295.261 274.781 295.177 274.589 295.177 274.354ZM297.735 278.31C297.735 277.782 297.838 277.313 298.043 276.903C298.248 276.49 298.543 276.173 298.927 275.951C299.311 275.73 299.762 275.619 300.279 275.619C301.07 275.619 301.694 275.865 302.149 276.356C302.605 276.845 302.833 277.51 302.833 278.354V278.412C302.833 279.236 302.604 279.89 302.145 280.375C301.689 280.857 301.07 281.098 300.289 281.098C299.537 281.098 298.933 280.873 298.478 280.424C298.022 279.971 297.776 279.359 297.74 278.588L297.735 278.31ZM299.381 278.412C299.381 278.9 299.457 279.258 299.61 279.486C299.763 279.714 299.99 279.828 300.289 279.828C300.875 279.828 301.174 279.377 301.188 278.476V278.31C301.188 277.362 300.885 276.889 300.279 276.889C299.729 276.889 299.431 277.297 299.386 278.114L299.381 278.412ZM300.504 273.5H302.242L300.885 275.033H299.542L300.504 273.5ZM305.069 275.717L305.123 276.337C305.488 275.858 305.991 275.619 306.632 275.619C307.182 275.619 307.592 275.784 307.862 276.112C308.136 276.441 308.277 276.936 308.287 277.597V281H306.637V277.665C306.637 277.398 306.583 277.203 306.476 277.079C306.368 276.952 306.173 276.889 305.89 276.889C305.567 276.889 305.328 277.016 305.172 277.27V281H303.526V275.717H305.069Z" fill="white"/>
<path d="M406.106 289.672H403.758L403.348 291H401.517L404.124 283.891H405.735L408.362 291H406.521L406.106 289.672ZM404.168 288.349H405.696L404.93 285.883L404.168 288.349ZM408.602 288.305C408.602 287.465 408.784 286.807 409.148 286.332C409.513 285.857 410.016 285.619 410.657 285.619C411.198 285.619 411.631 285.84 411.956 286.283L412.073 285.717H413.499V293.031H411.849V290.561C411.533 290.919 411.132 291.098 410.647 291.098C410.022 291.098 409.524 290.857 409.153 290.375C408.785 289.89 408.602 289.2 408.602 288.305ZM410.247 288.407C410.247 289.354 410.521 289.828 411.067 289.828C411.445 289.828 411.705 289.685 411.849 289.398V287.309C411.712 287.029 411.455 286.889 411.077 286.889C410.566 286.889 410.291 287.297 410.252 288.114L410.247 288.407ZM417.581 290.429C417.233 290.875 416.762 291.098 416.17 291.098C415.59 291.098 415.151 290.93 414.852 290.595C414.555 290.256 414.407 289.771 414.407 289.14V285.717H416.053V289.149C416.053 289.602 416.272 289.828 416.712 289.828C417.09 289.828 417.358 289.693 417.518 289.423V285.717H419.173V291H417.63L417.581 290.429ZM421.873 291H420.218V285.717H421.873V291ZM421.258 283.598H422.996L421.639 285.131H420.296L421.258 283.598Z" fill="white"/>
<path d="M123.303 295.214H121.169V301H119.455V295.214H117.36V293.891H123.303V295.214ZM126.779 300.429C126.431 300.875 125.961 301.098 125.368 301.098C124.789 301.098 124.349 300.93 124.05 300.595C123.754 300.256 123.605 299.771 123.605 299.14V295.717H125.251V299.149C125.251 299.602 125.471 299.828 125.91 299.828C126.288 299.828 126.556 299.693 126.716 299.423V295.717H128.371V301H126.828L126.779 300.429Z" fill="white"/>
<rect x="253" y="307.407" width="71.375" height="6.66167" rx="3.33083" fill="#5563EC"/>
<path d="M199.035 185.108H200.739V180.419H202.579V179.063H197.186V180.419H199.035V185.108Z" fill="white"/>
<path d="M205.313 185.229C207.102 185.229 207.979 184.331 207.979 183.277C207.979 181.049 204.565 181.74 204.565 180.816C204.565 180.514 204.823 180.272 205.537 180.272C206.061 180.272 206.629 180.427 207.205 180.738L207.73 179.469C207.136 179.123 206.328 178.942 205.545 178.942C203.756 178.942 202.879 179.823 202.879 180.902C202.879 183.147 206.302 182.448 206.302 183.407C206.302 183.7 206.027 183.899 205.322 183.899C204.625 183.899 203.868 183.657 203.335 183.303L202.775 184.564C203.343 184.961 204.324 185.229 205.313 185.229Z" fill="white"/>
<path d="M209.964 185.108H211.667V180.419H213.508V179.063H208.114V180.419H209.964V185.108Z" fill="white"/>
<path d="M218.761 185.229C220.551 185.229 221.428 184.331 221.428 183.277C221.428 181.049 218.013 181.74 218.013 180.816C218.013 180.514 218.271 180.272 218.985 180.272C219.51 180.272 220.077 180.427 220.654 180.738L221.178 179.469C220.585 179.123 219.776 178.942 218.994 178.942C217.204 178.942 216.327 179.823 216.327 180.902C216.327 183.147 219.751 182.448 219.751 183.407C219.751 183.7 219.475 183.899 218.77 183.899C218.073 183.899 217.316 183.657 216.783 183.303L216.224 184.564C216.792 184.961 217.772 185.229 218.761 185.229Z" fill="white"/>
<path d="M226.722 185.108H228.494L225.827 179.063H224.15L221.492 185.108H223.23L223.703 183.933H226.249L226.722 185.108ZM224.202 182.672L224.976 180.738L225.75 182.672H224.202Z" fill="white"/>
<path d="M228.977 185.108H233.553V183.752H230.68V179.063H228.977V185.108Z" fill="white"/>
<path d="M236.946 185.229C238.727 185.229 239.776 184.218 239.776 182.413V179.063H238.099V182.362C238.099 183.398 237.669 183.812 236.963 183.812C236.249 183.812 235.819 183.398 235.819 182.362V179.063H234.116V182.413C234.116 184.218 235.166 185.229 236.946 185.229Z" fill="white"/>
<path d="M240.93 185.108H243.777C245.773 185.108 247.14 183.942 247.14 182.085C247.14 180.229 245.773 179.063 243.777 179.063H240.93V185.108ZM242.633 183.743V180.427H243.708C244.732 180.427 245.42 181.04 245.42 182.085C245.42 183.13 244.732 183.743 243.708 183.743H242.633Z" fill="white"/>
<path d="M183.308 176.115C184.029 176.115 184.613 175.514 184.613 174.772C184.613 174.03 184.029 173.428 183.308 173.428C182.587 173.428 182.003 174.03 182.003 174.772C182.003 175.514 182.587 176.115 183.308 176.115Z" fill="white"/>
<path d="M182.386 177.343C182.386 177.343 201.04 180.73 182.386 186.555C182.386 186.555 192.222 181.768 182.386 177.343Z" fill="white"/>
<path d="M184.613 181.258C184.613 181.258 168.204 184.734 184.613 190.7C184.613 190.7 175.961 185.802 184.613 181.258Z" fill="white"/>
<path d="M398 209C398.936 212.529 399.204 215 406.067 215C412.93 215 410.248 215 415.8 215C421.352 215 422.998 212.541 424 209L398 209Z" fill="#3F71FD"/>
<path d="M46.6318 279.79C50.5498 278.865 53.2935 278.6 53.2935 271.818C53.2935 265.035 53.2935 267.686 53.2935 262.199C53.2935 256.712 50.5633 255.086 46.6318 254.095L46.6318 279.79Z" fill="#3F71FD"/>
<path d="M49.4868 261.935C49.4868 261.284 49.9129 260.757 50.4385 260.757C50.9641 260.757 51.3901 261.284 51.3901 261.935L51.3901 271.95C51.3901 272.601 50.9641 273.129 50.4385 273.129C49.9129 273.129 49.4868 272.601 49.4868 271.95L49.4868 261.935Z" fill="#5563EC"/>
<path d="M0.0213532 94.2927L4.00825 134.807C4.0947 135.797 4.37788 136.722 4.81309 137.548C4.88016 137.851 4.96064 138.152 5.06944 138.45L22.3078 181.41V330.152H72.9988V205.167C72.9988 195.542 79.4643 187.115 88.7631 184.623C100.792 181.401 110.211 170.238 110.211 157.784V147.291C110.211 144.292 104.809 141.854 101.809 141.854C94.8102 141.854 93.408 145.314 92.4195 152.233L92.9137 157.175C92.9137 161.59 88.0894 166.061 83.8268 167.203C77.6326 168.863 71.5501 164.197 71.5501 157.784V146.522C71.5501 142.252 73.7321 138.28 77.3345 135.989C81.1142 133.585 86.0163 133.908 89.4487 136.788L90.5919 137.746C95.953 142.246 102.746 143.756 107.246 138.395C110.706 134.273 110.073 130.461 107.775 128.532L100.45 122.386C91.4504 114.834 78.6133 113.935 68.6483 120.156L60.4449 125.279C60.1304 125.476 59.7683 125.578 59.3986 125.578H59.3972C58.3091 125.578 57.4253 124.699 57.4223 123.611V123.531C57.4164 121.164 57.7234 118.807 58.336 116.521L66.6004 87.3831C68.4128 80.6225 64.4005 73.6726 57.6399 71.8617C54.7425 71.0852 51.7647 72.8052 50.9881 75.7026L41.7355 108.698C41.6163 109.123 40.9874 109.008 41.0261 108.57L42.5836 90.6412C43.1932 83.6689 38.0348 77.5224 31.0626 76.9128C28.0757 76.652 25.4407 78.8608 25.1798 81.8491L21.6967 121.793C21.6594 122.229 21.023 122.235 20.9768 121.799L18.686 99.928C18.0764 92.9558 11.9284 87.7989 4.95617 88.4085C1.97083 88.6708 -0.240963 91.3044 0.0213532 94.2927Z" fill="#BED5FF"/>
<path d="M0.0216215 94.2922L0.562648 99.789C1.32575 100.583 2.43612 101.025 3.61505 100.88L7.20848 100.44C9.19374 100.197 10.6052 98.3909 10.3622 96.4072L9.92256 92.8122C9.71092 91.0908 8.91205 89.587 7.751 88.4736C6.84333 88.3529 5.90883 88.3246 4.95942 88.408C1.97111 88.6703 -0.240694 91.3039 0.0216215 94.2922V94.2922ZM103.416 144.357C103.52 144.354 103.623 144.348 103.727 144.348C106.728 144.348 109.158 146.781 109.158 149.78V157.102C108.728 157.284 108.255 157.384 107.757 157.384H104.137C102.137 157.384 100.515 155.762 100.515 153.763V150.142C100.517 147.775 101.659 145.678 103.416 144.357ZM31.0643 76.9123C31.5338 76.9526 31.9944 77.0211 32.4474 77.112C34.5773 78.5965 35.8382 81.1794 35.4999 83.9367L35.0587 87.5302C34.8143 89.5154 33.0079 90.9268 31.0226 90.6824L27.4292 90.2413C26.1712 90.0862 25.1443 89.3038 24.6227 88.2456L25.1816 81.8486C25.4424 78.8603 28.076 76.6515 31.0643 76.9123V76.9123ZM100.729 126.246C101.548 125.398 102.683 125.04 103.769 125.171L107.777 128.533C110.074 130.461 110.375 133.887 108.446 136.184C107.68 137.096 106.811 137.871 105.874 138.51C104.084 138.494 102.297 137.826 100.907 136.485L98.3037 133.971C96.8654 132.58 96.8251 130.289 98.2142 128.849L100.729 126.246ZM57.6417 71.8612C57.7296 71.8851 57.8146 71.9134 57.9025 71.9388C58.9905 73.6319 59.3766 75.7632 58.7789 77.8498L57.7803 81.33C57.2289 83.2526 55.2242 84.363 53.3016 83.8115L49.8214 82.8129C49.5576 82.7384 49.3117 82.6326 49.0807 82.5074L50.9884 75.7021C51.7664 72.8047 54.7443 71.0847 57.6417 71.8612V71.8612Z" fill="#ADC3FC"/>
<rect x="98.0215" y="99.9253" width="10.4683" height="4.75833" rx="2.37917" transform="rotate(90 98.0215 99.9253)" fill="#3F71FD"/>
<rect width="11.42" height="4.75833" rx="2.37917" transform="matrix(-1 0 0 1 122.765 127.524)" fill="#3F71FD"/>
<rect width="10.2896" height="4.63375" rx="2.31688" transform="matrix(-0.77205 0.635561 0.635561 0.77205 114.987 105.807)" fill="#3F71FD"/>
<path fill-rule="evenodd" clip-rule="evenodd" d="M120.72 171.636C120.505 171.422 120.215 171.301 119.911 171.301L119.91 171.3C119.759 171.3 119.61 171.329 119.471 171.387C119.332 171.444 119.206 171.528 119.1 171.635C118.993 171.741 118.909 171.867 118.852 172.006C118.794 172.145 118.765 172.294 118.765 172.445L118.766 177.77L113.441 177.768C113.138 177.768 112.846 177.889 112.632 178.104C112.417 178.318 112.296 178.609 112.296 178.913C112.296 179.217 112.417 179.508 112.632 179.723C112.846 179.937 113.138 180.058 113.441 180.058L118.766 180.056L118.765 185.382C118.765 185.532 118.794 185.681 118.852 185.82C118.909 185.959 118.994 186.085 119.1 186.191C119.206 186.297 119.333 186.382 119.472 186.439C119.61 186.497 119.759 186.526 119.91 186.526C120.06 186.526 120.209 186.497 120.348 186.439C120.487 186.382 120.613 186.297 120.719 186.191C120.826 186.085 120.91 185.959 120.967 185.82C121.025 185.681 121.055 185.532 121.055 185.382L121.053 180.056L126.378 180.058C126.682 180.058 126.973 179.937 127.188 179.723C127.402 179.508 127.523 179.217 127.523 178.913C127.523 178.609 127.402 178.318 127.188 178.104C126.973 177.889 126.682 177.768 126.378 177.768L121.053 177.77L121.055 172.445C121.055 172.142 120.934 171.851 120.72 171.636Z" fill="#66F6FF"/>
</svg>
