<svg width="477" height="275" viewBox="0 0 477 275" fill="none" xmlns="http://www.w3.org/2000/svg">
<rect x="70.7515" y="20.6631" width="323.22" height="59.3064" rx="29.6532" fill="#DAE1F4"/>
<rect x="34.1792" y="77.9922" width="432.936" height="64.2486" rx="32.1243" fill="#DAE1F4"/>
<rect x="83.6011" y="142.241" width="366.711" height="52.3873" rx="26.1936" fill="#DAE1F4"/>
<rect x="0.572266" y="194.628" width="476.428" height="60.2948" rx="30.1474" fill="#DAE1F4"/>
<path d="M128.081 118.656C128.08 110.278 130.876 102.142 136.019 95.5507C141.163 88.9597 148.357 84.2949 156.45 82.3033C156.784 68.9909 162.277 56.3365 171.756 47.0376C181.235 37.7387 193.951 32.5309 207.194 32.5244C214.871 32.5209 222.448 34.2714 229.354 37.6437C236.26 41.016 242.313 45.922 247.058 51.9912C250.918 47.0061 256.306 43.4415 262.386 41.8506C268.467 40.2597 274.899 40.7314 280.686 43.1926C286.472 45.6538 291.289 49.9668 294.389 55.4623C297.489 60.9578 298.698 67.3285 297.829 73.5858C303.785 72.5025 309.904 72.7474 315.755 74.3032C321.606 75.8591 327.046 78.6879 331.691 82.5899C336.336 86.4919 340.072 91.3718 342.635 96.885C345.198 102.398 346.527 108.41 346.526 114.496C346.528 119.955 345.46 125.361 343.384 130.405C341.309 135.449 338.265 140.033 334.428 143.894C330.591 147.756 326.034 150.819 321.02 152.91C316.005 155.001 310.63 156.078 305.201 156.079H165.214C155.359 156.058 145.916 152.105 138.957 145.088C131.997 138.072 128.091 128.566 128.094 118.656H128.081Z" fill="white"/>
<rect x="125.313" y="106.917" width="255.073" height="164.563" rx="17" fill="#6A8CFF" stroke="#3F71FD" stroke-width="6"/>
<path d="M111 256.578C111 253.819 113.237 251.583 115.996 251.583H389.876C392.635 251.583 394.871 253.819 394.871 256.578V256.578C394.871 266.695 386.67 274.896 376.554 274.896H129.317C119.201 274.896 111 266.695 111 256.578V256.578Z" fill="#3F71FD"/>
<path fill-rule="evenodd" clip-rule="evenodd" d="M253.199 169.083C242.182 169.083 233.251 178.014 233.251 189.031C233.251 200.048 242.182 208.98 253.199 208.98C264.216 208.98 273.148 200.048 273.148 189.031C273.148 178.014 264.216 169.083 253.199 169.083ZM261.846 185.658C262.005 185.476 262.127 185.264 262.203 185.034C262.279 184.805 262.308 184.562 262.289 184.321C262.27 184.08 262.203 183.845 262.092 183.631C261.981 183.416 261.828 183.225 261.642 183.071C261.457 182.916 261.242 182.8 261.01 182.729C260.779 182.659 260.536 182.635 260.295 182.66C260.055 182.685 259.822 182.757 259.61 182.874C259.398 182.99 259.211 183.147 259.061 183.337L251.263 192.692L247.228 188.656C246.886 188.325 246.427 188.142 245.952 188.147C245.477 188.151 245.022 188.341 244.685 188.678C244.349 189.014 244.158 189.469 244.154 189.944C244.15 190.42 244.333 190.878 244.663 191.22L250.104 196.66C250.282 196.838 250.495 196.977 250.73 197.069C250.965 197.16 251.216 197.201 251.468 197.189C251.72 197.178 251.966 197.114 252.192 197.002C252.418 196.89 252.617 196.732 252.779 196.539L261.846 185.658Z" fill="white"/>
<rect x="9.07275" y="168.554" width="156.366" height="102.755" rx="16" fill="#6A8CFF" stroke="#3F71FD" stroke-width="6"/>
<path fill-rule="evenodd" clip-rule="evenodd" d="M86.7641 202.951C78.5758 202.951 71.9375 209.589 71.9375 217.778C71.9375 225.966 78.5758 232.604 86.7641 232.604C94.9524 232.604 101.591 225.966 101.591 217.778C101.591 209.589 94.9524 202.951 86.7641 202.951ZM93.1907 215.271C93.3091 215.135 93.3992 214.978 93.4557 214.807C93.5123 214.637 93.5341 214.456 93.52 214.277C93.5059 214.098 93.4561 213.924 93.3735 213.764C93.2909 213.604 93.1772 213.463 93.0392 213.348C92.9011 213.233 92.7414 213.146 92.5695 213.094C92.3976 213.042 92.2169 213.024 92.0382 213.042C91.8594 213.061 91.6861 213.115 91.5285 213.201C91.3709 213.288 91.2321 213.405 91.1204 213.545L85.3246 220.499L82.3255 217.499C82.0713 217.253 81.7309 217.117 81.3775 217.12C81.024 217.124 80.686 217.265 80.4361 217.515C80.1862 217.765 80.0444 218.103 80.0413 218.457C80.0383 218.81 80.1741 219.15 80.4197 219.405L84.4633 223.448C84.5957 223.581 84.7543 223.684 84.9289 223.752C85.1034 223.819 85.2902 223.85 85.4772 223.841C85.6643 223.833 85.8475 223.785 86.0152 223.702C86.183 223.619 86.3315 223.502 86.4514 223.358L93.1907 215.271Z" fill="white"/>
<rect x="348.305" y="154.32" width="54.3049" height="117.45" rx="11" fill="#6A8CFF" stroke="#3F71FD" stroke-width="6"/>
<path fill-rule="evenodd" clip-rule="evenodd" d="M375.362 198.207C368.935 198.207 363.725 203.417 363.725 209.843C363.725 216.27 368.935 221.48 375.362 221.48C381.788 221.48 386.998 216.27 386.998 209.843C386.998 203.417 381.788 198.207 375.362 198.207ZM380.406 207.876C380.499 207.769 380.569 207.646 380.614 207.512C380.658 207.378 380.675 207.236 380.664 207.096C380.653 206.955 380.614 206.818 380.549 206.693C380.484 206.568 380.395 206.457 380.287 206.366C380.178 206.276 380.053 206.208 379.918 206.167C379.783 206.126 379.641 206.112 379.501 206.127C379.361 206.141 379.225 206.184 379.101 206.251C378.977 206.319 378.868 206.411 378.781 206.521L374.232 211.979L371.878 209.624C371.679 209.431 371.411 209.325 371.134 209.327C370.857 209.33 370.591 209.441 370.395 209.637C370.199 209.833 370.088 210.099 370.085 210.376C370.083 210.653 370.19 210.921 370.382 211.12L373.556 214.294C373.66 214.398 373.784 214.479 373.921 214.532C374.058 214.585 374.205 214.609 374.352 214.602C374.499 214.596 374.642 214.558 374.774 214.493C374.906 214.428 375.022 214.336 375.116 214.223L380.406 207.876Z" fill="white"/>
<path fill-rule="evenodd" clip-rule="evenodd" d="M231.794 1.36502C231.494 1.06497 231.087 0.896371 230.663 0.896307L230.661 0.894043C230.45 0.893778 230.242 0.935043 230.047 1.01547C229.853 1.0959 229.676 1.21392 229.527 1.36276C229.378 1.5116 229.26 1.68834 229.18 1.88286C229.099 2.07738 229.058 2.28586 229.058 2.49636L229.061 9.94891L221.608 9.94665C221.183 9.94665 220.776 10.1155 220.475 10.416C220.175 10.7164 220.006 11.124 220.006 11.549C220.006 11.9739 220.175 12.3815 220.475 12.682C220.776 12.9825 221.183 13.1513 221.608 13.1513L229.061 13.149L229.058 20.6016C229.058 20.812 229.1 21.0203 229.18 21.2147C229.261 21.4091 229.379 21.5858 229.528 21.7346C229.677 21.8834 229.853 22.0014 230.048 22.0819C230.242 22.1624 230.45 22.2039 230.661 22.2039C230.871 22.2039 231.08 22.1624 231.274 22.0819C231.468 22.0014 231.645 21.8834 231.794 21.7346C231.943 21.5858 232.061 21.4091 232.141 21.2147C232.222 21.0203 232.263 20.812 232.263 20.6016L232.261 13.149L239.713 13.1513C240.138 13.1513 240.546 12.9825 240.846 12.682C241.147 12.3815 241.316 11.9739 241.316 11.549C241.316 11.124 241.147 10.7164 240.846 10.416C240.546 10.1155 240.138 9.94665 239.713 9.94665L232.261 9.94891L232.263 2.49635C232.263 2.07202 232.094 1.66508 231.794 1.36502Z" fill="#66F6FF"/>
<path fill-rule="evenodd" clip-rule="evenodd" d="M103.875 30.9624C103.611 30.6979 103.252 30.5494 102.878 30.5493L102.876 30.5473C102.691 30.5471 102.507 30.5834 102.335 30.6543C102.164 30.7252 102.008 30.8292 101.877 30.9604C101.746 31.0916 101.642 31.2473 101.571 31.4187C101.5 31.5902 101.464 31.7739 101.464 31.9594L101.466 38.5274L94.898 38.5254C94.5234 38.5254 94.1643 38.6741 93.8994 38.939C93.6346 39.2038 93.4858 39.563 93.4858 39.9375C93.4858 40.312 93.6346 40.6712 93.8994 40.936C94.1643 41.2008 94.5234 41.3496 94.898 41.3496L101.466 41.3476L101.464 47.9155C101.464 48.101 101.5 48.2846 101.571 48.4559C101.642 48.6273 101.746 48.7829 101.878 48.9141C102.009 49.0452 102.164 49.1492 102.336 49.2202C102.507 49.2911 102.691 49.3277 102.876 49.3277C103.061 49.3277 103.245 49.2911 103.416 49.2202C103.588 49.1492 103.743 49.0452 103.875 48.9141C104.006 48.7829 104.11 48.6273 104.181 48.4559C104.252 48.2846 104.288 48.101 104.288 47.9155L104.286 41.3476L110.854 41.3496C111.229 41.3496 111.588 41.2008 111.853 40.936C112.117 40.6712 112.266 40.312 112.266 39.9375C112.266 39.563 112.117 39.2038 111.853 38.939C111.588 38.6741 111.229 38.5254 110.854 38.5254L104.286 38.5274L104.288 31.9594C104.288 31.5855 104.139 31.2268 103.875 30.9624Z" fill="#3F71FD"/>
<path fill-rule="evenodd" clip-rule="evenodd" d="M399.86 28.964C399.609 28.7135 399.27 28.5727 398.915 28.5727L398.914 28.5708C398.738 28.5706 398.564 28.605 398.401 28.6722C398.239 28.7393 398.091 28.8379 397.967 28.9621C397.843 29.0864 397.744 29.234 397.677 29.3964C397.61 29.5588 397.576 29.7329 397.576 29.9086L397.578 36.1309L391.355 36.129C391.001 36.129 390.66 36.2699 390.409 36.5208C390.159 36.7717 390.018 37.112 390.018 37.4668C390.018 37.8216 390.159 38.1618 390.409 38.4127C390.66 38.6636 391.001 38.8046 391.355 38.8046L397.578 38.8027L397.576 45.0249C397.576 45.2006 397.61 45.3746 397.678 45.5369C397.745 45.6992 397.843 45.8467 397.968 45.9709C398.092 46.0951 398.239 46.1936 398.402 46.2609C398.564 46.3281 398.738 46.3627 398.914 46.3627C399.089 46.3627 399.263 46.3281 399.425 46.2609C399.588 46.1936 399.735 46.0951 399.859 45.9709C399.984 45.8467 400.082 45.6992 400.149 45.5369C400.217 45.3746 400.251 45.2006 400.251 45.0249L400.249 38.8027L406.472 38.8046C406.826 38.8046 407.167 38.6636 407.418 38.4127C407.669 38.1618 407.809 37.8216 407.809 37.4668C407.809 37.112 407.669 36.7717 407.418 36.5208C407.167 36.2699 406.826 36.129 406.472 36.129L400.249 36.1309L400.251 29.9086C400.251 29.5543 400.111 29.2145 399.86 28.964Z" fill="#3F71FD"/>
<path fill-rule="evenodd" clip-rule="evenodd" d="M152.319 37.7239C152.155 37.5598 151.933 37.4676 151.701 37.4675L151.699 37.4663C151.584 37.4662 151.47 37.4887 151.364 37.5327C151.258 37.5767 151.161 37.6412 151.08 37.7226C150.998 37.804 150.934 37.9006 150.89 38.007C150.846 38.1134 150.823 38.2274 150.823 38.3425L150.824 42.4177L146.749 42.4165C146.517 42.4165 146.294 42.5088 146.13 42.6731C145.965 42.8374 145.873 43.0603 145.873 43.2927C145.873 43.525 145.965 43.7479 146.13 43.9122C146.294 44.0765 146.517 44.1688 146.749 44.1688L150.824 44.1676L150.823 48.2428C150.823 48.3579 150.846 48.4718 150.89 48.5781C150.934 48.6844 150.998 48.781 151.08 48.8624C151.161 48.9437 151.258 49.0083 151.364 49.0523C151.47 49.0963 151.584 49.119 151.699 49.119C151.814 49.119 151.928 49.0963 152.035 49.0523C152.141 49.0083 152.238 48.9437 152.319 48.8624C152.4 48.781 152.465 48.6844 152.509 48.5781C152.553 48.4718 152.576 48.3579 152.576 48.2428L152.574 44.1676L156.65 44.1688C156.882 44.1688 157.105 44.0765 157.269 43.9122C157.433 43.7479 157.526 43.525 157.526 43.2927C157.526 43.0603 157.433 42.8374 157.269 42.6731C157.105 42.5088 156.882 42.4165 156.65 42.4165L152.574 42.4177L152.576 38.3425C152.576 38.1104 152.483 37.8879 152.319 37.7239Z" fill="white"/>
<path fill-rule="evenodd" clip-rule="evenodd" d="M400.301 91.2136C400.065 90.977 399.744 90.844 399.409 90.844L399.408 90.8422C399.242 90.842 399.077 90.8745 398.924 90.938C398.77 91.0014 398.631 91.0944 398.514 91.2118C398.396 91.3292 398.303 91.4685 398.24 91.6219C398.176 91.7753 398.144 91.9397 398.144 92.1057L398.146 97.9822L392.269 97.9805C391.934 97.9805 391.613 98.1136 391.376 98.3505C391.139 98.5875 391.006 98.9088 391.006 99.2439C391.006 99.579 391.139 99.9004 391.376 100.137C391.613 100.374 391.934 100.507 392.269 100.507L398.146 100.506L398.144 106.382C398.144 106.548 398.177 106.712 398.24 106.866C398.304 107.019 398.397 107.158 398.514 107.276C398.632 107.393 398.771 107.486 398.924 107.549C399.077 107.613 399.242 107.646 399.408 107.646C399.574 107.646 399.738 107.613 399.891 107.549C400.044 107.486 400.184 107.393 400.301 107.276C400.418 107.158 400.511 107.019 400.575 106.866C400.638 106.712 400.671 106.548 400.671 106.382L400.669 100.506L406.546 100.507C406.881 100.507 407.202 100.374 407.439 100.137C407.676 99.9004 407.809 99.579 407.809 99.2439C407.809 98.9088 407.676 98.5875 407.439 98.3505C407.202 98.1136 406.881 97.9805 406.546 97.9805L400.669 97.9822L400.671 92.1057C400.671 91.7711 400.538 91.4502 400.301 91.2136Z" fill="white"/>
</svg>
