<svg width="513" height="279" viewBox="0 0 513 279" fill="none" xmlns="http://www.w3.org/2000/svg">
<rect x="106.751" y="20.6631" width="323.22" height="59.3064" rx="29.6532" fill="#DAE1F4"/>
<rect x="70.1792" y="77.9922" width="432.936" height="64.2486" rx="32.1243" fill="#DAE1F4"/>
<rect x="119.601" y="142.241" width="366.711" height="52.3873" rx="26.1936" fill="#DAE1F4"/>
<rect x="36.5723" y="194.628" width="476.428" height="60.2948" rx="30.1474" fill="#DAE1F4"/>
<path d="M164.081 118.656C164.08 110.278 166.876 102.142 172.019 95.5507C177.163 88.9597 184.357 84.2949 192.45 82.3033C192.784 68.9909 198.277 56.3365 207.756 47.0376C217.235 37.7387 229.951 32.5309 243.194 32.5244C250.871 32.5209 258.448 34.2714 265.354 37.6437C272.26 41.016 278.313 45.922 283.058 51.9912C286.918 47.0061 292.306 43.4415 298.386 41.8506C304.467 40.2597 310.899 40.7314 316.686 43.1926C322.472 45.6538 327.289 49.9668 330.389 55.4623C333.489 60.9578 334.698 67.3285 333.829 73.5858C339.785 72.5025 345.904 72.7474 351.755 74.3032C357.606 75.8591 363.046 78.6879 367.691 82.5899C372.336 86.4919 376.072 91.3718 378.635 96.885C381.198 102.398 382.527 108.41 382.526 114.496C382.528 119.955 381.46 125.361 379.384 130.405C377.309 135.449 374.265 140.033 370.428 143.894C366.591 147.756 362.034 150.819 357.02 152.91C352.005 155.001 346.63 156.078 341.201 156.079H201.214C191.359 156.058 181.916 152.105 174.957 145.088C167.997 138.072 164.091 128.566 164.094 118.656H164.081Z" fill="white"/>
<rect x="161.313" y="106.917" width="255.073" height="164.563" rx="17" fill="#6A8CFF" stroke="#3F71FD" stroke-width="6"/>
<path d="M147 256.578C147 253.819 149.237 251.583 151.996 251.583H425.876C428.635 251.583 430.871 253.819 430.871 256.578V256.578C430.871 266.695 422.67 274.896 412.554 274.896H165.317C155.201 274.896 147 266.695 147 256.578V256.578Z" fill="#3F71FD"/>
<path fill-rule="evenodd" clip-rule="evenodd" d="M289.199 169.083C278.182 169.083 269.251 178.014 269.251 189.031C269.251 200.048 278.182 208.98 289.199 208.98C300.216 208.98 309.148 200.048 309.148 189.031C309.148 178.014 300.216 169.083 289.199 169.083ZM297.846 185.658C298.005 185.476 298.127 185.264 298.203 185.034C298.279 184.805 298.308 184.562 298.289 184.321C298.27 184.08 298.203 183.845 298.092 183.631C297.981 183.416 297.828 183.225 297.642 183.071C297.457 182.916 297.242 182.8 297.01 182.729C296.779 182.659 296.536 182.635 296.295 182.66C296.055 182.685 295.822 182.757 295.61 182.874C295.398 182.99 295.211 183.147 295.061 183.337L287.263 192.692L283.228 188.656C282.886 188.325 282.427 188.142 281.952 188.147C281.477 188.151 281.022 188.341 280.685 188.678C280.349 189.014 280.158 189.469 280.154 189.944C280.15 190.42 280.333 190.878 280.663 191.22L286.104 196.66C286.282 196.838 286.495 196.977 286.73 197.069C286.965 197.16 287.216 197.201 287.468 197.189C287.72 197.178 287.966 197.114 288.192 197.002C288.418 196.89 288.617 196.732 288.779 196.539L297.846 185.658Z" fill="white"/>
<rect x="45.0728" y="168.554" width="156.366" height="102.755" rx="16" fill="#6A8CFF" stroke="#3F71FD" stroke-width="6"/>
<path fill-rule="evenodd" clip-rule="evenodd" d="M122.764 202.951C114.576 202.951 107.938 209.589 107.938 217.778C107.938 225.966 114.576 232.604 122.764 232.604C130.952 232.604 137.591 225.966 137.591 217.778C137.591 209.589 130.952 202.951 122.764 202.951ZM129.191 215.271C129.309 215.135 129.399 214.978 129.456 214.807C129.512 214.637 129.534 214.456 129.52 214.277C129.506 214.098 129.456 213.924 129.373 213.764C129.291 213.604 129.177 213.463 129.039 213.348C128.901 213.233 128.741 213.146 128.57 213.094C128.398 213.042 128.217 213.024 128.038 213.042C127.859 213.061 127.686 213.115 127.528 213.201C127.371 213.288 127.232 213.405 127.12 213.545L121.325 220.499L118.326 217.499C118.071 217.253 117.731 217.117 117.377 217.12C117.024 217.124 116.686 217.265 116.436 217.515C116.186 217.765 116.044 218.103 116.041 218.457C116.038 218.81 116.174 219.15 116.42 219.405L120.463 223.448C120.596 223.581 120.754 223.684 120.929 223.752C121.103 223.819 121.29 223.85 121.477 223.841C121.664 223.833 121.848 223.785 122.015 223.702C122.183 223.619 122.331 223.502 122.451 223.358L129.191 215.271Z" fill="white"/>
<rect x="384.305" y="154.32" width="54.3049" height="117.45" rx="11" fill="#6A8CFF" stroke="#3F71FD" stroke-width="6"/>
<path fill-rule="evenodd" clip-rule="evenodd" d="M411.362 198.207C404.935 198.207 399.725 203.417 399.725 209.843C399.725 216.27 404.935 221.48 411.362 221.48C417.788 221.48 422.998 216.27 422.998 209.843C422.998 203.417 417.788 198.207 411.362 198.207ZM416.406 207.876C416.499 207.769 416.569 207.646 416.614 207.512C416.658 207.378 416.675 207.236 416.664 207.096C416.653 206.955 416.614 206.818 416.549 206.693C416.484 206.568 416.395 206.457 416.287 206.366C416.178 206.276 416.053 206.208 415.918 206.167C415.783 206.126 415.641 206.112 415.501 206.127C415.361 206.141 415.225 206.184 415.101 206.251C414.977 206.319 414.868 206.411 414.781 206.521L410.232 211.979L407.878 209.624C407.679 209.431 407.411 209.325 407.134 209.327C406.857 209.33 406.591 209.441 406.395 209.637C406.199 209.833 406.088 210.099 406.085 210.376C406.083 210.653 406.19 210.921 406.382 211.12L409.556 214.294C409.66 214.398 409.784 214.479 409.921 214.532C410.058 214.585 410.205 214.609 410.352 214.602C410.499 214.596 410.642 214.558 410.774 214.493C410.906 214.428 411.022 214.336 411.116 214.223L416.406 207.876Z" fill="white"/>
<path fill-rule="evenodd" clip-rule="evenodd" d="M267.794 1.36502C267.494 1.06497 267.087 0.896371 266.663 0.896307L266.661 0.894043C266.45 0.893778 266.242 0.935043 266.047 1.01547C265.853 1.0959 265.676 1.21392 265.527 1.36276C265.378 1.5116 265.26 1.68834 265.18 1.88286C265.099 2.07738 265.058 2.28586 265.058 2.49636L265.061 9.94891L257.608 9.94665C257.183 9.94665 256.776 10.1155 256.475 10.416C256.175 10.7164 256.006 11.124 256.006 11.549C256.006 11.9739 256.175 12.3815 256.475 12.682C256.776 12.9825 257.183 13.1513 257.608 13.1513L265.061 13.149L265.058 20.6016C265.058 20.812 265.1 21.0203 265.18 21.2147C265.261 21.4091 265.379 21.5858 265.528 21.7346C265.677 21.8834 265.853 22.0014 266.048 22.0819C266.242 22.1624 266.45 22.2039 266.661 22.2039C266.871 22.2039 267.08 22.1624 267.274 22.0819C267.468 22.0014 267.645 21.8834 267.794 21.7346C267.943 21.5858 268.061 21.4091 268.141 21.2147C268.222 21.0203 268.263 20.812 268.263 20.6016L268.261 13.149L275.713 13.1513C276.138 13.1513 276.546 12.9825 276.846 12.682C277.147 12.3815 277.316 11.9739 277.316 11.549C277.316 11.124 277.147 10.7164 276.846 10.416C276.546 10.1155 276.138 9.94665 275.713 9.94665L268.261 9.94891L268.263 2.49635C268.263 2.07202 268.094 1.66508 267.794 1.36502Z" fill="#66F6FF"/>
<path fill-rule="evenodd" clip-rule="evenodd" d="M139.875 30.9624C139.611 30.6979 139.252 30.5494 138.878 30.5493L138.876 30.5473C138.691 30.5471 138.507 30.5834 138.335 30.6543C138.164 30.7252 138.008 30.8292 137.877 30.9604C137.746 31.0916 137.642 31.2473 137.571 31.4187C137.5 31.5902 137.464 31.7739 137.464 31.9594L137.466 38.5274L130.898 38.5254C130.523 38.5254 130.164 38.6741 129.899 38.939C129.635 39.2038 129.486 39.563 129.486 39.9375C129.486 40.312 129.635 40.6712 129.899 40.936C130.164 41.2008 130.523 41.3496 130.898 41.3496L137.466 41.3476L137.464 47.9155C137.464 48.101 137.5 48.2846 137.571 48.4559C137.642 48.6273 137.746 48.7829 137.878 48.9141C138.009 49.0452 138.164 49.1492 138.336 49.2202C138.507 49.2911 138.691 49.3277 138.876 49.3277C139.061 49.3277 139.245 49.2911 139.416 49.2202C139.588 49.1492 139.743 49.0452 139.875 48.9141C140.006 48.7829 140.11 48.6273 140.181 48.4559C140.252 48.2846 140.288 48.101 140.288 47.9155L140.286 41.3476L146.854 41.3496C147.229 41.3496 147.588 41.2008 147.853 40.936C148.117 40.6712 148.266 40.312 148.266 39.9375C148.266 39.563 148.117 39.2038 147.853 38.939C147.588 38.6741 147.229 38.5254 146.854 38.5254L140.286 38.5274L140.288 31.9594C140.288 31.5855 140.139 31.2268 139.875 30.9624Z" fill="#3F71FD"/>
<path fill-rule="evenodd" clip-rule="evenodd" d="M435.86 28.964C435.609 28.7135 435.27 28.5727 434.915 28.5727L434.914 28.5708C434.738 28.5706 434.564 28.605 434.401 28.6722C434.239 28.7393 434.091 28.8379 433.967 28.9621C433.843 29.0864 433.744 29.234 433.677 29.3964C433.61 29.5588 433.576 29.7329 433.576 29.9086L433.578 36.1309L427.355 36.129C427.001 36.129 426.66 36.2699 426.409 36.5208C426.159 36.7717 426.018 37.112 426.018 37.4668C426.018 37.8216 426.159 38.1618 426.409 38.4127C426.66 38.6636 427.001 38.8046 427.355 38.8046L433.578 38.8027L433.576 45.0249C433.576 45.2006 433.61 45.3746 433.678 45.5369C433.745 45.6992 433.843 45.8467 433.968 45.9709C434.092 46.0951 434.239 46.1936 434.402 46.2609C434.564 46.3281 434.738 46.3627 434.914 46.3627C435.089 46.3627 435.263 46.3281 435.425 46.2609C435.588 46.1936 435.735 46.0951 435.859 45.9709C435.984 45.8467 436.082 45.6992 436.149 45.5369C436.217 45.3746 436.251 45.2006 436.251 45.0249L436.249 38.8027L442.472 38.8046C442.826 38.8046 443.167 38.6636 443.418 38.4127C443.669 38.1618 443.809 37.8216 443.809 37.4668C443.809 37.112 443.669 36.7717 443.418 36.5208C443.167 36.2699 442.826 36.129 442.472 36.129L436.249 36.1309L436.251 29.9086C436.251 29.5543 436.111 29.2145 435.86 28.964Z" fill="#3F71FD"/>
<path fill-rule="evenodd" clip-rule="evenodd" d="M188.319 37.7239C188.155 37.5598 187.933 37.4676 187.701 37.4675L187.699 37.4663C187.584 37.4662 187.47 37.4887 187.364 37.5327C187.258 37.5767 187.161 37.6412 187.08 37.7226C186.998 37.804 186.934 37.9006 186.89 38.007C186.846 38.1134 186.823 38.2274 186.823 38.3425L186.824 42.4177L182.749 42.4165C182.517 42.4165 182.294 42.5088 182.13 42.6731C181.965 42.8374 181.873 43.0603 181.873 43.2927C181.873 43.525 181.965 43.7479 182.13 43.9122C182.294 44.0765 182.517 44.1688 182.749 44.1688L186.824 44.1676L186.823 48.2428C186.823 48.3579 186.846 48.4718 186.89 48.5781C186.934 48.6844 186.998 48.781 187.08 48.8624C187.161 48.9437 187.258 49.0083 187.364 49.0523C187.47 49.0963 187.584 49.119 187.699 49.119C187.814 49.119 187.928 49.0963 188.035 49.0523C188.141 49.0083 188.238 48.9437 188.319 48.8624C188.4 48.781 188.465 48.6844 188.509 48.5781C188.553 48.4718 188.576 48.3579 188.576 48.2428L188.574 44.1676L192.65 44.1688C192.882 44.1688 193.105 44.0765 193.269 43.9122C193.433 43.7479 193.526 43.525 193.526 43.2927C193.526 43.0603 193.433 42.8374 193.269 42.6731C193.105 42.5088 192.882 42.4165 192.65 42.4165L188.574 42.4177L188.576 38.3425C188.576 38.1104 188.483 37.8879 188.319 37.7239Z" fill="white"/>
<path fill-rule="evenodd" clip-rule="evenodd" d="M436.301 91.2136C436.065 90.977 435.744 90.844 435.409 90.844L435.408 90.8422C435.242 90.842 435.077 90.8745 434.924 90.938C434.77 91.0014 434.631 91.0944 434.514 91.2118C434.396 91.3292 434.303 91.4685 434.24 91.6219C434.176 91.7753 434.144 91.9397 434.144 92.1057L434.146 97.9822L428.269 97.9805C427.934 97.9805 427.613 98.1136 427.376 98.3505C427.139 98.5875 427.006 98.9088 427.006 99.2439C427.006 99.579 427.139 99.9004 427.376 100.137C427.613 100.374 427.934 100.507 428.269 100.507L434.146 100.506L434.144 106.382C434.144 106.548 434.177 106.712 434.24 106.866C434.304 107.019 434.397 107.158 434.514 107.276C434.632 107.393 434.771 107.486 434.924 107.549C435.077 107.613 435.242 107.646 435.408 107.646C435.574 107.646 435.738 107.613 435.891 107.549C436.044 107.486 436.184 107.393 436.301 107.276C436.418 107.158 436.511 107.019 436.575 106.866C436.638 106.712 436.671 106.548 436.671 106.382L436.669 100.506L442.546 100.507C442.881 100.507 443.202 100.374 443.439 100.137C443.676 99.9004 443.809 99.579 443.809 99.2439C443.809 98.9088 443.676 98.5875 443.439 98.3505C443.202 98.1136 442.881 97.9805 442.546 97.9805L436.669 97.9822L436.671 92.1057C436.671 91.7711 436.538 91.4502 436.301 91.2136Z" fill="white"/>
<path d="M0.0213532 42.2927L4.00825 82.8071C4.0947 83.7968 4.37788 84.7223 4.81309 85.548C4.88016 85.8506 4.96064 86.1517 5.06944 86.4497L22.3078 129.41V278.152H72.9988V153.167C72.9988 143.542 79.4643 135.115 88.7631 132.623C100.792 129.401 110.211 118.238 110.211 105.784V95.2909C110.211 92.2922 104.809 89.8545 101.809 89.8545C94.8102 89.8545 93.408 93.314 92.4195 100.233L92.9137 105.175C92.9137 109.59 88.0894 114.061 83.8268 115.203C77.6326 116.863 71.5501 112.197 71.5501 105.784V94.5219C71.5501 90.2518 73.7321 86.2798 77.3345 83.989C81.1142 81.585 86.0163 81.9084 89.4487 84.7879L90.5919 85.7463C95.953 90.2459 102.746 91.756 107.246 86.395C110.706 82.2731 110.073 78.461 107.775 76.5324L100.45 70.3859C91.4504 62.8339 78.6133 61.9351 68.6483 68.1562L60.4449 73.2788C60.1304 73.4755 59.7683 73.5784 59.3986 73.5784H59.3972C58.3091 73.5784 57.4253 72.699 57.4223 71.611V71.5305C57.4164 69.1637 57.7234 66.8073 58.336 64.521L66.6004 35.3831C68.4128 28.6225 64.4005 21.6726 57.6399 19.8617C54.7425 19.0852 51.7647 20.8052 50.9881 23.7026L41.7355 56.6977C41.6163 57.1225 40.9874 57.0078 41.0261 56.5696L42.5836 38.6412C43.1932 31.6689 38.0348 25.5224 31.0626 24.9128C28.0757 24.652 25.4407 26.8608 25.1798 29.8491L21.6967 69.7927C21.6594 70.2294 21.023 70.2353 20.9768 69.7986L18.686 47.928C18.0764 40.9558 11.9284 35.7989 4.95617 36.4085C1.97083 36.6708 -0.240963 39.3044 0.0213532 42.2927Z" fill="#BED5FF"/>
<path d="M0.0216215 42.2922L0.562648 47.789C1.32575 48.5834 2.43612 49.0245 3.61505 48.88L7.20848 48.4403C9.19374 48.1973 10.6052 46.3909 10.3622 44.4072L9.92256 40.8122C9.71092 39.0908 8.91205 37.587 7.751 36.4736C6.84333 36.3529 5.90883 36.3246 4.95942 36.408C1.97111 36.6703 -0.240694 39.3039 0.0216215 42.2922V42.2922ZM103.416 92.3573C103.52 92.3544 103.623 92.3484 103.727 92.3484C106.728 92.3484 109.158 94.7808 109.158 97.7795V105.102C108.728 105.284 108.255 105.384 107.757 105.384H104.137C102.137 105.384 100.515 103.762 100.515 101.763V98.1417C100.517 95.7749 101.659 93.6779 103.416 92.3573ZM31.0643 24.9123C31.5338 24.9526 31.9944 25.0211 32.4474 25.112C34.5773 26.5965 35.8382 29.1794 35.4999 31.9367L35.0587 35.5302C34.8143 37.5154 33.0079 38.9268 31.0226 38.6824L27.4292 38.2413C26.1712 38.0862 25.1443 37.3038 24.6227 36.2456L25.1816 29.8486C25.4424 26.8603 28.076 24.6515 31.0643 24.9123V24.9123ZM100.729 74.2456C101.548 73.3976 102.683 73.0398 103.769 73.171L107.777 76.5334C110.074 78.4605 110.375 81.8871 108.446 84.1838C107.68 85.0959 106.811 85.871 105.874 86.5104C104.084 86.494 102.297 85.8263 100.907 84.4849L98.3037 81.9705C96.8654 80.5799 96.8251 78.2891 98.2142 76.8494L100.729 74.2456ZM57.6417 19.8612C57.7296 19.8851 57.8146 19.9134 57.9025 19.9388C58.9905 21.6319 59.3766 23.7632 58.7789 25.8498L57.7803 29.33C57.2289 31.2526 55.2242 32.363 53.3016 31.8115L49.8214 30.8129C49.5576 30.7384 49.3117 30.6326 49.0807 30.5074L50.9884 23.7021C51.7664 20.8047 54.7443 19.0847 57.6417 19.8612V19.8612Z" fill="#ADC3FC"/>
</svg>
