<svg width="501" height="347" viewBox="0 0 501 347" fill="none" xmlns="http://www.w3.org/2000/svg">
<rect x="39.6836" y="65.6729" width="393.474" height="60.5345" rx="30.2672" fill="#DAE1F4"/>
<rect x="95.4297" y="24.1096" width="289.334" height="44.669" rx="22.3345" fill="#DAE1F4"/>
<rect x="93.3984" y="124.465" width="386.57" height="66.2135" rx="33.1068" fill="#DAE1F4"/>
<rect y="190.777" width="460.062" height="53.8084" rx="26.9042" fill="#DAE1F4"/>
<rect x="69.0347" y="244.409" width="365.474" height="54.8211" rx="27.4105" fill="#DAE1F4"/>
<path d="M112.477 194.21C113.546 193.883 114.658 193.715 115.78 193.715C118.114 193.715 120.464 194.442 122.476 195.954C126.723 199.146 128.129 204.884 125.848 209.673L109.547 243.871L110.517 251.447C110.812 253.718 110.954 255.999 110.954 258.275C110.954 266.705 108.957 275.05 105.09 282.61L106.562 346.186C75.3375 346.186 77.4859 346.186 46.871 346.186L48.2015 277.415L42.5273 266.367C29.9461 241.869 32.3275 212.36 48.6756 190.201L66.5359 165.992L84.2907 141.973L112.477 194.21Z" fill="#BED5FF"/>
<path d="M82.0117 90.7711C82.0117 70.3562 98.5613 53.8066 118.976 53.8066H393.483C413.898 53.8066 430.448 70.3562 430.448 90.7711V238.629C430.448 259.044 413.898 275.594 393.483 275.594H118.976C98.5613 275.594 82.0117 259.044 82.0117 238.629V90.7711Z" fill="#6A8CFF"/>
<path fill-rule="evenodd" clip-rule="evenodd" d="M393.483 68.35H118.976C106.593 68.35 96.5551 78.3883 96.5551 90.7711V238.629C96.5551 251.012 106.593 261.05 118.976 261.05H393.483C405.866 261.05 415.904 251.012 415.904 238.629V90.7711C415.904 78.3883 405.866 68.35 393.483 68.35ZM118.976 53.8066C98.5613 53.8066 82.0117 70.3562 82.0117 90.7711V238.629C82.0117 259.044 98.5613 275.594 118.976 275.594H393.483C413.898 275.594 430.448 259.044 430.448 238.629V90.7711C430.448 70.3562 413.898 53.8066 393.483 53.8066H118.976Z" fill="#3F71FD"/>
<path d="M370.844 97.437C377.323 97.437 382.575 101.941 382.575 107.496L382.575 238.266C382.575 243.821 377.323 248.325 370.844 248.325L158.582 248.325C152.103 248.325 146.851 243.821 146.851 238.266L146.851 107.496C146.851 101.941 152.103 97.437 158.582 97.437L370.844 97.437Z" fill="#585D97"/>
<path d="M364.483 85.9231C371.128 85.9231 376.516 90.6076 376.516 96.3863L376.516 232.408C376.516 238.186 371.128 242.871 364.483 242.871L146.764 242.871C140.119 242.871 134.731 238.186 134.731 232.408L134.731 96.3863C134.731 90.6076 140.119 85.9231 146.764 85.9231L364.483 85.9231Z" fill="white"/>
<path fill-rule="evenodd" clip-rule="evenodd" d="M376.516 96.4134C376.516 90.6198 371.128 85.9231 364.483 85.9231L146.764 85.9231C140.119 85.9231 134.731 90.6198 134.731 96.4134V105.92L376.516 105.92V96.4134Z" fill="#3F71FD"/>
<path d="M176.105 97.6075H177.035V95.0485H178.039V94.3087H175.096V95.0485H176.105V97.6075Z" fill="white"/>
<path d="M179.531 97.6735C180.508 97.6735 180.986 97.1834 180.986 96.6084C180.986 95.3926 179.123 95.7696 179.123 95.2653C179.123 95.1004 179.264 94.9684 179.653 94.9684C179.94 94.9684 180.249 95.0533 180.564 95.2229L180.85 94.5301C180.526 94.3416 180.085 94.2427 179.658 94.2427C178.682 94.2427 178.203 94.7234 178.203 95.3125C178.203 96.5377 180.071 96.156 180.071 96.6791C180.071 96.8394 179.921 96.9478 179.536 96.9478C179.156 96.9478 178.743 96.8158 178.452 96.6226L178.146 97.3106C178.456 97.5274 178.991 97.6735 179.531 97.6735Z" fill="white"/>
<path d="M182.069 97.6075H182.999V95.0485H184.003V94.3087H181.06V95.0485H182.069V97.6075Z" fill="white"/>
<path d="M186.87 97.6735C187.847 97.6735 188.326 97.1834 188.326 96.6084C188.326 95.3926 186.462 95.7696 186.462 95.2653C186.462 95.1004 186.603 94.9684 186.992 94.9684C187.279 94.9684 187.589 95.0533 187.903 95.2229L188.189 94.5301C187.866 94.3416 187.424 94.2427 186.997 94.2427C186.021 94.2427 185.542 94.7234 185.542 95.3125C185.542 96.5377 187.41 96.156 187.41 96.6791C187.41 96.8394 187.26 96.9478 186.875 96.9478C186.495 96.9478 186.082 96.8158 185.791 96.6226L185.486 97.3106C185.795 97.5274 186.331 97.6735 186.87 97.6735Z" fill="white"/>
<path d="M191.215 97.6075H192.182L190.726 94.3087H189.811L188.361 97.6075H189.309L189.567 96.9666H190.956L191.215 97.6075ZM189.839 96.2786L190.262 95.2229L190.684 96.2786H189.839Z" fill="white"/>
<path d="M192.445 97.6075H194.942V96.8676H193.374V94.3087H192.445V97.6075Z" fill="white"/>
<path d="M196.794 97.6735C197.766 97.6735 198.339 97.1221 198.339 96.1372V94.3087H197.423V96.1089C197.423 96.6744 197.189 96.9006 196.804 96.9006C196.414 96.9006 196.179 96.6744 196.179 96.1089V94.3087H195.25V96.1372C195.25 97.1221 195.823 97.6735 196.794 97.6735Z" fill="white"/>
<path d="M198.968 97.6075H200.522C201.611 97.6075 202.357 96.9713 202.357 95.9581C202.357 94.9449 201.611 94.3087 200.522 94.3087H198.968V97.6075ZM199.898 96.8629V95.0533H200.484C201.043 95.0533 201.419 95.3879 201.419 95.9581C201.419 96.5283 201.043 96.8629 200.484 96.8629H199.898Z" fill="white"/>
<path d="M167.523 92.7001C167.916 92.7001 168.235 92.3719 168.235 91.967C168.235 91.5621 167.916 91.2339 167.523 91.2339C167.129 91.2339 166.811 91.5621 166.811 91.967C166.811 92.3719 167.129 92.7001 167.523 92.7001Z" fill="white"/>
<path d="M167.02 93.3704C167.02 93.3704 177.2 95.2186 167.02 98.3975C167.02 98.3975 172.387 95.7851 167.02 93.3704Z" fill="white"/>
<path d="M168.235 95.5066C168.235 95.5066 159.28 97.4035 168.235 100.659C168.235 100.659 163.513 97.9864 168.235 95.5066Z" fill="white"/>
<path fill-rule="evenodd" clip-rule="evenodd" d="M164.425 227.721V112.586H165.031V227.721H164.425Z" fill="#66B0E9"/>
<path fill-rule="evenodd" clip-rule="evenodd" d="M268.652 227.721V112.586H269.258V227.721H268.652Z" fill="#66B0E9"/>
<path fill-rule="evenodd" clip-rule="evenodd" d="M164.424 205.3L347.429 205.3L347.429 204.694L164.424 204.694L164.424 205.3Z" fill="#66B0E9"/>
<path fill-rule="evenodd" clip-rule="evenodd" d="M216.539 227.721V112.586H217.145V227.721H216.539Z" fill="#66B0E9"/>
<path fill-rule="evenodd" clip-rule="evenodd" d="M321.373 227.721V112.586H321.979V227.721H321.373Z" fill="#66B0E9"/>
<path fill-rule="evenodd" clip-rule="evenodd" d="M164.424 162.276L347.429 162.276L347.429 161.67L164.424 161.67L164.424 162.276Z" fill="#66B0E9"/>
<path fill-rule="evenodd" clip-rule="evenodd" d="M347.429 227.721V118.646H348.035V227.721H347.429Z" fill="#66B0E9"/>
<path fill-rule="evenodd" clip-rule="evenodd" d="M164.424 119.252L347.429 119.252L347.429 118.646L164.424 118.646L164.424 119.252Z" fill="#66B0E9"/>
<path fill-rule="evenodd" clip-rule="evenodd" d="M164.424 112.586L347.429 112.586L347.429 111.98L164.424 111.98L164.424 112.586Z" fill="#66B0E9"/>
<path fill-rule="evenodd" clip-rule="evenodd" d="M189.875 227.721V112.586H190.481V227.721H189.875Z" fill="#66B0E9"/>
<path fill-rule="evenodd" clip-rule="evenodd" d="M295.315 227.721V112.586H295.921V227.721H295.315Z" fill="#66B0E9"/>
<path fill-rule="evenodd" clip-rule="evenodd" d="M164.424 184.091L347.429 184.091L347.429 183.485L164.424 183.485L164.424 184.091Z" fill="#66B0E9"/>
<path fill-rule="evenodd" clip-rule="evenodd" d="M242.595 227.721V112.586H243.201V227.721H242.595Z" fill="#66B0E9"/>
<path fill-rule="evenodd" clip-rule="evenodd" d="M164.424 227.722L347.429 227.722L347.429 227.116L164.424 227.116L164.424 227.722Z" fill="#66B0E9"/>
<path fill-rule="evenodd" clip-rule="evenodd" d="M347.429 227.721V112.586H348.035V227.721H347.429Z" fill="#66B0E9"/>
<path fill-rule="evenodd" clip-rule="evenodd" d="M164.424 141.066L347.429 141.066L347.429 140.46L164.424 140.46L164.424 141.066Z" fill="#66B0E9"/>
<path d="M134.732 222.268C130.223 221.672 126.854 217.828 126.854 213.281L126.854 194.807C126.854 190.276 130.235 186.458 134.732 185.91L134.732 222.268Z" fill="#EF2A82"/>
<path d="M134.732 185.909C130.226 185.324 126.854 181.485 126.854 176.942L126.854 159.036C126.854 154.509 130.237 150.696 134.732 150.157L134.732 185.909Z" fill="#0088F0"/>
<path d="M134.732 148.339C130.226 147.753 126.854 143.915 126.854 139.371L126.854 121.465C126.854 116.938 130.237 113.126 134.732 112.586L134.732 148.339Z" fill="#6B7CEB"/>
<path d="M93 184.18C93 186.685 95.2864 188.617 97.7369 188.1C104.548 186.662 109 184.429 109 173.797C109 160.863 109 165.918 109 155.454C109 146.85 104.566 143.224 97.7404 141.157C95.3245 140.425 93 142.355 93 144.88L93 184.18Z" fill="#3F71FD"/>
<path d="M178.361 153.187C178.361 151.513 179.718 150.157 181.391 150.157C183.065 150.157 184.421 151.513 184.421 153.187V153.793C184.421 155.466 183.065 156.822 181.391 156.822C179.718 156.822 178.361 155.466 178.361 153.793V153.187Z" fill="#BED5FF"/>
<path d="M178.361 174.396C178.361 172.723 179.718 171.366 181.391 171.366C183.065 171.366 184.421 172.723 184.421 174.396V175.608C184.421 177.281 183.065 178.638 181.391 178.638C179.718 178.638 178.361 177.281 178.361 175.608V174.396Z" fill="#BED5FF"/>
<path d="M192.906 173.789C192.906 171.112 195.076 168.942 197.754 168.942H290.468C293.145 168.942 295.316 171.112 295.316 173.789V175.607C295.316 178.285 293.145 180.455 290.468 180.455H197.754C195.076 180.455 192.906 178.285 192.906 175.607V173.789Z" fill="#F45979"/>
<path d="M272.895 195.604C272.895 192.927 275.065 190.757 277.742 190.757H316.525C319.202 190.757 321.373 192.927 321.373 195.604V197.422C321.373 200.1 319.202 202.27 316.525 202.27H277.742C275.065 202.27 272.895 200.1 272.895 197.422V195.604Z" fill="#F45979"/>
<path d="M178.361 196.211C178.361 194.538 179.718 193.181 181.391 193.181C183.065 193.181 184.421 194.538 184.421 196.211V196.817C184.421 198.491 183.065 199.847 181.391 199.847C179.718 199.847 178.361 198.491 178.361 196.817V196.211Z" fill="#BED5FF"/>
<path d="M178.361 218.026C178.361 216.353 179.718 214.996 181.391 214.996C183.065 214.996 184.421 216.353 184.421 218.026V219.238C184.421 220.912 183.065 222.268 181.391 222.268C179.718 222.268 178.361 220.912 178.361 219.238V218.026Z" fill="#BED5FF"/>
<path d="M204.419 153.49C204.419 151.649 205.912 150.157 207.752 150.157C209.593 150.157 211.085 151.649 211.085 153.49C211.085 155.33 209.593 156.822 207.752 156.822C205.912 156.822 204.419 155.33 204.419 153.49Z" fill="#BED5FF"/>
<path d="M204.419 174.699C204.419 172.858 205.912 171.366 207.752 171.366C209.593 171.366 211.085 172.858 211.085 174.699V175.305C211.085 177.146 209.593 178.638 207.752 178.638C205.912 178.638 204.419 177.146 204.419 175.305V174.699Z" fill="white"/>
<path d="M204.419 196.514C204.419 194.674 205.912 193.181 207.752 193.181C209.593 193.181 211.085 194.674 211.085 196.514C211.085 198.355 209.593 199.847 207.752 199.847C205.912 199.847 204.419 198.355 204.419 196.514Z" fill="#BED5FF"/>
<path d="M204.419 218.329C204.419 216.489 205.912 214.996 207.752 214.996C209.593 214.996 211.085 216.489 211.085 218.329V218.935C211.085 220.776 209.593 222.268 207.752 222.268C205.912 222.268 204.419 220.776 204.419 218.935V218.329Z" fill="#BED5FF"/>
<path d="M231.082 153.49C231.082 151.649 232.574 150.157 234.415 150.157C236.256 150.157 237.748 151.649 237.748 153.49C237.748 155.33 236.256 156.822 234.415 156.822C232.574 156.822 231.082 155.33 231.082 153.49Z" fill="#BED5FF"/>
<path d="M231.082 174.699C231.082 172.858 232.574 171.366 234.415 171.366C236.256 171.366 237.748 172.858 237.748 174.699V175.305C237.748 177.146 236.256 178.638 234.415 178.638C232.574 178.638 231.082 177.146 231.082 175.305V174.699Z" fill="white"/>
<path d="M231.082 196.514C231.082 194.674 232.574 193.181 234.415 193.181C236.256 193.181 237.748 194.674 237.748 196.514C237.748 198.355 236.256 199.847 234.415 199.847C232.574 199.847 231.082 198.355 231.082 196.514Z" fill="#BED5FF"/>
<path d="M231.082 218.329C231.082 216.489 232.574 214.996 234.415 214.996C236.256 214.996 237.748 216.489 237.748 218.329V218.935C237.748 220.776 236.256 222.268 234.415 222.268C232.574 222.268 231.082 220.776 231.082 218.935V218.329Z" fill="#BED5FF"/>
<path d="M257.139 153.49C257.139 151.649 258.631 150.157 260.472 150.157H261.078C262.918 150.157 264.41 151.649 264.41 153.49C264.41 155.33 262.918 156.822 261.078 156.822H260.472C258.631 156.822 257.139 155.33 257.139 153.49Z" fill="#BED5FF"/>
<path d="M257.139 175.002C257.139 172.994 258.766 171.366 260.775 171.366C262.783 171.366 264.41 172.994 264.41 175.002C264.41 177.01 262.783 178.638 260.775 178.638C258.766 178.638 257.139 177.01 257.139 175.002Z" fill="white"/>
<path d="M257.139 196.514C257.139 194.674 258.631 193.181 260.472 193.181H261.078C262.918 193.181 264.41 194.674 264.41 196.514C264.41 198.355 262.918 199.847 261.078 199.847H260.472C258.631 199.847 257.139 198.355 257.139 196.514Z" fill="#BED5FF"/>
<path d="M257.139 218.632C257.139 216.624 258.766 214.996 260.775 214.996C262.783 214.996 264.41 216.624 264.41 218.632C264.41 220.64 262.783 222.268 260.775 222.268C258.766 222.268 257.139 220.64 257.139 218.632Z" fill="#BED5FF"/>
<path d="M283.802 153.49C283.802 151.649 285.294 150.157 287.135 150.157H287.741C289.581 150.157 291.073 151.649 291.073 153.49C291.073 155.33 289.581 156.822 287.741 156.822H287.135C285.294 156.822 283.802 155.33 283.802 153.49Z" fill="#BED5FF"/>
<path d="M283.802 175.002C283.802 172.994 285.43 171.366 287.438 171.366C289.446 171.366 291.073 172.994 291.073 175.002C291.073 177.01 289.446 178.638 287.438 178.638C285.43 178.638 283.802 177.01 283.802 175.002Z" fill="white"/>
<path d="M283.802 196.514C283.802 194.674 285.294 193.181 287.135 193.181H287.741C289.581 193.181 291.073 194.674 291.073 196.514C291.073 198.355 289.581 199.847 287.741 199.847H287.135C285.294 199.847 283.802 198.355 283.802 196.514Z" fill="#BED5FF"/>
<path d="M283.802 218.632C283.802 216.624 285.43 214.996 287.438 214.996C289.446 214.996 291.073 216.624 291.073 218.632C291.073 220.64 289.446 222.268 287.438 222.268C285.43 222.268 283.802 220.64 283.802 218.632Z" fill="#BED5FF"/>
<path d="M310.465 153.49C310.465 151.649 311.958 150.157 313.798 150.157C315.639 150.157 317.131 151.649 317.131 153.49C317.131 155.33 315.639 156.822 313.798 156.822C311.958 156.822 310.465 155.33 310.465 153.49Z" fill="#BED5FF"/>
<path d="M310.465 174.699C310.465 172.858 311.958 171.366 313.798 171.366C315.639 171.366 317.131 172.858 317.131 174.699V175.305C317.131 177.146 315.639 178.638 313.798 178.638C311.958 178.638 310.465 177.146 310.465 175.305V174.699Z" fill="#BED5FF"/>
<path d="M310.465 196.514C310.465 194.674 311.958 193.181 313.798 193.181C315.639 193.181 317.131 194.674 317.131 196.514C317.131 198.355 315.639 199.847 313.798 199.847C311.958 199.847 310.465 198.355 310.465 196.514Z" fill="#BED5FF"/>
<path d="M337.127 153.49C337.127 151.649 338.62 150.157 340.46 150.157C342.301 150.157 343.793 151.649 343.793 153.49C343.793 155.33 342.301 156.822 340.46 156.822C338.62 156.822 337.127 155.33 337.127 153.49Z" fill="#BED5FF"/>
<path d="M337.127 174.699C337.127 172.858 338.62 171.366 340.46 171.366C342.301 171.366 343.793 172.858 343.793 174.699V175.305C343.793 177.146 342.301 178.638 340.46 178.638C338.62 178.638 337.127 177.146 337.127 175.305V174.699Z" fill="#BED5FF"/>
<path d="M337.127 196.514C337.127 194.674 338.62 193.181 340.46 193.181C342.301 193.181 343.793 194.674 343.793 196.514C343.793 198.355 342.301 199.847 340.46 199.847C338.62 199.847 337.127 198.355 337.127 196.514Z" fill="#BED5FF"/>
<path d="M231.082 131.674C231.082 129.833 232.574 128.341 234.415 128.341C236.256 128.341 237.748 129.833 237.748 131.674V132.28C237.748 134.12 236.256 135.613 234.415 135.613C232.574 135.613 231.082 134.12 231.082 132.28V131.674Z" fill="#BED5FF"/>
<path d="M257.139 131.977C257.139 129.969 258.766 128.341 260.775 128.341C262.783 128.341 264.41 129.969 264.41 131.977C264.41 133.985 262.783 135.613 260.775 135.613C258.766 135.613 257.139 133.985 257.139 131.977Z" fill="#BED5FF"/>
<path d="M283.802 131.977C283.802 129.969 285.43 128.341 287.438 128.341C289.446 128.341 291.073 129.969 291.073 131.977C291.073 133.985 289.446 135.613 287.438 135.613C285.43 135.613 283.802 133.985 283.802 131.977Z" fill="#BED5FF"/>
<path d="M310.465 131.674C310.465 129.833 311.958 128.341 313.798 128.341C315.639 128.341 317.131 129.833 317.131 131.674V132.28C317.131 134.12 315.639 135.613 313.798 135.613C311.958 135.613 310.465 134.12 310.465 132.28V131.674Z" fill="#BED5FF"/>
<path d="M337.127 131.674C337.127 129.833 338.62 128.341 340.46 128.341C342.301 128.341 343.793 129.833 343.793 131.674V132.28C343.793 134.12 342.301 135.613 340.46 135.613C338.62 135.613 337.127 134.12 337.127 132.28V131.674Z" fill="#BED5FF"/>
<path d="M216.87 141.189L222.593 141.189L216.87 147.331L216.87 141.189Z" fill="#F45979"/>
<path d="M168.061 115.919C168.061 115.083 168.739 114.405 169.576 114.405H184.725C185.562 114.405 186.24 115.083 186.24 115.919C186.24 116.756 185.562 117.434 184.725 117.434H169.576C168.739 117.434 168.061 116.756 168.061 115.919Z" fill="#BED5FF"/>
<path d="M194.117 115.919C194.117 115.083 194.795 114.405 195.632 114.405H210.782C211.618 114.405 212.296 115.083 212.296 115.919C212.296 116.756 211.618 117.434 210.782 117.434H195.632C194.795 117.434 194.117 116.756 194.117 115.919Z" fill="#BED5FF"/>
<path d="M220.78 115.919C220.78 115.083 221.458 114.405 222.295 114.405H237.444C238.281 114.405 238.959 115.083 238.959 115.919C238.959 116.756 238.281 117.434 237.444 117.434H222.295C221.458 117.434 220.78 116.756 220.78 115.919Z" fill="#BED5FF"/>
<path d="M246.838 115.919C246.838 115.083 247.516 114.405 248.353 114.405H263.502C264.339 114.405 265.017 115.083 265.017 115.919C265.017 116.756 264.339 117.434 263.502 117.434H248.353C247.516 117.434 246.838 116.756 246.838 115.919Z" fill="#BED5FF"/>
<path d="M272.895 115.919C272.895 115.083 273.573 114.405 274.409 114.405H289.559C290.396 114.405 291.074 115.083 291.074 115.919C291.074 116.756 290.396 117.434 289.559 117.434H274.409C273.573 117.434 272.895 116.756 272.895 115.919Z" fill="#BED5FF"/>
<path d="M299.557 115.919C299.557 115.083 300.235 114.405 301.072 114.405H315.615C316.452 114.405 317.13 115.083 317.13 115.919C317.13 116.756 316.452 117.434 315.615 117.434H301.072C300.235 117.434 299.557 116.756 299.557 115.919Z" fill="#BED5FF"/>
<path d="M299.557 123.191C299.557 122.689 299.964 122.282 300.466 122.282H316.221C316.723 122.282 317.13 122.689 317.13 123.191C317.13 123.693 316.723 124.1 316.221 124.1H300.466C299.964 124.1 299.557 123.693 299.557 123.191Z" fill="#BED5FF"/>
<path d="M299.557 126.523C299.557 125.854 300.099 125.311 300.769 125.311H308.646C309.316 125.311 309.858 125.854 309.858 126.523C309.858 127.193 309.316 127.735 308.646 127.735H300.769C300.099 127.735 299.557 127.193 299.557 126.523Z" fill="#BED5FF"/>
<path d="M325.614 115.919C325.614 115.083 326.293 114.405 327.129 114.405H342.279C343.115 114.405 343.794 115.083 343.794 115.919C343.794 116.756 343.115 117.434 342.279 117.434H327.129C326.293 117.434 325.614 116.756 325.614 115.919Z" fill="#BED5FF"/>
<path d="M122.477 195.953C120.464 194.441 118.114 193.714 115.78 193.714C114.658 193.714 113.546 193.882 112.477 194.209C110.217 194.91 108.157 196.327 106.676 198.408L70.4659 249.354L60.7271 261.139L76.2928 296.636H105.635L105.091 282.609C108.958 275.049 110.954 266.703 110.954 258.274C110.954 255.998 110.812 253.717 110.517 251.446L109.548 243.87L125.848 209.672C128.13 204.883 126.723 199.145 122.477 195.953Z" fill="#BED5FF"/>
<path d="M99 156.905C99 155.853 99.8954 155 101 155C102.105 155 103 155.853 103 156.905V173.095C103 174.147 102.105 175 101 175C99.8954 175 99 174.147 99 173.095V156.905Z" fill="#3561DE"/>
<path d="M309.809 269.58L299.972 265.618L298.575 265.987C295.672 266.753 293.508 269.179 293.076 272.15L287.434 311.031C286.719 315.95 288.993 320.823 293.22 323.437L318.602 339.131V346.693C347.708 346.693 356.338 346.693 386.564 346.693V341.616L399.482 332.534C403.62 329.625 406.083 324.884 406.083 319.826V257.404C406.083 250.469 404.643 244.846 397.708 244.846C390.774 244.846 385.151 250.468 385.151 257.404V252.412C385.151 245.477 379.529 239.856 372.594 239.856C365.659 239.856 360.037 245.477 360.037 252.412V247.421C360.037 240.486 354.415 234.864 347.479 234.864C340.544 234.864 334.923 240.486 334.923 247.421V195.295C334.923 188.359 329.301 182.738 322.365 182.738C315.431 182.738 309.808 188.359 309.808 195.295V269.58H309.809Z" fill="#BED5FF"/>
<path d="M322.152 188.053C331.159 188.053 332.048 193.371 331.677 201.555C325.371 199.535 319.728 199.535 313.421 201.555C313.421 193.829 314.313 188.053 322.152 188.053Z" fill="#94BAFF"/>
<path d="M107.999 196.837C110.432 194.843 119.262 196.489 118.752 203.125C118.242 209.762 115.422 220.311 110.65 215.344C105.878 210.377 100.225 207.518 100.013 207.65C99.8018 207.781 105.566 198.83 107.999 196.837Z" fill="#94BAFF"/>
<path fill-rule="evenodd" clip-rule="evenodd" d="M46.5339 147.016C46.2331 146.716 45.8252 146.547 45.3999 146.546L45.3976 146.544C45.1866 146.544 44.9776 146.585 44.7826 146.666C44.5877 146.747 44.4105 146.865 44.2613 147.014C44.1121 147.163 43.9938 147.34 43.9132 147.535C43.8326 147.73 43.7912 147.939 43.7915 148.15L43.7937 155.621L36.3234 155.618C35.8974 155.618 35.4889 155.788 35.1877 156.089C34.8865 156.39 34.7173 156.799 34.7173 157.225C34.7173 157.65 34.8865 158.059 35.1877 158.36C35.4889 158.661 35.8974 158.831 36.3234 158.831L43.7937 158.828L43.7915 166.299C43.7915 166.51 43.833 166.718 43.9137 166.913C43.9944 167.108 44.1128 167.285 44.2619 167.434C44.411 167.584 44.5881 167.702 44.783 167.783C44.9778 167.863 45.1867 167.905 45.3976 167.905C45.6085 167.905 45.8174 167.863 46.0122 167.783C46.2071 167.702 46.3842 167.584 46.5333 167.434C46.6825 167.285 46.8008 167.108 46.8815 166.913C46.9622 166.718 47.0037 166.51 47.0037 166.299L47.0015 158.828L54.4718 158.831C54.8978 158.831 55.3063 158.661 55.6075 158.36C55.9087 158.059 56.0779 157.65 56.0779 157.225C56.0779 156.799 55.9087 156.39 55.6075 156.089C55.3063 155.788 54.8978 155.618 54.4718 155.618L47.0015 155.621L47.0037 148.15C47.0037 147.725 46.8347 147.317 46.5339 147.016Z" fill="#66F6FF"/>
<path fill-rule="evenodd" clip-rule="evenodd" d="M53.1073 87.21C52.8423 86.9449 52.4828 86.796 52.1079 86.7959L52.1059 86.7939C51.92 86.7937 51.7358 86.8302 51.564 86.9012C51.3921 86.9723 51.236 87.0765 51.1045 87.208C50.973 87.3395 50.8688 87.4956 50.7977 87.6675C50.7267 87.8393 50.6902 88.0235 50.6904 88.2094L50.6924 94.793L44.1088 94.791C43.7334 94.791 43.3734 94.9402 43.1079 95.2056C42.8425 95.4711 42.6934 95.8311 42.6934 96.2065C42.6934 96.5819 42.8425 96.942 43.1079 97.2074C43.3734 97.4729 43.7334 97.622 44.1088 97.622L50.6924 97.62L50.6904 104.204C50.6904 104.389 50.7271 104.574 50.7982 104.745C50.8693 104.917 50.9736 105.073 51.105 105.204C51.2365 105.336 51.3925 105.44 51.5642 105.511C51.736 105.582 51.92 105.619 52.1059 105.619C52.2918 105.619 52.4759 105.582 52.6476 105.511C52.8193 105.44 52.9754 105.336 53.1068 105.204C53.2383 105.073 53.3425 104.917 53.4137 104.745C53.4848 104.574 53.5214 104.389 53.5214 104.204L53.5194 97.62L60.103 97.622C60.4784 97.622 60.8384 97.4729 61.1039 97.2074C61.3694 96.942 61.5185 96.5819 61.5185 96.2065C61.5185 95.8311 61.3694 95.4711 61.1039 95.2056C60.8384 94.9402 60.4784 94.791 60.103 94.791L53.5194 94.793L53.5214 88.2094C53.5214 87.8346 53.3724 87.4751 53.1073 87.21Z" fill="white"/>
<path fill-rule="evenodd" clip-rule="evenodd" d="M70.3849 127.608C70.2205 127.443 69.9974 127.351 69.7648 127.351L69.7636 127.35C69.6482 127.349 69.5339 127.372 69.4273 127.416C69.3207 127.46 69.2238 127.525 69.1422 127.607C69.0606 127.688 68.9959 127.785 68.9519 127.892C68.9078 127.998 68.8852 128.113 68.8853 128.228L68.8865 132.313L64.8016 132.312C64.5687 132.312 64.3453 132.404 64.1806 132.569C64.0159 132.734 63.9233 132.957 63.9233 133.19C63.9233 133.423 64.0159 133.646 64.1806 133.811C64.3453 133.976 64.5687 134.068 64.8016 134.068L68.8865 134.067L68.8853 138.152C68.8853 138.267 68.908 138.381 68.9522 138.488C68.9963 138.594 69.061 138.691 69.1425 138.773C69.2241 138.854 69.3209 138.919 69.4275 138.963C69.534 139.007 69.6482 139.03 69.7636 139.03C69.8789 139.03 69.9931 139.007 70.0997 138.963C70.2062 138.919 70.303 138.854 70.3846 138.773C70.4662 138.691 70.5309 138.594 70.575 138.488C70.6191 138.381 70.6418 138.267 70.6418 138.152L70.6406 134.067L74.7255 134.068C74.9585 134.068 75.1819 133.976 75.3466 133.811C75.5113 133.646 75.6038 133.423 75.6038 133.19C75.6038 132.957 75.5113 132.734 75.3466 132.569C75.1819 132.404 74.9585 132.312 74.7255 132.312L70.6406 132.313L70.6418 128.228C70.6418 127.995 70.5494 127.772 70.3849 127.608Z" fill="#90A9FF"/>
<path fill-rule="evenodd" clip-rule="evenodd" d="M448.392 210.5C448.197 210.305 447.932 210.195 447.656 210.195L447.654 210.194C447.517 210.193 447.382 210.22 447.255 210.273C447.128 210.325 447.013 210.402 446.916 210.499C446.82 210.596 446.743 210.711 446.69 210.837C446.638 210.964 446.611 211.1 446.611 211.237L446.613 216.088L441.762 216.086C441.485 216.086 441.22 216.196 441.024 216.392C440.829 216.587 440.719 216.853 440.719 217.129C440.719 217.406 440.829 217.671 441.024 217.867C441.22 218.062 441.485 218.172 441.762 218.172L446.613 218.171L446.611 223.022C446.611 223.159 446.638 223.294 446.691 223.421C446.743 223.547 446.82 223.662 446.917 223.759C447.014 223.856 447.129 223.933 447.255 223.985C447.382 224.038 447.517 224.065 447.654 224.065C447.791 224.065 447.927 224.038 448.053 223.985C448.18 223.933 448.295 223.856 448.392 223.759C448.489 223.662 448.566 223.547 448.618 223.421C448.67 223.294 448.697 223.159 448.697 223.022L448.696 218.171L453.547 218.172C453.824 218.172 454.089 218.062 454.284 217.867C454.48 217.671 454.59 217.406 454.59 217.129C454.59 216.853 454.48 216.587 454.284 216.392C454.089 216.196 453.824 216.086 453.547 216.086L448.696 216.088L448.697 211.237C448.697 210.96 448.588 210.695 448.392 210.5Z" fill="#66F6FF"/>
<path fill-rule="evenodd" clip-rule="evenodd" d="M378.958 0.306574C378.762 0.111261 378.497 0.00151556 378.221 0.00147386L378.22 8.32167e-07C378.083 -0.000172355 377.947 0.0266883 377.82 0.079042C377.694 0.131396 377.579 0.208214 377.482 0.305099C377.385 0.401984 377.308 0.51703 377.256 0.643649C377.203 0.770269 377.177 0.905973 377.177 1.04299L377.178 5.89406L372.327 5.89259C372.051 5.89259 371.785 6.00247 371.59 6.19807C371.394 6.39367 371.284 6.65896 371.284 6.93557C371.284 7.21219 371.394 7.47748 371.59 7.67308C371.785 7.86868 372.051 7.97856 372.327 7.97856L377.178 7.97709L377.177 12.8282C377.177 12.9651 377.204 13.1008 377.256 13.2273C377.309 13.3538 377.385 13.4688 377.482 13.5657C377.579 13.6625 377.694 13.7393 377.821 13.7918C377.947 13.8442 378.083 13.8711 378.22 13.8711C378.357 13.8711 378.492 13.8442 378.619 13.7918C378.745 13.7393 378.86 13.6625 378.957 13.5657C379.054 13.4688 379.131 13.3538 379.183 13.2273C379.236 13.1008 379.263 12.9651 379.263 12.8282L379.261 7.97709L384.112 7.97856C384.389 7.97856 384.654 7.86868 384.85 7.67308C385.045 7.47748 385.155 7.21219 385.155 6.93557C385.155 6.65896 385.045 6.39367 384.85 6.19807C384.654 6.00247 384.389 5.89259 384.112 5.89259L379.261 5.89406L379.263 1.04299C379.263 0.766774 379.153 0.501887 378.958 0.306574Z" fill="#66F6FF"/>
<path fill-rule="evenodd" clip-rule="evenodd" d="M456.888 150.77C456.68 150.562 456.397 150.444 456.102 150.444L456.1 150.443C455.954 150.443 455.809 150.471 455.674 150.527C455.539 150.583 455.416 150.665 455.312 150.769C455.209 150.872 455.127 150.995 455.071 151.13C455.015 151.265 454.986 151.41 454.987 151.557L454.988 156.737L449.808 156.736C449.512 156.736 449.229 156.853 449.02 157.062C448.811 157.271 448.694 157.554 448.694 157.849C448.694 158.145 448.811 158.428 449.02 158.637C449.229 158.846 449.512 158.963 449.808 158.963L454.988 158.962L454.987 164.142C454.987 164.288 455.015 164.433 455.071 164.568C455.127 164.703 455.209 164.826 455.313 164.93C455.416 165.033 455.539 165.115 455.674 165.171C455.809 165.227 455.954 165.256 456.1 165.256C456.247 165.256 456.391 165.227 456.527 165.171C456.662 165.115 456.784 165.033 456.888 164.93C456.991 164.826 457.073 164.703 457.129 164.568C457.185 164.433 457.214 164.288 457.214 164.142L457.213 158.962L462.393 158.963C462.688 158.963 462.972 158.846 463.181 158.637C463.389 158.428 463.507 158.145 463.507 157.849C463.507 157.554 463.389 157.271 463.181 157.062C462.972 156.853 462.688 156.736 462.393 156.736L457.213 156.737L457.214 151.557C457.214 151.262 457.097 150.979 456.888 150.77Z" fill="white"/>
<path fill-rule="evenodd" clip-rule="evenodd" d="M492.682 196.431C492.42 196.169 492.064 196.022 491.694 196.022L491.692 196.02C491.508 196.019 491.326 196.055 491.156 196.126C490.986 196.196 490.832 196.299 490.702 196.429C490.571 196.559 490.468 196.713 490.398 196.883C490.328 197.053 490.292 197.235 490.292 197.419L490.294 203.93L483.784 203.928C483.412 203.928 483.056 204.075 482.794 204.338C482.531 204.6 482.384 204.956 482.384 205.328C482.384 205.699 482.531 206.055 482.794 206.317C483.056 206.58 483.412 206.727 483.784 206.727L490.294 206.725L490.292 213.236C490.292 213.42 490.328 213.602 490.399 213.771C490.469 213.941 490.572 214.096 490.702 214.226C490.832 214.356 490.986 214.459 491.156 214.529C491.326 214.599 491.508 214.636 491.692 214.636C491.876 214.636 492.058 214.599 492.227 214.529C492.397 214.459 492.552 214.356 492.682 214.226C492.812 214.096 492.915 213.941 492.985 213.771C493.055 213.602 493.092 213.42 493.092 213.236L493.09 206.725L499.6 206.727C499.971 206.727 500.327 206.58 500.59 206.317C500.852 206.055 501 205.699 501 205.328C501 204.956 500.852 204.6 500.59 204.338C500.327 204.075 499.971 203.928 499.6 203.928L493.09 203.93L493.092 197.419C493.092 197.049 492.944 196.693 492.682 196.431Z" fill="#90A9FF"/>
<path fill-rule="evenodd" clip-rule="evenodd" d="M18.9775 42.8438C18.7154 42.5817 18.3599 42.4344 17.9892 42.4344L17.9872 42.4324C17.8033 42.4321 17.6212 42.4682 17.4513 42.5385C17.2813 42.6087 17.1269 42.7118 16.9969 42.8418C16.8669 42.9719 16.7638 43.1263 16.6935 43.2962C16.6233 43.4661 16.5872 43.6483 16.5875 43.8321L16.5894 50.3426L10.079 50.3406C9.70772 50.3406 9.35169 50.4881 9.08918 50.7506C8.82667 51.0131 8.6792 51.3692 8.6792 51.7404C8.6792 52.1116 8.82667 52.4677 9.08918 52.7302C9.35169 52.9927 9.70772 53.1402 10.079 53.1402L16.5894 53.1382L16.5875 59.6487C16.5875 59.8325 16.6237 60.0145 16.694 60.1843C16.7644 60.3541 16.8675 60.5085 16.9974 60.6384C17.1274 60.7684 17.2817 60.8715 17.4516 60.9419C17.6214 61.0122 17.8034 61.0484 17.9872 61.0484C18.171 61.0484 18.3531 61.0122 18.5229 60.9419C18.6927 60.8715 18.847 60.7684 18.977 60.6384C19.107 60.5085 19.2101 60.3541 19.2804 60.1843C19.3508 60.0145 19.387 59.8325 19.387 59.6487L19.385 53.1382L25.8955 53.1402C26.2667 53.1402 26.6228 52.9927 26.8853 52.7302C27.1478 52.4677 27.2952 52.1116 27.2952 51.7404C27.2952 51.3692 27.1478 51.0131 26.8853 50.7506C26.6228 50.4881 26.2667 50.3406 25.8955 50.3406L19.385 50.3426L19.387 43.8321C19.3869 43.4614 19.2396 43.1059 18.9775 42.8438Z" fill="#90A9FF"/>
<path fill-rule="evenodd" clip-rule="evenodd" d="M433.659 24.5211C433.397 24.2589 433.041 24.1117 432.67 24.1116L432.668 24.1096C432.484 24.1094 432.302 24.1454 432.132 24.2157C431.962 24.286 431.808 24.3891 431.678 24.5191C431.548 24.6491 431.445 24.8035 431.375 24.9734C431.304 25.1434 431.268 25.3255 431.269 25.5094L431.271 32.0199L424.76 32.0179C424.389 32.0179 424.033 32.1654 423.77 32.4279C423.508 32.6904 423.36 33.0464 423.36 33.4176C423.36 33.7889 423.508 34.1449 423.77 34.4074C424.033 34.6699 424.389 34.8174 424.76 34.8174L431.271 34.8154L431.269 41.3259C431.269 41.5097 431.305 41.6917 431.375 41.8616C431.446 42.0314 431.549 42.1857 431.679 42.3157C431.809 42.4457 431.963 42.5488 432.133 42.6191C432.303 42.6895 432.485 42.7257 432.668 42.7257C432.852 42.7257 433.034 42.6895 433.204 42.6191C433.374 42.5488 433.528 42.4457 433.658 42.3157C433.788 42.1857 433.891 42.0314 433.962 41.8616C434.032 41.6917 434.068 41.5097 434.068 41.3259L434.066 34.8154L440.577 34.8174C440.948 34.8174 441.304 34.6699 441.566 34.4074C441.829 34.1449 441.976 33.7889 441.976 33.4176C441.976 33.0464 441.829 32.6904 441.566 32.4279C441.304 32.1654 440.948 32.0179 440.577 32.0179L434.066 32.0199L434.068 25.5094C434.068 25.1387 433.921 24.7832 433.659 24.5211Z" fill="#90A9FF"/>
</svg>
