<svg width="547" height="307" viewBox="0 0 547 307" fill="none" xmlns="http://www.w3.org/2000/svg">
<rect x="3.17529" y="63.4939" width="410.148" height="63.0997" rx="31.5498" fill="#DAE1F4"/>
<rect x="82.541" y="124.871" width="439.164" height="68.7847" rx="34.3924" fill="#DAE1F4"/>
<rect y="193.9" width="479.558" height="56.0886" rx="28.0443" fill="#DAE1F4"/>
<rect x="91.0078" y="249.621" width="410.056" height="56.8395" rx="28.4198" fill="#DAE1F4"/>
<rect x="129.832" y="32.3296" width="289.856" height="240.54" rx="10" fill="white"/>
<path d="M218.199 231.017V209.998C218.199 202.26 211.926 195.986 204.187 195.986C196.448 195.986 190.175 202.26 190.175 209.998V231.017C190.175 238.755 196.448 245.029 204.187 245.029C211.926 245.029 218.199 238.755 218.199 231.017Z" fill="#3F71FD"/>
<path d="M286 231.017V189.658C286 181.919 279.727 175.646 271.988 175.646C264.249 175.646 257.976 181.919 257.976 189.658V231.017C257.976 238.755 264.249 245.029 271.988 245.029C279.727 245.029 286 238.755 286 231.017Z" fill="#3F71FD"/>
<path d="M353.8 231.017V158.922C353.8 151.184 347.527 144.91 339.788 144.91C332.049 144.91 325.776 151.184 325.776 158.922V231.017C325.776 238.756 332.049 245.029 339.788 245.029C347.527 245.029 353.8 238.756 353.8 231.017Z" fill="#3F71FD"/>
<path d="M336.448 95.8601C326.406 97.5023 316.569 99.1444 306.528 100.992C303.249 101.608 304.683 106.534 307.962 105.918C315.135 104.687 322.308 103.455 329.685 102.223C294.232 138.556 240.129 159.288 189.92 163.188C186.641 163.393 186.641 168.525 189.92 168.32C240.949 164.42 295.871 143.688 332.349 106.945C330.505 113.924 328.66 120.903 326.816 128.087C325.996 131.371 330.915 132.603 331.735 129.524C334.399 119.466 337.063 109.408 339.522 99.3497C340.137 96.8865 338.292 95.4496 336.448 95.8601Z" fill="#3F71FD"/>
<path d="M118.694 255.879V253.34C118.694 252.705 118.27 252.175 117.635 252.175L114.143 251.752C113.72 249.953 113.085 248.26 112.133 246.779L114.249 244.027C114.567 243.498 114.567 242.863 114.143 242.44L112.344 240.641C111.921 240.218 111.286 240.218 110.757 240.535L108.006 242.651C106.524 241.699 104.831 240.958 103.032 240.641L102.609 237.043C102.503 236.408 101.974 235.985 101.445 235.985H98.9049C98.2699 235.985 97.7408 236.408 97.7408 237.043L97.3175 240.535C95.5185 240.958 93.8254 241.593 92.3439 242.546L89.5925 240.429C89.0633 240.112 88.4284 240.112 88.0051 240.535L86.2061 242.334C85.7828 242.757 85.7828 243.392 86.1003 243.921L88.2168 246.673C87.2644 248.154 86.5236 249.847 86.2061 251.646L82.714 252.07C82.0791 252.175 81.6558 252.705 81.6558 253.234V255.773C81.6558 256.408 82.0791 256.937 82.714 256.937L86.2061 257.361C86.6294 259.16 87.2644 260.853 88.2168 262.334L86.1003 265.086C85.7828 265.615 85.7828 266.25 86.2061 266.673L88.0051 268.472C88.4284 268.895 89.0633 268.895 89.5925 268.578L92.3439 266.462C93.8254 267.414 95.5185 268.155 97.3175 268.472L97.7408 271.964C97.8466 272.599 98.3757 273.023 98.9049 273.023H101.445C102.08 273.023 102.609 272.599 102.609 271.964L103.032 268.472C104.831 268.049 106.524 267.414 108.006 266.462L110.757 268.578C111.286 268.895 111.921 268.895 112.344 268.472L114.143 266.673C114.567 266.25 114.567 265.615 114.249 265.086L112.133 262.334C113.085 260.853 113.826 259.16 114.143 257.361L117.635 256.937C118.27 256.937 118.694 256.514 118.694 255.879ZM100.175 263.498C95.2011 263.498 91.2856 259.477 91.2856 254.609C91.2856 249.742 95.3069 245.72 100.175 245.72C105.043 245.72 109.064 249.742 109.064 254.609C109.064 259.477 105.043 263.498 100.175 263.498Z" fill="#3F71FD"/>
<path d="M104.513 254.609C104.513 252.176 102.609 250.271 100.175 250.271C97.7408 250.271 95.8359 252.176 95.8359 254.609C95.8359 257.043 97.7408 258.948 100.175 258.948C102.503 258.948 104.513 257.043 104.513 254.609Z" fill="#3F71FD"/>
<path d="M95.4119 223.074V220.535C95.4119 219.9 94.9886 219.371 94.3537 219.371L90.8616 218.947C90.4383 217.148 89.8033 215.455 88.8509 213.974L90.9674 211.222C91.2849 210.693 91.2849 210.058 90.8616 209.635L89.0626 207.836C88.6393 207.413 88.0044 207.413 87.4752 207.73L84.7238 209.847C83.2423 208.894 81.5492 208.153 79.7502 207.836L79.3269 204.238C79.2211 203.603 78.692 203.18 78.1628 203.18H75.6231C74.9882 203.18 74.4591 203.603 74.4591 204.238L74.0358 207.73C72.2368 208.153 70.5436 208.788 69.0621 209.741L66.3107 207.624C65.7816 207.307 65.1467 207.307 64.7234 207.73L62.9244 209.529C62.5011 209.952 62.5011 210.587 62.8186 211.116L64.935 213.868C63.9826 215.349 63.2419 217.042 62.9244 218.841L59.4322 219.265C58.7973 219.371 58.374 219.9 58.374 220.429V222.969C58.374 223.603 58.7973 224.133 59.4322 224.133L62.9244 224.556C63.3477 226.355 63.9826 228.048 64.935 229.53L62.8186 232.281C62.5011 232.81 62.5011 233.445 62.9244 233.868L64.7234 235.667C65.1467 236.091 65.7816 236.091 66.3107 235.773L69.0621 233.657C70.5436 234.609 72.2368 235.35 74.0358 235.667L74.4591 239.159C74.5649 239.794 75.094 240.218 75.6231 240.218H78.1628C78.7978 240.218 79.3269 239.794 79.3269 239.159L79.7502 235.667C81.5492 235.244 83.2423 234.609 84.7238 233.657L87.4752 235.773C88.0044 236.091 88.6393 236.091 89.0626 235.667L90.8616 233.868C91.2849 233.445 91.2849 232.81 90.9674 232.281L88.8509 229.53C89.8033 228.048 90.5441 226.355 90.8616 224.556L94.3537 224.133C94.9886 224.133 95.4119 223.709 95.4119 223.074ZM76.893 230.694C71.9193 230.694 68.0039 226.672 68.0039 221.804C68.0039 216.937 72.0251 212.915 76.893 212.915C81.7608 212.915 85.7821 216.937 85.7821 221.804C85.7821 226.672 81.7608 230.694 76.893 230.694Z" fill="#3F71FD"/>
<path d="M81.2336 221.805C81.2336 219.371 79.3288 217.466 76.8949 217.466C74.461 217.466 72.5562 219.371 72.5562 221.805C72.5562 224.238 74.461 226.143 76.8949 226.143C79.223 226.143 81.2336 224.238 81.2336 221.805Z" fill="#3F71FD"/>
<path fill-rule="evenodd" clip-rule="evenodd" d="M139.771 32.2065C134.249 32.2065 129.771 36.6837 129.771 42.2065V73.1074H420.168V42.2065C420.168 36.6837 415.691 32.2065 410.168 32.2065H139.771Z" fill="#3F71FD"/>
<path d="M174.761 56.5193H177.114V50.0426H179.656V48.1699H172.207V50.0426H174.761V56.5193Z" fill="white"/>
<path d="M183.432 56.6863C185.903 56.6863 187.115 55.4458 187.115 53.9906C187.115 50.9133 182.398 51.8675 182.398 50.5912C182.398 50.1738 182.755 49.8398 183.741 49.8398C184.466 49.8398 185.25 50.0545 186.046 50.4839L186.771 48.7305C185.951 48.2534 184.834 48.0029 183.753 48.0029C181.282 48.0029 180.07 49.2196 180.07 50.7105C180.07 53.8117 184.798 52.8456 184.798 54.1695C184.798 54.5751 184.418 54.8494 183.444 54.8494C182.482 54.8494 181.436 54.5154 180.699 54.0264L179.927 55.7678C180.711 56.3165 182.066 56.6863 183.432 56.6863Z" fill="white"/>
<path d="M189.856 56.5193H192.208V50.0426H194.751V48.1699H187.302V50.0426H189.856V56.5193Z" fill="white"/>
<path d="M202.007 56.6863C204.478 56.6863 205.69 55.4458 205.69 53.9906C205.69 50.9133 200.974 51.8675 200.974 50.5912C200.974 50.1738 201.33 49.8398 202.316 49.8398C203.041 49.8398 203.825 50.0545 204.621 50.4839L205.346 48.7305C204.526 48.2534 203.409 48.0029 202.328 48.0029C199.857 48.0029 198.645 49.2196 198.645 50.7105C198.645 53.8117 203.373 52.8456 203.373 54.1695C203.373 54.5751 202.993 54.8494 202.019 54.8494C201.057 54.8494 200.011 54.5154 199.275 54.0264L198.502 55.7678C199.287 56.3165 200.641 56.6863 202.007 56.6863Z" fill="white"/>
<path d="M213.002 56.5193H215.45L211.767 48.1699H209.45L205.779 56.5193H208.179L208.832 54.8971H212.349L213.002 56.5193ZM209.521 53.1557L210.591 50.4839L211.66 53.1557H209.521Z" fill="white"/>
<path d="M216.117 56.5193H222.437V54.6466H218.469V48.1699H216.117V56.5193Z" fill="white"/>
<path d="M227.124 56.6863C229.584 56.6863 231.033 55.2907 231.033 52.7979V48.1699H228.716V52.7263C228.716 54.1576 228.122 54.7301 227.148 54.7301C226.162 54.7301 225.568 54.1576 225.568 52.7263V48.1699H223.216V52.7979C223.216 55.2907 224.665 56.6863 227.124 56.6863Z" fill="white"/>
<path d="M232.627 56.5193H236.559C239.315 56.5193 241.204 54.9091 241.204 52.3446C241.204 49.7802 239.315 48.1699 236.559 48.1699H232.627V56.5193ZM234.979 54.6347V50.0545H236.464C237.878 50.0545 238.828 50.9014 238.828 52.3446C238.828 53.7879 237.878 54.6347 236.464 54.6347H234.979Z" fill="white"/>
<path d="M153.037 44.098C154.033 44.098 154.84 43.2673 154.84 42.2425C154.84 41.2177 154.033 40.387 153.037 40.387C152.042 40.387 151.235 41.2177 151.235 42.2425C151.235 43.2673 152.042 44.098 153.037 44.098Z" fill="white"/>
<path d="M151.765 45.7947C151.765 45.7947 177.53 50.4725 151.765 58.5184C151.765 58.5184 165.35 51.9063 151.765 45.7947Z" fill="white"/>
<path d="M154.84 51.2021C154.84 51.2021 132.175 56.0032 154.84 64.2439C154.84 64.2439 142.89 57.4786 154.84 51.2021Z" fill="white"/>
<path d="M178.763 121.903C178.763 101.741 162.381 85.3599 142.22 85.3599C122.058 85.3599 105.677 101.741 105.677 121.903C105.677 142.064 122.058 158.446 142.22 158.446V121.903H178.763Z" fill="#3F71FD"/>
<path d="M178.763 121.903H142.22V158.446C162.381 158.446 178.763 142.065 178.763 121.903Z" fill="#3F71FD"/>
<path d="M178.763 121.903H142.22V158.446C162.381 158.446 178.763 142.065 178.763 121.903Z" fill="#66F6FF"/>
<path d="M167.995 96.2427L142.22 122.017H178.763C178.763 112.051 174.639 102.887 167.995 96.2427Z" fill="#90A9FF"/>
<path fill-rule="evenodd" clip-rule="evenodd" d="M53.8913 145.806C53.5701 145.484 53.1344 145.304 52.6801 145.304L52.6777 145.301C52.4523 145.301 52.2291 145.345 52.0209 145.431C51.8126 145.517 51.6234 145.644 51.4641 145.803C51.3047 145.962 51.1784 146.152 51.0923 146.36C51.0061 146.568 50.962 146.791 50.9623 147.017L50.9647 154.995L42.9859 154.993C42.531 154.993 42.0947 155.174 41.7729 155.495C41.4512 155.817 41.2705 156.253 41.2705 156.708C41.2705 157.163 41.4512 157.6 41.7729 157.921C42.0947 158.243 42.531 158.424 42.9859 158.424L50.9647 158.421L50.9623 166.4C50.9623 166.625 51.0066 166.849 51.0928 167.057C51.179 167.265 51.3054 167.454 51.4647 167.613C51.624 167.772 51.8131 167.899 52.0212 167.985C52.2293 168.071 52.4524 168.116 52.6777 168.116C52.903 168.116 53.126 168.071 53.3342 167.985C53.5423 167.899 53.7314 167.772 53.8907 167.613C54.05 167.454 54.1763 167.265 54.2626 167.057C54.3488 166.849 54.3931 166.625 54.3931 166.4L54.3907 158.421L62.3694 158.424C62.8244 158.424 63.2607 158.243 63.5824 157.921C63.9041 157.6 64.0849 157.163 64.0849 156.708C64.0849 156.253 63.9041 155.817 63.5824 155.495C63.2607 155.174 62.8244 154.993 62.3694 154.993L54.3907 154.995L54.3931 147.017C54.3931 146.562 54.2126 146.127 53.8913 145.806Z" fill="#66F6FF"/>
<path fill-rule="evenodd" clip-rule="evenodd" d="M490.746 209.122C490.538 208.914 490.255 208.797 489.96 208.796L489.958 208.795C489.812 208.795 489.667 208.823 489.532 208.879C489.397 208.935 489.274 209.017 489.17 209.121C489.067 209.224 488.985 209.347 488.929 209.482C488.873 209.618 488.844 209.763 488.844 209.909L488.846 215.09L483.665 215.089C483.369 215.089 483.086 215.206 482.877 215.415C482.668 215.624 482.551 215.907 482.551 216.203C482.551 216.498 482.668 216.781 482.877 216.99C483.086 217.199 483.369 217.316 483.665 217.316L488.846 217.315L488.844 222.496C488.844 222.642 488.873 222.787 488.929 222.922C488.985 223.058 489.067 223.18 489.171 223.284C489.274 223.387 489.397 223.469 489.532 223.525C489.667 223.581 489.812 223.61 489.958 223.61C490.105 223.61 490.25 223.581 490.385 223.525C490.52 223.469 490.643 223.387 490.746 223.284C490.85 223.18 490.932 223.058 490.988 222.922C491.044 222.787 491.072 222.642 491.072 222.496L491.071 217.315L496.252 217.316C496.547 217.316 496.831 217.199 497.04 216.99C497.249 216.781 497.366 216.498 497.366 216.203C497.366 215.907 497.249 215.624 497.04 215.415C496.831 215.206 496.547 215.089 496.252 215.089L491.071 215.09L491.072 209.909C491.072 209.614 490.955 209.331 490.746 209.122Z" fill="#66F6FF"/>
<path fill-rule="evenodd" clip-rule="evenodd" d="M60.9123 81.9283C60.6292 81.6452 60.2452 81.4861 59.8448 81.486L59.8427 81.4839C59.6441 81.4836 59.4474 81.5226 59.2639 81.5985C59.0803 81.6743 58.9136 81.7857 58.7731 81.9261C58.6327 82.0666 58.5213 82.2333 58.4455 82.4169C58.3696 82.6004 58.3306 82.7971 58.3309 82.9957L58.333 90.0274L51.3014 90.0252C50.9004 90.0252 50.5159 90.1845 50.2324 90.468C49.9488 90.7515 49.7896 91.1361 49.7896 91.537C49.7896 91.938 49.9488 92.3225 50.2324 92.6061C50.5159 92.8896 50.9004 93.0489 51.3014 93.0489L58.333 93.0467L58.3309 100.078C58.3309 100.277 58.37 100.473 58.446 100.657C58.5219 100.84 58.6333 101.007 58.7737 101.147C58.9141 101.288 59.0807 101.399 59.2642 101.475C59.4476 101.551 59.6442 101.59 59.8427 101.59C60.0412 101.59 60.2378 101.551 60.4212 101.475C60.6047 101.399 60.7713 101.288 60.9117 101.147C61.0521 101.007 61.1635 100.84 61.2394 100.657C61.3154 100.473 61.3545 100.277 61.3545 100.078L61.3524 93.0467L68.384 93.0489C68.785 93.0489 69.1695 92.8896 69.4531 92.6061C69.7366 92.3225 69.8959 91.938 69.8959 91.537C69.8959 91.1361 69.7366 90.7515 69.4531 90.468C69.1695 90.1845 68.785 90.0252 68.384 90.0252L61.3524 90.0274L61.3545 82.9957C61.3545 82.5953 61.1954 82.2114 60.9123 81.9283Z" fill="white"/>
<path fill-rule="evenodd" clip-rule="evenodd" d="M499.821 145.327C499.598 145.104 499.296 144.979 498.981 144.979L498.979 144.977C498.823 144.977 498.668 145.007 498.523 145.067C498.379 145.127 498.248 145.215 498.137 145.325C498.027 145.436 497.939 145.567 497.879 145.711C497.82 145.856 497.789 146.01 497.789 146.167L497.791 151.7L492.258 151.698C491.942 151.698 491.64 151.823 491.417 152.046C491.194 152.27 491.068 152.572 491.068 152.888C491.068 153.203 491.194 153.506 491.417 153.729C491.64 153.952 491.942 154.077 492.258 154.077L497.791 154.076L497.789 159.609C497.789 159.765 497.82 159.919 497.88 160.064C497.94 160.208 498.027 160.339 498.138 160.45C498.248 160.56 498.379 160.648 498.524 160.708C498.668 160.767 498.823 160.798 498.979 160.798C499.135 160.798 499.29 160.767 499.434 160.708C499.578 160.648 499.71 160.56 499.82 160.45C499.931 160.339 500.018 160.208 500.078 160.064C500.138 159.919 500.169 159.765 500.169 159.609L500.167 154.076L505.7 154.077C506.015 154.077 506.318 153.952 506.541 153.729C506.764 153.506 506.889 153.203 506.889 152.888C506.889 152.572 506.764 152.27 506.541 152.046C506.318 151.823 506.015 151.698 505.7 151.698L500.167 151.7L500.169 146.167C500.168 145.852 500.043 145.549 499.821 145.327Z" fill="white"/>
<path fill-rule="evenodd" clip-rule="evenodd" d="M79.3662 125.075C79.1905 124.899 78.9523 124.801 78.7039 124.801L78.7025 124.799C78.5793 124.799 78.4573 124.823 78.3434 124.87C78.2295 124.917 78.126 124.987 78.0389 125.074C77.9518 125.161 77.8827 125.264 77.8356 125.378C77.7885 125.492 77.7643 125.614 77.7645 125.737L77.7658 130.1L73.4029 130.099C73.1541 130.099 72.9155 130.198 72.7396 130.374C72.5637 130.55 72.4648 130.788 72.4648 131.037C72.4648 131.286 72.5637 131.524 72.7396 131.7C72.9155 131.876 73.1541 131.975 73.4029 131.975L77.7658 131.974L77.7645 136.337C77.7645 136.46 77.7888 136.582 77.8359 136.696C77.883 136.809 77.9521 136.913 78.0392 137C78.1264 137.087 78.2298 137.156 78.3436 137.203C78.4574 137.25 78.5794 137.275 78.7025 137.275C78.8257 137.275 78.9477 137.25 79.0615 137.203C79.1753 137.156 79.2787 137.087 79.3658 137C79.4529 136.913 79.522 136.809 79.5692 136.696C79.6163 136.582 79.6406 136.46 79.6406 136.337L79.6393 131.974L84.0022 131.975C84.251 131.975 84.4896 131.876 84.6655 131.7C84.8414 131.524 84.9402 131.286 84.9402 131.037C84.9402 130.788 84.8414 130.55 84.6655 130.374C84.4896 130.198 84.251 130.099 84.0022 130.099L79.6393 130.1L79.6406 125.737C79.6405 125.489 79.5418 125.251 79.3662 125.075Z" fill="#90A9FF"/>
<path fill-rule="evenodd" clip-rule="evenodd" d="M538.05 194.095C537.77 193.815 537.391 193.658 536.995 193.658L536.993 193.656C536.796 193.656 536.602 193.694 536.42 193.769C536.239 193.844 536.074 193.954 535.935 194.093C535.796 194.232 535.686 194.397 535.611 194.578C535.536 194.76 535.497 194.954 535.498 195.151L535.5 202.104L528.546 202.102C528.15 202.102 527.77 202.26 527.489 202.54C527.209 202.82 527.051 203.201 527.051 203.597C527.051 203.994 527.209 204.374 527.489 204.654C527.77 204.935 528.15 205.092 528.546 205.092L535.5 205.09L535.498 212.044C535.498 212.24 535.536 212.434 535.612 212.616C535.687 212.797 535.797 212.962 535.936 213.101C536.074 213.24 536.239 213.35 536.421 213.425C536.602 213.5 536.796 213.539 536.993 213.539C537.189 213.539 537.383 213.5 537.565 213.425C537.746 213.35 537.911 213.24 538.05 213.101C538.189 212.962 538.299 212.797 538.374 212.616C538.449 212.434 538.488 212.24 538.488 212.044L538.486 205.09L545.439 205.092C545.836 205.092 546.216 204.935 546.496 204.654C546.777 204.374 546.934 203.994 546.934 203.597C546.934 203.201 546.777 202.82 546.496 202.54C546.216 202.26 545.836 202.102 545.439 202.102L538.486 202.104L538.488 195.151C538.488 194.755 538.33 194.375 538.05 194.095Z" fill="#90A9FF"/>
<path d="M379.127 135.005L404.922 124.347C404.922 124.347 402.631 138.6 402.535 147.81C402.463 154.67 403.538 165.348 403.538 165.348L392.586 168.439L383.435 185.732L379.127 135.005Z" fill="#3F71FD"/>
<path d="M488.65 172.045L474.619 147.918C474.619 147.918 467.788 160.636 462.275 168.014C458.169 173.509 450.833 181.342 450.833 181.342L457.66 190.447L454.436 209.745L488.65 172.045Z" fill="#3F71FD"/>
<path fill-rule="evenodd" clip-rule="evenodd" d="M433.69 200.416C435.244 198.781 436.477 196.789 437.247 194.511C440.085 186.12 435.583 177.017 427.192 174.179C418.801 171.342 409.698 175.843 406.86 184.234C406.09 186.513 405.86 188.843 406.103 191.087L407.409 232.674L433.69 200.416Z" fill="#66F6FF"/>
<path fill-rule="evenodd" clip-rule="evenodd" d="M401.936 165.637C398.299 131.563 401.094 59.283 479.556 18.6349C513.314 100.779 474.402 158.211 451.88 182.528L401.936 165.637Z" fill="#E9EFFF"/>
<path d="M470.959 105.835C467.444 116.228 456.173 121.707 445.894 118.23C435.501 114.715 430.022 103.444 433.498 93.1656C437.013 82.7726 448.284 77.2936 458.563 80.7699C468.842 84.2461 474.474 95.4417 470.959 105.835Z" fill="#3F71FD"/>
<path d="M439.882 135.476L421.654 144.591L419.882 198.058L448.147 152.376L439.882 135.476Z" fill="#3F71FD"/>
<path fill-rule="evenodd" clip-rule="evenodd" d="M437.457 50.0538C448.306 38.7929 462.107 28.0823 479.589 18.5344C487.007 36.5327 491.033 53.268 492.557 68.6886L437.457 50.0538Z" fill="#3F71FD"/>
</svg>
