<svg width="491" height="306" viewBox="0 0 491 306" fill="none" xmlns="http://www.w3.org/2000/svg">
<rect x="19.3325" y="96.2886" width="439.557" height="61.0495" rx="30.5248" fill="#DAE1F4"/>
<rect x="61.0493" y="31.1694" width="397.84" height="65.1195" rx="32.5598" fill="#DAE1F4"/>
<rect x="37.647" y="157.339" width="356.122" height="66.137" rx="33.0685" fill="#DAE1F4"/>
<rect y="223.476" width="469.064" height="53.9271" rx="26.9635" fill="#DAE1F4"/>
<path d="M280.068 260.315H211.248V286.721H280.068V260.315Z" fill="#B2BFEB"/>
<path d="M280.068 261.122H211.248V271.955H280.068V261.122Z" fill="#A1B2EB"/>
<path d="M89.5396 254.663C89.5396 258.216 92.2894 261.123 95.6504 261.123H396.303C399.663 261.123 402.413 258.216 402.413 254.663V226.713H89.5396V254.663Z" fill="#B2BFEB"/>
<path d="M394.892 42.5566H97.0614C92.9249 42.5566 89.5396 46.0799 89.5396 50.3864V227.35H402.413V50.3864C402.413 46.0799 399.028 42.5566 394.892 42.5566Z" fill="#B2BFEB"/>
<path d="M100.879 227.545C99.1198 227.545 97.6797 225.895 97.6797 223.876V54.1705C97.6797 52.1527 99.1192 50.5015 100.879 50.5015H390.571C392.331 50.5015 393.77 52.1527 393.77 54.1705V223.876C393.77 225.895 392.331 227.545 390.571 227.545H100.879Z" fill="#547BFF"/>
<rect x="128.358" y="47.0171" width="212.831" height="175.872" rx="10" fill="#585D97"/>
<rect x="138.605" y="31.0869" width="214.105" height="182.244" rx="10" fill="white"/>
<rect x="220.169" y="57.8501" width="97.4943" height="5.73496" rx="2.86748" fill="#547BFF"/>
<rect x="220.169" y="71.2314" width="97.4943" height="5.73496" rx="2.86748" fill="#DAE1F4"/>
<rect x="209.336" y="136.865" width="79.015" height="5.73496" rx="2.86748" fill="#547BFF"/>
<rect x="209.336" y="150.247" width="82.2011" height="5.73496" rx="2.86748" fill="#547BFF"/>
<rect x="209.336" y="170" width="119.797" height="5.73496" rx="2.86748" fill="#547BFF"/>
<rect x="209.336" y="180.833" width="119.797" height="5.73496" rx="2.86748" fill="#547BFF"/>
<rect x="170.466" y="99.9067" width="158.667" height="2.54887" rx="1.27443" fill="#DAE1F4"/>
<rect x="170.466" y="111.376" width="158.667" height="2.54887" rx="1.27443" fill="#DAE1F4"/>
<rect x="169.466" y="133.954" width="23.0282" height="23.0282" rx="9" fill="white" stroke="#6A8CFF" stroke-width="2"/>
<rect x="169.466" y="166.451" width="23.0282" height="23.0282" rx="9" fill="white" stroke="#6A8CFF" stroke-width="2"/>
<path d="M185.99 139.834C186.253 139.568 186.612 139.417 186.986 139.414C187.361 139.411 187.721 139.557 187.989 139.819C188.256 140.081 188.409 140.439 188.414 140.813C188.419 141.188 188.275 141.549 188.014 141.818L180.471 151.248C180.341 151.387 180.185 151.499 180.011 151.577C179.837 151.655 179.65 151.697 179.459 151.7C179.269 151.704 179.08 151.669 178.903 151.598C178.727 151.527 178.566 151.421 178.431 151.286L173.43 146.287C173.164 146.021 173.015 145.66 173.015 145.284C173.015 144.909 173.165 144.548 173.431 144.282C173.696 144.017 174.057 143.867 174.433 143.867C174.809 143.867 175.169 144.017 175.435 144.283L179.391 148.239L185.952 139.878C185.964 139.863 185.977 139.848 185.991 139.835L185.99 139.834Z" fill="#66F6FF"/>
<path d="M185.99 172.969C186.253 172.703 186.612 172.552 186.986 172.549C187.361 172.547 187.721 172.692 187.989 172.954C188.256 173.217 188.409 173.574 188.414 173.948C188.419 174.323 188.275 174.684 188.014 174.953L180.471 184.383C180.341 184.522 180.185 184.634 180.011 184.712C179.837 184.79 179.65 184.832 179.459 184.835C179.269 184.839 179.08 184.804 178.903 184.733C178.727 184.662 178.566 184.556 178.431 184.421L173.43 179.422C173.164 179.156 173.015 178.796 173.015 178.42C173.015 178.044 173.165 177.683 173.431 177.418C173.696 177.152 174.057 177.003 174.433 177.003C174.809 177.003 175.169 177.152 175.435 177.418L179.391 181.374L185.952 173.013C185.964 172.998 185.977 172.984 185.991 172.97L185.99 172.969Z" fill="#66F6FF"/>
<rect x="183.21" y="285.974" width="123.62" height="19.1165" rx="6" fill="#A1B2EB"/>
<path d="M187.352 50.2036C178.198 50.2036 170.466 57.9358 170.466 67.0899C170.466 76.2439 178.198 83.9761 187.352 83.9761C196.506 83.9761 204.238 76.2439 204.238 67.0899C204.238 57.9358 196.506 50.2036 187.352 50.2036ZM187.352 58.6467C190.268 58.6467 192.418 60.7947 192.418 63.7126C192.418 66.6306 190.268 68.7785 187.352 68.7785C184.438 68.7785 182.286 66.6306 182.286 63.7126C182.286 60.7947 184.438 58.6467 187.352 58.6467ZM178.73 75.148C180.245 72.919 182.771 71.433 185.663 71.433H189.041C191.935 71.433 194.46 72.919 195.974 75.148C193.816 77.458 190.755 78.9103 187.352 78.9103C183.949 78.9103 180.888 77.458 178.73 75.148Z" fill="#547BFF"/>
<path d="M322.384 145.375C322.379 145.38 322.399 145.375 322.323 145.375C321.522 145.375 320.969 146.118 321.248 146.81C321.113 146.952 321.693 146.372 311.884 156.13C311.605 156.407 311.155 156.408 310.876 156.13C301.069 146.374 301.648 146.953 301.512 146.81C301.802 146.091 301.196 145.337 300.377 145.377C300.377 145.376 300.377 145.376 300.376 145.375C299.564 144.107 299.157 142.731 299.185 141.319C299.296 135.776 306.06 131.689 311.38 136.341C316.696 131.691 323.463 135.773 323.574 141.319C323.603 142.731 323.195 144.107 322.384 145.375Z" fill="#66F6FF"/>
<path d="M322.383 145.375C322.067 145.87 321.69 146.348 321.252 146.805H315.955C315.692 146.805 315.451 146.661 315.326 146.429L313.327 142.717L310.501 148.684C310.261 149.189 309.554 149.239 309.251 148.762L307.203 145.544L306.654 146.458C306.525 146.674 306.293 146.805 306.041 146.805H301.507C301.069 146.348 300.692 145.87 300.376 145.375H305.637L306.572 143.816C306.843 143.364 307.501 143.348 307.788 143.8L309.762 146.902L312.64 140.827C312.892 140.298 313.638 140.28 313.916 140.794L316.383 145.375H322.383V145.375Z" fill="white"/>
<path fill-rule="evenodd" clip-rule="evenodd" d="M31.4675 125.575C31.1587 125.266 30.7398 125.092 30.3029 125.092L30.3006 125.09C30.0839 125.09 29.8693 125.132 29.6691 125.215C29.4688 125.298 29.2869 125.419 29.1337 125.572C28.9805 125.726 28.859 125.907 28.7762 126.108C28.6934 126.308 28.6509 126.523 28.6512 126.739L28.6535 134.411L20.9819 134.409C20.5445 134.409 20.1249 134.582 19.8156 134.892C19.5063 135.201 19.3325 135.62 19.3325 136.058C19.3325 136.495 19.5063 136.915 19.8156 137.224C20.1249 137.534 20.5445 137.707 20.9819 137.707L28.6535 137.705L28.6512 145.377C28.6512 145.593 28.6939 145.808 28.7768 146.008C28.8596 146.208 28.9811 146.39 29.1343 146.543C29.2875 146.696 29.4693 146.818 29.6694 146.9C29.8695 146.983 30.084 147.026 30.3006 147.026C30.5172 147.026 30.7317 146.983 30.9318 146.9C31.1319 146.818 31.3138 146.696 31.4669 146.543C31.6201 146.39 31.7416 146.208 31.8245 146.008C31.9074 145.808 31.95 145.593 31.95 145.377L31.9477 137.705L39.6193 137.707C40.0568 137.707 40.4763 137.534 40.7856 137.224C41.0949 136.915 41.2687 136.495 41.2687 136.058C41.2687 135.62 41.0949 135.201 40.7856 134.892C40.4763 134.582 40.0568 134.409 39.6193 134.409L31.9477 134.411L31.95 126.739C31.95 126.302 31.7764 125.884 31.4675 125.575Z" fill="#66F6FF"/>
<path fill-rule="evenodd" clip-rule="evenodd" d="M425.237 128.316C424.928 128.007 424.509 127.833 424.072 127.833L424.07 127.831C423.853 127.831 423.639 127.873 423.439 127.956C423.238 128.039 423.056 128.16 422.903 128.314C422.75 128.467 422.629 128.649 422.546 128.849C422.463 129.049 422.42 129.264 422.421 129.48L422.423 137.152L414.751 137.15C414.314 137.15 413.894 137.324 413.585 137.633C413.276 137.942 413.102 138.362 413.102 138.799C413.102 139.237 413.276 139.656 413.585 139.965C413.894 140.275 414.314 140.449 414.751 140.449L422.423 140.446L422.421 148.118C422.421 148.334 422.463 148.549 422.546 148.749C422.629 148.949 422.751 149.131 422.904 149.284C423.057 149.437 423.239 149.559 423.439 149.642C423.639 149.725 423.854 149.767 424.07 149.767C424.287 149.767 424.501 149.725 424.701 149.642C424.901 149.559 425.083 149.437 425.236 149.284C425.39 149.131 425.511 148.949 425.594 148.749C425.677 148.549 425.72 148.334 425.72 148.118L425.717 140.446L433.389 140.449C433.826 140.449 434.246 140.275 434.555 139.965C434.864 139.656 435.038 139.237 435.038 138.799C435.038 138.362 434.864 137.942 434.555 137.633C434.246 137.324 433.826 137.15 433.389 137.15L425.717 137.152L425.72 129.48C425.719 129.044 425.546 128.625 425.237 128.316Z" fill="#66F6FF"/>
<path fill-rule="evenodd" clip-rule="evenodd" d="M398.782 1.12936C398.473 0.820483 398.054 0.646928 397.617 0.646862L397.615 0.644533C397.398 0.644259 397.184 0.686737 396.984 0.76953C396.783 0.852324 396.601 0.973806 396.448 1.12702C396.295 1.28024 396.173 1.46218 396.091 1.66241C396.008 1.86265 395.965 2.07726 395.966 2.29394L395.968 9.96555L388.296 9.96322C387.859 9.96322 387.439 10.137 387.13 10.4463C386.821 10.7556 386.647 11.1752 386.647 11.6126C386.647 12.0501 386.821 12.4696 387.13 12.7789C387.439 13.0883 387.859 13.262 388.296 13.262L395.968 13.2597L395.966 20.9313C395.966 21.1479 396.008 21.3624 396.091 21.5625C396.174 21.7626 396.296 21.9445 396.449 22.0976C396.602 22.2508 396.784 22.3723 396.984 22.4552C397.184 22.5381 397.398 22.5807 397.615 22.5807C397.832 22.5807 398.046 22.5381 398.246 22.4552C398.446 22.3723 398.628 22.2508 398.781 22.0976C398.935 21.9445 399.056 21.7626 399.139 21.5625C399.222 21.3624 399.264 21.1479 399.264 20.9313L399.262 13.2597L406.934 13.262C407.371 13.262 407.791 13.0883 408.1 12.7789C408.409 12.4696 408.583 12.0501 408.583 11.6126C408.583 11.1752 408.409 10.7556 408.1 10.4463C407.791 10.137 407.371 9.96322 406.934 9.96322L399.262 9.96555L399.264 2.29394C399.264 1.85713 399.091 1.43823 398.782 1.12936Z" fill="#DAE1F4"/>
<path fill-rule="evenodd" clip-rule="evenodd" d="M481.199 80.4936C480.89 80.1847 480.471 80.0112 480.034 80.0111L480.032 80.0088C479.815 80.0085 479.601 80.051 479.401 80.1338C479.2 80.2166 479.018 80.3381 478.865 80.4913C478.712 80.6445 478.59 80.8264 478.508 81.0267C478.425 81.2269 478.382 81.4415 478.383 81.6582L478.385 89.3298L470.713 89.3275C470.276 89.3275 469.856 89.5013 469.547 89.8106C469.238 90.1199 469.064 90.5394 469.064 90.9769C469.064 91.4143 469.238 91.8339 469.547 92.1432C469.856 92.4525 470.276 92.6263 470.713 92.6263L478.385 92.624L478.383 100.296C478.383 100.512 478.425 100.727 478.508 100.927C478.591 101.127 478.713 101.309 478.866 101.462C479.019 101.615 479.201 101.737 479.401 101.819C479.601 101.902 479.815 101.945 480.032 101.945C480.249 101.945 480.463 101.902 480.663 101.819C480.863 101.737 481.045 101.615 481.198 101.462C481.352 101.309 481.473 101.127 481.556 100.927C481.639 100.727 481.681 100.512 481.681 100.296L481.679 92.624L489.351 92.6263C489.788 92.6263 490.208 92.4525 490.517 92.1432C490.826 91.8339 491 91.4143 491 90.9769C491 90.5394 490.826 90.1199 490.517 89.8106C490.208 89.5013 489.788 89.3275 489.351 89.3275L481.679 89.3298L481.681 81.6582C481.681 81.2214 481.508 80.8025 481.199 80.4936Z" fill="#6E7AED"/>
<path fill-rule="evenodd" clip-rule="evenodd" d="M53.8523 196.488C53.5434 196.179 53.1245 196.005 52.6877 196.005L52.6854 196.003C52.4687 196.003 52.2541 196.045 52.0539 196.128C51.8536 196.211 51.6717 196.332 51.5185 196.485C51.3652 196.639 51.2438 196.821 51.161 197.021C51.0782 197.221 51.0357 197.436 51.036 197.652L51.0383 205.324L43.3667 205.322C42.9292 205.322 42.5097 205.495 42.2004 205.805C41.8911 206.114 41.7173 206.534 41.7173 206.971C41.7173 207.408 41.8911 207.828 42.2004 208.137C42.5097 208.447 42.9292 208.62 43.3667 208.62L51.0383 208.618L51.036 216.29C51.036 216.506 51.0786 216.721 51.1615 216.921C51.2444 217.121 51.3659 217.303 51.5191 217.456C51.6722 217.609 51.8541 217.731 52.0542 217.814C52.2543 217.896 52.4688 217.939 52.6854 217.939C52.902 217.939 53.1165 217.896 53.3166 217.814C53.5167 217.731 53.6985 217.609 53.8517 217.456C54.0048 217.303 54.1263 217.121 54.2092 216.921C54.2921 216.721 54.3348 216.506 54.3348 216.29L54.3325 208.618L62.0041 208.62C62.4415 208.62 62.861 208.447 63.1704 208.137C63.4797 207.828 63.6535 207.408 63.6535 206.971C63.6535 206.534 63.4797 206.114 63.1704 205.805C62.861 205.495 62.4415 205.322 62.0041 205.322L54.3325 205.324L54.3348 197.652C54.3347 197.216 54.1612 196.797 53.8523 196.488Z" fill="#66F6FF"/>
<path fill-rule="evenodd" clip-rule="evenodd" d="M38.2175 64.1563C37.9453 63.8841 37.5761 63.7311 37.1912 63.7311L37.1891 63.729C36.9982 63.7288 36.809 63.7662 36.6326 63.8392C36.4561 63.9121 36.2958 64.0192 36.1607 64.1542C36.0257 64.2893 35.9186 64.4496 35.8457 64.6261C35.7727 64.8025 35.7353 64.9917 35.7355 65.1826L35.7376 71.9436L28.9766 71.9416C28.591 71.9416 28.2213 72.0947 27.9487 72.3673C27.6761 72.6399 27.5229 73.0097 27.5229 73.3952C27.5229 73.7807 27.6761 74.1504 27.9487 74.4231C28.2213 74.6957 28.591 74.8488 28.9766 74.8488L35.7376 74.8468L35.7355 81.6077C35.7355 81.7986 35.7731 81.9877 35.8462 82.164C35.9192 82.3404 36.0263 82.5006 36.1613 82.6356C36.2962 82.7706 36.4565 82.8777 36.6328 82.9507C36.8092 83.0238 36.9982 83.0614 37.1891 83.0614C37.38 83.0614 37.569 83.0238 37.7454 82.9507C37.9218 82.8777 38.082 82.7706 38.217 82.6356C38.352 82.5006 38.459 82.3404 38.5321 82.164C38.6052 81.9877 38.6427 81.7986 38.6427 81.6077L38.6407 74.8468L45.4017 74.8488C45.7872 74.8488 46.1569 74.6957 46.4295 74.423C46.7022 74.1504 46.8553 73.7807 46.8553 73.3952C46.8553 73.0097 46.7022 72.6399 46.4295 72.3673C46.1569 72.0947 45.7872 71.9416 45.4017 71.9416L38.6407 71.9436L38.6427 65.1826C38.6427 64.7977 38.4897 64.4285 38.2175 64.1563Z" fill="#DAE1F4"/>
<path fill-rule="evenodd" clip-rule="evenodd" d="M75.8759 117.921C75.707 117.752 75.478 117.658 75.2391 117.658L75.2378 117.656C75.1193 117.656 75.002 117.679 74.8925 117.725C74.783 117.77 74.6835 117.836 74.5997 117.92C74.516 118.004 74.4495 118.103 74.4042 118.213C74.359 118.322 74.3357 118.44 74.3359 118.558L74.3372 122.753L70.1422 122.752C69.903 122.752 69.6735 122.847 69.5044 123.016C69.3353 123.185 69.2402 123.415 69.2402 123.654C69.2402 123.893 69.3353 124.122 69.5044 124.292C69.6735 124.461 69.903 124.556 70.1422 124.556L74.3372 124.555L74.3359 128.75C74.3359 128.868 74.3592 128.985 74.4046 129.095C74.4499 129.204 74.5163 129.304 74.6001 129.387C74.6838 129.471 74.7832 129.537 74.8927 129.583C75.0021 129.628 75.1194 129.651 75.2378 129.651C75.3563 129.651 75.4736 129.628 75.583 129.583C75.6924 129.537 75.7918 129.471 75.8756 129.387C75.9593 129.304 76.0258 129.204 76.0711 129.095C76.1164 128.985 76.1398 128.868 76.1398 128.75L76.1385 124.555L80.3335 124.556C80.5727 124.556 80.8021 124.461 80.9713 124.292C81.1404 124.122 81.2354 123.893 81.2354 123.654C81.2354 123.415 81.1404 123.185 80.9713 123.016C80.8021 122.847 80.5727 122.752 80.3335 122.752L76.1385 122.753L76.1398 118.558C76.1397 118.319 76.0448 118.09 75.8759 117.921Z" fill="#90A9FF"/>
<circle cx="245.972" cy="244.581" r="7.87848" fill="#6B7CEB"/>
<path d="M245.474 240.71C245.914 240.71 246.27 240.344 246.27 239.891C246.27 239.439 245.914 239.073 245.474 239.073C245.035 239.073 244.679 239.439 244.679 239.891C244.679 240.344 245.035 240.71 245.474 240.71Z" fill="white"/>
<path d="M244.913 241.459C244.913 241.459 256.28 243.523 244.913 247.073C244.913 247.073 250.907 244.155 244.913 241.459Z" fill="white"/>
<path d="M246.269 243.844C246.269 243.844 236.27 245.963 246.269 249.598C246.269 249.598 240.997 246.613 246.269 243.844Z" fill="white"/>
</svg>
