<svg width="464" height="317" viewBox="0 0 464 317" fill="none" xmlns="http://www.w3.org/2000/svg">
<rect x="2.82422" y="3.18555" width="364.782" height="56.1203" rx="28.0601" fill="#DAE1F4"/>
<rect x="105.619" y="57.6904" width="358.381" height="61.3852" rx="30.6926" fill="#DAE1F4"/>
<rect y="118.951" width="407.529" height="49.8823" rx="24.9412" fill="#DAE1F4"/>
<rect x="80.9419" y="168.833" width="352" height="50.8235" rx="25.4118" fill="#DAE1F4"/>
<path d="M343.278 184.17L335.581 124.343C334.794 117.958 331.383 112.185 326.31 108.249L288.525 79.4727L268.058 144.46L315.027 196.852L343.278 184.17Z" fill="#BED5FF"/>
<path d="M289.487 99.5894L315.989 121.543C316.863 122.331 317.301 123.468 317.038 124.692L307.592 161.34C306.98 163.789 303.831 164.489 302.257 162.477L283.364 138.337C282.577 137.287 282.489 135.888 283.277 134.751L285.113 100.202C285.988 98.7147 288.087 98.4523 289.487 99.5894Z" fill="#A5C5FF"/>
<path d="M122.7 238.618L129.768 183.681C130.491 177.818 133.623 172.517 138.282 168.903L172.978 142.479L191.773 202.154L148.642 250.264L122.7 238.618Z" fill="#BED5FF"/>
<rect x="170.043" y="13.1699" width="114.618" height="222.853" rx="13.25" fill="#547BFF" stroke="#2B5BFF" stroke-width="4.5"/>
<path d="M227.358 53.0684C217.916 53.0684 209.94 61.044 209.94 70.4862C209.94 79.9284 217.916 87.904 227.358 87.904C236.8 87.904 244.776 79.9284 244.776 70.4862C244.776 61.044 236.8 53.0684 227.358 53.0684ZM227.358 61.7773C230.366 61.7773 232.583 63.9928 232.583 67.0026C232.583 70.0124 230.366 72.228 227.358 72.228C224.351 72.228 222.132 70.0124 222.132 67.0026C222.132 63.9928 224.351 61.7773 227.358 61.7773ZM218.464 78.798C220.027 76.4988 222.632 74.9661 225.616 74.9661H229.1C232.085 74.9661 234.689 76.4988 236.251 78.798C234.025 81.1807 230.867 82.6787 227.358 82.6787C223.848 82.6787 220.69 81.1807 218.464 78.798Z" fill="white"/>
<rect x="182.646" y="106.715" width="89.8985" height="16.856" rx="8.42798" fill="white"/>
<path d="M192.058 115.185C192.058 113.625 193.322 112.361 194.881 112.361H239.116C240.676 112.361 241.94 113.625 241.94 115.185C241.94 116.744 240.676 118.008 239.116 118.008H194.881C193.322 118.008 192.058 116.744 192.058 115.185Z" fill="#DAE1F4"/>
<rect x="182.646" y="131.438" width="89.8985" height="16.856" rx="8.42798" fill="white"/>
<rect x="182.702" y="168.833" width="89.4117" height="16.9412" rx="8.47058" fill="#2A5BFF"/>
<rect x="182.702" y="193.304" width="89.4117" height="16.9412" rx="8.47058" fill="#78F7FF"/>
<rect x="192.114" y="137.049" width="6.58823" height="6.58823" rx="3.29412" fill="#DAE1F4"/>
<rect x="202.467" y="137.049" width="6.58823" height="6.58823" rx="3.29412" fill="#DAE1F4"/>
<rect x="212.819" y="137.049" width="6.58823" height="6.58823" rx="3.29412" fill="#DAE1F4"/>
<rect x="223.173" y="137.049" width="6.58823" height="6.58823" rx="3.29412" fill="#DAE1F4"/>
<path d="M199.449 33.335H200.689V29.9216H202.029V28.9347H198.103V29.9216H199.449V33.335Z" fill="white"/>
<path d="M204.019 33.423C205.321 33.423 205.96 32.7692 205.96 32.0023C205.96 30.3805 203.474 30.8834 203.474 30.2108C203.474 29.9907 203.662 29.8147 204.182 29.8147C204.564 29.8147 204.977 29.9279 205.396 30.1542L205.778 29.2301C205.346 28.9787 204.758 28.8467 204.188 28.8467C202.886 28.8467 202.247 29.4879 202.247 30.2736C202.247 31.908 204.739 31.3988 204.739 32.0966C204.739 32.3103 204.538 32.4549 204.025 32.4549C203.518 32.4549 202.967 32.2789 202.579 32.0212L202.172 32.9389C202.585 33.2281 203.299 33.423 204.019 33.423Z" fill="white"/>
<path d="M207.404 33.335H208.644V29.9216H209.984V28.9347H206.058V29.9216H207.404V33.335Z" fill="white"/>
<path d="M213.808 33.423C215.111 33.423 215.749 32.7692 215.749 32.0023C215.749 30.3805 213.264 30.8834 213.264 30.2108C213.264 29.9907 213.451 29.8147 213.971 29.8147C214.353 29.8147 214.766 29.9279 215.186 30.1542L215.568 29.2301C215.136 28.9787 214.547 28.8467 213.977 28.8467C212.675 28.8467 212.036 29.4879 212.036 30.2736C212.036 31.908 214.528 31.3988 214.528 32.0966C214.528 32.3103 214.328 32.4549 213.815 32.4549C213.307 32.4549 212.756 32.2789 212.368 32.0212L211.961 32.9389C212.374 33.2281 213.088 33.423 213.808 33.423Z" fill="white"/>
<path d="M219.603 33.335H220.893L218.952 28.9347H217.731L215.796 33.335H217.061L217.405 32.48H219.258L219.603 33.335ZM217.768 31.5623L218.332 30.1542L218.895 31.5623H217.768Z" fill="white"/>
<path d="M221.244 33.335H224.575V32.348H222.484V28.9347H221.244V33.335Z" fill="white"/>
<path d="M227.045 33.423C228.341 33.423 229.105 32.6875 229.105 31.3737V28.9347H227.884V31.336C227.884 32.0903 227.571 32.392 227.058 32.392C226.538 32.392 226.225 32.0903 226.225 31.336V28.9347H224.985V31.3737C224.985 32.6875 225.749 33.423 227.045 33.423Z" fill="white"/>
<path d="M229.945 33.335H232.018C233.47 33.335 234.466 32.4863 234.466 31.1348C234.466 29.7833 233.47 28.9347 232.018 28.9347H229.945V33.335ZM231.185 32.3418V29.9279H231.968C232.713 29.9279 233.214 30.3742 233.214 31.1348C233.214 31.8954 232.713 32.3418 231.968 32.3418H231.185Z" fill="white"/>
<path d="M188.001 26.7888C188.526 26.7888 188.951 26.351 188.951 25.8109C188.951 25.2708 188.526 24.833 188.001 24.833C187.477 24.833 187.051 25.2708 187.051 25.8109C187.051 26.351 187.477 26.7888 188.001 26.7888Z" fill="white"/>
<path d="M187.331 27.6826C187.331 27.6826 200.909 30.1479 187.331 34.3882C187.331 34.3882 194.49 30.9036 187.331 27.6826Z" fill="white"/>
<path d="M188.951 30.5327C188.951 30.5327 177.007 33.063 188.951 37.406C188.951 37.406 182.653 33.8405 188.951 30.5327Z" fill="white"/>
<path d="M300.944 222.479L296.309 207.872C296.046 207.173 295.521 206.56 294.822 206.298L277.503 199.388C261.585 193.003 262.197 168.163 262.634 161.515C262.722 160.466 262.109 159.591 261.235 159.154L243.129 150.32C236.919 147.346 231.846 139.211 231.846 132.302C231.846 125.129 237.357 121.193 244.179 123.643L290.448 140.349C290.973 140.523 291.411 140.961 291.76 141.398L315.989 182.07C316.601 183.032 317.825 183.557 318.875 183.119L339.342 176.297C340.741 175.86 342.228 176.647 342.578 178.134L352.112 221.167C352.462 222.742 351.237 224.228 349.663 224.228H303.131C302.256 224.228 301.294 223.441 300.944 222.479Z" fill="#BED5FF"/>
<path d="M239.282 131.951L240.856 128.889C241.644 127.315 243.48 126.615 245.142 127.228L252.927 130.026C254.851 130.726 255.813 133 254.851 134.837L252.577 139.21C251.702 140.96 249.428 141.659 247.766 140.61L240.682 136.411C239.02 135.537 238.407 133.525 239.282 131.951Z" fill="#ADC3FC"/>
<path d="M354.648 230.352L298.145 239.361C294.996 239.886 292.11 237.7 291.585 234.638L290.273 226.329C289.748 223.18 291.935 220.294 294.996 219.769L351.499 210.76C354.648 210.235 357.535 212.422 358.059 215.483L359.371 223.792C359.896 226.941 357.797 229.915 354.648 230.352Z" fill="#EBF2FF"/>
<path d="M379.052 315.456L364.562 226.761C364.207 224.587 362.162 223.109 359.986 223.455L289.785 234.618C287.595 234.966 286.106 237.03 286.466 239.218L299.02 315.456H379.052Z" fill="#547BFF"/>
<path d="M161.656 273.798L165.912 260.385C166.153 259.743 166.635 259.181 167.278 258.94L183.181 252.595C197.798 246.732 197.236 223.922 196.834 217.818C196.754 216.854 197.316 216.051 198.119 215.649L214.745 207.537C220.448 204.806 225.106 197.337 225.106 190.992C225.106 184.406 220.046 180.792 213.781 183.041L171.294 198.381C170.812 198.542 170.41 198.943 170.089 199.345L147.681 236.692C147.118 237.576 145.994 238.057 145.03 237.656L126.236 231.391C124.951 230.99 123.586 231.712 123.264 233.078L114.51 272.594C114.189 274.039 115.313 275.405 116.759 275.405H159.487C160.451 275.405 161.334 274.682 161.656 273.798Z" fill="#BED5FF"/>
<path d="M218.279 190.67L216.833 187.859C216.111 186.413 214.424 185.77 212.898 186.333L205.75 188.903C203.983 189.545 203.099 191.633 203.983 193.32L206.071 197.336C206.874 198.942 208.962 199.585 210.488 198.621L216.994 194.766C218.52 193.963 219.002 192.115 218.279 190.67Z" fill="#ADC3FC"/>
<path d="M112.34 281.029L164.225 289.301C167.116 289.783 169.767 287.775 170.248 284.964L171.453 277.334C171.935 274.443 169.927 271.792 167.116 271.311L115.232 263.038C112.34 262.556 109.69 264.564 109.208 267.375L108.003 275.005C107.521 277.896 109.449 280.627 112.34 281.029Z" fill="#EBF2FF"/>
<path d="M170.49 315.805L174.817 289.493C175.177 287.306 173.688 285.243 171.499 284.894L107.76 274.747C105.585 274.401 103.539 275.878 103.183 278.051L97 315.805H170.49Z" fill="#547BFF"/>
<path fill-rule="evenodd" clip-rule="evenodd" d="M115.695 18.6931C115.409 18.4074 115.021 18.2468 114.617 18.2468L114.615 18.2446C114.415 18.2444 114.216 18.2837 114.031 18.3603C113.846 18.4368 113.677 18.5492 113.536 18.6909C113.394 18.8327 113.282 19.0009 113.205 19.1862C113.129 19.3714 113.089 19.5699 113.089 19.7703L113.092 26.8665L105.995 26.8644C105.591 26.8644 105.203 27.0251 104.917 27.3112C104.63 27.5974 104.47 27.9854 104.47 28.3901C104.47 28.7947 104.63 29.1828 104.917 29.4689C105.203 29.755 105.591 29.9158 105.995 29.9158L113.092 29.9136L113.089 37.0098C113.089 37.2102 113.129 37.4086 113.206 37.5937C113.282 37.7788 113.395 37.947 113.536 38.0886C113.678 38.2303 113.846 38.3427 114.031 38.4194C114.216 38.496 114.415 38.5355 114.615 38.5355C114.816 38.5355 115.014 38.496 115.199 38.4194C115.384 38.3427 115.552 38.2303 115.694 38.0886C115.836 37.947 115.948 37.7788 116.025 37.5937C116.101 37.4086 116.141 37.2102 116.141 37.0098L116.139 29.9136L123.235 29.9158C123.64 29.9158 124.028 29.755 124.314 29.4689C124.6 29.1828 124.761 28.7947 124.761 28.3901C124.761 27.9854 124.6 27.5974 124.314 27.3112C124.028 27.0251 123.64 26.8644 123.235 26.8644L116.139 26.8665L116.141 19.7703C116.141 19.3663 115.98 18.9788 115.695 18.6931Z" fill="#66F6FF"/>
<path fill-rule="evenodd" clip-rule="evenodd" d="M382.989 143.869C382.704 143.584 382.316 143.423 381.912 143.423L381.91 143.421C381.71 143.421 381.511 143.46 381.326 143.537C381.141 143.613 380.972 143.725 380.831 143.867C380.689 144.009 380.577 144.177 380.5 144.362C380.423 144.548 380.384 144.746 380.384 144.947L380.387 152.043L373.29 152.041C372.886 152.041 372.498 152.201 372.212 152.488C371.925 152.774 371.765 153.162 371.765 153.566C371.765 153.971 371.925 154.359 372.212 154.645C372.498 154.931 372.886 155.092 373.29 155.092L380.387 155.09L380.384 162.186C380.384 162.386 380.424 162.585 380.501 162.77C380.577 162.955 380.69 163.123 380.831 163.265C380.973 163.407 381.141 163.519 381.326 163.596C381.511 163.672 381.71 163.712 381.91 163.712C382.11 163.712 382.309 163.672 382.494 163.596C382.679 163.519 382.847 163.407 382.989 163.265C383.131 163.123 383.243 162.955 383.32 162.77C383.396 162.585 383.436 162.386 383.436 162.186L383.434 155.09L390.53 155.092C390.934 155.092 391.323 154.931 391.609 154.645C391.895 154.359 392.056 153.971 392.056 153.566C392.056 153.162 391.895 152.774 391.609 152.488C391.323 152.201 390.934 152.041 390.53 152.041L383.434 152.043L383.436 144.947C383.436 144.543 383.275 144.155 382.989 143.869Z" fill="#66F6FF"/>
<path fill-rule="evenodd" clip-rule="evenodd" d="M393.342 32.8103C393.056 32.5246 392.668 32.364 392.264 32.364L392.262 32.3618C392.062 32.3616 391.863 32.4009 391.678 32.4774C391.493 32.554 391.324 32.6664 391.183 32.8081C391.041 32.9498 390.929 33.1181 390.852 33.3034C390.775 33.4886 390.736 33.6871 390.736 33.8875L390.739 40.9837L383.642 40.9816C383.238 40.9816 382.85 41.1423 382.564 41.4284C382.277 41.7146 382.117 42.1026 382.117 42.5073C382.117 42.9119 382.277 43.3 382.564 43.5861C382.85 43.8722 383.238 44.033 383.642 44.033L390.739 44.0308L390.736 51.127C390.736 51.3274 390.776 51.5258 390.853 51.7109C390.929 51.896 391.042 52.0642 391.183 52.2058C391.325 52.3475 391.493 52.4599 391.678 52.5366C391.863 52.6132 392.062 52.6527 392.262 52.6527C392.462 52.6527 392.661 52.6132 392.846 52.5366C393.031 52.4599 393.199 52.3475 393.341 52.2058C393.483 52.0642 393.595 51.896 393.672 51.7109C393.748 51.5258 393.788 51.3274 393.788 51.127L393.786 44.0308L400.882 44.033C401.287 44.033 401.675 43.8722 401.961 43.5861C402.247 43.3 402.408 42.9119 402.408 42.5073C402.408 42.1026 402.247 41.7146 401.961 41.4284C401.675 41.1423 401.287 40.9816 400.882 40.9816L393.786 40.9837L393.788 33.8875C393.788 33.4835 393.627 33.096 393.342 32.8103Z" fill="#DAE1F4"/>
<path fill-rule="evenodd" clip-rule="evenodd" d="M345.342 77.9875C345.056 77.7018 344.669 77.5413 344.265 77.5412L344.263 77.5391C344.062 77.5388 343.864 77.5781 343.678 77.6547C343.493 77.7313 343.325 77.8436 343.183 77.9854C343.042 78.1271 342.929 78.2954 342.853 78.4806C342.776 78.6658 342.737 78.8643 342.737 79.0648L342.739 86.161L335.643 86.1588C335.238 86.1588 334.85 86.3196 334.564 86.6057C334.278 86.8918 334.117 87.2799 334.117 87.6845C334.117 88.0891 334.278 88.4772 334.564 88.7633C334.85 89.0495 335.238 89.2102 335.643 89.2102L342.739 89.208L342.737 96.3043C342.737 96.5046 342.776 96.703 342.853 96.8881C342.93 97.0732 343.042 97.2414 343.184 97.3831C343.325 97.5248 343.494 97.6371 343.679 97.7138C343.864 97.7905 344.062 97.8299 344.263 97.8299C344.463 97.8299 344.661 97.7905 344.846 97.7138C345.032 97.6371 345.2 97.5248 345.341 97.3831C345.483 97.2414 345.596 97.0732 345.672 96.8881C345.749 96.703 345.788 96.5046 345.788 96.3043L345.786 89.208L352.882 89.2102C353.287 89.2102 353.675 89.0495 353.961 88.7633C354.247 88.4772 354.408 88.0891 354.408 87.6845C354.408 87.2799 354.247 86.8918 353.961 86.6057C353.675 86.3196 353.287 86.1588 352.882 86.1588L345.786 86.161L345.788 79.0648C345.788 78.6607 345.628 78.2732 345.342 77.9875Z" fill="#6E7AED"/>
<path fill-rule="evenodd" clip-rule="evenodd" d="M64.8708 203.164C64.5851 202.879 64.1976 202.718 63.7936 202.718L63.7914 202.716C63.591 202.716 63.3925 202.755 63.2073 202.831C63.0221 202.908 62.8538 203.02 62.712 203.162C62.5703 203.304 62.4579 203.472 62.3814 203.657C62.3048 203.843 62.2655 204.041 62.2657 204.242L62.2679 211.338L55.1717 211.336C54.7671 211.336 54.379 211.496 54.0929 211.782C53.8067 212.069 53.646 212.457 53.646 212.861C53.646 213.266 53.8067 213.654 54.0929 213.94C54.379 214.226 54.7671 214.387 55.1717 214.387L62.2679 214.385L62.2657 221.481C62.2657 221.681 62.3052 221.88 62.3819 222.065C62.4586 222.25 62.5709 222.418 62.7126 222.56C62.8543 222.702 63.0225 222.814 63.2076 222.891C63.3927 222.967 63.5911 223.007 63.7914 223.007C63.9918 223.007 64.1902 222.967 64.3753 222.891C64.5604 222.814 64.7286 222.702 64.8703 222.56C65.0119 222.418 65.1243 222.25 65.201 222.065C65.2777 221.88 65.3171 221.681 65.3171 221.481L65.315 214.385L72.4112 214.387C72.8158 214.387 73.2039 214.226 73.49 213.94C73.7761 213.654 73.9369 213.266 73.9369 212.861C73.9369 212.457 73.7761 212.069 73.49 211.782C73.2039 211.496 72.8158 211.336 72.4112 211.336L65.315 211.338L65.3171 204.242C65.3171 203.837 65.1565 203.45 64.8708 203.164Z" fill="#66F6FF"/>
<path fill-rule="evenodd" clip-rule="evenodd" d="M79.5399 70.403C79.2881 70.1512 78.9466 70.0098 78.5905 70.0097L78.5886 70.0078C78.412 70.0076 78.237 70.0422 78.0738 70.1097C77.9106 70.1772 77.7623 70.2762 77.6374 70.4011C77.5125 70.526 77.4134 70.6744 77.3459 70.8376C77.2784 71.0008 77.2438 71.1758 77.244 71.3524L77.2459 77.6063L70.9921 77.6044C70.6354 77.6044 70.2934 77.7461 70.0413 77.9982C69.7891 78.2504 69.6475 78.5924 69.6475 78.949C69.6475 79.3056 69.7891 79.6476 70.0413 79.8998C70.2934 80.1519 70.6354 80.2936 70.9921 80.2936L77.2459 80.2917L77.244 86.5456C77.244 86.7221 77.2788 86.897 77.3464 87.0601C77.414 87.2233 77.513 87.3715 77.6379 87.4963C77.7627 87.6212 77.9109 87.7202 78.0741 87.7878C78.2372 87.8554 78.4121 87.8902 78.5886 87.8902C78.7652 87.8902 78.9401 87.8554 79.1032 87.7878C79.2663 87.7202 79.4145 87.6212 79.5394 87.4963C79.6643 87.3715 79.7633 87.2233 79.8309 87.0601C79.8984 86.897 79.9332 86.7221 79.9332 86.5456L79.9313 80.2917L86.1852 80.2936C86.5418 80.2936 86.8838 80.1519 87.136 79.8998C87.3881 79.6476 87.5298 79.3056 87.5298 78.949C87.5298 78.5924 87.3881 78.2504 87.136 77.9982C86.8838 77.7461 86.5418 77.6044 86.1852 77.6044L79.9313 77.6063L79.9332 71.3524C79.9332 70.9963 79.7917 70.6548 79.5399 70.403Z" fill="#6E7AED"/>
<path fill-rule="evenodd" clip-rule="evenodd" d="M115.314 133.312C115.158 133.156 114.946 133.068 114.725 133.068L114.724 133.067C114.614 133.067 114.505 133.088 114.404 133.13C114.303 133.172 114.211 133.233 114.133 133.311C114.056 133.388 113.994 133.48 113.952 133.582C113.911 133.683 113.889 133.792 113.889 133.901L113.89 137.782L110.01 137.78C109.789 137.78 109.577 137.868 109.42 138.025C109.264 138.181 109.176 138.393 109.176 138.615C109.176 138.836 109.264 139.048 109.42 139.205C109.577 139.361 109.789 139.449 110.01 139.449L113.89 139.448L113.889 143.328C113.889 143.438 113.911 143.546 113.953 143.647C113.995 143.749 114.056 143.841 114.134 143.918C114.211 143.996 114.303 144.057 114.404 144.099C114.505 144.141 114.614 144.162 114.724 144.162C114.833 144.162 114.942 144.141 115.043 144.099C115.144 144.057 115.236 143.996 115.313 143.918C115.391 143.841 115.452 143.749 115.494 143.647C115.536 143.546 115.558 143.438 115.558 143.328L115.557 139.448L119.437 139.449C119.658 139.449 119.87 139.361 120.027 139.205C120.183 139.048 120.271 138.836 120.271 138.615C120.271 138.393 120.183 138.181 120.027 138.025C119.87 137.868 119.658 137.78 119.437 137.78L115.557 137.782L115.558 133.901C115.558 133.68 115.47 133.468 115.314 133.312Z" fill="white"/>
</svg>
