<svg width="522" height="330" viewBox="0 0 522 330" fill="none" xmlns="http://www.w3.org/2000/svg">
<g filter="url(#filter0_d)">
<path d="M46.4971 103.771C46.4971 85.8701 61.009 71.3582 78.9103 71.3582H435.456C453.357 71.3582 467.869 85.8701 467.869 103.771C467.869 121.673 453.357 136.185 435.456 136.185H78.9103C61.009 136.185 46.4971 121.673 46.4971 103.771Z" fill="#DAE1F4"/>
<path d="M106.195 50.7667C106.195 37.5571 116.904 26.8486 130.113 26.8486H392.125C405.335 26.8486 416.043 37.5571 416.043 50.7667C416.043 63.9763 405.335 74.6848 392.125 74.6848H130.113C116.904 74.6848 106.195 63.9763 106.195 50.7667Z" fill="#DAE1F4"/>
<path d="M104.021 169.773C104.021 150.192 119.894 134.319 139.475 134.319H482.546C502.127 134.319 518 150.192 518 169.773C518 189.354 502.127 205.227 482.546 205.227H139.475C119.894 205.227 104.021 189.354 104.021 169.773Z" fill="#DAE1F4"/>
<path d="M4 234.145C4 218.232 16.8995 205.333 32.8118 205.333H467.87C483.782 205.333 496.681 218.232 496.681 234.145C496.681 250.057 483.782 262.957 467.87 262.957H32.8118C16.8995 262.957 4 250.057 4 234.145Z" fill="#DAE1F4"/>
<path d="M77.9287 292.122C77.9287 275.91 91.071 262.768 107.283 262.768H439.962C456.173 262.768 469.316 275.91 469.316 292.122C469.316 308.334 456.173 321.476 439.962 321.476H107.283C91.071 321.476 77.9287 308.334 77.9287 292.122Z" fill="#DAE1F4"/>
<path d="M159.373 43.0595C159.373 41.9806 160.247 41.106 161.326 41.106H366.304C367.383 41.106 368.258 41.9806 368.258 43.0595V313.585C368.258 314.663 367.383 315.538 366.304 315.538H161.326C160.247 315.538 159.373 314.663 159.373 313.585V43.0595Z" fill="white"/>
<path d="M205.035 74.6373C205.035 78.8143 201.649 82.2004 197.472 82.2004C193.295 82.2004 189.909 78.8143 189.909 74.6373C189.909 70.4603 193.295 67.0742 197.472 67.0742C201.649 67.0742 205.035 70.4603 205.035 74.6373Z" fill="#BED5FF"/>
<path d="M209.073 171.119C209.073 172.909 207.622 174.36 205.832 174.36C204.042 174.36 202.591 172.909 202.591 171.119C202.591 169.329 204.042 167.878 205.832 167.878C207.622 167.878 209.073 169.329 209.073 171.119Z" fill="#DAE1F4"/>
<path d="M209.073 189.847C209.073 191.637 207.622 193.088 205.832 193.088C204.042 193.088 202.591 191.637 202.591 189.847C202.591 188.056 204.042 186.605 205.832 186.605C207.622 186.605 209.073 188.056 209.073 189.847Z" fill="#DAE1F4"/>
<path d="M209.073 208.574C209.073 210.364 207.622 211.816 205.832 211.816C204.042 211.816 202.591 210.364 202.591 208.574C202.591 206.784 204.042 205.333 205.832 205.333C207.622 205.333 209.073 206.784 209.073 208.574Z" fill="#DAE1F4"/>
<path d="M209.073 227.302C209.073 229.092 207.622 230.543 205.832 230.543C204.042 230.543 202.591 229.092 202.591 227.302C202.591 225.512 204.042 224.061 205.832 224.061C207.622 224.061 209.073 225.512 209.073 227.302Z" fill="#DAE1F4"/>
<path d="M209.073 246.03C209.073 247.82 207.622 249.271 205.832 249.271C204.042 249.271 202.591 247.82 202.591 246.03C202.591 244.24 204.042 242.788 205.832 242.788C207.622 242.788 209.073 244.24 209.073 246.03Z" fill="#DAE1F4"/>
<path d="M209.073 264.757C209.073 266.548 207.622 267.999 205.832 267.999C204.042 267.999 202.591 266.548 202.591 264.757C202.591 262.967 204.042 261.516 205.832 261.516C207.622 261.516 209.073 262.967 209.073 264.757Z" fill="#DAE1F4"/>
<path d="M216.998 74.9596C216.998 72.9706 218.61 71.3582 220.599 71.3582H310.636C312.625 71.3582 314.237 72.9706 314.237 74.9596C314.237 76.9487 312.625 78.5611 310.636 78.5611H220.599C218.61 78.5611 216.998 76.9487 216.998 74.9596Z" fill="#BED5FF"/>
<path d="M232.843 109.174C232.843 108.179 233.649 107.373 234.644 107.373H327.561C328.556 107.373 329.362 108.179 329.362 109.174C329.362 110.168 328.556 110.975 327.561 110.975H234.644C233.649 110.975 232.843 110.168 232.843 109.174Z" fill="#DAE1F4"/>
<path d="M193.226 123.58C193.226 122.585 194.032 121.779 195.027 121.779H327.561C328.555 121.779 329.362 122.585 329.362 123.58C329.362 124.574 328.555 125.38 327.561 125.38H195.027C194.032 125.38 193.226 124.574 193.226 123.58Z" fill="#DAE1F4"/>
<path d="M193.226 137.986C193.226 136.991 194.032 136.185 195.027 136.185H327.561C328.555 136.185 329.362 136.991 329.362 137.986C329.362 138.98 328.555 139.786 327.561 139.786H195.027C194.032 139.786 193.226 138.98 193.226 137.986Z" fill="#DAE1F4"/>
<path d="M219.878 171.119C219.878 170.125 220.684 169.318 221.679 169.318H327.562C328.556 169.318 329.363 170.125 329.363 171.119C329.363 172.114 328.556 172.92 327.562 172.92H221.679C220.684 172.92 219.878 172.114 219.878 171.119Z" fill="#DAE1F4"/>
<path d="M219.878 227.302C219.878 226.307 220.684 225.501 221.679 225.501H327.562C328.556 225.501 329.363 226.307 329.363 227.302C329.363 228.296 328.556 229.103 327.562 229.103H221.679C220.684 229.103 219.878 228.296 219.878 227.302Z" fill="#DAE1F4"/>
<path d="M219.878 189.847C219.878 188.852 220.684 188.046 221.679 188.046H327.562C328.556 188.046 329.363 188.852 329.363 189.847C329.363 190.841 328.556 191.648 327.562 191.648H221.679C220.684 191.648 219.878 190.841 219.878 189.847Z" fill="#DAE1F4"/>
<path d="M219.878 246.03C219.878 245.035 220.684 244.229 221.679 244.229H327.562C328.556 244.229 329.363 245.035 329.363 246.03C329.363 247.024 328.556 247.83 327.562 247.83H221.679C220.684 247.83 219.878 247.024 219.878 246.03Z" fill="#DAE1F4"/>
<path d="M219.878 208.574C219.878 207.58 220.684 206.774 221.679 206.774H327.562C328.556 206.774 329.363 207.58 329.363 208.574C329.363 209.569 328.556 210.375 327.562 210.375H221.679C220.684 210.375 219.878 209.569 219.878 208.574Z" fill="#DAE1F4"/>
<path d="M219.878 264.757C219.878 263.763 220.684 262.957 221.679 262.957H327.562C328.556 262.957 329.363 263.763 329.363 264.757C329.363 265.752 328.556 266.558 327.562 266.558H221.679C220.684 266.558 219.878 265.752 219.878 264.757Z" fill="#DAE1F4"/>
<path fill-rule="evenodd" clip-rule="evenodd" d="M323.906 283.813C323.888 283.839 323.874 283.858 323.864 283.872C318.517 291.429 310.696 296.633 302.96 301.175C302.838 301.397 302.718 301.62 302.601 301.844C302.308 302.406 301.559 304.081 301.341 305.31C301.299 305.549 301.283 305.738 301.285 305.88C301.426 305.84 301.633 305.759 301.918 305.609C306.275 303.303 309.957 299.834 313.728 296.22C313.845 296.108 313.962 295.996 314.079 295.884C317.704 292.408 321.436 288.829 325.848 286.32C326.144 286.151 326.367 286.025 326.52 285.942C326.595 285.901 326.665 285.864 326.724 285.836C326.75 285.823 326.795 285.801 326.846 285.782C326.869 285.773 326.922 285.754 326.991 285.738C327.025 285.73 327.089 285.718 327.17 285.714C327.233 285.712 327.415 285.709 327.621 285.803C327.889 285.927 328.125 286.187 328.179 286.547C328.221 286.821 328.133 287.029 328.102 287.099C328.036 287.244 327.947 287.34 327.93 287.359L327.928 287.361C327.875 287.419 327.822 287.463 327.804 287.478C327.754 287.519 327.694 287.564 327.639 287.604C327.523 287.69 327.353 287.81 327.149 287.954L327.097 287.992C326.26 288.584 324.766 289.642 323.137 290.941C321.468 292.272 319.691 293.831 318.351 295.373C317.681 296.144 317.141 296.887 316.777 297.575C316.585 297.938 316.451 298.269 316.37 298.566C316.422 298.553 316.479 298.539 316.539 298.522C317.347 298.303 318.476 297.847 319.654 297.271C320.519 296.848 321.384 296.373 322.138 295.903C322.664 295.342 323.244 294.782 323.707 294.366C323.964 294.135 324.204 293.932 324.388 293.795C324.463 293.74 324.594 293.644 324.736 293.58C324.777 293.561 324.849 293.531 324.94 293.509C325.011 293.493 325.212 293.451 325.455 293.522C325.776 293.617 326.033 293.869 326.127 294.201C326.198 294.452 326.151 294.658 326.132 294.731C326.108 294.822 326.076 294.911 326.038 294.997C326.497 294.618 326.955 294.224 327.417 293.825C327.521 293.736 327.625 293.646 327.729 293.557C327.756 293.534 327.784 293.511 327.811 293.488C327.784 293.01 328.112 292.573 328.594 292.476C328.766 292.442 328.93 292.415 329.076 292.404C329.172 292.397 329.446 292.376 329.719 292.495C329.887 292.568 330.142 292.734 330.27 293.064C330.394 293.381 330.326 293.66 330.272 293.805C330.179 294.05 330.01 294.218 329.956 294.27L329.954 294.272C329.81 294.415 329.608 294.568 329.462 294.679L329.419 294.711C329.258 294.833 329.118 294.939 329.003 295.038C328.881 295.143 328.758 295.249 328.634 295.356C326.958 296.803 325.047 298.452 322.79 299.353C322.564 299.443 322.347 299.516 322.145 299.559C321.963 299.599 321.694 299.637 321.413 299.569C321.114 299.496 320.809 299.298 320.647 298.959C320.602 298.982 320.557 299.004 320.512 299.026C319.282 299.627 318.028 300.142 317.051 300.408C316.58 300.535 316.08 300.633 315.65 300.604C315.438 300.59 315.13 300.54 314.85 300.344C314.516 300.112 314.331 299.75 314.318 299.357C314.307 298.986 314.35 298.614 314.435 298.247C310.89 301.634 307.202 305.022 302.831 307.335C302.3 307.617 301.791 307.81 301.316 307.859C300.815 307.91 300.28 307.802 299.873 307.395C299.5 307.023 299.38 306.541 299.345 306.163C299.309 305.773 299.349 305.358 299.418 304.969C299.537 304.295 299.772 303.55 300.024 302.875C299.881 302.957 299.739 303.039 299.596 303.12C299.128 303.389 298.531 303.226 298.263 302.758C297.995 302.29 298.157 301.693 298.625 301.425C299.588 300.874 300.554 300.318 301.516 299.756C304.783 294.03 309.604 289.071 314.102 284.612C314.44 284.277 314.854 283.842 315.321 283.35C316.32 282.3 317.565 280.99 318.848 279.84C319.809 278.98 320.84 278.16 321.887 277.537C322.927 276.92 324.049 276.455 325.18 276.389C325.645 276.362 326.225 276.478 326.595 276.999C326.917 277.451 326.901 277.977 326.852 278.317C326.75 279.023 326.359 279.864 325.965 280.591C325.202 281.999 324.16 283.458 323.906 283.813ZM305.262 297.51C308.185 293.352 311.871 289.575 315.477 286C315.888 285.592 316.342 285.114 316.835 284.595C317.803 283.575 318.921 282.399 320.152 281.295C321.063 280.479 321.989 279.75 322.886 279.217C323.594 278.796 324.244 278.521 324.825 278.402C324.715 278.728 324.519 279.159 324.247 279.661C323.548 280.951 322.577 282.312 322.316 282.679C322.296 282.706 322.281 282.728 322.27 282.744C317.899 288.92 311.765 293.487 305.262 297.51ZM324.925 277.945C324.926 277.945 324.926 277.948 324.926 277.956C324.925 277.949 324.925 277.945 324.925 277.945Z" fill="#BED5FF"/>
<path fill-rule="evenodd" clip-rule="evenodd" d="M359.983 56.011C360.196 55.5156 359.967 54.941 359.472 54.7277L342.383 47.3713C341.887 47.158 341.312 47.3868 341.099 47.8823L326.761 81.1905C326.391 82.05 327.325 82.8876 328.139 82.4267L338.938 76.3151C339.501 75.9967 340.212 76.3028 340.368 76.9303L343.545 89.7588C343.77 90.6671 345.021 90.7697 345.391 89.9101L359.983 56.011Z" fill="#3F71FD"/>
<path fill-rule="evenodd" clip-rule="evenodd" d="M361.262 56.011C361.048 55.5156 361.277 54.941 361.773 54.7277L378.862 47.3713C379.358 47.158 379.932 47.3868 380.145 47.8823L394.483 81.19C394.853 82.0496 393.919 82.8872 393.105 82.4263L382.307 76.3151C381.744 75.9967 381.033 76.3028 380.878 76.9303L377.7 89.7596C377.475 90.6679 376.224 90.7705 375.854 89.9109L361.262 56.011Z" fill="#3F71FD"/>
<path d="M390.735 33.5239C390.735 50.4204 377.038 64.1177 360.142 64.1177C343.245 64.1177 329.548 50.4204 329.548 33.5239C329.548 16.6275 343.245 2.93018 360.142 2.93018C377.038 2.93018 390.735 16.6275 390.735 33.5239Z" fill="#BED5FF"/>
<path fill-rule="evenodd" clip-rule="evenodd" d="M393.666 33.524C393.666 52.0389 378.657 67.0481 360.142 67.0481C341.627 67.0481 326.618 52.0389 326.618 33.524C326.618 15.0092 341.627 0 360.142 0C378.657 0 393.666 15.0092 393.666 33.524ZM360.142 64.1178C377.038 64.1178 390.735 50.4205 390.735 33.524C390.735 16.6276 377.038 2.93028 360.142 2.93028C343.245 2.93028 329.548 16.6276 329.548 33.524C329.548 50.4205 343.245 64.1178 360.142 64.1178Z" fill="#3F71FD"/>
<path d="M384.862 33.7689C384.862 47.2861 373.904 58.244 360.387 58.244C346.869 58.244 335.912 47.2861 335.912 33.7689C335.912 20.2518 346.869 9.29395 360.387 9.29395C373.904 9.29395 384.862 20.2518 384.862 33.7689Z" fill="white"/>
<path d="M359.458 21.4532C359.75 20.5533 361.023 20.5533 361.316 21.4532L363.684 28.7429C363.815 29.1453 364.19 29.4178 364.613 29.4178H372.278C373.224 29.4178 373.618 30.6286 372.852 31.1848L366.651 35.69C366.309 35.9387 366.166 36.3796 366.296 36.782L368.665 44.0716C368.957 44.9715 367.927 45.7199 367.162 45.1637L360.961 40.6585C360.619 40.4097 360.155 40.4097 359.813 40.6585L353.612 45.1637C352.846 45.7199 351.816 44.9715 352.109 44.0716L354.477 36.782C354.608 36.3796 354.465 35.9387 354.123 35.69L347.922 31.1848C347.156 30.6286 347.55 29.4178 348.496 29.4178H356.16C356.584 29.4178 356.959 29.1453 357.089 28.7429L359.458 21.4532Z" fill="#EF2A82"/>
<path d="M35.0748 214.346C31.7358 216.262 32.8853 213.799 33.9253 217.192C34.8559 215.769 35.6222 216.919 36.2243 215.879C37.6475 213.361 38.797 216.59 40.8224 214.948C41.6982 214.291 45.6941 213.634 46.7889 214.236C48.3763 215.112 53.0838 214.948 54.8354 215.003C56.6418 215.058 58.284 215.824 60.0903 215.003C62.3346 213.963 66.3305 214.729 68.7938 214.51C72.1876 214.236 75.5813 215.003 79.0299 215.003C86.0911 215.003 93.1524 213.744 100.214 213.47C107.768 213.196 115.212 213.087 122.93 213.087C128.021 213.087 133.057 213.361 138.038 213.361C139.844 213.361 143.183 212.594 144.935 213.306C146.96 214.127 150.026 213.908 152.161 213.963C155.445 214.072 158.729 215.003 162.013 215.003C163.272 215.003 163.71 213.142 162.944 212.321C162.123 211.5 160.645 211.883 159.879 211.281C157.689 209.529 155.335 207.449 153.365 205.478C151.339 203.453 148.438 202.632 146.358 200.716C144.497 199.019 141.432 198.089 139.844 196.282C138.202 194.312 134.589 194.147 132.619 192.396C130.101 190.152 126.105 188.017 122.93 187.031C120.741 186.375 118.223 182.926 116.307 182.707C114.61 182.488 112.694 180.791 111.38 179.751C109.465 178.273 107.549 175.701 105.469 174.606C103.936 173.785 99.6116 177.671 98.2978 178.328C95.6156 179.642 93.2619 180.791 90.6344 182.105C85.489 186.703 80.1794 189.44 73.6108 192.998C67.5348 197.377 60.9662 201.92 55.3828 206.956C51.7153 210.241 47.6099 214.018 42.4645 214.018C39.9466 213.908 37.2644 213.087 35.0748 214.346Z" fill="#A3C3FF"/>
<path d="M38.3039 214.948C29.9837 214.948 31.1332 222.776 31.6258 228.906C32.7206 229.399 34.308 228.852 35.2386 230.001C36.1144 231.096 38.5776 233.34 40.1103 233.34C46.3505 233.34 52.4265 231.807 58.5572 231.807C62.1699 231.807 65.7279 230.275 69.2859 230.275C72.406 230.275 75.4714 230.767 78.5368 230.767C82.3137 230.767 86.1454 231.807 90.0866 231.807H101.582C116.744 231.807 132.126 232.847 147.453 232.847C154.24 232.847 160.973 232.574 167.706 232.355H168.034C172.468 232.191 176.957 228.085 177.121 223.542C177.285 218.78 173.18 215.605 169.129 214.455C163.546 212.868 159.55 214.017 153.529 214.017L138.311 214.455C131.524 214.455 124.627 213.415 117.949 213.415C109.628 213.415 101.253 213.908 92.8782 213.908H52.6454C47.8832 213.908 43.0662 214.948 38.3039 214.948Z" fill="#DAE1F4"/>
<path d="M37.9757 302.53C29.6007 302.53 30.805 309.044 31.2976 314.134C32.3924 314.572 34.0893 315.995 35.0198 316.926C35.8957 317.856 38.3041 317.802 39.7821 317.802C46.0223 317.802 51.8246 318.623 57.9553 318.623C61.568 318.623 67.0419 319.006 70.5999 319.006C73.72 319.006 77.6612 319.006 80.7812 319.006C84.5582 319.006 87.1309 319.006 91.0721 319.006H102.458C117.62 319.006 132.345 318.623 147.672 318.623C154.459 318.623 160.7 318.513 167.487 318.294L170.115 318.568C174.548 318.459 176.738 313.423 176.957 309.646C177.121 305.705 173.016 303.077 168.965 302.147C163.382 300.833 158.127 300.833 152.106 300.833L138.038 300.285C131.25 300.285 124.463 301.271 117.73 301.271C109.41 301.271 100.98 301.709 92.6048 301.709H52.3172C47.555 301.709 42.6832 302.53 37.9757 302.53Z" fill="#DAE1F4"/>
<path d="M41.041 262.735C41.041 252.827 41.5337 242.974 41.5337 233.066C42.519 232.519 43.4495 231.972 45.3654 231.972C48.4307 231.972 51.2771 231.479 54.3425 231.479C57.791 231.479 57.9005 233.012 57.9005 236.351V244.562C57.9005 256.604 55.8752 268.154 55.8752 280.142V289.995C55.8752 292.95 56.9152 295.523 56.9152 298.315C56.9152 301.216 57.2436 303.186 53.8498 303.186C50.3466 303.186 47.0623 302.311 43.7232 302.146C40.9863 302.037 42.5737 296.289 42.5737 293.936C42.5737 289.119 42.8474 284.192 42.519 279.375C42.1905 273.901 41.041 268.263 41.041 262.735Z" fill="#A3C3FF"/>
<path d="M77.8252 262.735C77.8252 252.827 78.3178 242.974 78.3178 233.066C79.3031 232.519 80.2337 231.972 82.1495 231.972C85.2149 231.972 88.0613 231.479 91.1267 231.479C94.5752 231.479 94.6847 233.012 94.6847 236.351V244.562C94.6847 256.604 92.6593 268.154 92.6593 280.142V289.995C92.6593 292.95 93.6994 295.523 93.6994 298.315C93.6994 301.216 94.0278 303.186 90.634 303.186C87.1307 303.186 83.8464 302.311 80.5074 302.146C77.7705 302.037 79.3579 296.289 79.3579 293.936C79.3579 289.119 79.6316 284.192 79.3031 279.375C79.0294 273.901 77.8252 268.263 77.8252 262.735Z" fill="#A3C3FF"/>
<path d="M114.829 262.735C114.829 252.827 115.321 242.974 115.321 233.066C116.307 232.519 117.237 231.972 119.153 231.972C122.218 231.972 125.065 231.479 128.13 231.479C131.579 231.479 131.688 233.012 131.688 236.351V244.562C131.688 256.604 129.663 268.154 129.663 280.142V289.995C129.663 292.95 130.703 295.523 130.703 298.315C130.703 301.216 131.031 303.186 127.637 303.186C124.134 303.186 120.85 302.311 117.511 302.146C114.774 302.037 116.361 296.289 116.361 293.936C116.361 289.119 116.635 284.192 116.307 279.375C115.978 273.901 114.829 268.263 114.829 262.735Z" fill="#A3C3FF"/>
<path d="M151.667 262.187C151.667 252.335 152.105 242.482 152.16 232.629C153.091 232.081 153.912 231.534 155.663 231.534C158.455 231.534 161.028 231.041 163.874 231.041C166.994 231.041 167.158 232.519 167.158 235.913V244.124C167.158 256.166 165.297 267.661 165.297 279.594V289.393C165.297 292.294 166.228 294.921 166.228 297.713C166.228 300.614 166.556 302.585 163.436 302.585C160.261 302.585 157.251 301.709 154.185 301.544C151.722 301.435 153.145 295.687 153.145 293.334C153.145 288.517 153.364 283.59 153.145 278.828C152.708 273.245 151.667 267.661 151.667 262.187Z" fill="#A3C3FF"/>
<path d="M170.06 233.833C172.468 233.833 174.713 232.902 176.41 231.205C178.106 229.509 179.037 227.264 179.037 224.856V221.243C179.037 218.834 178.106 216.59 176.41 214.839C174.713 213.142 172.468 212.211 170.06 212.211H166.94L166.447 211.883L109.41 174.934C107.932 174.004 106.235 173.511 104.538 173.511C102.841 173.511 101.089 174.004 99.6114 174.934L42.0812 212.156H38.9611C36.5526 212.156 34.3083 213.087 32.6114 214.784C30.8598 216.535 29.9292 218.78 29.9292 221.188V224.801C29.9292 227.209 30.8598 229.454 32.5566 231.151C34.2535 232.848 36.4978 233.778 38.9063 233.778H40.8769V299.519H38.9611C36.5526 299.519 34.3083 300.45 32.6114 302.147C30.9145 303.843 29.9839 306.088 29.9839 308.496V312.164C29.9839 314.572 30.9145 316.816 32.6114 318.513C34.3083 320.21 36.5526 321.141 38.9611 321.141H170.06C172.468 321.141 174.713 320.21 176.41 318.513C178.106 316.816 179.037 314.517 179.037 312.109V308.441C179.037 306.033 178.106 303.789 176.41 302.092C174.713 300.395 172.468 299.464 170.06 299.464H168.144V233.833H170.06ZM101.472 177.835C103.279 176.686 105.687 176.686 107.494 177.835L160.535 212.156H48.4308L101.472 177.835ZM170.06 303.077C171.538 303.077 172.961 303.679 174.001 304.719C175.041 305.759 175.643 307.182 175.643 308.66V312.328C175.643 313.806 175.096 315.229 174.001 316.269C172.961 317.309 171.538 317.911 170.06 317.911H38.9611C37.4831 317.911 36.0599 317.309 35.0199 316.269C33.9799 315.229 33.3777 313.806 33.3777 312.328V308.66C33.3777 307.182 33.9251 305.759 35.0199 304.719C36.0599 303.679 37.4831 303.077 38.9611 303.077H170.06ZM44.3254 299.629V233.833H55.4374V299.574H44.3254V299.629ZM58.8859 299.629V233.833H77.278V299.574H58.8859V299.629ZM80.7266 299.629V233.833H91.8385V299.574H80.7266V299.629ZM95.287 299.629V233.833H113.679V299.574H95.287V299.629ZM117.182 299.629V233.833H128.294V299.574H117.182V299.629ZM131.743 299.629V233.833H150.135V299.574H131.743V299.629ZM153.584 299.629V233.833H164.695V299.574H153.584V299.629ZM38.9611 230.384C37.4831 230.384 36.0599 229.837 35.0199 228.742C33.9799 227.702 33.3777 226.279 33.3777 224.801V221.188C33.3777 219.71 33.9251 218.287 35.0199 217.247C36.0599 216.207 37.4831 215.605 38.9611 215.605H170.06C171.538 215.605 172.961 216.207 174.001 217.247C175.041 218.287 175.643 219.71 175.643 221.188V224.801C175.643 226.279 175.096 227.702 174.001 228.742C172.961 229.782 171.538 230.384 170.06 230.384H38.9611Z" fill="#3F71FD"/>
<path d="M104.045 204.821C108.308 204.821 111.763 201.366 111.763 197.103C111.763 192.841 108.308 189.385 104.045 189.385C99.7827 189.385 96.3271 192.841 96.3271 197.103C96.3271 201.366 99.7827 204.821 104.045 204.821Z" fill="#DAE1F4"/>
<path d="M436.641 297.365L409.438 281.66L420.453 262.582L447.656 278.288C452.923 281.329 454.729 288.066 451.687 293.333C448.645 298.602 441.909 300.407 436.641 297.365Z" fill="#BED5FF"/>
<path d="M417.148 311.547L398.424 300.737L409.439 281.66L428.163 292.47C433.43 295.512 435.235 302.248 432.194 307.516C429.152 312.784 422.416 314.589 417.148 311.547Z" fill="#BED5FF"/>
<path d="M342.739 206.642L391.761 178.34C396.388 175.668 401.917 175.194 406.932 177.038L422.963 182.935L440.761 172.659C443.091 171.314 446.069 172.1 447.431 174.42L477.129 225.025C478.347 227.1 477.876 229.753 476.018 231.282L459.015 245.279L395.394 208.548L342.739 206.642Z" fill="#EAF1FF"/>
<path d="M415.484 310.587L391.035 296.471L390.744 296.238L340.639 256.069L313.16 240.205C310.871 238.883 310.044 235.981 311.294 233.651L339.074 181.86C340.38 179.424 343.442 178.552 345.835 179.934L369.152 193.396L398.523 199.049L459.542 234.278L415.484 310.587Z" fill="#BED5FF"/>
<path d="M458.67 259.21L431.467 243.505L442.481 224.427L469.684 240.133C474.952 243.175 476.757 249.911 473.715 255.179C470.674 260.447 463.938 262.252 458.67 259.21Z" fill="#BED5FF"/>
<path d="M453.308 281.551L420.453 262.582L431.467 243.505L464.322 262.474C469.59 265.515 471.395 272.252 468.353 277.52C465.312 282.788 458.576 284.593 453.308 281.551Z" fill="#BED5FF"/>
<path d="M409.612 196.296L371.846 218.1C365.993 221.479 358.508 219.474 355.128 213.62C351.749 207.767 353.754 200.282 359.608 196.903L391.761 178.339C396.388 175.668 401.918 175.193 406.932 177.038" fill="#EAF1FF"/>
<path d="M359.006 296.398C353.738 293.356 351.933 286.62 354.975 281.352L366.805 260.862C369.846 255.594 376.582 253.789 381.85 256.831C387.118 259.872 388.923 266.608 385.882 271.876L374.052 292.367C371.01 297.635 364.274 299.439 359.006 296.398Z" fill="#EAF1FF"/>
<path d="M378.083 307.412C372.815 304.371 371.01 297.635 374.052 292.367L382.618 277.529C385.66 272.261 392.396 270.456 397.664 273.498C402.932 276.539 404.737 283.275 401.695 288.543L393.129 303.381C390.088 308.649 383.351 310.454 378.083 307.412Z" fill="#EAF1FF"/>
<path d="M320.851 274.369C315.583 271.328 313.778 264.592 316.82 259.324L328.65 238.833C331.692 233.565 338.428 231.76 343.696 234.802C348.964 237.844 350.769 244.58 347.727 249.848L335.897 270.338C332.856 275.606 326.119 277.411 320.851 274.369Z" fill="#EAF1FF"/>
<path d="M339.928 285.384C334.66 282.342 332.855 275.606 335.897 270.338L350.991 244.195C354.032 238.927 360.768 237.122 366.036 240.164C371.304 243.205 373.109 249.942 370.068 255.209L354.974 281.352C351.932 286.62 345.196 288.425 339.928 285.384Z" fill="#EAF1FF"/>
<path d="M470.833 156.103C468.522 152.313 463.522 151.207 459.828 153.668L446.737 162.392C443.253 164.714 442.218 169.369 444.39 172.948L475.365 223.997C477.475 227.475 481.901 228.752 485.54 226.932L499.765 219.82C503.856 217.774 505.324 212.668 502.942 208.762L470.833 156.103Z" fill="#F85778"/>
<path fill-rule="evenodd" clip-rule="evenodd" d="M121.459 103.974C121.154 103.669 120.741 103.498 120.31 103.498L120.308 103.496C120.094 103.496 119.882 103.537 119.685 103.619C119.487 103.701 119.308 103.821 119.157 103.972C119.006 104.123 118.886 104.302 118.804 104.5C118.723 104.697 118.681 104.909 118.681 105.123L118.683 112.689L111.117 112.687C110.686 112.687 110.272 112.858 109.967 113.163C109.662 113.468 109.49 113.882 109.49 114.313C109.49 114.745 109.662 115.159 109.967 115.464C110.272 115.769 110.686 115.94 111.117 115.94L118.683 115.938L118.681 123.504C118.681 123.718 118.723 123.929 118.805 124.127C118.887 124.324 119.006 124.503 119.157 124.654C119.308 124.805 119.488 124.925 119.685 125.007C119.883 125.089 120.094 125.131 120.308 125.131C120.521 125.131 120.733 125.089 120.93 125.007C121.128 124.925 121.307 124.805 121.458 124.654C121.609 124.503 121.729 124.324 121.811 124.127C121.892 123.929 121.934 123.718 121.934 123.504L121.932 115.938L129.498 115.94C129.93 115.94 130.344 115.769 130.649 115.464C130.954 115.159 131.125 114.745 131.125 114.313C131.125 113.882 130.954 113.468 130.649 113.163C130.344 112.858 129.93 112.687 129.498 112.687L121.932 112.689L121.934 105.123C121.934 104.692 121.763 104.279 121.459 103.974Z" fill="#66F6FF"/>
<path fill-rule="evenodd" clip-rule="evenodd" d="M19.0895 227.909C18.8832 227.702 18.6034 227.587 18.3116 227.587L18.3101 227.585C18.1654 227.585 18.022 227.613 17.8883 227.668C17.7545 227.724 17.633 227.805 17.5307 227.907C17.4283 228.01 17.3472 228.131 17.2919 228.265C17.2366 228.399 17.2082 228.542 17.2084 228.687L17.21 233.811L12.086 233.809C11.7939 233.809 11.5136 233.925 11.307 234.132C11.1004 234.338 10.9844 234.618 10.9844 234.911C10.9844 235.203 11.1004 235.483 11.307 235.69C11.5136 235.896 11.7939 236.012 12.086 236.012L17.21 236.011L17.2084 241.135C17.2084 241.279 17.2369 241.423 17.2923 241.556C17.3476 241.69 17.4288 241.811 17.5311 241.914C17.6334 242.016 17.7548 242.097 17.8885 242.153C18.0222 242.208 18.1654 242.236 18.3101 242.236C18.4547 242.236 18.598 242.208 18.7317 242.153C18.8653 242.097 18.9868 242.016 19.0891 241.914C19.1914 241.811 19.2725 241.69 19.3279 241.556C19.3832 241.423 19.4117 241.279 19.4117 241.135L19.4102 236.011L24.5341 236.012C24.8263 236.012 25.1065 235.896 25.3131 235.69C25.5197 235.483 25.6358 235.203 25.6358 234.911C25.6358 234.618 25.5197 234.338 25.3131 234.132C25.1065 233.925 24.8263 233.809 24.5341 233.809L19.4102 233.811L19.4117 228.687C19.4117 228.395 19.2958 228.115 19.0895 227.909Z" fill="#66F6FF"/>
<path fill-rule="evenodd" clip-rule="evenodd" d="M419.977 141.936C419.756 141.715 419.457 141.591 419.145 141.591L419.144 141.59C418.989 141.589 418.835 141.62 418.692 141.679C418.549 141.738 418.419 141.825 418.31 141.934C418.201 142.044 418.114 142.174 418.055 142.317C417.996 142.46 417.965 142.613 417.965 142.768L417.967 148.248L412.487 148.246C412.175 148.246 411.875 148.37 411.654 148.591C411.433 148.812 411.309 149.112 411.309 149.424C411.309 149.737 411.433 150.036 411.654 150.257C411.875 150.478 412.175 150.602 412.487 150.602L417.967 150.601L417.965 156.08C417.965 156.235 417.996 156.388 418.055 156.531C418.114 156.674 418.201 156.804 418.31 156.913C418.42 157.023 418.55 157.11 418.693 157.169C418.836 157.228 418.989 157.259 419.144 157.259C419.298 157.259 419.451 157.228 419.594 157.169C419.737 157.11 419.867 157.023 419.977 156.913C420.086 156.804 420.173 156.674 420.232 156.531C420.291 156.388 420.322 156.235 420.322 156.08L420.32 150.601L425.8 150.602C426.112 150.602 426.412 150.478 426.633 150.257C426.854 150.036 426.978 149.737 426.978 149.424C426.978 149.112 426.854 148.812 426.633 148.591C426.412 148.37 426.112 148.246 425.8 148.246L420.32 148.248L420.322 142.768C420.322 142.456 420.198 142.157 419.977 141.936Z" fill="#66F6FF"/>
<path fill-rule="evenodd" clip-rule="evenodd" d="M128.116 43.3987C127.848 43.1302 127.484 42.9794 127.104 42.9793L127.102 42.9773C126.913 42.9771 126.727 43.014 126.553 43.0859C126.379 43.1579 126.221 43.2635 126.088 43.3967C125.954 43.5299 125.849 43.688 125.777 43.862C125.705 44.0361 125.668 44.2226 125.668 44.411L125.67 51.0791L119.002 51.0771C118.622 51.0771 118.257 51.2281 117.988 51.497C117.719 51.7659 117.568 52.1305 117.568 52.5108C117.568 52.891 117.719 53.2556 117.988 53.5245C118.257 53.7934 118.622 53.9444 119.002 53.9444L125.67 53.9424L125.668 60.6105C125.668 60.7988 125.705 60.9852 125.777 61.1592C125.849 61.3331 125.955 61.4912 126.088 61.6243C126.221 61.7574 126.379 61.863 126.553 61.9351C126.727 62.0071 126.914 62.0442 127.102 62.0442C127.29 62.0442 127.477 62.0071 127.65 61.9351C127.824 61.863 127.982 61.7574 128.116 61.6243C128.249 61.4912 128.354 61.3331 128.426 61.1592C128.498 60.9852 128.535 60.7988 128.535 60.6105L128.533 53.9424L135.202 53.9444C135.582 53.9444 135.946 53.7934 136.215 53.5245C136.484 53.2556 136.635 52.891 136.635 52.5108C136.635 52.1305 136.484 51.7659 136.215 51.497C135.946 51.2281 135.582 51.0771 135.202 51.0771L128.533 51.0791L128.535 44.411C128.535 44.0313 128.385 43.6672 128.116 43.3987Z" fill="white"/>
<path fill-rule="evenodd" clip-rule="evenodd" d="M394.663 112.559C394.623 112.442 394.557 112.334 394.468 112.244C394.316 112.093 394.111 112.008 393.896 112.008L390.139 112.009L390.14 108.251C390.14 108.037 390.055 107.832 389.904 107.681C389.752 107.53 389.547 107.445 389.333 107.445L389.332 107.443C389.226 107.443 389.121 107.464 389.023 107.505C388.925 107.545 388.836 107.605 388.761 107.68C388.686 107.755 388.626 107.844 388.585 107.942C388.545 108.04 388.524 108.145 388.524 108.251L388.525 112.009L384.768 112.008C384.554 112.008 384.348 112.093 384.197 112.244C384.045 112.396 383.96 112.601 383.96 112.816C383.96 113.03 384.045 113.235 384.197 113.387C384.348 113.538 384.554 113.623 384.768 113.623L388.525 113.622L388.524 117.38C388.524 117.486 388.545 117.591 388.586 117.689C388.626 117.787 388.686 117.876 388.761 117.951C388.836 118.026 388.925 118.086 389.023 118.126C389.041 118.134 389.059 118.14 389.078 118.147C389.139 118.149 389.201 118.15 389.262 118.15C389.379 118.15 389.495 118.146 389.609 118.139C389.62 118.135 389.631 118.131 389.641 118.126C389.739 118.086 389.828 118.026 389.903 117.951C389.978 117.876 390.038 117.787 390.079 117.689C390.119 117.591 390.14 117.486 390.14 117.38L390.139 113.622L393.896 113.623C394.111 113.623 394.316 113.538 394.468 113.387C394.551 113.303 394.615 113.203 394.655 113.094C394.662 112.979 394.666 112.863 394.666 112.746C394.666 112.684 394.665 112.621 394.663 112.559Z" fill="white"/>
<path fill-rule="evenodd" clip-rule="evenodd" d="M145.616 84.3157C145.449 84.1491 145.223 84.0555 144.988 84.0555L144.987 84.0542C144.87 84.0541 144.754 84.077 144.646 84.1216C144.538 84.1663 144.44 84.2318 144.357 84.3144C144.275 84.397 144.209 84.4952 144.164 84.6032C144.12 84.7111 144.097 84.8269 144.097 84.9437L144.098 89.0812L139.961 89.0799C139.725 89.0799 139.499 89.1736 139.332 89.3404C139.165 89.5073 139.071 89.7335 139.071 89.9694C139.071 90.2054 139.165 90.4316 139.332 90.5984C139.499 90.7653 139.725 90.859 139.961 90.859L144.098 90.8577L144.097 94.9951C144.097 95.112 144.12 95.2276 144.165 95.3356C144.209 95.4435 144.275 95.5415 144.358 95.6241C144.44 95.7067 144.538 95.7723 144.646 95.817C144.754 95.8617 144.87 95.8847 144.987 95.8847C145.103 95.8847 145.219 95.8617 145.327 95.817C145.435 95.7723 145.533 95.7067 145.616 95.6241C145.698 95.5415 145.764 95.4435 145.808 95.3356C145.853 95.2276 145.876 95.112 145.876 94.9951L145.875 90.8577L150.012 90.859C150.248 90.859 150.474 90.7653 150.641 90.5984C150.808 90.4316 150.902 90.2054 150.902 89.9694C150.902 89.7335 150.808 89.5073 150.641 89.3404C150.474 89.1736 150.248 89.0799 150.012 89.0799L145.875 89.0812L145.876 84.9437C145.876 84.7082 145.782 84.4823 145.616 84.3157Z" fill="#90A9FF"/>
<path fill-rule="evenodd" clip-rule="evenodd" d="M47.6618 174.125C47.4952 173.958 47.2693 173.865 47.0337 173.865L47.0324 173.863C46.9156 173.863 46.7998 173.886 46.6918 173.931C46.5838 173.975 46.4857 174.041 46.4031 174.123C46.3205 174.206 46.2549 174.304 46.2103 174.412C46.1656 174.52 46.1427 174.636 46.1429 174.753L46.1441 178.89L42.0067 178.889C41.7708 178.889 41.5446 178.983 41.3777 179.15C41.2109 179.316 41.1172 179.543 41.1172 179.779C41.1172 180.014 41.2109 180.241 41.3777 180.408C41.5446 180.574 41.7708 180.668 42.0067 180.668L46.1441 180.667L46.1429 184.804C46.1429 184.921 46.1659 185.037 46.2106 185.145C46.2553 185.253 46.3208 185.351 46.4034 185.433C46.486 185.516 46.5841 185.581 46.692 185.626C46.7999 185.671 46.9156 185.694 47.0324 185.694C47.1492 185.694 47.2649 185.671 47.3728 185.626C47.4808 185.581 47.5788 185.516 47.6614 185.433C47.744 185.351 47.8096 185.253 47.8543 185.145C47.899 185.037 47.922 184.921 47.922 184.804L47.9207 180.667L52.0581 180.668C52.294 180.668 52.5203 180.574 52.6871 180.408C52.854 180.241 52.9477 180.014 52.9477 179.779C52.9477 179.543 52.854 179.316 52.6871 179.15C52.5203 178.983 52.294 178.889 52.0581 178.889L47.9207 178.89L47.922 174.753C47.9219 174.517 47.8283 174.291 47.6618 174.125Z" fill="#90A9FF"/>
<path fill-rule="evenodd" clip-rule="evenodd" d="M445.128 84.377C444.889 84.1378 444.565 84.0033 444.226 84.0033L444.224 84.0015C444.057 84.0013 443.89 84.0342 443.735 84.0983C443.58 84.1624 443.439 84.2565 443.32 84.3752C443.202 84.4939 443.108 84.6349 443.044 84.79C442.979 84.9451 442.947 85.1113 442.947 85.2792L442.949 91.222L437.006 91.2202C436.667 91.2202 436.342 91.3548 436.102 91.5944C435.863 91.834 435.728 92.159 435.728 92.4979C435.728 92.8367 435.863 93.1617 436.102 93.4014C436.342 93.641 436.667 93.7756 437.006 93.7756L442.949 93.7738L442.947 99.7166C442.947 99.8844 442.98 100.051 443.044 100.206C443.108 100.361 443.202 100.501 443.321 100.62C443.44 100.739 443.58 100.833 443.735 100.897C443.89 100.961 444.057 100.994 444.224 100.994C444.392 100.994 444.558 100.961 444.713 100.897C444.868 100.833 445.009 100.739 445.128 100.62C445.247 100.501 445.341 100.361 445.405 100.206C445.469 100.051 445.502 99.8844 445.502 99.7166L445.5 93.7738L451.443 93.7756C451.782 93.7756 452.107 93.641 452.347 93.4014C452.586 93.1617 452.721 92.8367 452.721 92.4979C452.721 92.159 452.586 91.834 452.347 91.5944C452.107 91.3548 451.782 91.2202 451.443 91.2202L445.5 91.222L445.502 85.2792C445.502 84.9408 445.368 84.6163 445.128 84.377Z" fill="#90A9FF"/>
<path fill-rule="evenodd" clip-rule="evenodd" d="M59.3081 36.5157C59.0688 36.2764 58.7443 36.142 58.4059 36.1419L58.4041 36.1401C58.2363 36.1399 58.07 36.1728 57.9149 36.237C57.7598 36.3011 57.6189 36.3952 57.5002 36.5139C57.3815 36.6326 57.2874 36.7735 57.2232 36.9286C57.1591 37.0838 57.1262 37.25 57.1264 37.4178L57.1282 43.3606L51.1854 43.3588C50.8466 43.3588 50.5216 43.4935 50.2819 43.7331C50.0423 43.9727 49.9077 44.2977 49.9077 44.6365C49.9077 44.9754 50.0423 45.3004 50.2819 45.54C50.5216 45.7796 50.8466 45.9143 51.1854 45.9143L57.1282 45.9124L57.1264 51.8552C57.1264 52.023 57.1595 52.1892 57.2237 52.3442C57.2879 52.4992 57.382 52.6401 57.5006 52.7587C57.6193 52.8774 57.7601 52.9715 57.9152 53.0357C58.0702 53.0999 58.2363 53.133 58.4041 53.133C58.5719 53.133 58.7381 53.0999 58.8931 53.0357C59.0481 52.9715 59.189 52.8774 59.3076 52.7587C59.4262 52.6401 59.5204 52.4992 59.5846 52.3442C59.6488 52.1892 59.6818 52.023 59.6818 51.8552L59.68 45.9124L65.6228 45.9143C65.9617 45.9143 66.2867 45.7796 66.5263 45.54C66.7659 45.3004 66.9005 44.9754 66.9005 44.6365C66.9005 44.2977 66.7659 43.9727 66.5263 43.7331C66.2867 43.4935 65.9617 43.3588 65.6228 43.3588L59.68 43.3606L59.6818 37.4178C59.6818 37.0795 59.5473 36.755 59.3081 36.5157Z" fill="#90A9FF"/>
<path d="M319.75 165.017C322.194 160.931 328.231 160.081 332.98 163.154L346.301 171.773C350.706 174.624 352.388 179.829 350.129 183.625L317.074 239.167C314.868 242.875 309.64 243.986 305.038 241.725L290.624 234.644C285.42 232.088 283.097 226.285 285.602 222.098L319.75 165.017Z" fill="#3F71FD"/>
</g>
<defs>
<filter id="filter0_d" x="0" y="0" width="522" height="329.476" filterUnits="userSpaceOnUse" color-interpolation-filters="sRGB">
<feFlood flood-opacity="0" result="BackgroundImageFix"/>
<feColorMatrix in="SourceAlpha" type="matrix" values="0 0 0 0 0 0 0 0 0 0 0 0 0 0 0 0 0 0 127 0"/>
<feOffset dy="4"/>
<feGaussianBlur stdDeviation="2"/>
<feColorMatrix type="matrix" values="0 0 0 0 0 0 0 0 0 0 0 0 0 0 0 0 0 0 0.25 0"/>
<feBlend mode="normal" in2="BackgroundImageFix" result="effect1_dropShadow"/>
<feBlend mode="normal" in="SourceGraphic" in2="effect1_dropShadow" result="shape"/>
</filter>
</defs>
</svg>
