<svg width="514" height="323" viewBox="0 0 514 323" fill="none" xmlns="http://www.w3.org/2000/svg">
<path d="M42.4971 103.771C42.4971 85.8701 57.009 71.3582 74.9103 71.3582H431.456C449.357 71.3582 463.869 85.8701 463.869 103.771C463.869 121.673 449.357 136.185 431.456 136.185H74.9103C57.009 136.185 42.4971 121.673 42.4971 103.771Z" fill="#DAE1F4"/>
<path d="M102.195 50.7667C102.195 37.5571 112.904 26.8486 126.113 26.8486H388.125C401.335 26.8486 412.043 37.5571 412.043 50.7667C412.043 63.9763 401.335 74.6848 388.125 74.6848H126.113C112.904 74.6848 102.195 63.9763 102.195 50.7667Z" fill="#DAE1F4"/>
<path d="M100.021 169.773C100.021 150.192 115.894 134.319 135.475 134.319H478.546C498.127 134.319 514 150.192 514 169.773C514 189.354 498.127 205.227 478.546 205.227H135.475C115.894 205.227 100.021 189.354 100.021 169.773Z" fill="#DAE1F4"/>
<path d="M0 234.145C0 218.232 12.8995 205.333 28.8118 205.333H463.87C479.782 205.333 492.681 218.232 492.681 234.145C492.681 250.057 479.782 262.957 463.87 262.957H28.8118C12.8995 262.957 0 250.057 0 234.145Z" fill="#DAE1F4"/>
<path d="M73.9287 292.122C73.9287 275.91 87.071 262.768 103.283 262.768H435.962C452.173 262.768 465.316 275.91 465.316 292.122C465.316 308.334 452.173 321.476 435.962 321.476H103.283C87.071 321.476 73.9287 308.334 73.9287 292.122Z" fill="#DAE1F4"/>
<path d="M155.372 43.0595C155.372 41.9806 156.247 41.106 157.326 41.106H362.304C363.383 41.106 364.257 41.9806 364.257 43.0595V313.585C364.257 314.663 363.383 315.538 362.304 315.538H157.326C156.247 315.538 155.372 314.663 155.372 313.585V43.0595Z" fill="white"/>
<path d="M201.035 74.6373C201.035 78.8143 197.649 82.2004 193.472 82.2004C189.295 82.2004 185.909 78.8143 185.909 74.6373C185.909 70.4603 189.295 67.0742 193.472 67.0742C197.649 67.0742 201.035 70.4603 201.035 74.6373Z" fill="#BED5FF"/>
<path d="M205.073 171.119C205.073 172.909 203.622 174.36 201.832 174.36C200.042 174.36 198.591 172.909 198.591 171.119C198.591 169.329 200.042 167.878 201.832 167.878C203.622 167.878 205.073 169.329 205.073 171.119Z" fill="#DAE1F4"/>
<path d="M205.073 189.847C205.073 191.637 203.622 193.088 201.832 193.088C200.042 193.088 198.591 191.637 198.591 189.847C198.591 188.056 200.042 186.605 201.832 186.605C203.622 186.605 205.073 188.056 205.073 189.847Z" fill="#DAE1F4"/>
<path d="M205.073 208.574C205.073 210.364 203.622 211.816 201.832 211.816C200.042 211.816 198.591 210.364 198.591 208.574C198.591 206.784 200.042 205.333 201.832 205.333C203.622 205.333 205.073 206.784 205.073 208.574Z" fill="#DAE1F4"/>
<path d="M205.073 227.302C205.073 229.092 203.622 230.543 201.832 230.543C200.042 230.543 198.591 229.092 198.591 227.302C198.591 225.512 200.042 224.061 201.832 224.061C203.622 224.061 205.073 225.512 205.073 227.302Z" fill="#DAE1F4"/>
<path d="M205.073 246.03C205.073 247.82 203.622 249.271 201.832 249.271C200.042 249.271 198.591 247.82 198.591 246.03C198.591 244.24 200.042 242.788 201.832 242.788C203.622 242.788 205.073 244.24 205.073 246.03Z" fill="#DAE1F4"/>
<path d="M205.073 264.757C205.073 266.548 203.622 267.999 201.832 267.999C200.042 267.999 198.591 266.548 198.591 264.757C198.591 262.967 200.042 261.516 201.832 261.516C203.622 261.516 205.073 262.967 205.073 264.757Z" fill="#DAE1F4"/>
<path d="M212.998 74.9596C212.998 72.9706 214.61 71.3582 216.6 71.3582H306.636C308.625 71.3582 310.238 72.9706 310.238 74.9596C310.238 76.9487 308.625 78.5611 306.636 78.5611H216.6C214.61 78.5611 212.998 76.9487 212.998 74.9596Z" fill="#BED5FF"/>
<path d="M228.843 109.174C228.843 108.179 229.649 107.373 230.644 107.373H323.561C324.556 107.373 325.362 108.179 325.362 109.174C325.362 110.168 324.556 110.975 323.561 110.975H230.644C229.649 110.975 228.843 110.168 228.843 109.174Z" fill="#DAE1F4"/>
<path d="M189.226 123.58C189.226 122.585 190.032 121.779 191.026 121.779H323.56C324.555 121.779 325.361 122.585 325.361 123.58C325.361 124.574 324.555 125.38 323.56 125.38H191.026C190.032 125.38 189.226 124.574 189.226 123.58Z" fill="#DAE1F4"/>
<path d="M189.226 137.986C189.226 136.991 190.032 136.185 191.026 136.185H323.56C324.555 136.185 325.361 136.991 325.361 137.986C325.361 138.98 324.555 139.786 323.56 139.786H191.026C190.032 139.786 189.226 138.98 189.226 137.986Z" fill="#DAE1F4"/>
<path d="M215.878 171.119C215.878 170.125 216.684 169.318 217.679 169.318H323.562C324.556 169.318 325.363 170.125 325.363 171.119C325.363 172.114 324.556 172.92 323.562 172.92H217.679C216.684 172.92 215.878 172.114 215.878 171.119Z" fill="#DAE1F4"/>
<path d="M215.878 227.302C215.878 226.307 216.684 225.501 217.679 225.501H323.562C324.556 225.501 325.363 226.307 325.363 227.302C325.363 228.296 324.556 229.103 323.562 229.103H217.679C216.684 229.103 215.878 228.296 215.878 227.302Z" fill="#DAE1F4"/>
<path d="M215.878 189.847C215.878 188.852 216.684 188.046 217.679 188.046H323.562C324.556 188.046 325.363 188.852 325.363 189.847C325.363 190.841 324.556 191.648 323.562 191.648H217.679C216.684 191.648 215.878 190.841 215.878 189.847Z" fill="#DAE1F4"/>
<path d="M215.878 246.03C215.878 245.035 216.684 244.229 217.679 244.229H323.562C324.556 244.229 325.363 245.035 325.363 246.03C325.363 247.024 324.556 247.83 323.562 247.83H217.679C216.684 247.83 215.878 247.024 215.878 246.03Z" fill="#DAE1F4"/>
<path d="M215.878 208.574C215.878 207.58 216.684 206.774 217.679 206.774H323.562C324.556 206.774 325.363 207.58 325.363 208.574C325.363 209.569 324.556 210.375 323.562 210.375H217.679C216.684 210.375 215.878 209.569 215.878 208.574Z" fill="#DAE1F4"/>
<path d="M215.878 264.757C215.878 263.763 216.684 262.957 217.679 262.957H323.562C324.556 262.957 325.363 263.763 325.363 264.757C325.363 265.752 324.556 266.558 323.562 266.558H217.679C216.684 266.558 215.878 265.752 215.878 264.757Z" fill="#DAE1F4"/>
<path fill-rule="evenodd" clip-rule="evenodd" d="M319.906 283.813C319.888 283.839 319.874 283.858 319.864 283.872C314.517 291.429 306.696 296.633 298.96 301.175C298.838 301.397 298.718 301.62 298.601 301.844C298.308 302.406 297.559 304.081 297.341 305.31C297.299 305.549 297.283 305.738 297.285 305.88C297.426 305.84 297.633 305.759 297.918 305.609C302.275 303.303 305.957 299.834 309.728 296.22C309.845 296.108 309.962 295.996 310.079 295.884C313.704 292.408 317.436 288.829 321.848 286.32C322.144 286.151 322.367 286.025 322.52 285.942C322.595 285.901 322.665 285.864 322.724 285.836C322.75 285.823 322.795 285.801 322.846 285.782C322.869 285.773 322.922 285.754 322.991 285.738C323.025 285.73 323.089 285.718 323.17 285.714C323.233 285.712 323.415 285.709 323.621 285.803C323.889 285.927 324.125 286.187 324.179 286.547C324.221 286.821 324.133 287.029 324.102 287.099C324.036 287.244 323.947 287.34 323.93 287.359L323.928 287.361C323.875 287.419 323.822 287.463 323.804 287.478C323.754 287.519 323.694 287.564 323.639 287.604C323.523 287.69 323.353 287.81 323.149 287.954L323.097 287.992C322.26 288.584 320.766 289.642 319.137 290.941C317.468 292.272 315.691 293.831 314.351 295.373C313.681 296.144 313.141 296.887 312.777 297.575C312.585 297.938 312.451 298.269 312.37 298.566C312.422 298.553 312.479 298.539 312.539 298.522C313.347 298.303 314.476 297.847 315.654 297.271C316.519 296.848 317.384 296.373 318.138 295.903C318.664 295.342 319.244 294.782 319.707 294.366C319.964 294.135 320.204 293.932 320.388 293.795C320.463 293.74 320.594 293.644 320.736 293.58C320.777 293.561 320.849 293.531 320.94 293.509C321.011 293.493 321.212 293.451 321.455 293.522C321.776 293.617 322.033 293.869 322.127 294.201C322.198 294.452 322.151 294.658 322.132 294.731C322.108 294.822 322.076 294.911 322.038 294.997C322.497 294.618 322.955 294.224 323.417 293.825C323.521 293.736 323.625 293.646 323.729 293.557C323.756 293.534 323.784 293.511 323.811 293.488C323.784 293.01 324.112 292.573 324.594 292.476C324.766 292.442 324.93 292.415 325.076 292.404C325.172 292.397 325.446 292.376 325.719 292.495C325.887 292.568 326.142 292.734 326.27 293.064C326.394 293.381 326.326 293.66 326.272 293.805C326.179 294.05 326.01 294.218 325.956 294.27L325.954 294.272C325.81 294.415 325.608 294.568 325.462 294.679L325.419 294.711C325.258 294.833 325.118 294.939 325.003 295.038C324.881 295.143 324.758 295.249 324.634 295.356C322.958 296.803 321.047 298.452 318.79 299.353C318.564 299.443 318.347 299.516 318.145 299.559C317.963 299.599 317.694 299.637 317.413 299.569C317.114 299.496 316.809 299.298 316.647 298.959C316.602 298.982 316.557 299.004 316.512 299.026C315.282 299.627 314.028 300.142 313.051 300.408C312.58 300.535 312.08 300.633 311.65 300.604C311.438 300.59 311.13 300.54 310.85 300.344C310.516 300.112 310.331 299.75 310.318 299.357C310.307 298.986 310.35 298.614 310.435 298.247C306.89 301.634 303.202 305.022 298.831 307.335C298.3 307.617 297.791 307.81 297.316 307.859C296.815 307.91 296.28 307.802 295.873 307.395C295.5 307.023 295.38 306.541 295.345 306.163C295.309 305.773 295.349 305.358 295.418 304.969C295.537 304.295 295.772 303.55 296.024 302.875C295.881 302.957 295.739 303.039 295.596 303.12C295.128 303.389 294.531 303.226 294.263 302.758C293.995 302.29 294.157 301.693 294.625 301.425C295.588 300.874 296.554 300.318 297.516 299.756C300.783 294.03 305.604 289.071 310.102 284.612C310.44 284.277 310.854 283.842 311.321 283.35C312.32 282.3 313.565 280.99 314.848 279.84C315.809 278.98 316.84 278.16 317.887 277.537C318.927 276.92 320.049 276.455 321.18 276.389C321.645 276.362 322.225 276.478 322.595 276.999C322.917 277.451 322.901 277.977 322.852 278.317C322.75 279.023 322.359 279.864 321.965 280.591C321.202 281.999 320.16 283.458 319.906 283.813ZM301.262 297.51C304.185 293.352 307.871 289.575 311.477 286C311.888 285.592 312.342 285.114 312.835 284.595C313.803 283.575 314.921 282.399 316.152 281.295C317.063 280.479 317.989 279.75 318.886 279.217C319.594 278.796 320.244 278.521 320.825 278.402C320.715 278.728 320.519 279.159 320.247 279.661C319.548 280.951 318.577 282.312 318.316 282.679C318.296 282.706 318.281 282.728 318.27 282.744C313.899 288.92 307.765 293.487 301.262 297.51ZM320.925 277.945C320.926 277.945 320.926 277.948 320.926 277.956C320.925 277.949 320.925 277.945 320.925 277.945Z" fill="#BED5FF"/>
<path fill-rule="evenodd" clip-rule="evenodd" d="M355.983 56.011C356.196 55.5156 355.967 54.941 355.472 54.7277L338.383 47.3713C337.887 47.158 337.312 47.3868 337.099 47.8823L322.761 81.1905C322.391 82.05 323.325 82.8876 324.139 82.4267L334.938 76.3151C335.501 75.9967 336.212 76.3028 336.368 76.9303L339.545 89.7588C339.77 90.6671 341.021 90.7697 341.391 89.9101L355.983 56.011Z" fill="#3F71FD"/>
<path fill-rule="evenodd" clip-rule="evenodd" d="M357.262 56.011C357.049 55.5156 357.278 54.941 357.773 54.7277L374.863 47.3713C375.358 47.158 375.933 47.3868 376.146 47.8823L390.484 81.19C390.854 82.0496 389.92 82.8872 389.105 82.4263L378.307 76.3151C377.745 75.9967 377.033 76.3028 376.878 76.9303L373.7 89.7596C373.475 90.6679 372.225 90.7705 371.855 89.9109L357.262 56.011Z" fill="#3F71FD"/>
<path d="M386.736 33.5239C386.736 50.4204 373.039 64.1177 356.143 64.1177C339.246 64.1177 325.549 50.4204 325.549 33.5239C325.549 16.6275 339.246 2.93018 356.143 2.93018C373.039 2.93018 386.736 16.6275 386.736 33.5239Z" fill="#BED5FF"/>
<path fill-rule="evenodd" clip-rule="evenodd" d="M389.666 33.524C389.666 52.0389 374.657 67.0481 356.142 67.0481C337.627 67.0481 322.618 52.0389 322.618 33.524C322.618 15.0092 337.627 0 356.142 0C374.657 0 389.666 15.0092 389.666 33.524ZM356.142 64.1178C373.039 64.1178 386.736 50.4205 386.736 33.524C386.736 16.6276 373.039 2.93028 356.142 2.93028C339.246 2.93028 325.548 16.6276 325.548 33.524C325.548 50.4205 339.246 64.1178 356.142 64.1178Z" fill="#3F71FD"/>
<path d="M380.862 33.7689C380.862 47.2861 369.904 58.244 356.387 58.244C342.87 58.244 331.912 47.2861 331.912 33.7689C331.912 20.2518 342.87 9.29395 356.387 9.29395C369.904 9.29395 380.862 20.2518 380.862 33.7689Z" fill="white"/>
<path d="M355.458 21.4532C355.751 20.5533 357.024 20.5533 357.316 21.4532L359.685 28.7429C359.816 29.1453 360.191 29.4178 360.614 29.4178H368.279C369.225 29.4178 369.618 30.6286 368.853 31.1848L362.652 35.69C362.309 35.9387 362.166 36.3796 362.297 36.782L364.666 44.0716C364.958 44.9715 363.928 45.7199 363.162 45.1637L356.962 40.6585C356.619 40.4097 356.156 40.4097 355.813 40.6585L349.612 45.1637C348.847 45.7199 347.817 44.9715 348.109 44.0716L350.478 36.782C350.609 36.3796 350.465 35.9387 350.123 35.69L343.922 31.1848C343.157 30.6286 343.55 29.4178 344.496 29.4178H352.161C352.584 29.4178 352.959 29.1453 353.09 28.7429L355.458 21.4532Z" fill="#EF2A82"/>
<path d="M31.0748 214.346C27.7358 216.262 28.8853 213.799 29.9253 217.192C30.8559 215.769 31.6222 216.919 32.2243 215.879C33.6475 213.361 34.797 216.59 36.8224 214.948C37.6982 214.291 41.6941 213.634 42.7889 214.236C44.3763 215.112 49.0838 214.948 50.8354 215.003C52.6418 215.058 54.284 215.824 56.0903 215.003C58.3346 213.963 62.3305 214.729 64.7938 214.51C68.1876 214.236 71.5813 215.003 75.0299 215.003C82.0911 215.003 89.1524 213.744 96.2137 213.47C103.768 213.196 111.212 213.087 118.93 213.087C124.021 213.087 129.057 213.361 134.038 213.361C135.844 213.361 139.183 212.594 140.935 213.306C142.96 214.127 146.026 213.908 148.161 213.963C151.445 214.072 154.729 215.003 158.013 215.003C159.272 215.003 159.71 213.142 158.944 212.321C158.123 211.5 156.645 211.883 155.879 211.281C153.689 209.529 151.335 207.449 149.365 205.478C147.339 203.453 144.438 202.632 142.358 200.716C140.497 199.019 137.432 198.089 135.844 196.282C134.202 194.312 130.589 194.147 128.619 192.396C126.101 190.152 122.105 188.017 118.93 187.031C116.741 186.375 114.223 182.926 112.307 182.707C110.61 182.488 108.694 180.791 107.38 179.751C105.465 178.273 103.549 175.701 101.469 174.606C99.9359 173.785 95.6116 177.671 94.2978 178.328C91.6156 179.642 89.2619 180.791 86.6344 182.105C81.489 186.703 76.1794 189.44 69.6108 192.998C63.5348 197.377 56.9662 201.92 51.3828 206.956C47.7153 210.241 43.6099 214.018 38.4645 214.018C35.9466 213.908 33.2644 213.087 31.0748 214.346Z" fill="#A3C3FF"/>
<path d="M34.3039 214.948C25.9837 214.948 27.1332 222.776 27.6258 228.906C28.7206 229.399 30.308 228.852 31.2386 230.001C32.1144 231.096 34.5776 233.34 36.1103 233.34C42.3505 233.34 48.4265 231.807 54.5572 231.807C58.1699 231.807 61.7279 230.275 65.2859 230.275C68.406 230.275 71.4714 230.767 74.5368 230.767C78.3137 230.767 82.1454 231.807 86.0866 231.807H97.5817C112.744 231.807 128.126 232.847 143.453 232.847C150.24 232.847 156.973 232.574 163.706 232.355H164.034C168.468 232.191 172.957 228.085 173.121 223.542C173.285 218.78 169.18 215.605 165.129 214.455C159.546 212.868 155.55 214.017 149.529 214.017L134.311 214.455C127.524 214.455 120.627 213.415 113.949 213.415C105.628 213.415 97.2532 213.908 88.8782 213.908H48.6454C43.8832 213.908 39.0662 214.948 34.3039 214.948Z" fill="#DAE1F4"/>
<path d="M33.9757 302.53C25.6007 302.53 26.805 309.044 27.2976 314.134C28.3924 314.572 30.0893 315.995 31.0198 316.926C31.8957 317.856 34.3041 317.802 35.7821 317.802C42.0223 317.802 47.8246 318.623 53.9553 318.623C57.568 318.623 63.0419 319.006 66.5999 319.006C69.72 319.006 73.6612 319.006 76.7812 319.006C80.5582 319.006 83.1309 319.006 87.0721 319.006H98.4577C113.62 319.006 128.345 318.623 143.672 318.623C150.459 318.623 156.7 318.513 163.487 318.294L166.115 318.568C170.548 318.459 172.738 313.423 172.957 309.646C173.121 305.705 169.016 303.077 164.965 302.147C159.382 300.833 154.127 300.833 148.106 300.833L134.038 300.285C127.25 300.285 120.463 301.271 113.73 301.271C105.41 301.271 96.9798 301.709 88.6048 301.709H48.3172C43.555 301.709 38.6832 302.53 33.9757 302.53Z" fill="#DAE1F4"/>
<path d="M37.041 262.735C37.041 252.827 37.5337 242.974 37.5337 233.066C38.519 232.519 39.4495 231.972 41.3654 231.972C44.4307 231.972 47.2771 231.479 50.3425 231.479C53.791 231.479 53.9005 233.012 53.9005 236.351V244.562C53.9005 256.604 51.8752 268.154 51.8752 280.142V289.995C51.8752 292.95 52.9152 295.523 52.9152 298.315C52.9152 301.216 53.2436 303.186 49.8498 303.186C46.3466 303.186 43.0623 302.311 39.7232 302.146C36.9863 302.037 38.5737 296.289 38.5737 293.936C38.5737 289.119 38.8474 284.192 38.519 279.375C38.1905 273.901 37.041 268.263 37.041 262.735Z" fill="#A3C3FF"/>
<path d="M73.8252 262.735C73.8252 252.827 74.3178 242.974 74.3178 233.066C75.3031 232.519 76.2337 231.972 78.1495 231.972C81.2149 231.972 84.0613 231.479 87.1267 231.479C90.5752 231.479 90.6847 233.012 90.6847 236.351V244.562C90.6847 256.604 88.6593 268.154 88.6593 280.142V289.995C88.6593 292.95 89.6994 295.523 89.6994 298.315C89.6994 301.216 90.0278 303.186 86.634 303.186C83.1307 303.186 79.8464 302.311 76.5074 302.146C73.7705 302.037 75.3579 296.289 75.3579 293.936C75.3579 289.119 75.6316 284.192 75.3031 279.375C75.0294 273.901 73.8252 268.263 73.8252 262.735Z" fill="#A3C3FF"/>
<path d="M110.829 262.735C110.829 252.827 111.321 242.974 111.321 233.066C112.307 232.519 113.237 231.972 115.153 231.972C118.218 231.972 121.065 231.479 124.13 231.479C127.579 231.479 127.688 233.012 127.688 236.351V244.562C127.688 256.604 125.663 268.154 125.663 280.142V289.995C125.663 292.95 126.703 295.523 126.703 298.315C126.703 301.216 127.031 303.186 123.637 303.186C120.134 303.186 116.85 302.311 113.511 302.146C110.774 302.037 112.361 296.289 112.361 293.936C112.361 289.119 112.635 284.192 112.307 279.375C111.978 273.901 110.829 268.263 110.829 262.735Z" fill="#A3C3FF"/>
<path d="M147.668 262.187C147.668 252.335 148.106 242.482 148.161 232.629C149.091 232.081 149.912 231.534 151.664 231.534C154.456 231.534 157.028 231.041 159.875 231.041C162.995 231.041 163.159 232.519 163.159 235.913V244.124C163.159 256.166 161.298 267.661 161.298 279.594V289.393C161.298 292.294 162.228 294.921 162.228 297.713C162.228 300.614 162.557 302.585 159.437 302.585C156.262 302.585 153.251 301.709 150.186 301.544C147.723 301.435 149.146 295.687 149.146 293.334C149.146 288.517 149.365 283.59 149.146 278.828C148.708 273.245 147.668 267.661 147.668 262.187Z" fill="#A3C3FF"/>
<path d="M166.06 233.833C168.468 233.833 170.713 232.902 172.41 231.205C174.106 229.509 175.037 227.264 175.037 224.856V221.243C175.037 218.834 174.106 216.59 172.41 214.839C170.713 213.142 168.468 212.211 166.06 212.211H162.94L162.447 211.883L105.41 174.934C103.932 174.004 102.235 173.511 100.538 173.511C98.8409 173.511 97.0893 174.004 95.6114 174.934L38.0812 212.156H34.9611C32.5526 212.156 30.3083 213.087 28.6114 214.784C26.8598 216.535 25.9292 218.78 25.9292 221.188V224.801C25.9292 227.209 26.8598 229.454 28.5566 231.151C30.2535 232.848 32.4978 233.778 34.9063 233.778H36.8769V299.519H34.9611C32.5526 299.519 30.3083 300.45 28.6114 302.147C26.9145 303.843 25.9839 306.088 25.9839 308.496V312.164C25.9839 314.572 26.9145 316.816 28.6114 318.513C30.3083 320.21 32.5526 321.141 34.9611 321.141H166.06C168.468 321.141 170.713 320.21 172.41 318.513C174.106 316.816 175.037 314.517 175.037 312.109V308.441C175.037 306.033 174.106 303.789 172.41 302.092C170.713 300.395 168.468 299.464 166.06 299.464H164.144V233.833H166.06ZM97.4725 177.835C99.2788 176.686 101.687 176.686 103.494 177.835L156.535 212.156H44.4308L97.4725 177.835ZM166.06 303.077C167.538 303.077 168.961 303.679 170.001 304.719C171.041 305.759 171.643 307.182 171.643 308.66V312.328C171.643 313.806 171.096 315.229 170.001 316.269C168.961 317.309 167.538 317.911 166.06 317.911H34.9611C33.4831 317.911 32.0599 317.309 31.0199 316.269C29.9799 315.229 29.3777 313.806 29.3777 312.328V308.66C29.3777 307.182 29.9251 305.759 31.0199 304.719C32.0599 303.679 33.4831 303.077 34.9611 303.077H166.06ZM40.3254 299.629V233.833H51.4374V299.574H40.3254V299.629ZM54.8859 299.629V233.833H73.278V299.574H54.8859V299.629ZM76.7266 299.629V233.833H87.8385V299.574H76.7266V299.629ZM91.287 299.629V233.833H109.679V299.574H91.287V299.629ZM113.182 299.629V233.833H124.294V299.574H113.182V299.629ZM127.743 299.629V233.833H146.135V299.574H127.743V299.629ZM149.584 299.629V233.833H160.695V299.574H149.584V299.629ZM34.9611 230.384C33.4831 230.384 32.0599 229.837 31.0199 228.742C29.9799 227.702 29.3777 226.279 29.3777 224.801V221.188C29.3777 219.71 29.9251 218.287 31.0199 217.247C32.0599 216.207 33.4831 215.605 34.9611 215.605H166.06C167.538 215.605 168.961 216.207 170.001 217.247C171.041 218.287 171.643 219.71 171.643 221.188V224.801C171.643 226.279 171.096 227.702 170.001 228.742C168.961 229.782 167.538 230.384 166.06 230.384H34.9611Z" fill="#3F71FD"/>
<path d="M100.045 204.821C104.308 204.821 107.763 201.366 107.763 197.103C107.763 192.841 104.308 189.385 100.045 189.385C95.7827 189.385 92.3271 192.841 92.3271 197.103C92.3271 201.366 95.7827 204.821 100.045 204.821Z" fill="#DAE1F4"/>
<path d="M432.641 297.365L405.438 281.66L416.453 262.582L443.656 278.288C448.923 281.329 450.729 288.066 447.687 293.333C444.645 298.602 437.909 300.407 432.641 297.365Z" fill="#BED5FF"/>
<path d="M413.148 311.547L394.424 300.737L405.438 281.66L424.162 292.47C429.43 295.512 431.235 302.248 428.193 307.516C425.152 312.784 418.416 314.589 413.148 311.547Z" fill="#BED5FF"/>
<path d="M338.739 206.642L387.761 178.34C392.388 175.668 397.917 175.194 402.932 177.038L418.963 182.935L436.761 172.659C439.091 171.314 442.069 172.1 443.431 174.42L473.129 225.025C474.347 227.1 473.876 229.753 472.018 231.282L455.015 245.279L391.394 208.548L338.739 206.642Z" fill="#EAF1FF"/>
<path d="M411.484 310.587L387.035 296.471L386.744 296.238L336.639 256.069L309.16 240.205C306.871 238.883 306.044 235.981 307.294 233.651L335.074 181.86C336.38 179.424 339.442 178.552 341.835 179.934L365.152 193.396L394.523 199.049L455.542 234.278L411.484 310.587Z" fill="#BED5FF"/>
<path d="M454.67 259.21L427.467 243.505L438.481 224.427L465.684 240.133C470.952 243.175 472.757 249.911 469.715 255.179C466.674 260.447 459.938 262.252 454.67 259.21Z" fill="#BED5FF"/>
<path d="M449.308 281.551L416.453 262.582L427.467 243.505L460.323 262.474C465.59 265.515 467.396 272.252 464.354 277.52C461.313 282.788 454.577 284.593 449.308 281.551Z" fill="#BED5FF"/>
<path d="M405.612 196.296L367.846 218.1C361.993 221.479 354.508 219.474 351.129 213.62C347.75 207.767 349.755 200.282 355.608 196.903L387.762 178.339C392.389 175.668 397.918 175.193 402.932 177.038" fill="#EAF1FF"/>
<path d="M355.005 296.398C349.737 293.356 347.932 286.62 350.974 281.352L362.804 260.862C365.845 255.594 372.581 253.789 377.849 256.831C383.117 259.872 384.922 266.608 381.881 271.876L370.051 292.367C367.009 297.635 360.273 299.439 355.005 296.398Z" fill="#EAF1FF"/>
<path d="M374.082 307.412C368.814 304.371 367.009 297.635 370.051 292.367L378.617 277.529C381.659 272.261 388.395 270.456 393.663 273.498C398.931 276.539 400.736 283.275 397.694 288.543L389.128 303.381C386.087 308.649 379.35 310.454 374.082 307.412Z" fill="#EAF1FF"/>
<path d="M316.851 274.369C311.583 271.328 309.778 264.592 312.819 259.324L324.649 238.833C327.691 233.565 334.427 231.76 339.695 234.802C344.963 237.844 346.768 244.58 343.726 249.848L331.896 270.338C328.855 275.606 322.119 277.411 316.851 274.369Z" fill="#EAF1FF"/>
<path d="M335.928 285.384C330.66 282.342 328.855 275.606 331.896 270.338L346.99 244.195C350.032 238.927 356.768 237.122 362.036 240.164C367.304 243.205 369.109 249.942 366.067 255.209L350.973 281.352C347.932 286.62 341.196 288.425 335.928 285.384Z" fill="#EAF1FF"/>
<path d="M466.833 156.103C464.522 152.313 459.522 151.207 455.828 153.668L442.738 162.392C439.254 164.714 438.219 169.369 440.391 172.948L471.366 223.997C473.476 227.475 477.902 228.752 481.541 226.932L495.766 219.82C499.857 217.774 501.324 212.668 498.943 208.762L466.833 156.103Z" fill="#F85778"/>
<path fill-rule="evenodd" clip-rule="evenodd" d="M117.459 103.974C117.154 103.669 116.741 103.498 116.31 103.498L116.308 103.496C116.094 103.496 115.882 103.537 115.685 103.619C115.487 103.701 115.308 103.821 115.157 103.972C115.006 104.123 114.886 104.302 114.804 104.5C114.723 104.697 114.681 104.909 114.681 105.123L114.683 112.689L107.117 112.687C106.686 112.687 106.272 112.858 105.967 113.163C105.662 113.468 105.49 113.882 105.49 114.313C105.49 114.745 105.662 115.159 105.967 115.464C106.272 115.769 106.686 115.94 107.117 115.94L114.683 115.938L114.681 123.504C114.681 123.718 114.723 123.929 114.805 124.127C114.887 124.324 115.006 124.503 115.157 124.654C115.308 124.805 115.488 124.925 115.685 125.007C115.883 125.089 116.094 125.131 116.308 125.131C116.521 125.131 116.733 125.089 116.93 125.007C117.128 124.925 117.307 124.805 117.458 124.654C117.609 124.503 117.729 124.324 117.811 124.127C117.892 123.929 117.934 123.718 117.934 123.504L117.932 115.938L125.498 115.94C125.93 115.94 126.344 115.769 126.649 115.464C126.954 115.159 127.125 114.745 127.125 114.313C127.125 113.882 126.954 113.468 126.649 113.163C126.344 112.858 125.93 112.687 125.498 112.687L117.932 112.689L117.934 105.123C117.934 104.692 117.763 104.279 117.459 103.974Z" fill="#66F6FF"/>
<path fill-rule="evenodd" clip-rule="evenodd" d="M15.0895 227.909C14.8832 227.702 14.6034 227.587 14.3116 227.587L14.3101 227.585C14.1654 227.585 14.022 227.613 13.8883 227.668C13.7545 227.724 13.633 227.805 13.5307 227.907C13.4283 228.01 13.3472 228.131 13.2919 228.265C13.2366 228.399 13.2082 228.542 13.2084 228.687L13.21 233.811L8.08603 233.809C7.79385 233.809 7.51364 233.925 7.30704 234.132C7.10044 234.338 6.98438 234.618 6.98438 234.911C6.98438 235.203 7.10044 235.483 7.30704 235.69C7.51364 235.896 7.79385 236.012 8.08603 236.012L13.21 236.011L13.2084 241.135C13.2084 241.279 13.2369 241.423 13.2923 241.556C13.3476 241.69 13.4288 241.811 13.5311 241.914C13.6334 242.016 13.7548 242.097 13.8885 242.153C14.0222 242.208 14.1654 242.236 14.3101 242.236C14.4547 242.236 14.598 242.208 14.7317 242.153C14.8653 242.097 14.9868 242.016 15.0891 241.914C15.1914 241.811 15.2725 241.69 15.3279 241.556C15.3832 241.423 15.4117 241.279 15.4117 241.135L15.4102 236.011L20.5341 236.012C20.8263 236.012 21.1065 235.896 21.3131 235.69C21.5197 235.483 21.6358 235.203 21.6358 234.911C21.6358 234.618 21.5197 234.338 21.3131 234.132C21.1065 233.925 20.8263 233.809 20.5341 233.809L15.4102 233.811L15.4117 228.687C15.4117 228.395 15.2958 228.115 15.0895 227.909Z" fill="#66F6FF"/>
<path fill-rule="evenodd" clip-rule="evenodd" d="M415.977 141.936C415.756 141.715 415.457 141.591 415.145 141.591L415.143 141.59C414.988 141.589 414.835 141.62 414.692 141.679C414.549 141.738 414.419 141.825 414.31 141.934C414.2 142.044 414.113 142.174 414.054 142.317C413.995 142.46 413.965 142.613 413.965 142.768L413.967 148.248L408.487 148.246C408.174 148.246 407.875 148.37 407.654 148.591C407.433 148.812 407.309 149.112 407.309 149.424C407.309 149.737 407.433 150.036 407.654 150.257C407.875 150.478 408.174 150.602 408.487 150.602L413.967 150.601L413.965 156.08C413.965 156.235 413.995 156.388 414.055 156.531C414.114 156.674 414.201 156.804 414.31 156.913C414.419 157.023 414.549 157.11 414.692 157.169C414.835 157.228 414.988 157.259 415.143 157.259C415.298 157.259 415.451 157.228 415.594 157.169C415.737 157.11 415.867 157.023 415.976 156.913C416.086 156.804 416.172 156.674 416.232 156.531C416.291 156.388 416.321 156.235 416.321 156.08L416.32 150.601L421.799 150.602C422.112 150.602 422.412 150.478 422.632 150.257C422.853 150.036 422.978 149.737 422.978 149.424C422.978 149.112 422.853 148.812 422.632 148.591C422.412 148.37 422.112 148.246 421.799 148.246L416.32 148.248L416.321 142.768C416.321 142.456 416.197 142.157 415.977 141.936Z" fill="#66F6FF"/>
<path fill-rule="evenodd" clip-rule="evenodd" d="M124.116 43.3987C123.848 43.1302 123.484 42.9794 123.104 42.9793L123.102 42.9773C122.913 42.9771 122.727 43.014 122.553 43.0859C122.379 43.1579 122.221 43.2635 122.088 43.3967C121.954 43.5299 121.849 43.688 121.777 43.862C121.705 44.0361 121.668 44.2226 121.668 44.411L121.67 51.0791L115.002 51.0771C114.622 51.0771 114.257 51.2281 113.988 51.497C113.719 51.7659 113.568 52.1305 113.568 52.5108C113.568 52.891 113.719 53.2556 113.988 53.5245C114.257 53.7934 114.622 53.9444 115.002 53.9444L121.67 53.9424L121.668 60.6105C121.668 60.7988 121.705 60.9852 121.777 61.1592C121.849 61.3331 121.955 61.4912 122.088 61.6243C122.221 61.7574 122.379 61.863 122.553 61.9351C122.727 62.0071 122.914 62.0442 123.102 62.0442C123.29 62.0442 123.477 62.0071 123.65 61.9351C123.824 61.863 123.982 61.7574 124.116 61.6243C124.249 61.4912 124.354 61.3331 124.426 61.1592C124.498 60.9852 124.535 60.7988 124.535 60.6105L124.533 53.9424L131.202 53.9444C131.582 53.9444 131.946 53.7934 132.215 53.5245C132.484 53.2556 132.635 52.891 132.635 52.5108C132.635 52.1305 132.484 51.7659 132.215 51.497C131.946 51.2281 131.582 51.0771 131.202 51.0771L124.533 51.0791L124.535 44.411C124.535 44.0313 124.385 43.6672 124.116 43.3987Z" fill="white"/>
<path fill-rule="evenodd" clip-rule="evenodd" d="M390.663 112.559C390.623 112.442 390.557 112.334 390.468 112.244C390.316 112.093 390.111 112.008 389.896 112.008L386.139 112.009L386.14 108.251C386.14 108.037 386.055 107.832 385.904 107.681C385.752 107.53 385.547 107.445 385.333 107.445L385.332 107.443C385.226 107.443 385.121 107.464 385.023 107.505C384.925 107.545 384.836 107.605 384.761 107.68C384.686 107.755 384.626 107.844 384.585 107.942C384.545 108.04 384.524 108.145 384.524 108.251L384.525 112.009L380.768 112.008C380.554 112.008 380.348 112.093 380.197 112.244C380.045 112.396 379.96 112.601 379.96 112.816C379.96 113.03 380.045 113.235 380.197 113.387C380.348 113.538 380.554 113.623 380.768 113.623L384.525 113.622L384.524 117.38C384.524 117.486 384.545 117.591 384.586 117.689C384.626 117.787 384.686 117.876 384.761 117.951C384.836 118.026 384.925 118.086 385.023 118.126C385.041 118.134 385.059 118.14 385.078 118.147C385.139 118.149 385.201 118.15 385.262 118.15C385.379 118.15 385.495 118.146 385.609 118.139C385.62 118.135 385.631 118.131 385.641 118.126C385.739 118.086 385.828 118.026 385.903 117.951C385.978 117.876 386.038 117.787 386.079 117.689C386.119 117.591 386.14 117.486 386.14 117.38L386.139 113.622L389.896 113.623C390.111 113.623 390.316 113.538 390.468 113.387C390.551 113.303 390.615 113.203 390.655 113.094C390.662 112.979 390.666 112.863 390.666 112.746C390.666 112.684 390.665 112.621 390.663 112.559Z" fill="white"/>
<path fill-rule="evenodd" clip-rule="evenodd" d="M141.616 84.3157C141.449 84.1491 141.223 84.0555 140.988 84.0555L140.987 84.0542C140.87 84.0541 140.754 84.077 140.646 84.1216C140.538 84.1663 140.44 84.2318 140.357 84.3144C140.275 84.397 140.209 84.4952 140.164 84.6032C140.12 84.7111 140.097 84.8269 140.097 84.9437L140.098 89.0812L135.961 89.0799C135.725 89.0799 135.499 89.1736 135.332 89.3404C135.165 89.5073 135.071 89.7335 135.071 89.9694C135.071 90.2054 135.165 90.4316 135.332 90.5984C135.499 90.7653 135.725 90.859 135.961 90.859L140.098 90.8577L140.097 94.9951C140.097 95.112 140.12 95.2276 140.165 95.3356C140.209 95.4435 140.275 95.5415 140.358 95.6241C140.44 95.7067 140.538 95.7723 140.646 95.817C140.754 95.8617 140.87 95.8847 140.987 95.8847C141.103 95.8847 141.219 95.8617 141.327 95.817C141.435 95.7723 141.533 95.7067 141.616 95.6241C141.698 95.5415 141.764 95.4435 141.808 95.3356C141.853 95.2276 141.876 95.112 141.876 94.9951L141.875 90.8577L146.012 90.859C146.248 90.859 146.474 90.7653 146.641 90.5984C146.808 90.4316 146.902 90.2054 146.902 89.9694C146.902 89.7335 146.808 89.5073 146.641 89.3404C146.474 89.1736 146.248 89.0799 146.012 89.0799L141.875 89.0812L141.876 84.9437C141.876 84.7082 141.782 84.4823 141.616 84.3157Z" fill="#90A9FF"/>
<path fill-rule="evenodd" clip-rule="evenodd" d="M43.6618 174.125C43.4952 173.958 43.2693 173.865 43.0337 173.865L43.0324 173.863C42.9156 173.863 42.7998 173.886 42.6918 173.931C42.5838 173.975 42.4857 174.041 42.4031 174.123C42.3205 174.206 42.2549 174.304 42.2103 174.412C42.1656 174.52 42.1427 174.636 42.1429 174.753L42.1441 178.89L38.0067 178.889C37.7708 178.889 37.5446 178.983 37.3777 179.15C37.2109 179.316 37.1172 179.543 37.1172 179.779C37.1172 180.014 37.2109 180.241 37.3777 180.408C37.5446 180.574 37.7708 180.668 38.0067 180.668L42.1441 180.667L42.1429 184.804C42.1429 184.921 42.1659 185.037 42.2106 185.145C42.2553 185.253 42.3208 185.351 42.4034 185.433C42.486 185.516 42.5841 185.581 42.692 185.626C42.7999 185.671 42.9156 185.694 43.0324 185.694C43.1492 185.694 43.2649 185.671 43.3728 185.626C43.4808 185.581 43.5788 185.516 43.6614 185.433C43.744 185.351 43.8096 185.253 43.8543 185.145C43.899 185.037 43.922 184.921 43.922 184.804L43.9207 180.667L48.0581 180.668C48.294 180.668 48.5203 180.574 48.6871 180.408C48.854 180.241 48.9477 180.014 48.9477 179.779C48.9477 179.543 48.854 179.316 48.6871 179.15C48.5203 178.983 48.294 178.889 48.0581 178.889L43.9207 178.89L43.922 174.753C43.9219 174.517 43.8283 174.291 43.6618 174.125Z" fill="#90A9FF"/>
<path fill-rule="evenodd" clip-rule="evenodd" d="M441.129 84.377C440.89 84.1378 440.565 84.0033 440.227 84.0033L440.225 84.0015C440.057 84.0013 439.891 84.0342 439.736 84.0983C439.581 84.1624 439.44 84.2565 439.321 84.3752C439.202 84.4939 439.108 84.6349 439.044 84.79C438.98 84.9451 438.947 85.1113 438.947 85.2792L438.949 91.222L433.006 91.2202C432.667 91.2202 432.342 91.3548 432.103 91.5944C431.863 91.834 431.729 92.159 431.729 92.4979C431.729 92.8367 431.863 93.1617 432.103 93.4014C432.342 93.641 432.667 93.7756 433.006 93.7756L438.949 93.7738L438.947 99.7166C438.947 99.8844 438.98 100.051 439.044 100.206C439.109 100.361 439.203 100.501 439.321 100.62C439.44 100.739 439.581 100.833 439.736 100.897C439.891 100.961 440.057 100.994 440.225 100.994C440.393 100.994 440.559 100.961 440.714 100.897C440.869 100.833 441.01 100.739 441.128 100.62C441.247 100.501 441.341 100.361 441.405 100.206C441.47 100.051 441.503 99.8844 441.503 99.7166L441.501 93.7738L447.444 93.7756C447.782 93.7756 448.107 93.641 448.347 93.4014C448.587 93.1617 448.721 92.8367 448.721 92.4979C448.721 92.159 448.587 91.834 448.347 91.5944C448.107 91.3548 447.782 91.2202 447.444 91.2202L441.501 91.222L441.503 85.2792C441.503 84.9408 441.368 84.6163 441.129 84.377Z" fill="#90A9FF"/>
<path fill-rule="evenodd" clip-rule="evenodd" d="M55.3081 36.5157C55.0688 36.2764 54.7443 36.142 54.4059 36.1419L54.4041 36.1401C54.2363 36.1399 54.07 36.1728 53.9149 36.237C53.7598 36.3011 53.6189 36.3952 53.5002 36.5139C53.3815 36.6326 53.2874 36.7735 53.2232 36.9286C53.1591 37.0838 53.1262 37.25 53.1264 37.4178L53.1282 43.3606L47.1854 43.3588C46.8466 43.3588 46.5216 43.4935 46.2819 43.7331C46.0423 43.9727 45.9077 44.2977 45.9077 44.6365C45.9077 44.9754 46.0423 45.3004 46.2819 45.54C46.5216 45.7796 46.8466 45.9143 47.1854 45.9143L53.1282 45.9124L53.1264 51.8552C53.1264 52.023 53.1595 52.1892 53.2237 52.3442C53.2879 52.4992 53.382 52.6401 53.5006 52.7587C53.6193 52.8774 53.7601 52.9715 53.9152 53.0357C54.0702 53.0999 54.2363 53.133 54.4041 53.133C54.5719 53.133 54.7381 53.0999 54.8931 53.0357C55.0481 52.9715 55.189 52.8774 55.3076 52.7587C55.4262 52.6401 55.5204 52.4992 55.5846 52.3442C55.6488 52.1892 55.6818 52.023 55.6818 51.8552L55.68 45.9124L61.6228 45.9143C61.9617 45.9143 62.2867 45.7796 62.5263 45.54C62.7659 45.3004 62.9005 44.9754 62.9005 44.6365C62.9005 44.2977 62.7659 43.9727 62.5263 43.7331C62.2867 43.4935 61.9617 43.3588 61.6228 43.3588L55.68 43.3606L55.6818 37.4178C55.6818 37.0795 55.5473 36.755 55.3081 36.5157Z" fill="#90A9FF"/>
<path d="M315.75 165.017C318.194 160.931 324.231 160.081 328.98 163.154L342.301 171.773C346.706 174.624 348.388 179.829 346.129 183.625L313.074 239.167C310.868 242.875 305.64 243.986 301.038 241.725L286.624 234.644C281.42 232.088 279.097 226.285 281.602 222.098L315.75 165.017Z" fill="#3F71FD"/>
</svg>
