<svg width="484" height="368" viewBox="0 0 484 368" fill="none" xmlns="http://www.w3.org/2000/svg">
<path fill-rule="evenodd" clip-rule="evenodd" d="M173.768 367.332H296.991L300.413 307.973L183.165 277.012L173.768 367.332Z" fill="#BED5FF"/>
<rect x="2.94531" y="47.2837" width="380.505" height="58.5392" rx="29.2696" fill="#DAE1F4"/>
<rect x="110.171" y="104.138" width="373.829" height="64.0311" rx="32.0156" fill="#DAE1F4"/>
<rect y="168.265" width="444.898" height="52.0349" rx="26.0174" fill="#DAE1F4"/>
<rect x="84.4302" y="219.959" width="380.42" height="52.7315" rx="26.3658" fill="#DAE1F4"/>
<path d="M362.438 159.088L335.284 159.533L343.742 137.276L347.303 127.483L349.529 120.806L300.118 147.069L325.491 241.44L347.748 221.408L359.767 209.835L367.334 200.932L345.968 190.248L354.87 174.223L362.438 159.088Z" fill="#BECFFF"/>
<rect x="354.258" y="28.6304" width="34.6763" height="65.311" rx="17.3381" transform="rotate(57.0832 354.258 28.6304)" fill="#BED5FF"/>
<path d="M164.933 133.677C164.933 141.04 165.915 140.549 167.878 145.458C169.334 147.942 168.03 146.154 169.926 148.177C174.356 152.906 179.788 155.926 183.459 161.459C186.76 166.434 191.19 169.55 193.593 175.376C196.325 181.997 196.119 189.171 195.765 196.221C195.35 204.465 197.469 212.347 193.641 220.077C192.071 223.247 188.47 225.668 185.631 227.663C179.863 231.717 170.79 236.366 163.516 233.626C161.412 232.833 159.83 233.29 157.676 232.127C155.552 230.979 152.908 230.362 151.121 228.801C149.344 227.247 146.784 227.07 144.872 225.574C141.647 223.052 139.128 220.091 136.479 216.897C132.007 211.505 131.074 203.358 128.389 197.054C125.705 190.75 125.518 180.452 124.946 171.516C124.125 158.673 123.31 147.115 123.65 134.195C124 120.887 127.268 107.888 129.083 94.7314C130.059 87.6528 128.669 79.841 128.214 72.7323C128.028 69.8319 126.727 64.8655 127.8 62.0583C129.529 57.5351 136.218 60.7155 139.131 62.1007L139.141 62.1056C144.689 64.7435 147.261 66.4272 152.932 71.9238C159.533 78.699 164.227 84.8159 166.425 92.9964C168.534 100.842 169.236 111.021 167.878 118.95C167.878 123.118 166.916 128.768 164.933 133.677Z" fill="#BED5FF"/>
<rect x="171.642" y="2.56836" width="159.02" height="311.259" rx="24.5" fill="#547BFF" stroke="#6E7BED" stroke-width="5"/>
<path d="M209.094 28.2585H210.788V23.5947H212.619V22.2462H207.255V23.5947H209.094V28.2585Z" fill="white"/>
<path d="M215.338 28.3788C217.117 28.3788 217.99 27.4855 217.99 26.4377C217.99 24.2217 214.594 24.9088 214.594 23.9898C214.594 23.6892 214.85 23.4487 215.56 23.4487C216.082 23.4487 216.647 23.6033 217.22 23.9125L217.742 22.6499C217.152 22.3063 216.347 22.126 215.569 22.126C213.789 22.126 212.917 23.0021 212.917 24.0757C212.917 26.3088 216.322 25.6131 216.322 26.5665C216.322 26.8585 216.048 27.0561 215.346 27.0561C214.653 27.0561 213.901 26.8156 213.37 26.4634L212.814 27.7174C213.379 28.1125 214.354 28.3788 215.338 28.3788Z" fill="white"/>
<path d="M219.964 28.2585H221.658V23.5947H223.488V22.2462H218.124V23.5947H219.964V28.2585Z" fill="white"/>
<path d="M228.714 28.3788C230.493 28.3788 231.366 27.4855 231.366 26.4377C231.366 24.2217 227.969 24.9088 227.969 23.9898C227.969 23.6892 228.226 23.4487 228.936 23.4487C229.458 23.4487 230.023 23.6033 230.596 23.9125L231.118 22.6499C230.527 22.3063 229.723 22.126 228.945 22.126C227.165 22.126 226.293 23.0021 226.293 24.0757C226.293 26.3088 229.698 25.6131 229.698 26.5665C229.698 26.8585 229.424 27.0561 228.722 27.0561C228.029 27.0561 227.276 26.8156 226.746 26.4634L226.19 27.7174C226.755 28.1125 227.73 28.3788 228.714 28.3788Z" fill="white"/>
<path d="M236.631 28.2585H238.393L235.741 22.2462H234.073L231.43 28.2585H233.158L233.628 27.0904H236.161L236.631 28.2585ZM234.124 25.8364L234.894 23.9125L235.664 25.8364H234.124Z" fill="white"/>
<path d="M238.874 28.2585H243.425V26.91H240.568V22.2462H238.874V28.2585Z" fill="white"/>
<path d="M246.8 28.3788C248.571 28.3788 249.615 27.3739 249.615 25.5788V22.2462H247.947V25.5272C247.947 26.5579 247.519 26.9702 246.817 26.9702C246.107 26.9702 245.679 26.5579 245.679 25.5272V22.2462H243.986V25.5788C243.986 27.3739 245.029 28.3788 246.8 28.3788Z" fill="white"/>
<path d="M250.762 28.2585H253.594C255.579 28.2585 256.939 27.099 256.939 25.2524C256.939 23.4057 255.579 22.2462 253.594 22.2462H250.762V28.2585ZM252.456 26.9015V23.6033H253.526C254.544 23.6033 255.228 24.2131 255.228 25.2524C255.228 26.2916 254.544 26.9015 253.526 26.9015H252.456Z" fill="white"/>
<path d="M193.452 19.3144C194.169 19.3144 194.75 18.7162 194.75 17.9782C194.75 17.2403 194.169 16.6421 193.452 16.6421C192.735 16.6421 192.154 17.2403 192.154 17.9782C192.154 18.7162 192.735 19.3144 193.452 19.3144Z" fill="white"/>
<path d="M192.536 20.5356C192.536 20.5356 211.089 23.9041 192.536 29.6978C192.536 29.6978 202.318 24.9366 192.536 20.5356Z" fill="white"/>
<path d="M194.75 24.4297C194.75 24.4297 178.43 27.8869 194.75 33.8209C194.75 33.8209 186.145 28.9493 194.75 24.4297Z" fill="white"/>
<path fill-rule="evenodd" clip-rule="evenodd" d="M328.162 99.547V289.327C328.162 301.478 318.312 311.327 306.162 311.327H196.142C183.991 311.327 174.142 301.478 174.142 289.327V99.1802C196.712 86.1531 222.903 78.6992 250.836 78.6992C279.029 78.6992 305.449 86.2931 328.162 99.547Z" fill="#829EFF"/>
<path d="M288.347 209.793C288.347 209.793 306.602 284.171 303.735 311.328H195.938C195.938 311.328 199.636 216.281 212.158 191.84C224.68 167.55 288.347 209.793 288.347 209.793Z" fill="#85B9E9"/>
<path d="M285.179 101.318C284.878 106.9 285.179 113.388 286.537 120.629C290.46 141.298 301.624 155.631 308.262 162.722C308.262 162.722 326.97 179.77 313.693 192.895L235.393 191.839L205.37 168.756C205.37 168.756 199.486 149.294 205.37 135.113C205.37 135.113 210.349 121.384 213.668 115.198C213.668 115.198 219.702 102.525 222.267 88.7962C223.172 80.6493 247.462 72.3516 247.462 72.3516L285.179 101.318Z" fill="#466DF1"/>
<path d="M227.095 94.5286C227.095 94.5286 224.379 122.439 235.091 127.871C235.091 127.871 246.255 137.073 262.549 128.927C262.549 128.927 272.356 124.551 274.015 104.033L270.545 83.6661L251.988 70.3896L239.466 75.3683L226.793 91.0586L227.095 94.5286Z" fill="#CBD9FF"/>
<path d="M269.188 107.353C269.188 107.353 273.262 100.715 279.447 105.845C279.447 105.845 282.012 111.578 277.939 114.444C277.939 114.444 273.111 116.405 270.697 114.444C270.697 114.444 267.378 109.314 269.188 107.353Z" fill="#CBD9FF"/>
<path d="M221.513 107.353C221.513 107.353 225.586 100.715 231.772 105.845C231.772 105.845 234.337 111.578 230.263 114.444C230.263 114.444 225.436 116.405 223.022 114.444C223.022 114.444 219.703 109.314 221.513 107.353Z" fill="#CBD9FF"/>
<path d="M246.71 76.7268C248.067 79.7442 250.029 83.0633 252.443 86.5333C259.986 96.7923 269.491 102.224 275.525 104.939C277.185 105.543 278.995 106.297 280.806 107.353C282.616 108.258 284.125 109.164 285.634 109.918C285.935 105.694 285.935 97.2449 281.862 87.8911C277.487 77.632 270.547 71.5973 267.077 69.0325C265.417 67.8256 261.947 65.4117 256.969 64.3556C251.99 63.4504 248.067 64.3556 246.106 64.9591C245.05 64.6573 243.24 64.3556 240.977 64.5065C232.377 65.2608 225.588 74.1621 223.325 81.4037C222.42 83.9685 221.967 86.9859 220.911 92.4171C220.458 95.1328 220.006 97.5467 219.855 99.0554C220.006 101.922 220.157 104.939 220.157 107.806C221.213 107.353 222.872 106.599 224.834 105.392C231.17 101.318 233.433 96.1888 240.222 86.0807C241.58 83.9685 243.692 80.8003 246.71 76.7268Z" fill="#466DF1"/>
<path d="M230.867 154.877C233.432 151.407 237.958 144.316 238.411 134.661C238.561 131.643 238.26 129.079 237.807 126.816L264.963 121.535C264.058 125.156 263.153 131.794 264.813 139.639C266.321 146.579 269.188 151.709 271.3 154.726C266.925 153.067 259.532 150.804 250.178 150.954C241.73 151.105 235.092 153.218 230.867 154.877Z" fill="#CBD9FF"/>
<path d="M275.525 157.442L275.073 157.894L248.369 188.521L245.502 191.84C245.502 191.84 224.381 172.227 224.381 161.515C224.381 159.856 224.833 158.498 226.04 157.291C226.493 156.838 227.096 156.386 227.851 156.084C228.907 155.631 229.812 155.028 230.566 154.424C230.566 154.575 230.717 154.575 230.717 154.726C235.394 150.954 240.976 148.541 247.765 148.842C258.175 149.446 265.568 150.653 271.15 154.424C271.15 154.274 271.301 154.274 271.301 154.123C273.715 156.687 275.525 157.442 275.525 157.442Z" fill="#CBD9FF"/>
<path d="M189.982 236.798L208.539 274.516C208.539 274.516 201.75 303.784 189.982 301.521C189.982 301.521 170.219 294.732 148.343 257.769C148.343 257.769 126.467 223.069 122.846 220.806C122.846 220.806 116.962 214.621 109.569 215.828L96.293 221.561C96.293 221.561 86.4866 223.975 91.3144 219.298L105.345 211.754L86.7883 219.147C86.7883 219.147 82.8657 219.599 85.2796 216.733L99.4613 208.435L85.5814 214.922C85.5814 214.922 79.8484 215.828 82.8657 211.302L96.8965 203.758L82.8657 210.849C82.8657 210.849 78.9432 211.302 81.2062 207.379C81.2062 207.379 98.8578 196.667 107.005 195.008C107.005 195.008 109.117 193.801 106.25 191.689C106.25 191.689 96.1422 188.822 95.0861 185.352C95.0861 185.352 95.3878 182.184 101.573 184.598C101.573 184.598 114.548 187.917 118.923 187.615C118.923 187.615 125.411 191.085 129.635 198.78C129.635 198.78 173.99 242.23 181.081 249.773C188.172 257.316 189.982 236.798 189.982 236.798Z" fill="#CBD9FF"/>
<path d="M330.893 231.367C320.332 240.419 288.952 239.967 288.952 239.967L281.408 218.393L243.239 214.319C243.239 214.319 192.245 186.71 194.508 177.809C196.771 168.908 204.767 163.175 204.767 163.175C209.444 161.817 214.423 160.308 219.552 158.649C221.665 157.894 223.777 157.14 225.738 156.386C227.548 155.782 229.208 155.179 230.867 154.424C233.432 159.856 236.751 165.89 240.674 172.076C243.088 175.998 245.653 179.468 248.067 182.788C252.743 178.563 257.873 173.283 262.852 166.796C266.322 162.42 269.188 158.196 271.602 154.273C273.412 155.48 275.223 156.838 277.184 158.045C280.352 160.157 283.671 162.269 287.141 164.532C292.271 167.701 297.25 170.416 301.927 172.981C312.186 178.563 316.712 189.878 316.712 189.878C321.389 203.758 326.065 217.487 330.893 231.367Z" fill="#85B9E9"/>
<path d="M230.264 274.817L169.162 275.571L152.416 174.49L215.629 172.377H216.233L216.685 175.546L230.264 274.817Z" fill="#6B7CEB"/>
<path d="M276.579 223.975C276.579 223.975 276.278 248.264 277.937 256.562C278.088 257.015 278.239 257.769 277.636 258.373C277.183 258.825 275.523 260.032 255.156 250.527C254.704 250.377 254.402 250.226 254.251 250.075C254.1 246.152 253.949 242.079 253.949 237.854C253.949 233.027 254.1 228.35 254.251 223.824C261.644 223.975 269.187 223.975 276.579 223.975Z" fill="#9BCEF9"/>
<path d="M292.119 234.837C292.119 234.837 297.852 255.204 298.908 258.221C299.964 261.239 252.893 242.682 245.652 238.156C245.652 238.156 232.828 222.616 228.302 221.108C223.776 219.599 228.302 228.349 228.302 228.349L214.422 217.185C214.422 217.185 211.706 215.073 210.047 216.28C210.047 216.28 209.141 218.995 211.254 220.957L221.06 229.858L208.085 220.806C208.085 220.806 203.559 219.297 205.37 224.125L217.288 234.082L205.521 226.388C205.521 226.388 201.9 226.237 203.559 229.707L214.724 239.363L205.671 233.328C205.671 233.328 203.258 232.875 204.012 235.893C204.012 235.893 207.633 243.587 236.298 258.221C236.298 258.221 270.847 276.024 281.407 284.171C281.407 284.171 312.939 307.404 330.892 293.223C330.892 293.223 339.492 290.658 329.987 244.19L325.008 224.728L292.119 234.837Z" fill="#CBD9FF"/>
<path d="M195.412 174.942L172.179 175.395L170.368 170.416L193.753 170.114L195.412 174.942Z" fill="#4151B4"/>
<path d="M182.483 173.887C185.316 173.846 187.593 172.529 187.57 170.946C187.547 169.363 185.232 168.113 182.399 168.155C179.566 168.196 177.289 169.513 177.312 171.096C177.335 172.679 179.65 173.928 182.483 173.887Z" fill="#4151B4"/>
<path d="M276.581 157.894C276.43 158.196 276.128 158.498 275.977 158.799C273.262 163.175 269.792 167.852 265.568 172.679C259.684 179.318 254.283 184.564 249.002 188.486C248.55 188.788 247.614 189.275 247.162 189.577C244.899 187.465 241.73 184.145 238.713 179.77C237.204 177.658 236.148 175.697 234.036 171.925C232.226 168.606 229.812 164.08 226.945 158.799C226.794 158.347 226.493 157.894 226.342 157.442C226.191 157.14 226.04 156.838 225.889 156.536V156.386C225.889 156.386 226.04 156.386 226.191 156.386C226.945 156.084 227.7 155.782 228.605 155.48C229.51 155.179 230.264 154.877 231.17 154.575C231.17 154.726 231.32 154.726 231.32 154.877C233.885 160.308 237.053 166.041 240.825 172.076C243.692 176.602 246.407 180.223 247.463 181.882C247.765 182.335 248.067 182.637 248.218 182.788C248.537 182.435 248.781 182.2 249.123 181.882C255.459 175.998 259.985 170.567 263.003 166.796C265.568 163.476 268.585 159.403 271.602 154.575C271.602 154.424 271.753 154.424 271.753 154.273C272.658 154.877 273.564 155.48 274.469 156.235C274.921 156.838 275.827 157.442 276.581 157.894Z" fill="#92D0FF"/>
<path d="M234.187 149.597C233.131 151.558 232.829 151.86 231.773 153.67C231.622 153.972 231.019 154.726 230.868 154.877C229.359 156.084 228.002 157.442 226.795 158.8C226.04 159.705 225.286 160.61 224.532 161.666C221.212 166.041 218.648 171.02 216.686 175.697L216.234 172.378H215.479C218.044 166.796 221.363 161.214 225.588 156.537L225.739 156.386C228.605 153.519 230.717 151.256 234.187 149.597Z" fill="#266189"/>
<path d="M294.988 206.022L292.725 206.474C286.992 180.827 282.768 166.645 275.828 158.8C275.526 158.498 275.225 158.196 275.074 157.895C273.867 156.688 272.509 155.631 271.151 154.575C271.151 154.425 271 154.425 271 154.274C270.699 153.67 270.246 153.218 269.944 152.614C269.492 151.86 269.341 151.407 268.888 150.653C282.014 156.537 287.143 170.567 294.988 206.022Z" fill="#266189"/>
<path d="M327.121 220.354L330.892 231.367C330.892 231.367 317.767 243.286 287.593 242.682L285.179 229.406L327.121 220.354Z" fill="#85B9E9"/>
<path d="M327.876 222.466L330.893 231.367C326.669 234.083 320.483 237.553 312.638 239.967C302.982 242.833 294.685 242.984 289.102 242.682C288.348 239.816 287.443 236.949 286.688 234.083C291.969 234.083 299.211 233.63 307.357 231.367C316.108 228.953 323.048 225.483 327.876 222.466Z" fill="#9BCEF9"/>
<path d="M293.93 212.659C296.68 212.659 298.909 210.43 298.909 207.68C298.909 204.931 296.68 202.702 293.93 202.702C291.181 202.702 288.952 204.931 288.952 207.68C288.952 210.43 291.181 212.659 293.93 212.659Z" fill="#266189"/>
<rect x="337.481" y="94.9512" width="34.7213" height="58.8263" rx="17.3606" transform="rotate(57.0832 337.481 94.9512)" fill="#BED5FF"/>
<rect x="351.762" y="128.233" width="34.7213" height="63.1122" rx="17.3606" transform="rotate(57.0832 351.762 128.233)" fill="#BED5FF"/>
<rect x="358.121" y="167.272" width="34.7213" height="60.0816" rx="17.3606" transform="rotate(57.0832 358.121 167.272)" fill="#BED5FF"/>
<path fill-rule="evenodd" clip-rule="evenodd" d="M302.911 138.048C306.458 143.314 313.603 144.706 318.868 141.158L323.529 138.018L310.681 118.951L306.02 122.091C300.755 125.639 299.363 132.783 302.911 138.048Z" fill="#ADC3FC"/>
<path fill-rule="evenodd" clip-rule="evenodd" d="M312.622 174.008C316.093 179.159 323.084 180.522 328.236 177.05L332.717 174.031L320.146 155.374L315.664 158.394C310.512 161.865 309.15 168.856 312.622 174.008Z" fill="#ADC3FC"/>
<path fill-rule="evenodd" clip-rule="evenodd" d="M322.346 211.932C326.089 217.487 333.626 218.956 339.18 215.213L342.631 212.888L329.078 192.773L325.627 195.098C320.072 198.841 318.604 206.378 322.346 211.932Z" fill="#ADC3FC"/>
<path fill-rule="evenodd" clip-rule="evenodd" d="M103.944 136.409C103.646 136.111 103.241 135.943 102.82 135.943L102.818 135.941C102.609 135.941 102.401 135.982 102.208 136.062C102.015 136.141 101.84 136.259 101.692 136.406C101.544 136.554 101.427 136.73 101.347 136.923C101.267 137.116 101.226 137.323 101.226 137.532L101.228 144.934L93.8263 144.932C93.4042 144.932 92.9994 145.1 92.701 145.398C92.4025 145.697 92.2349 146.102 92.2349 146.524C92.2349 146.946 92.4025 147.351 92.701 147.649C92.9994 147.947 93.4042 148.115 93.8263 148.115L101.228 148.113L101.226 155.515C101.226 155.724 101.267 155.931 101.347 156.124C101.427 156.317 101.544 156.493 101.692 156.64C101.84 156.788 102.015 156.905 102.209 156.985C102.402 157.065 102.609 157.106 102.818 157.106C103.027 157.106 103.234 157.065 103.427 156.985C103.62 156.905 103.795 156.788 103.943 156.64C104.091 156.493 104.208 156.317 104.288 156.124C104.368 155.931 104.409 155.724 104.409 155.515L104.407 148.113L111.809 148.115C112.231 148.115 112.636 147.947 112.934 147.649C113.233 147.351 113.4 146.946 113.4 146.524C113.4 146.102 113.233 145.697 112.934 145.398C112.636 145.1 112.231 144.932 111.809 144.932L104.407 144.934L104.409 137.532C104.409 137.111 104.242 136.707 103.944 136.409Z" fill="#66F6FF"/>
<path fill-rule="evenodd" clip-rule="evenodd" d="M415.027 54.4595C414.834 54.266 414.571 54.1573 414.297 54.1572L414.296 54.1558C414.16 54.1556 414.026 54.1822 413.9 54.2341C413.775 54.286 413.661 54.3621 413.565 54.4581C413.469 54.5541 413.393 54.6681 413.341 54.7935C413.289 54.919 413.262 55.0535 413.263 55.1892L413.264 59.996L408.457 59.9945C408.183 59.9945 407.92 60.1034 407.727 60.2972C407.533 60.491 407.424 60.7539 407.424 61.028C407.424 61.3021 407.533 61.5649 407.727 61.7587C407.92 61.9526 408.183 62.0614 408.457 62.0614L413.264 62.06L413.263 66.8667C413.263 67.0024 413.289 67.1368 413.341 67.2622C413.393 67.3876 413.469 67.5015 413.565 67.5975C413.661 67.6935 413.775 67.7696 413.901 67.8215C414.026 67.8735 414.16 67.9002 414.296 67.9002C414.432 67.9002 414.566 67.8735 414.692 67.8215C414.817 67.7696 414.931 67.6935 415.027 67.5975C415.123 67.5015 415.199 67.3876 415.251 67.2622C415.303 67.1368 415.329 67.0024 415.329 66.8667L415.328 62.06L420.135 62.0614C420.409 62.0614 420.672 61.9526 420.866 61.7587C421.059 61.5649 421.168 61.3021 421.168 61.028C421.168 60.7539 421.059 60.491 420.866 60.2972C420.672 60.1034 420.409 59.9945 420.135 59.9945L415.328 59.996L415.329 55.1892C415.329 54.9155 415.221 54.6531 415.027 54.4595Z" fill="#66F6FF"/>
<path fill-rule="evenodd" clip-rule="evenodd" d="M110.457 77.1481C110.194 76.8855 109.838 76.7379 109.466 76.7378L109.464 76.7358C109.28 76.7356 109.098 76.7717 108.927 76.8421C108.757 76.9125 108.602 77.0158 108.472 77.1461C108.342 77.2764 108.238 77.4311 108.168 77.6014C108.098 77.7717 108.061 77.9541 108.062 78.1384L108.064 84.6618L101.54 84.6599C101.168 84.6599 100.812 84.8076 100.548 85.0707C100.285 85.3337 100.138 85.6904 100.138 86.0624C100.138 86.4344 100.285 86.7911 100.548 87.0542C100.812 87.3172 101.168 87.465 101.54 87.465L108.064 87.463L108.062 93.9864C108.062 94.1706 108.098 94.353 108.168 94.5232C108.239 94.6933 108.342 94.8479 108.473 94.9782C108.603 95.1084 108.757 95.2117 108.928 95.2822C109.098 95.3527 109.28 95.389 109.464 95.389C109.648 95.389 109.831 95.3527 110.001 95.2822C110.171 95.2117 110.326 95.1084 110.456 94.9782C110.586 94.8479 110.69 94.6933 110.76 94.5232C110.831 94.353 110.867 94.1706 110.867 93.9864L110.865 87.463L117.388 87.465C117.76 87.465 118.117 87.3172 118.38 87.0542C118.643 86.7911 118.791 86.4344 118.791 86.0624C118.791 85.6904 118.643 85.3337 118.38 85.0707C118.117 84.8076 117.76 84.6599 117.388 84.6599L110.865 84.6618L110.867 78.1384C110.867 77.767 110.719 77.4108 110.457 77.1481Z" fill="white"/>
<path fill-rule="evenodd" clip-rule="evenodd" d="M412.834 152.741C412.571 152.479 412.215 152.331 411.844 152.331L411.842 152.329C411.657 152.329 411.475 152.365 411.305 152.435C411.134 152.506 410.98 152.609 410.849 152.739C410.719 152.87 410.616 153.024 410.545 153.195C410.475 153.365 410.439 153.547 410.439 153.732L410.441 160.255L403.918 160.253C403.546 160.253 403.189 160.401 402.926 160.664C402.663 160.927 402.515 161.284 402.515 161.656C402.515 162.028 402.663 162.384 402.926 162.647C403.189 162.91 403.546 163.058 403.918 163.058L410.441 163.056L410.439 169.58C410.439 169.764 410.475 169.946 410.546 170.116C410.616 170.287 410.72 170.441 410.85 170.571C410.98 170.702 411.135 170.805 411.305 170.875C411.475 170.946 411.658 170.982 411.842 170.982C412.026 170.982 412.208 170.946 412.378 170.875C412.549 170.805 412.703 170.702 412.833 170.571C412.964 170.441 413.067 170.287 413.137 170.116C413.208 169.946 413.244 169.764 413.244 169.58L413.242 163.056L419.766 163.058C420.138 163.058 420.494 162.91 420.757 162.647C421.021 162.384 421.168 162.028 421.168 161.656C421.168 161.284 421.021 160.927 420.757 160.664C420.494 160.401 420.138 160.253 419.766 160.253L413.242 160.255L413.244 153.732C413.244 153.36 413.097 153.004 412.834 152.741Z" fill="white"/>
<path fill-rule="evenodd" clip-rule="evenodd" d="M384.824 222.351C384.791 222.2 384.716 222.061 384.605 221.95C384.453 221.798 384.246 221.713 384.031 221.713L380.254 221.714L380.256 217.937C380.256 217.722 380.17 217.516 380.018 217.364C379.866 217.212 379.66 217.126 379.445 217.126L379.444 217.125C379.337 217.125 379.231 217.146 379.133 217.187C379.034 217.227 378.944 217.287 378.869 217.363C378.794 217.438 378.734 217.528 378.693 217.626C378.652 217.725 378.631 217.83 378.632 217.937L378.633 221.714L374.856 221.713C374.641 221.713 374.434 221.798 374.282 221.95C374.129 222.103 374.044 222.309 374.044 222.525C374.044 222.74 374.129 222.946 374.282 223.099C374.434 223.251 374.641 223.337 374.856 223.337L378.633 223.335L378.632 227.112C378.632 227.219 378.653 227.324 378.693 227.423C378.734 227.521 378.794 227.611 378.869 227.686C378.945 227.762 379.034 227.822 379.133 227.862C379.177 227.881 379.222 227.895 379.268 227.905C379.303 227.906 379.339 227.906 379.374 227.906C379.464 227.906 379.553 227.904 379.642 227.899C379.68 227.89 379.718 227.877 379.754 227.862C379.853 227.822 379.942 227.762 380.018 227.686C380.093 227.611 380.153 227.521 380.194 227.423C380.235 227.324 380.256 227.219 380.256 227.112L380.254 223.335L384.031 223.337C384.246 223.337 384.453 223.251 384.605 223.099C384.71 222.994 384.783 222.863 384.819 222.722C384.823 222.633 384.825 222.544 384.825 222.455C384.825 222.42 384.825 222.385 384.824 222.351Z" fill="#66F6FF"/>
<path fill-rule="evenodd" clip-rule="evenodd" d="M371.83 106.492C371.637 106.298 371.374 106.189 371.101 106.189L371.099 106.188C370.963 106.188 370.829 106.214 370.704 106.266C370.578 106.318 370.464 106.394 370.368 106.49C370.272 106.586 370.196 106.7 370.144 106.826C370.092 106.951 370.066 107.086 370.066 107.221L370.067 112.028L365.261 112.027C364.986 112.027 364.724 112.136 364.53 112.329C364.336 112.523 364.227 112.786 364.227 113.06C364.227 113.334 364.336 113.597 364.53 113.791C364.724 113.985 364.986 114.094 365.261 114.094L370.067 114.092L370.066 118.899C370.066 119.035 370.093 119.169 370.144 119.294C370.196 119.42 370.273 119.534 370.368 119.63C370.464 119.726 370.578 119.802 370.704 119.854C370.829 119.906 370.964 119.932 371.099 119.932C371.235 119.932 371.369 119.906 371.495 119.854C371.62 119.802 371.734 119.726 371.83 119.63C371.926 119.534 372.002 119.42 372.054 119.294C372.106 119.169 372.133 119.035 372.133 118.899L372.131 114.092L376.938 114.094C377.212 114.094 377.475 113.985 377.669 113.791C377.863 113.597 377.971 113.334 377.971 113.06C377.971 112.786 377.863 112.523 377.669 112.329C377.475 112.136 377.212 112.027 376.938 112.027L372.131 112.028L372.133 107.221C372.133 106.948 372.024 106.685 371.83 106.492Z" fill="white"/>
<path fill-rule="evenodd" clip-rule="evenodd" d="M60.3982 119.206C60.2352 119.044 60.0142 118.952 59.7837 118.952L59.7825 118.951C59.6682 118.951 59.5549 118.973 59.4493 119.017C59.3436 119.06 59.2476 119.124 59.1668 119.205C59.086 119.286 59.0219 119.382 58.9782 119.488C58.9345 119.593 58.9121 119.707 58.9122 119.821L58.9135 123.869L54.8659 123.867C54.635 123.867 54.4137 123.959 54.2505 124.122C54.0873 124.285 53.9956 124.507 53.9956 124.738C53.9956 124.968 54.0873 125.19 54.2505 125.353C54.4137 125.516 54.635 125.608 54.8659 125.608L58.9135 125.607L58.9122 129.654C58.9122 129.768 58.9347 129.882 58.9785 129.987C59.0222 130.093 59.0863 130.189 59.1671 130.27C59.2479 130.35 59.3439 130.414 59.4495 130.458C59.555 130.502 59.6682 130.524 59.7825 130.524C59.8968 130.524 60.0099 130.502 60.1155 130.458C60.2211 130.414 60.317 130.35 60.3978 130.27C60.4786 130.189 60.5428 130.093 60.5865 129.987C60.6302 129.882 60.6527 129.768 60.6527 129.654L60.6515 125.607L64.6991 125.608C64.9299 125.608 65.1513 125.516 65.3145 125.353C65.4777 125.19 65.5694 124.968 65.5694 124.738C65.5694 124.507 65.4777 124.285 65.3145 124.122C65.1513 123.959 64.9299 123.867 64.6991 123.867L60.6515 123.869L60.6527 119.821C60.6527 119.59 60.5611 119.369 60.3982 119.206Z" fill="#90A9FF"/>
<path fill-rule="evenodd" clip-rule="evenodd" d="M455.51 131.048C455.476 130.898 455.401 130.759 455.291 130.649C455.139 130.496 454.932 130.411 454.717 130.411L450.94 130.412L450.941 126.635C450.941 126.42 450.856 126.214 450.704 126.062C450.552 125.91 450.345 125.824 450.13 125.824L450.129 125.823C450.022 125.823 449.917 125.844 449.818 125.885C449.72 125.926 449.63 125.985 449.555 126.061C449.479 126.136 449.419 126.226 449.379 126.324C449.338 126.423 449.317 126.529 449.317 126.635L449.318 130.412L445.541 130.411C445.326 130.411 445.12 130.496 444.967 130.649C444.815 130.801 444.729 131.007 444.729 131.223C444.729 131.438 444.815 131.645 444.967 131.797C445.12 131.949 445.326 132.035 445.541 132.035L449.318 132.034L449.317 135.81C449.317 135.917 449.338 136.023 449.379 136.121C449.42 136.22 449.48 136.309 449.555 136.385C449.63 136.46 449.72 136.52 449.818 136.561C449.862 136.579 449.907 136.593 449.953 136.603C449.989 136.604 450.024 136.604 450.059 136.604C450.149 136.604 450.239 136.602 450.328 136.598C450.366 136.588 450.403 136.576 450.44 136.561C450.538 136.52 450.628 136.46 450.703 136.385C450.779 136.309 450.838 136.22 450.879 136.121C450.92 136.023 450.941 135.917 450.941 135.81L450.94 132.034L454.717 132.035C454.932 132.035 455.139 131.949 455.291 131.797C455.395 131.692 455.469 131.562 455.504 131.421C455.508 131.332 455.511 131.243 455.511 131.153C455.511 131.118 455.51 131.083 455.51 131.048Z" fill="#90A9FF"/>
<path fill-rule="evenodd" clip-rule="evenodd" d="M95.9313 58.0635C95.6333 57.7655 95.2291 57.598 94.8077 57.598L94.8054 57.5957C94.5963 57.5954 94.3893 57.6364 94.1961 57.7163C94.0029 57.7962 93.8273 57.9134 93.6795 58.0612C93.5317 58.2091 93.4144 58.3846 93.3345 58.5778C93.2547 58.771 93.2137 58.9781 93.2139 59.1872L93.2162 66.5892L85.8141 66.587C85.392 66.587 84.9872 66.7547 84.6888 67.0531C84.3903 67.3516 84.2227 67.7564 84.2227 68.1785C84.2227 68.6005 84.3903 69.0053 84.6888 69.3038C84.9872 69.6022 85.392 69.7699 85.8141 69.7699L93.2162 69.7677L93.2139 77.1697C93.2139 77.3787 93.2551 77.5857 93.3351 77.7788C93.4151 77.9718 93.5323 78.1473 93.6801 78.2951C93.8279 78.4429 94.0033 78.5601 94.1964 78.6401C94.3895 78.72 94.5964 78.7612 94.8054 78.7612C95.0144 78.7612 95.2213 78.72 95.4144 78.6401C95.6075 78.5601 95.783 78.4429 95.9307 78.2951C96.0785 78.1473 96.1957 77.9718 96.2757 77.7788C96.3557 77.5857 96.3969 77.3787 96.3969 77.1697L96.3946 69.7677L103.797 69.7699C104.219 69.7699 104.624 69.6022 104.922 69.3038C105.22 69.0053 105.388 68.6005 105.388 68.1785C105.388 67.7564 105.22 67.3516 104.922 67.0531C104.624 66.7547 104.219 66.587 103.797 66.587L96.3946 66.5892L96.3969 59.1872C96.3968 58.7657 96.2293 58.3615 95.9313 58.0635Z" fill="#DAE1F4"/>
<circle cx="249.854" cy="280.448" r="16.1988" fill="#EF2A82"/>
<path d="M259.134 282.068L258.949 283.035C258.778 283.941 257.931 284.549 256.972 284.456L255.063 284.272C254.232 284.192 253.524 283.6 253.312 282.811L252.724 280.615C251.852 280.258 250.891 280.095 249.842 280.125C248.831 280.147 247.836 280.371 246.914 280.785L246.548 282.841C246.41 283.621 245.767 284.202 244.953 284.284L243.056 284.474C242.108 284.569 241.201 283.967 240.932 283.066L240.643 282.098C240.356 281.136 240.612 280.124 241.315 279.44C242.976 277.827 245.745 277.017 249.622 277.012C253.505 277.007 256.36 277.811 258.187 279.425C258.957 280.104 259.316 281.109 259.134 282.068Z" fill="white"/>
</svg>
