<svg width="771" height="729" viewBox="0 0 771 729" fill="none" xmlns="http://www.w3.org/2000/svg">
<rect x="3" width="744" height="729" rx="364.5" fill="url(#paint0_linear)" fill-opacity="0.2"/>
<path d="M750.269 638.386H49.3593C45.4907 638.386 42.3213 635.267 42.3213 631.357V631.171C42.3213 627.307 45.4441 624.142 49.3593 624.142H750.222C754.091 624.142 757.26 627.261 757.26 631.171V631.357C757.26 635.22 754.137 638.386 750.269 638.386Z" fill="#4951EC"/>
<path d="M609.694 535.561H130.831C122.535 535.561 115.823 529.277 115.823 521.55L106.734 194.178C106.734 186.451 113.446 180.167 121.743 180.167H623.351C631.647 180.167 638.359 186.451 638.359 194.178L624.703 521.55C624.703 529.324 617.991 535.561 609.694 535.561Z" fill="#7C9AF2"/>
<path d="M632.535 183.099C634.119 185.334 635.052 187.987 635.052 190.873L621.395 518.245C621.395 525.972 614.683 532.256 606.387 532.256H127.524C124.075 532.256 120.859 531.185 118.342 529.323C121.045 533.094 125.613 535.561 130.833 535.561H609.65C617.946 535.561 624.658 529.277 624.658 521.55L638.314 194.178C638.361 189.709 636.077 185.66 632.535 183.099Z" fill="#4951EC"/>
<path d="M136.658 497.252L127.569 203.813C127.569 196.086 134.281 189.802 142.577 189.802H607.784C616.08 189.802 622.792 196.086 622.792 203.813L609.135 497.252C609.135 504.979 602.423 511.263 594.127 511.263H151.666C143.369 511.263 136.658 504.979 136.658 497.252Z" fill="#7C9AF2"/>
<path d="M135.959 504.467L126.871 211.028C126.871 203.301 133.582 197.017 141.879 197.017H607.085C615.382 197.017 622.093 203.301 622.093 211.028L608.437 504.467C608.437 512.194 601.725 518.478 593.429 518.478H150.968C142.671 518.431 135.959 512.194 135.959 504.467Z" fill="#92B5F9"/>
<path d="M590.819 500.697H582.429C582.196 500.697 581.963 500.51 581.963 500.231C581.963 499.998 582.15 499.766 582.429 499.766H589.933L590.073 497.252C590.073 497.019 590.306 496.786 590.539 496.833C590.772 496.833 591.005 497.066 590.959 497.299L590.819 500.697ZM571.523 500.697H560.616C560.383 500.697 560.15 500.51 560.15 500.231C560.15 499.998 560.337 499.766 560.616 499.766H571.523C571.756 499.766 571.989 499.952 571.989 500.231C571.989 500.51 571.756 500.697 571.523 500.697ZM549.663 500.697H538.756C538.523 500.697 538.29 500.51 538.29 500.231C538.29 499.998 538.477 499.766 538.756 499.766H549.663C549.896 499.766 550.129 499.952 550.129 500.231C550.129 500.51 549.943 500.697 549.663 500.697ZM527.85 500.697H516.897C516.664 500.697 516.431 500.51 516.431 500.231C516.431 499.998 516.617 499.766 516.897 499.766H527.803C528.036 499.766 528.269 499.952 528.269 500.231C528.269 500.51 528.083 500.697 527.85 500.697ZM505.99 500.697H495.084C494.851 500.697 494.618 500.51 494.618 500.231C494.618 499.998 494.804 499.766 495.084 499.766H505.99C506.223 499.766 506.456 499.952 506.456 500.231C506.456 500.51 506.223 500.697 505.99 500.697ZM484.13 500.697H473.224C472.991 500.697 472.758 500.51 472.758 500.231C472.758 499.998 472.944 499.766 473.224 499.766H484.13C484.363 499.766 484.597 499.952 484.597 500.231C484.597 500.51 484.363 500.697 484.13 500.697ZM462.271 500.697H451.364C451.131 500.697 450.898 500.51 450.898 500.231C450.898 499.998 451.085 499.766 451.364 499.766H462.271C462.504 499.766 462.737 499.952 462.737 500.231C462.737 500.51 462.55 500.697 462.271 500.697ZM440.458 500.697H429.551C429.318 500.697 429.085 500.51 429.085 500.231C429.085 499.998 429.271 499.766 429.551 499.766H440.458C440.691 499.766 440.924 499.952 440.924 500.231C440.877 500.51 440.691 500.697 440.458 500.697ZM418.598 500.697H407.691C407.458 500.697 407.225 500.51 407.225 500.231C407.225 499.998 407.412 499.766 407.691 499.766H418.598C418.831 499.766 419.064 499.952 419.064 500.231C419.064 500.51 418.831 500.697 418.598 500.697ZM396.738 500.697H385.832C385.599 500.697 385.366 500.51 385.366 500.231C385.366 499.998 385.552 499.766 385.832 499.766H396.738C396.971 499.766 397.204 499.952 397.204 500.231C397.204 500.51 396.971 500.697 396.738 500.697ZM374.878 500.697H363.972C363.739 500.697 363.506 500.51 363.506 500.231C363.506 499.998 363.692 499.766 363.972 499.766H374.878C375.112 499.766 375.345 499.952 375.345 500.231C375.345 500.51 375.158 500.697 374.878 500.697ZM353.065 500.697H342.112C341.879 500.697 341.646 500.51 341.646 500.231C341.646 499.998 341.833 499.766 342.112 499.766H353.019C353.252 499.766 353.485 499.952 353.485 500.231C353.485 500.51 353.298 500.697 353.065 500.697ZM331.206 500.697H320.299C320.066 500.697 319.833 500.51 319.833 500.231C319.833 499.998 320.019 499.766 320.299 499.766H331.206C331.439 499.766 331.672 499.952 331.672 500.231C331.672 500.51 331.439 500.697 331.206 500.697ZM309.346 500.697H298.439C298.206 500.697 297.973 500.51 297.973 500.231C297.973 499.998 298.16 499.766 298.439 499.766H309.346C309.579 499.766 309.812 499.952 309.812 500.231C309.812 500.51 309.579 500.697 309.346 500.697ZM287.486 500.697H276.58C276.347 500.697 276.114 500.51 276.114 500.231C276.114 499.998 276.3 499.766 276.58 499.766H287.486C287.719 499.766 287.952 499.952 287.952 500.231C287.952 500.51 287.766 500.697 287.486 500.697ZM265.673 500.697H254.767C254.533 500.697 254.3 500.51 254.3 500.231C254.3 499.998 254.487 499.766 254.767 499.766H265.673C265.906 499.766 266.139 499.952 266.139 500.231C266.093 500.51 265.906 500.697 265.673 500.697ZM243.813 500.697H232.907C232.674 500.697 232.441 500.51 232.441 500.231C232.441 499.998 232.627 499.766 232.907 499.766H243.813C244.046 499.766 244.279 499.952 244.279 500.231C244.279 500.51 244.046 500.697 243.813 500.697ZM221.954 500.697H211.047C210.814 500.697 210.581 500.51 210.581 500.231C210.581 499.998 210.767 499.766 211.047 499.766H221.954C222.187 499.766 222.42 499.952 222.42 500.231C222.42 500.51 222.187 500.697 221.954 500.697ZM200.094 500.697H189.187C188.954 500.697 188.721 500.51 188.721 500.231C188.721 499.998 188.908 499.766 189.187 499.766H200.094C200.327 499.766 200.56 499.952 200.56 500.231C200.56 500.51 200.374 500.697 200.094 500.697ZM178.281 500.697H167.328C167.095 500.697 166.862 500.51 166.862 500.231C166.862 499.998 167.048 499.766 167.328 499.766H178.234C178.467 499.766 178.7 499.952 178.7 500.231C178.7 500.51 178.514 500.697 178.281 500.697ZM156.421 500.697H153.625L153.252 489.339C153.252 489.106 153.438 488.873 153.671 488.873C153.951 488.873 154.137 489.06 154.137 489.292L154.463 499.766H156.374C156.608 499.766 156.841 499.952 156.841 500.231C156.887 500.51 156.654 500.697 156.421 500.697ZM591.052 486.825C591.052 486.825 591.005 486.825 591.052 486.825C590.772 486.825 590.586 486.592 590.586 486.36L591.099 475.467C591.099 475.235 591.332 475.002 591.565 475.049C591.798 475.049 592.031 475.281 591.984 475.514L591.471 486.406C591.471 486.639 591.285 486.825 591.052 486.825ZM153.391 478.912C153.158 478.912 152.925 478.726 152.925 478.493L152.599 467.601C152.599 467.368 152.786 467.135 153.019 467.135C153.298 467.135 153.485 467.322 153.485 467.554L153.811 478.447C153.858 478.679 153.625 478.912 153.391 478.912ZM592.077 465.041C592.031 465.041 592.031 465.041 592.077 465.041C591.798 465.041 591.611 464.808 591.611 464.575L592.124 453.683C592.124 453.45 592.357 453.218 592.59 453.264C592.823 453.264 593.056 453.497 593.01 453.73L592.497 464.622C592.497 464.855 592.31 465.041 592.077 465.041ZM152.692 457.081C152.459 457.081 152.226 456.895 152.226 456.662L151.9 445.77C151.9 445.537 152.086 445.304 152.319 445.304C152.553 445.304 152.786 445.491 152.786 445.723L153.112 456.616C153.158 456.895 152.972 457.081 152.692 457.081ZM593.056 443.256C592.777 443.256 592.59 443.024 592.59 442.791L593.103 431.899C593.103 431.666 593.336 431.433 593.569 431.48C593.802 431.48 594.035 431.712 593.988 431.945L593.476 442.837C593.522 443.07 593.336 443.256 593.056 443.256ZM152.04 435.297C151.807 435.297 151.574 435.11 151.574 434.878L151.247 423.985C151.247 423.753 151.434 423.52 151.667 423.52C151.9 423.52 152.133 423.706 152.133 423.939L152.459 434.831C152.459 435.064 152.273 435.297 152.04 435.297ZM594.082 421.472C593.802 421.472 593.616 421.239 593.616 421.006L594.128 410.114C594.128 409.881 594.361 409.649 594.594 409.695C594.827 409.695 595.06 409.928 595.014 410.161L594.501 421.053C594.548 421.286 594.315 421.472 594.082 421.472ZM151.341 413.466C151.108 413.466 150.875 413.279 150.875 413.047L150.548 402.154C150.548 401.922 150.735 401.689 150.968 401.689C151.247 401.689 151.434 401.875 151.434 402.108L151.76 413C151.807 413.279 151.62 413.466 151.341 413.466ZM595.107 399.687C594.827 399.687 594.641 399.455 594.641 399.222L595.154 388.33C595.154 388.097 595.387 387.864 595.62 387.911C595.853 387.911 596.086 388.143 596.039 388.376L595.526 399.268C595.526 399.455 595.34 399.687 595.107 399.687ZM150.642 391.681C150.408 391.681 150.175 391.495 150.175 391.262L149.849 380.37C149.849 380.137 150.036 379.904 150.269 379.904C150.548 379.904 150.735 380.091 150.735 380.323L151.061 391.216C151.108 391.448 150.921 391.681 150.642 391.681C150.688 391.681 150.688 391.681 150.642 391.681ZM596.132 377.856C596.132 377.856 596.086 377.856 596.132 377.856C595.853 377.856 595.666 377.624 595.666 377.391L596.179 366.499C596.179 366.266 596.412 366.033 596.645 366.08C596.878 366.08 597.111 366.312 597.065 366.545L596.552 377.437C596.552 377.67 596.365 377.856 596.132 377.856ZM149.989 369.85C149.756 369.85 149.523 369.664 149.523 369.431L149.197 358.539C149.197 358.306 149.383 358.073 149.616 358.073C149.896 358.073 150.082 358.26 150.082 358.492L150.408 369.385C150.455 369.664 150.269 369.85 149.989 369.85ZM597.111 356.072C596.832 356.072 596.645 355.839 596.645 355.606L597.158 344.714C597.158 344.481 597.391 344.249 597.624 344.295C597.857 344.295 598.09 344.528 598.043 344.761L597.531 355.653C597.577 355.886 597.391 356.072 597.111 356.072ZM149.29 348.066C149.057 348.066 148.824 347.879 148.824 347.647L148.498 336.754C148.498 336.522 148.684 336.289 148.917 336.289C149.197 336.289 149.383 336.475 149.383 336.708L149.709 347.6C149.756 347.833 149.57 348.066 149.29 348.066C149.336 348.066 149.336 348.066 149.29 348.066ZM598.137 334.287C597.857 334.287 597.671 334.055 597.671 333.822L598.183 322.93C598.183 322.697 598.463 322.464 598.649 322.511C598.882 322.511 599.115 322.743 599.069 322.976L598.556 333.868C598.603 334.101 598.37 334.287 598.137 334.287ZM148.637 326.235C148.404 326.235 148.171 326.048 148.171 325.816L147.845 314.923C147.845 314.691 148.031 314.458 148.264 314.458C148.498 314.411 148.731 314.644 148.731 314.877L149.057 325.769C149.103 326.048 148.917 326.235 148.637 326.235ZM599.162 312.503C598.882 312.503 598.696 312.27 598.696 312.037L599.209 301.145C599.209 300.912 599.442 300.68 599.675 300.726C599.908 300.726 600.141 300.959 600.094 301.192L599.582 312.084C599.628 312.27 599.395 312.503 599.162 312.503ZM147.938 304.45C147.705 304.45 147.472 304.264 147.472 304.031L147.146 293.139C147.146 292.906 147.332 292.673 147.565 292.673C147.798 292.673 148.031 292.86 148.031 293.092L148.358 303.985C148.404 304.217 148.218 304.404 147.938 304.45C147.985 304.45 147.938 304.45 147.938 304.45ZM600.187 290.672C600.187 290.672 600.141 290.672 600.187 290.672C599.908 290.672 599.721 290.439 599.721 290.206L600.234 279.314C600.234 279.081 600.467 278.849 600.7 278.895C600.933 278.895 601.166 279.128 601.12 279.361L600.607 290.253C600.607 290.486 600.42 290.672 600.187 290.672ZM147.286 282.619C147.053 282.619 146.82 282.433 146.82 282.2L146.493 271.308C146.493 271.075 146.68 270.842 146.913 270.842C147.146 270.842 147.379 271.029 147.379 271.261L147.752 282.154C147.752 282.386 147.565 282.619 147.286 282.619ZM601.213 268.887C601.166 268.887 601.166 268.887 601.213 268.887C600.933 268.887 600.747 268.655 600.747 268.422L601.259 257.53C601.259 257.297 601.492 257.064 601.726 257.111C601.959 257.111 602.192 257.344 602.145 257.576L601.632 268.468C601.632 268.701 601.446 268.887 601.213 268.887ZM146.587 260.835C146.353 260.835 146.12 260.648 146.12 260.416L145.794 249.523C145.794 249.291 145.981 249.058 146.214 249.058C146.493 249.058 146.68 249.244 146.68 249.477L147.006 260.369C147.053 260.602 146.866 260.788 146.587 260.835C146.633 260.835 146.587 260.835 146.587 260.835ZM602.192 247.103C601.912 247.103 601.726 246.87 601.726 246.637L602.238 235.745C602.238 235.512 602.471 235.28 602.704 235.326C602.937 235.326 603.17 235.559 603.124 235.792L602.611 246.684C602.658 246.917 602.425 247.103 602.192 247.103ZM145.934 239.004C145.701 239.004 145.468 238.817 145.468 238.585L145.142 227.692C145.142 227.46 145.328 227.227 145.561 227.227C145.794 227.227 146.027 227.413 146.027 227.646L146.353 238.538C146.4 238.771 146.214 239.004 145.934 239.004ZM603.217 225.318C602.937 225.318 602.751 225.086 602.751 224.853L603.17 215.683H602.425C602.192 215.683 601.959 215.497 601.959 215.218C601.959 214.985 602.145 214.752 602.425 214.752H604.149L603.683 224.9C603.683 225.086 603.45 225.318 603.217 225.318ZM145.235 217.219C145.002 217.219 144.769 217.033 144.769 216.8L144.722 214.752H154.557C154.79 214.752 155.023 214.938 155.023 215.218C155.023 215.45 154.836 215.683 154.557 215.683H145.654L145.701 216.8C145.701 216.986 145.515 217.173 145.235 217.219C145.281 217.219 145.235 217.219 145.235 217.219ZM591.518 215.636H580.612C580.378 215.636 580.145 215.45 580.145 215.171C580.145 214.938 580.332 214.706 580.612 214.706H591.518C591.751 214.706 591.984 214.892 591.984 215.171C591.984 215.404 591.751 215.636 591.518 215.636ZM569.658 215.636H558.752C558.519 215.636 558.286 215.45 558.286 215.171C558.286 214.938 558.472 214.706 558.752 214.706H569.658C569.891 214.706 570.124 214.892 570.124 215.171C570.124 215.404 569.938 215.636 569.658 215.636ZM547.799 215.636H536.892C536.659 215.636 536.426 215.45 536.426 215.171C536.426 214.938 536.612 214.706 536.892 214.706H547.799C548.032 214.706 548.265 214.892 548.265 215.171C548.265 215.404 548.078 215.636 547.799 215.636ZM525.986 215.636H515.032C514.799 215.636 514.566 215.45 514.566 215.171C514.566 214.938 514.753 214.706 515.032 214.706H525.939C526.172 214.706 526.405 214.892 526.405 215.171C526.405 215.404 526.219 215.636 525.986 215.636ZM504.126 215.636H493.219C492.986 215.636 492.753 215.45 492.753 215.171C492.753 214.938 492.94 214.706 493.219 214.706H504.126C504.359 214.706 504.592 214.892 504.592 215.171C504.592 215.404 504.359 215.636 504.126 215.636ZM482.266 215.636H471.36C471.127 215.636 470.893 215.45 470.893 215.171C470.893 214.938 471.08 214.706 471.36 214.706H482.266C482.499 214.706 482.732 214.892 482.732 215.171C482.732 215.404 482.546 215.636 482.266 215.636ZM460.406 215.636H449.5C449.267 215.636 449.034 215.45 449.034 215.171C449.034 214.938 449.22 214.706 449.5 214.706H460.406C460.639 214.706 460.872 214.892 460.872 215.171C460.872 215.404 460.686 215.636 460.406 215.636ZM438.593 215.636H427.687C427.454 215.636 427.221 215.45 427.221 215.171C427.221 214.938 427.407 214.706 427.687 214.706H438.593C438.826 214.706 439.059 214.892 439.059 215.171C439.013 215.404 438.826 215.636 438.593 215.636ZM416.734 215.636H405.827C405.594 215.636 405.361 215.45 405.361 215.171C405.361 214.938 405.547 214.706 405.827 214.706H416.734C416.967 214.706 417.2 214.892 417.2 215.171C417.2 215.404 416.967 215.636 416.734 215.636ZM394.874 215.636H383.967C383.734 215.636 383.501 215.45 383.501 215.171C383.501 214.938 383.688 214.706 383.967 214.706H394.874C395.107 214.706 395.34 214.892 395.34 215.171C395.34 215.404 395.153 215.636 394.874 215.636ZM373.014 215.636H362.108C361.875 215.636 361.641 215.45 361.641 215.171C361.641 214.938 361.828 214.706 362.108 214.706H373.014C373.247 214.706 373.48 214.892 373.48 215.171C373.48 215.404 373.294 215.636 373.014 215.636ZM351.201 215.636H340.248C340.015 215.636 339.782 215.45 339.782 215.171C339.782 214.938 339.968 214.706 340.248 214.706H351.154C351.387 214.706 351.62 214.892 351.62 215.171C351.62 215.404 351.434 215.636 351.201 215.636ZM329.341 215.636H318.435C318.202 215.636 317.969 215.45 317.969 215.171C317.969 214.938 318.155 214.706 318.435 214.706H329.341C329.574 214.706 329.807 214.892 329.807 215.171C329.807 215.404 329.574 215.636 329.341 215.636ZM307.482 215.636H296.575C296.342 215.636 296.109 215.45 296.109 215.171C296.109 214.938 296.295 214.706 296.575 214.706H307.482C307.715 214.706 307.948 214.892 307.948 215.171C307.948 215.404 307.761 215.636 307.482 215.636ZM285.622 215.636H274.715C274.482 215.636 274.249 215.45 274.249 215.171C274.249 214.938 274.436 214.706 274.715 214.706H285.622C285.855 214.706 286.088 214.892 286.088 215.171C286.088 215.404 285.901 215.636 285.622 215.636ZM263.809 215.636H252.902C252.669 215.636 252.436 215.45 252.436 215.171C252.436 214.938 252.622 214.706 252.902 214.706H263.809C264.042 214.706 264.275 214.892 264.275 215.171C264.228 215.404 264.042 215.636 263.809 215.636ZM241.949 215.636H231.042C230.809 215.636 230.576 215.45 230.576 215.171C230.576 214.938 230.763 214.706 231.042 214.706H241.949C242.182 214.706 242.415 214.892 242.415 215.171C242.415 215.404 242.182 215.636 241.949 215.636ZM220.089 215.636H209.183C208.95 215.636 208.717 215.45 208.717 215.171C208.717 214.938 208.903 214.706 209.183 214.706H220.089C220.322 214.706 220.555 214.892 220.555 215.171C220.555 215.404 220.369 215.636 220.089 215.636ZM198.23 215.636H187.323C187.09 215.636 186.857 215.45 186.857 215.171C186.857 214.938 187.043 214.706 187.323 214.706H198.23C198.463 214.706 198.696 214.892 198.696 215.171C198.696 215.404 198.509 215.636 198.23 215.636ZM176.416 215.636H165.463C165.23 215.636 164.997 215.45 164.997 215.171C164.997 214.938 165.184 214.706 165.463 214.706H176.37C176.603 214.706 176.836 214.892 176.836 215.171C176.836 215.404 176.649 215.636 176.416 215.636Z" fill="#DDE8FE"/>
<path d="M359.777 260.555C359.777 260.555 366.255 326.002 363.459 348.298L347.472 517.407H485.388C485.388 517.407 477.651 373.295 477.651 362.402C477.651 351.51 475.367 260.555 475.367 260.555L453.741 249.663L399.348 248.965L359.777 260.555Z" fill="url(#paint1_linear)"/>
<path d="M397.111 249.989L369.892 257.623C369.892 257.623 380.798 311.991 387.277 318.461C393.802 324.978 386.158 329.819 391.612 335.265C397.065 340.711 427.361 381.72 427.361 381.72L397.111 249.989Z" fill="#92B5F9"/>
<path d="M455.137 251.758L427.404 381.72C427.404 381.72 456.908 329.632 459.471 327.072C461.988 324.559 459.471 313.899 459.471 308.872C459.471 303.845 475.179 260.415 475.179 260.415C475.179 260.415 460.776 251.758 455.137 251.758Z" fill="#92B5F9"/>
<path d="M399.394 248.965L370.264 251.897C370.264 251.897 380.797 305.428 387.276 311.898C393.801 318.414 386.157 323.255 391.611 328.702C397.064 334.148 427.36 381.673 427.36 381.673L399.394 248.965Z" fill="#DDE8FE"/>
<path d="M453.787 249.663L427.406 381.72C427.406 381.72 456.91 323.116 459.473 320.602C461.99 318.089 459.473 307.429 459.473 302.402C459.473 297.421 475.46 256.04 475.46 256.04C475.46 256.04 459.427 249.663 453.787 249.663Z" fill="#DDE8FE"/>
<path d="M423.537 517.407L427.406 381.72L426.567 517.407H423.537Z" fill="#92B5F9"/>
<path d="M438.08 535.561H334.281V546.453H438.08V535.561Z" fill="#7C9AF2"/>
<path d="M429.223 596.865H343.183L340.433 546.5H431.927L429.223 596.865Z" fill="#7C9AF2"/>
<path d="M431.927 546.5H340.433L343.183 596.865H354.509C355.627 589.045 357.818 580.666 362.106 573.963C369.796 561.86 407.643 557.066 431.507 555.251L431.927 546.5Z" fill="#4951EC"/>
<path d="M506.828 624.142H272.85C272.85 609.06 285.061 596.865 300.163 596.865H479.515C494.57 596.865 506.828 609.06 506.828 624.142Z" fill="#4951EC"/>
<path d="M254.487 267.351L246.563 238.957L211.606 247.894C211.606 247.894 216.594 263.395 220.043 265.489C222.606 267.072 230.297 271.773 234.212 274.147L265.44 336.01L287.906 308.267L254.487 267.351Z" fill="#F79D9C"/>
<path d="M419.623 108.204C419.623 108.204 446.237 104.945 457.61 110.391C468.982 115.791 491.308 137.715 485.389 180.213C485.389 180.213 490.189 181.749 491.541 188.22C492.893 194.736 493.033 206.327 481.753 217.079C470.474 227.832 451.504 226.622 441.716 226.622C431.928 226.622 404.382 218.383 397.344 203.208C390.306 187.987 419.623 108.204 419.623 108.204Z" fill="#0B0754"/>
<path d="M432.533 114.394C425.402 113.743 419.436 117.001 414.682 122.354C408.623 140.089 398.975 170.485 396.737 189.244C397.716 196.784 400.233 204.279 403.822 210.19C404.428 211.214 405.127 212.192 405.779 213.123C415.195 220.524 429.084 224.993 437.614 226.249C464.134 222.665 471.638 198.227 470.986 171.23C470.799 163.968 476.02 141.346 464.74 126.683C457.143 116.862 444.092 113.231 432.533 114.394Z" fill="#0B0754"/>
<path d="M406.013 207.397C406.013 207.397 407.365 225.83 406.013 234.209C404.661 242.588 399.395 248.965 399.395 248.965L427.407 381.72L453.788 249.663C453.788 249.663 447.216 245.66 445.351 234.209C443.487 222.758 443.533 193.293 443.533 193.293L406.013 207.397Z" fill="#FFBFBD"/>
<path d="M427.406 381.72L447.914 278.895C432.254 280.617 416.686 278.616 405.127 276.242L427.406 381.72Z" fill="#0B0754"/>
<path d="M447.914 278.895C447.774 278.895 447.635 278.942 447.495 278.942C442.368 299.935 430.576 346.483 426.567 350.486C422.699 354.349 410.953 303.053 405.174 276.242C405.174 276.242 405.174 276.242 405.127 276.242L427.36 381.673L447.914 278.895Z" fill="#0B0754"/>
<path opacity="0.53" d="M411.886 205.163C415.894 220.803 425.636 235.512 444.186 230.625C444.419 230.578 444.606 230.485 444.839 230.439C443.487 217.359 443.487 193.293 443.487 193.293L411.886 205.163Z" fill="#EF7F7F"/>
<path d="M437.614 118.072C437.614 118.072 453.787 115.558 462.643 128.545C471.499 141.532 467.444 163.316 467.444 168.763C467.444 174.209 470.054 213.775 444.232 219.919C418.411 226.063 409.648 197.855 409.648 180.819C409.648 163.782 415.987 120.166 437.614 118.072Z" fill="#FFBFBD"/>
<path opacity="0.53" d="M419.761 133.246C418.875 135.201 417.99 137.296 417.244 139.484C426.193 136.784 435.282 134.689 444.371 133.293C448.006 145.907 455.743 154.565 468.374 154.565C468.514 149.538 468.235 143.859 466.929 138.553C452.108 132.502 435.282 123.844 419.761 133.246Z" fill="#FD5E5A"/>
<path d="M249.312 240.679C248.986 240.307 223.165 215.729 218.038 217.266C209.508 219.5 228.431 233.557 230.482 236.211C231.508 237.514 232.44 239.19 233.232 240.772C232.58 240.958 231.927 241.145 231.368 241.284C226.52 242.448 213.517 244.868 211.652 247.894C211.652 247.894 211.279 264.884 215.754 264.977C220.228 265.07 224.749 263.441 229.55 263.907C231.927 264.139 234.397 262.976 236.262 261.719C236.541 261.533 236.821 261.3 237.101 261.114C236.495 262.138 236.308 263.348 236.961 264.605C239.245 269.26 255.092 261.253 255.791 258.274C256.49 255.342 252.948 245.194 249.312 240.679ZM245.677 256.087C244.232 256.459 241.435 257.436 239.291 258.973C238.686 257.39 235.656 249.197 236.169 245.939C238.359 243.612 243.207 243.519 245.537 244.543C245.863 244.822 246.096 245.194 246.19 245.706C246.935 248.732 248.52 255.388 245.677 256.087Z" fill="#FFBFBD"/>
<path d="M247.355 304.636C247.355 304.636 284.223 399.175 298.346 406.483C312.469 413.791 364.158 335.125 364.158 335.125C364.158 335.125 366.162 260.602 359.777 260.602C353.391 260.602 327.197 291.742 319.646 310.455C311.956 329.493 312.235 339.128 301.935 320.602C291.401 301.704 272.897 276.288 272.897 276.288C262.364 286.855 247.355 304.636 247.355 304.636Z" fill="#DDE8FE"/>
<path d="M457.656 110.531C457.656 110.531 448.567 109.414 443.067 113.696C437.614 118.025 425.542 120.073 418.504 153.448C411.466 186.87 417.152 190.733 417.152 190.733C417.152 190.733 424.656 206.187 414.962 218.01C405.267 229.834 386.344 225.365 375.717 219.127C360.289 210.097 363.039 178.724 369.518 158.196C370.403 155.31 370.869 153.634 371.941 151.214C373.992 146.606 374.645 141.299 377.628 136.458C387.183 120.772 404.568 106.388 435.377 107.18C435.33 107.273 449.22 106.481 457.656 110.531Z" fill="#0B0754"/>
<path d="M372.641 148.794C370.73 154.566 371.01 153.728 369.565 158.289C369.239 159.267 368.959 160.244 368.68 161.268C374.739 157.777 375.904 156.8 382.849 153.309C395.527 146.839 409.137 141.625 422.979 137.901C423.259 137.157 423.539 136.458 423.818 135.76C405.967 137.389 388.349 140.601 372.641 148.794Z" fill="#130025"/>
<path d="M376.464 137.11C410.209 119.468 432.907 117.885 471.64 120.399V129.709C439.153 129.848 407.039 138.646 380.052 152.378C372.781 156.101 368.913 158.615 368.866 158.662L376.464 137.11Z" fill="#7C9AF2"/>
<path d="M470.425 153.542C484.557 153.542 496.014 141.308 496.014 126.218C496.014 111.127 484.557 98.8942 470.425 98.8942C456.293 98.8942 444.837 111.127 444.837 126.218C444.837 141.308 456.293 153.542 470.425 153.542Z" fill="#8792CE"/>
<path d="M471.219 153.542C484.913 153.542 496.015 141.308 496.015 126.218C496.015 111.127 484.913 98.8942 471.219 98.8942C457.524 98.8942 446.423 111.127 446.423 126.218C446.423 141.308 457.524 153.542 471.219 153.542Z" fill="#EAE9F3"/>
<path d="M470.425 153.542C484.557 153.542 496.014 141.308 496.014 126.218C496.014 111.127 484.557 98.8942 470.425 98.8942C456.293 98.8942 444.837 111.127 444.837 126.218C444.837 141.308 456.293 153.542 470.425 153.542Z" fill="#4951EC"/>
<path d="M471.217 153.542C484.911 153.542 496.013 141.308 496.013 126.218C496.013 111.127 484.911 98.8942 471.217 98.8942C457.522 98.8942 446.421 111.127 446.421 126.218C446.421 141.308 457.522 153.542 471.217 153.542Z" fill="#92B5F9"/>
<path d="M461.755 121.004C461.755 111.928 465.764 103.875 471.963 98.9407C471.73 98.9407 471.45 98.9407 471.217 98.9407C457.514 98.9407 446.421 111.183 446.421 126.264C446.421 141.346 457.514 153.588 471.217 153.588C476.67 153.588 481.704 151.633 485.806 148.375C472.475 147.909 461.755 135.853 461.755 121.004Z" fill="#EAE9F3"/>
<path d="M475.319 125.101C475.319 127.335 473.688 129.15 471.637 129.15C469.586 129.15 467.955 127.335 467.955 125.101C467.955 122.866 469.586 121.051 471.637 121.051C473.688 121.051 475.319 122.82 475.319 125.101Z" fill="#7C9AF2"/>
<path d="M184.944 250.128C184.618 250.128 184.292 250.035 183.966 249.849C183.173 249.291 182.987 248.267 183.546 247.475L248.379 153.634C248.939 152.843 249.964 152.657 250.757 153.215C251.549 153.774 251.735 154.798 251.176 155.589L186.343 249.384C186.016 249.849 185.457 250.128 184.944 250.128Z" fill="#4951EC"/>
<path d="M73.6419 368.407C73.2225 368.407 72.803 368.267 72.4767 367.941C71.7776 367.29 71.731 366.219 72.3835 365.521L180.051 250.594C180.703 249.896 181.775 249.849 182.474 250.501C183.174 251.152 183.22 252.223 182.568 252.921L74.9004 367.848C74.5741 368.221 74.108 368.407 73.6419 368.407Z" fill="#4951EC"/>
<path d="M181.311 253.48C180.984 253.48 180.611 253.387 180.332 253.154L93.7318 191.199C92.986 190.64 92.7996 189.57 93.3589 188.825C93.9182 188.08 94.9902 187.894 95.736 188.452L182.336 250.408C183.082 250.966 183.268 252.037 182.709 252.782C182.336 253.247 181.823 253.48 181.311 253.48Z" fill="#4951EC"/>
<path d="M227.499 451.262C226.707 451.262 226.007 450.75 225.821 449.959L179.631 252.176C179.398 251.245 180.004 250.361 180.89 250.128C181.822 249.896 182.707 250.501 182.94 251.385L229.13 449.168C229.363 450.099 228.757 450.983 227.872 451.216C227.732 451.262 227.592 451.262 227.499 451.262Z" fill="#4951EC"/>
<path d="M199.858 256.69C202.581 246.453 196.478 235.951 186.228 233.232C175.978 230.513 165.461 236.607 162.739 246.844C160.017 257.081 166.119 267.584 176.369 270.302C186.619 273.021 197.136 266.927 199.858 256.69Z" fill="#4951EC"/>
<path d="M193.57 250.827C193.57 257.576 188.07 263.069 181.311 263.069C174.553 263.069 169.053 257.576 169.053 250.827C169.053 244.077 174.553 238.585 181.311 238.585C188.07 238.585 193.57 244.077 193.57 250.827Z" fill="#BADCFF"/>
<path d="M90.888 233.092H8.90236C4.0084 233.092 0 229.135 0 224.201V155.357C0 150.469 3.96179 146.466 8.90236 146.466H90.888C95.782 146.466 99.7904 150.423 99.7904 155.357V224.201C99.7904 229.135 95.782 233.092 90.888 233.092Z" fill="#E4EDFF"/>
<path d="M94.8028 147.397C95.4087 148.607 95.735 149.911 95.735 151.354V220.198C95.735 225.086 91.7732 229.089 86.8326 229.089H4.84704C3.44876 229.089 2.09709 228.763 0.885254 228.158C2.33014 231.091 5.35974 233.092 8.85543 233.092H90.8877C95.7816 233.092 99.79 229.136 99.79 224.201V155.357C99.79 151.866 97.7392 148.887 94.8028 147.397Z" fill="#4951EC"/>
<path d="M90.888 403.597H8.90236C4.0084 403.597 0 399.641 0 394.707V325.909C0 321.021 3.96179 317.018 8.90236 317.018H90.888C95.782 317.018 99.7904 320.975 99.7904 325.909V394.753C99.7904 399.641 95.782 403.597 90.888 403.597Z" fill="#E4EDFF"/>
<path d="M94.8028 317.949C95.4087 319.159 95.735 320.463 95.735 321.906V390.75C95.735 395.638 91.7732 399.641 86.8326 399.641H4.84704C3.44876 399.641 2.09709 399.315 0.885254 398.71C2.33014 401.642 5.35974 403.644 8.85543 403.644H90.8877C95.7816 403.644 99.79 399.687 99.79 394.753V325.909C99.79 322.418 97.7392 319.392 94.8028 317.949Z" fill="#4951EC"/>
<path d="M198.277 169.554H293.08C298.347 169.554 302.589 165.318 302.589 160.058V92.4237C302.589 87.1638 298.347 82.9279 293.08 82.9279H198.277C193.01 82.9279 188.769 87.1638 188.769 92.4237V160.058C188.816 165.271 193.057 169.554 198.277 169.554Z" fill="#E4EDFF"/>
<path d="M194.453 83.8589C193.8 85.0691 193.381 86.3725 193.381 87.8155V156.66C193.381 161.548 197.949 165.551 203.542 165.551H297.086C298.718 165.551 300.209 165.225 301.607 164.62C299.93 167.552 296.48 169.554 292.519 169.554H198.927C193.334 169.554 188.767 165.597 188.767 160.663V91.8186C188.813 88.3275 191.097 85.3019 194.453 83.8589Z" fill="#4951EC"/>
<path d="M186.344 419.703H281.147C286.414 419.703 290.655 423.939 290.655 429.199V496.833C290.655 502.093 286.414 506.329 281.147 506.329H186.344C181.077 506.329 176.835 502.093 176.835 496.833V429.199C176.835 423.985 181.077 419.703 186.344 419.703Z" fill="#E4EDFF"/>
<path d="M182.475 505.4C181.823 504.236 181.403 502.886 181.403 501.443V432.646C181.403 427.758 185.971 423.755 191.564 423.755H285.109C286.74 423.755 288.231 424.081 289.63 424.686C287.952 421.753 284.503 419.752 280.541 419.752H186.996C181.403 419.752 176.835 423.708 176.835 428.642V497.487C176.835 500.931 179.119 503.957 182.475 505.4Z" fill="#4951EC"/>
<path d="M36.1223 172.44C36.1223 174.069 34.8172 175.372 33.1859 175.372C31.5546 175.372 30.2495 174.069 30.2495 172.44C30.2495 170.811 31.5546 169.507 33.1859 169.507C34.8172 169.507 36.1223 170.811 36.1223 172.44Z" fill="#7C9AF2"/>
<path d="M69.1233 164.201C69.1233 165.225 68.2843 166.063 67.2589 166.063C66.2335 166.063 65.3945 165.225 65.3945 164.201C65.3945 163.177 66.2335 162.339 67.2589 162.339C68.2843 162.339 69.1233 163.177 69.1233 164.201Z" fill="#7C9AF2"/>
<path d="M47.9615 217.219C33.7923 217.219 22.2798 205.722 22.2798 191.571C22.2798 185.194 24.6102 179.096 28.8517 174.442L29.5042 173.743L29.9703 174.581C30.25 175.093 30.6694 175.512 31.1355 175.838L31.7881 176.257L31.2754 176.862C27.6865 180.912 25.6823 186.125 25.6823 191.571C25.6823 203.813 35.6566 213.775 47.9148 213.775C59.5671 213.775 69.1686 204.837 70.1008 193.34C65.8128 192.502 62.69 188.732 62.69 184.31V168.018L64.6942 164.992L65.3001 165.737C65.6263 166.156 66.0924 166.482 66.6517 166.621L67.5839 166.854L66.139 169.042V184.31C66.139 187.475 68.7492 190.082 71.9186 190.082C75.088 190.082 77.6981 187.475 77.6981 184.31V169.089L76.0668 166.854L76.999 166.575C77.5117 166.389 77.9778 166.063 78.304 165.644L78.8634 164.853L81.1938 167.971V184.356C81.1938 188.825 77.9778 192.595 73.6431 193.387C72.6177 206.792 61.5247 217.219 47.9615 217.219Z" fill="#7C9AF2"/>
<path d="M78.0246 164.201C78.0246 165.225 77.1857 166.063 76.1603 166.063C75.1349 166.063 74.2959 165.225 74.2959 164.201C74.2959 163.177 75.1349 162.339 76.1603 162.339C77.1857 162.339 78.0246 163.177 78.0246 164.201Z" fill="#7C9AF2"/>
<path d="M58.541 186.404H51.5962V179.469H43.9057V186.404H36.9609V194.085H43.9057V201.02H51.5962V194.085H58.541V186.404Z" fill="#7C9AF2"/>
<path d="M262.875 127.521H260.638L256.024 121.191L252.528 135.481L249.871 110.671L242.693 126.823L239.571 121.097L235.562 128.312L230.062 121.61L227.592 133.805L225.262 112.812L217.385 127.056H198.368C197.902 127.056 197.482 127.428 197.482 127.94C197.482 128.406 197.855 128.824 198.368 128.824H219.202L223.49 121.051L226.8 150.795L231.6 127.149L236.028 132.548L239.571 126.171L243.02 132.409L248.38 120.399L251.642 150.609L257.422 126.916L259.1 129.197H264.134C263.621 128.685 263.201 128.08 262.875 127.521Z" fill="#7C9AF2"/>
<path d="M279.702 115.931C279.702 115.931 282.639 111.834 288.465 111.834C293.685 111.834 297.227 116.024 297.227 120.911C297.227 126.544 292.333 133.246 279.656 139.065C266.978 133.246 262.084 126.544 262.084 120.911C262.084 116.024 265.673 111.834 270.847 111.834C276.766 111.834 279.702 115.931 279.702 115.931Z" fill="#FA7167"/>
<path opacity="0.66" d="M254.671 477.19L209.507 471.418C206.617 471.046 204.613 468.439 204.986 465.553L208.062 441.72C208.435 438.834 211.045 436.833 213.935 437.205L259.099 442.977C261.989 443.349 263.993 445.956 263.62 448.842L260.544 472.675C260.171 475.514 257.514 477.562 254.671 477.19Z" fill="white"/>
<path d="M227.078 446.329L225.867 443.536C225.494 442.744 224.701 442.232 223.816 442.232H202.981C201.77 442.232 200.744 443.21 200.744 444.467V458.617H200.791V485.243C200.791 486.453 201.77 487.477 203.028 487.477H264.506C265.717 487.477 266.743 486.5 266.743 485.243V449.866C266.743 448.656 265.764 447.632 264.506 447.632H229.129C228.244 447.678 227.451 447.12 227.078 446.329Z" fill="#7C9AF2"/>
<path d="M247.166 468.02C247.166 474.816 241.666 480.309 234.861 480.309C228.057 480.309 222.557 474.816 222.557 468.02C222.557 461.224 228.057 455.731 234.861 455.731C241.666 455.731 247.166 461.224 247.166 468.02Z" fill="#EAE9F3"/>
<path d="M244.464 464.668H238.312V458.478H231.507V464.668H225.308V471.464H231.507V477.609H238.312V471.464H244.464V464.668Z" fill="#FA7167"/>
<path d="M49.3307 351.178C51.7151 348.797 51.7151 344.936 49.3307 342.555C46.9462 340.173 43.0803 340.173 40.6958 342.555C38.3114 344.936 38.3114 348.797 40.6958 351.178C43.0803 353.559 46.9462 353.559 49.3307 351.178Z" fill="#FA7167"/>
<path d="M54.3166 363.45H63.1724V354.932H54.3166V363.45Z" fill="#7C9AF2"/>
<path d="M55.6235 366.302H61.8691V363.929H55.6235V366.302Z" fill="#7C9AF2"/>
<path d="M53.3689 347.879C53.3689 345.971 52.763 344.156 51.7842 342.666V336.801C53.1825 336.801 54.3477 335.637 54.3477 334.241V329.586H63.2034V334.241C63.2034 335.637 64.3687 336.801 65.7669 336.801V351.883C65.7669 353.186 64.6949 354.257 63.3899 354.257H54.1613C53.1825 354.257 52.2969 353.651 51.9706 352.767C52.8562 351.371 53.3689 349.695 53.3689 347.879Z" fill="#7C9AF2"/>
<path d="M52.1731 329.596H65.3169V326.477H52.1731V329.596Z" fill="#7C9AF2"/>
<path d="M34.7706 346.995C34.724 347.274 34.724 347.6 34.724 347.879C34.724 352.348 37.8935 356.072 42.0883 356.956C40.7832 357.887 39.7578 359.144 39.1985 360.727C38.1731 363.473 38.6392 366.499 39.8977 369.059C41.3892 372.131 43.9527 374.551 46.889 376.274L45.7704 380.137C30.4826 375.855 23.9573 358.911 34.7706 346.995Z" fill="#7C9AF2"/>
<path d="M38.6602 384.719H51.4312V376.154H38.6602V384.719Z" fill="#7C9AF2"/>
<path d="M27.9668 389.307H75.4616V387.911C75.4616 386.188 74.0633 384.745 72.2922 384.745H31.1362C29.4117 384.745 27.9668 386.142 27.9668 387.911V389.307Z" fill="#7C9AF2"/>
<path d="M46.628 373.531H71.0513V369.249H46.628V373.531Z" fill="white"/>
<path d="M475.133 260.416C475.133 260.416 470.426 312.363 477.51 351.929C479.282 361.89 506.781 366.266 521.789 377.577C546.818 396.382 564.25 421.798 568.725 431.898C578.885 427.337 578.792 381.673 573.246 363.566C567.233 351.51 475.133 260.416 475.133 260.416Z" fill="#DDE8FE"/>
<path d="M621.301 325.909L524.494 314.178L463.855 429.617H542.345L621.301 325.909Z" fill="#0B0754"/>
<path opacity="0.44" d="M542.347 429.618L621.303 325.909L524.496 314.225L522.771 317.53C537.919 321.487 567.19 330.75 571.525 344.202C576.186 358.539 542.347 408.811 527.712 429.664H542.347V429.618Z" fill="#0B0754"/>
<path d="M520.904 308.965L459.193 427.523L463.854 429.617L524.493 314.178L621.3 325.908L615.428 321.254L520.904 308.965Z" fill="#4951EC"/>
<path d="M692.939 306.405L698.346 327.072L715.778 320.323L712.655 302.03L692.939 306.405Z" fill="#FFCECD"/>
<path d="M615.101 259.531C613.61 257.39 603.403 244.31 601.631 245.52C599.907 246.731 606.152 255.528 607.131 256.878C607.131 256.878 603.542 256.599 601.771 260.602C600.606 263.302 608.017 276.149 611.14 281.223C613.843 280.385 617.898 277.126 617.758 274.287C617.758 269.027 616.22 261.16 615.101 259.531Z" fill="#FFCECD"/>
<path opacity="0.53" d="M708.181 303.007L692.939 306.405L694.897 313.946C698.719 313.294 702.681 311.2 705.058 307.103C705.71 306.079 706.876 304.636 708.181 303.007Z" fill="#F79D9C"/>
<path d="M687.857 616.368L685.759 628.192L676.391 628.89L678.022 608.129L687.857 616.368Z" fill="#FB9390"/>
<path d="M687.392 626.376C687.392 626.376 678.77 626.516 676.859 625.026C674.948 623.537 672.99 626.423 669.914 630.286C666.838 634.15 655.465 633.684 654.067 636.71C652.995 639.037 686.833 638.339 688.558 638.292C689.77 638.292 687.392 626.376 687.392 626.376Z" fill="#0B0754"/>
<path d="M713.214 614.506L711.116 626.376L701.748 627.028L703.333 606.267L713.214 614.506Z" fill="#FB9390"/>
<path d="M712.749 624.514C712.749 624.514 704.126 624.654 702.216 623.164C700.305 621.675 698.347 624.561 695.271 628.424C692.195 632.288 681.428 632.846 679.936 635.825C678.398 638.804 712.423 638.339 713.169 637.361C713.914 636.477 712.749 624.514 712.749 624.514Z" fill="#0B0754"/>
<path d="M693.406 453.311L694.385 538.121L701.004 620.557L713.402 622.652C713.402 622.652 723.702 476.957 734.376 460.898C745.049 444.839 732.978 418.26 732.884 418.213L693.406 453.311Z" fill="#3E4EDD"/>
<path d="M728.549 458.012C733.163 451.076 736.519 441.906 735.68 431.48C735.4 428.082 729.947 424.358 729.295 421.472L693.452 453.311L694.431 538.121L698.113 584.064C704.732 544.498 716.99 487.71 719.46 471.418C720.485 469.928 723.981 464.854 728.549 458.012Z" fill="#4951EC"/>
<path d="M679.191 413.698C679.191 413.698 672.899 491.061 672.386 516.942C671.873 543.381 675.183 622.652 675.183 622.652L689.771 622.699C689.771 622.699 711.444 493.761 715.033 469.649C715.033 469.649 712.983 473.14 723.656 457.034C734.33 440.975 726.499 418.307 726.453 418.26L707.483 425.335L679.191 413.698Z" fill="#4951EC"/>
<path d="M744.909 376.134L731.439 398.71L737.312 412.162C737.312 412.162 773.014 384.094 769.985 376.413C767.421 369.943 731.719 331.681 722.07 321.161C720.346 319.252 717.596 318.601 715.172 319.439L698.626 325.164C698.579 325.117 746.4 371.153 744.909 376.134Z" fill="#E8605D"/>
<path d="M684.084 319.113C684.084 319.113 679.842 427.989 668.982 450.052C668.982 450.052 718.342 442.791 740.994 442.791C740.994 442.791 740.481 350.579 729.528 330.145C718.528 309.664 694.757 313.434 684.084 319.113Z" fill="#FA7167"/>
<path d="M709.065 359.237C719.645 353.651 723.001 345.878 723.234 336.01C723.374 328.841 699.277 332.565 683.43 333.589C683.15 339.175 682.731 346.064 682.265 353.744C688.324 360.401 701.421 363.287 709.065 359.237Z" fill="#E8605D"/>
<path d="M628.384 323.674C628.384 323.674 662.549 352.907 689.769 351.836C716.988 350.765 720.577 344.202 722.908 336.941C725.238 329.679 709.717 319.764 694.15 316.785C678.582 313.806 650.803 314.086 646.562 310.176C642.32 306.265 620.368 276.707 618.55 271.587L605.359 277.22L628.384 323.674Z" fill="#FA7167"/>
<path d="M700.025 272.704C700.025 272.704 695.411 274.985 691.449 280.804C687.534 286.622 683.293 289.741 683.293 289.741L685.157 292.72C685.157 292.72 680.962 295.746 681.335 300.354C682.221 310.501 697.974 312.317 705.805 306.405C707.949 304.823 714.521 302.774 716.711 299.19C722.491 289.508 720.813 274.613 700.025 272.704Z" fill="#FFCECD"/>
<path d="M707.762 294.442C707.762 294.442 702.541 284.76 705.012 277.964C705.012 277.964 699.279 277.871 694.665 275.265C686.368 270.563 696.436 253.154 708.927 265.583C708.927 265.583 707.855 257.157 716.664 258.647C725.473 260.136 728.689 263.674 727.104 272.053C725.52 280.431 729.155 276.708 731.859 281.595C734.562 286.483 720.393 304.031 713.774 304.683C707.156 305.335 707.156 305.335 707.156 305.335C707.156 305.335 716.617 300.028 713.961 296.025C711.304 292.022 707.762 294.442 707.762 294.442Z" fill="#0B0754"/>
<path d="M503.475 389.773C505.246 388.376 519.974 397.5 528.457 402.992C528.457 402.899 528.504 402.759 528.504 402.666C520.534 396.755 506.597 389.726 509.767 387.678C511.398 386.654 546.402 400.711 546.448 400.711C550.131 402.387 550.317 402.527 554.092 404.202C553.207 402.015 544.025 387.119 550.224 387.864L570.685 414.583C574.134 420.262 574.041 423.706 573.155 426.685C572.083 430.316 566.956 440.091 558.613 442.093C550.55 444.001 528.737 431.666 525.334 428.501C521.652 425.335 496.623 403.504 500.631 397.406C500.631 397.406 521.512 417.748 523.703 415.234C523.843 414.629 503.055 400.898 501.47 395.498C500.305 391.634 518.436 403.365 526.406 409.276C519.229 403.365 502.263 390.75 503.475 389.773Z" fill="#FB9390"/>
<path d="M123.514 637.967H59.2863C45.2569 637.967 33.8843 626.609 33.8843 612.598V449.634C33.8843 435.623 45.2569 424.265 59.2863 424.265H123.514C137.543 424.265 148.916 435.623 148.916 449.634V612.598C148.916 626.609 137.543 637.967 123.514 637.967Z" fill="#4951EC"/>
<path d="M123.513 424.265H120.25C134.279 424.265 145.652 435.622 145.652 449.633V612.598C145.652 626.609 134.279 637.967 120.25 637.967H123.513C137.542 637.967 148.915 626.609 148.915 612.598V449.633C148.915 435.622 137.542 424.265 123.513 424.265Z" fill="#4951EC"/>
<path d="M59.2878 634.708C47.0762 634.708 37.1484 624.793 37.1484 612.598V449.633C37.1484 437.438 47.0762 427.523 59.2878 427.523H123.515C135.727 427.523 145.655 437.438 145.655 449.633V612.598C145.655 624.793 135.727 634.708 123.515 634.708H59.2878Z" fill="#E4EDFF"/>
<path d="M103.148 438.881H81.5209C80.8684 438.881 80.3091 438.369 80.3091 437.67C80.3091 437.019 80.8218 436.46 81.5209 436.46H103.148C103.8 436.46 104.359 436.972 104.359 437.67C104.313 438.369 103.8 438.881 103.148 438.881Z" fill="#7C9AF2"/>
<path d="M105.337 446.84H79.3295C78.5837 446.84 78.0244 446.235 78.0244 445.537C78.0244 444.792 78.6303 444.234 79.3295 444.234H105.337C106.083 444.234 106.642 444.839 106.642 445.537C106.642 446.235 106.037 446.84 105.337 446.84Z" fill="#7C9AF2"/>
<path d="M72.1038 445.537C72.1038 446.515 71.3114 447.352 70.286 447.352C69.3072 447.352 68.4683 446.561 68.4683 445.537C68.4683 444.56 69.2606 443.722 70.286 443.722C71.3114 443.722 72.1038 444.513 72.1038 445.537Z" fill="#7C9AF2"/>
<path d="M91.4002 630.565C96.806 630.565 101.188 626.189 101.188 620.79C101.188 615.392 96.806 611.015 91.4002 611.015C85.9945 611.015 81.6123 615.392 81.6123 620.79C81.6123 626.189 85.9945 630.565 91.4002 630.565Z" fill="#92B5F9"/>
<path d="M89.7708 630.565C95.1766 630.565 99.5588 626.189 99.5588 620.79C99.5588 615.392 95.1766 611.015 89.7708 611.015C84.3651 611.015 79.9829 615.392 79.9829 620.79C79.9829 626.189 84.3651 630.565 89.7708 630.565Z" fill="#DDE8FE"/>
<path d="M134.002 605.383H48.4273C45.5375 605.383 43.207 603.055 43.207 600.169V468.299C43.207 465.413 45.5375 463.086 48.4273 463.086H134.002C136.892 463.086 139.222 465.413 139.222 468.299V600.169C139.222 603.055 136.892 605.383 134.002 605.383Z" fill="#92B5F9"/>
<path d="M45.3511 599.983V468.485C45.3511 466.903 46.6095 465.646 48.1942 465.646H134.142C135.726 465.646 136.985 466.903 136.985 468.485V599.937C136.985 601.519 135.726 602.776 134.142 602.776H48.2409C46.6561 602.823 45.3511 601.519 45.3511 599.983Z" fill="white"/>
<path d="M134.375 465.646H48.0078C46.5629 465.646 45.3511 467.042 45.3511 468.718V488.594H137.031V468.718C137.031 467.042 135.866 465.646 134.375 465.646Z" fill="#BED1F9"/>
<path d="M118.901 492.83H66.7915V496.321H118.901V492.83Z" fill="#7C9AF2"/>
<path d="M54.4868 494.552L59.4274 497.903V491.247L54.4868 494.552Z" fill="#7C9AF2"/>
<path d="M127.569 494.552L122.628 497.903V491.247L127.569 494.552Z" fill="#7C9AF2"/>
<path d="M75.0888 482.217H52.4368C50.1063 482.217 48.1953 480.308 48.1953 477.981V475.747C48.1953 473.419 50.1063 471.511 52.4368 471.511H75.0888C77.4193 471.511 79.3303 473.419 79.3303 475.747V477.981C79.3303 480.308 77.4193 482.217 75.0888 482.217Z" fill="#7C9AF2"/>
<path d="M130.319 482.217H124.819C123.607 482.217 122.628 481.239 122.628 480.029V473.699C122.628 472.488 123.607 471.511 124.819 471.511H130.319C131.531 471.511 132.51 472.488 132.51 473.699V480.029C132.51 481.239 131.531 482.217 130.319 482.217Z" fill="#7C9AF2"/>
<path d="M128.362 473.28H126.777V480.215H128.362V473.28Z" fill="white"/>
<path d="M124.617 475.812V477.674H130.537V475.812H124.617Z" fill="white"/>
<path d="M60.1251 510.425H49.9644V597.982H60.1251V510.425Z" fill="#DDE8FE"/>
<path d="M72.2917 510.425H62.1309V597.982H72.2917V510.425Z" fill="#DDE8FE"/>
<path d="M84.5495 510.425H74.3887V597.982H84.5495V510.425Z" fill="#DDE8FE"/>
<path d="M96.8083 510.425H86.6475V597.982H96.8083V510.425Z" fill="#DDE8FE"/>
<path d="M109.065 510.425H98.9043V597.982H109.065V510.425Z" fill="#DDE8FE"/>
<path d="M121.324 510.425H111.164V597.982H121.324V510.425Z" fill="#DDE8FE"/>
<path d="M133.584 510.425H123.423V597.982H133.584V510.425Z" fill="#DDE8FE"/>
<path d="M60.1251 500.417H49.9644V507.074H60.1251V500.417Z" fill="#7C9AF2"/>
<path d="M72.2917 500.417H62.1309V507.074H72.2917V500.417Z" fill="#7C9AF2"/>
<path d="M84.5495 500.417H74.3887V507.074H84.5495V500.417Z" fill="#7C9AF2"/>
<path d="M96.8083 500.417H86.6475V507.074H96.8083V500.417Z" fill="#7C9AF2"/>
<path d="M109.065 500.417H98.9043V507.074H109.065V500.417Z" fill="#7C9AF2"/>
<path d="M121.324 500.417H111.164V507.074H121.324V500.417Z" fill="#FA7167"/>
<path d="M133.584 500.417H123.423V507.074H133.584V500.417Z" fill="#FA7167"/>
<path d="M134.562 520.526H48.1953V522.714H134.562V520.526Z" fill="white"/>
<path d="M134.562 533.606H48.1953V535.794H134.562V533.606Z" fill="white"/>
<path d="M134.562 546.686H48.1953V548.874H134.562V546.686Z" fill="white"/>
<path d="M134.562 559.719H48.1953V561.907H134.562V559.719Z" fill="white"/>
<path d="M134.562 572.799H48.1953V574.987H134.562V572.799Z" fill="white"/>
<path d="M134.375 585.879H48.0078V588.067H134.375V585.879Z" fill="white"/>
<path d="M90.0494 536.585L81.7529 533.001C82.0326 533.373 92.473 546.081 92.1934 545.755C94.2908 541.054 98.9517 530.627 101.096 525.832L90.0494 536.585Z" fill="#FA7167"/>
<defs>
<linearGradient id="paint0_linear" x1="198.939" y1="158.092" x2="564.578" y2="623.185" gradientUnits="userSpaceOnUse">
<stop stop-color="#6196FF"/>
<stop offset="1" stop-color="#5790FF" stop-opacity="0.34"/>
</linearGradient>
<linearGradient id="paint1_linear" x1="416.625" y1="326.856" x2="416.43" y2="517.407" gradientUnits="userSpaceOnUse">
<stop stop-color="#DDE8FE"/>
<stop offset="1" stop-color="white" stop-opacity="0"/>
</linearGradient>
</defs>
</svg>
