<svg width="798" height="563" viewBox="0 0 798 563" fill="none" xmlns="http://www.w3.org/2000/svg">
<path d="M159.819 553.926C159.819 553.926 107.307 507.696 37.6974 354.234C-31.9126 200.772 -5.41726 20.0235 119.663 2.64384C244.743 -14.7358 341.849 59.258 341.849 59.258C341.849 59.258 481.374 14.7661 592.706 45.1805C704.039 75.6383 693.119 224.799 693.119 224.799C693.119 224.799 763.338 266.206 792.008 360.317C820.679 454.427 722.094 553.535 722.094 553.535L159.819 553.926Z" fill="#6286FF"/>
<path d="M773.431 562.789H119.185C115.574 562.789 112.615 559.878 112.615 556.229V556.055C112.615 552.449 115.53 549.494 119.185 549.494H773.388C776.999 549.494 779.957 552.405 779.957 556.055V556.229C779.957 559.835 777.042 562.789 773.431 562.789Z" fill="#4951EC"/>
<path d="M642.217 466.81H195.234C187.49 466.81 181.225 460.945 181.225 453.732L172.741 148.155C172.741 140.942 179.006 135.077 186.75 135.077H654.964C662.708 135.077 668.973 140.942 668.973 148.155L656.226 453.732C656.226 460.988 649.961 466.81 642.217 466.81Z" fill="#EAE9F3"/>
<path d="M663.535 137.814C665.014 139.899 665.884 142.376 665.884 145.07L653.137 450.647C653.137 457.86 646.872 463.725 639.128 463.725H192.145C188.925 463.725 185.924 462.726 183.574 460.988C186.098 464.507 190.361 466.81 195.234 466.81H642.173C649.917 466.81 656.182 460.945 656.182 453.732L668.93 148.155C668.973 143.984 666.841 140.203 663.535 137.814Z" fill="#4951EC"/>
<path d="M200.672 431.052L192.188 157.149C192.188 149.936 198.453 144.07 206.197 144.07H640.433C648.177 144.07 654.441 149.936 654.441 157.149L641.694 431.052C641.694 438.264 635.429 444.13 627.685 444.13H214.681C206.937 444.13 200.672 438.264 200.672 431.052Z" fill="#7C9AF2"/>
<path d="M200.019 437.786L191.536 163.883C191.536 156.671 197.801 150.805 205.545 150.805H639.78C647.524 150.805 653.789 156.671 653.789 163.883L641.042 437.786C641.042 444.999 634.777 450.864 627.033 450.864H214.028C206.284 450.821 200.019 444.999 200.019 437.786Z" fill="#92B5F9"/>
<path d="M624.597 434.267H616.766C616.548 434.267 616.331 434.093 616.331 433.832C616.331 433.615 616.505 433.398 616.766 433.398H623.771L623.901 431.052C623.901 430.834 624.119 430.617 624.336 430.661C624.554 430.661 624.771 430.878 624.728 431.095L624.597 434.267ZM606.586 434.267H596.405C596.188 434.267 595.97 434.093 595.97 433.832C595.97 433.615 596.144 433.398 596.405 433.398H606.586C606.803 433.398 607.021 433.572 607.021 433.832C607.021 434.093 606.803 434.267 606.586 434.267ZM586.181 434.267H576.001C575.783 434.267 575.566 434.093 575.566 433.832C575.566 433.615 575.74 433.398 576.001 433.398H586.181C586.399 433.398 586.616 433.572 586.616 433.832C586.616 434.093 586.442 434.267 586.181 434.267ZM565.82 434.267H555.596C555.379 434.267 555.161 434.093 555.161 433.832C555.161 433.615 555.335 433.398 555.596 433.398H565.777C565.994 433.398 566.212 433.572 566.212 433.832C566.212 434.093 566.038 434.267 565.82 434.267ZM545.416 434.267H535.235C535.018 434.267 534.8 434.093 534.8 433.832C534.8 433.615 534.974 433.398 535.235 433.398H545.416C545.633 433.398 545.851 433.572 545.851 433.832C545.851 434.093 545.633 434.267 545.416 434.267ZM525.011 434.267H514.831C514.613 434.267 514.396 434.093 514.396 433.832C514.396 433.615 514.57 433.398 514.831 433.398H525.011C525.229 433.398 525.447 433.572 525.447 433.832C525.447 434.093 525.229 434.267 525.011 434.267ZM504.607 434.267H494.427C494.209 434.267 493.992 434.093 493.992 433.832C493.992 433.615 494.166 433.398 494.427 433.398H504.607C504.825 433.398 505.042 433.572 505.042 433.832C505.042 434.093 504.868 434.267 504.607 434.267ZM484.246 434.267H474.066C473.848 434.267 473.631 434.093 473.631 433.832C473.631 433.615 473.805 433.398 474.066 433.398H484.246C484.464 433.398 484.681 433.572 484.681 433.832C484.638 434.093 484.464 434.267 484.246 434.267ZM463.842 434.267H453.661C453.444 434.267 453.226 434.093 453.226 433.832C453.226 433.615 453.4 433.398 453.661 433.398H463.842C464.059 433.398 464.277 433.572 464.277 433.832C464.277 434.093 464.059 434.267 463.842 434.267ZM443.437 434.267H433.257C433.039 434.267 432.822 434.093 432.822 433.832C432.822 433.615 432.996 433.398 433.257 433.398H443.437C443.655 433.398 443.872 433.572 443.872 433.832C443.872 434.093 443.655 434.267 443.437 434.267ZM423.033 434.267H412.852C412.635 434.267 412.417 434.093 412.417 433.832C412.417 433.615 412.591 433.398 412.852 433.398H423.033C423.25 433.398 423.468 433.572 423.468 433.832C423.468 434.093 423.294 434.267 423.033 434.267ZM402.672 434.267H392.448C392.23 434.267 392.013 434.093 392.013 433.832C392.013 433.615 392.187 433.398 392.448 433.398H402.628C402.846 433.398 403.064 433.572 403.064 433.832C403.064 434.093 402.89 434.267 402.672 434.267ZM382.268 434.267H372.087C371.87 434.267 371.652 434.093 371.652 433.832C371.652 433.615 371.826 433.398 372.087 433.398H382.268C382.485 433.398 382.703 433.572 382.703 433.832C382.703 434.093 382.485 434.267 382.268 434.267ZM361.863 434.267H351.683C351.465 434.267 351.248 434.093 351.248 433.832C351.248 433.615 351.422 433.398 351.683 433.398H361.863C362.081 433.398 362.298 433.572 362.298 433.832C362.298 434.093 362.081 434.267 361.863 434.267ZM341.459 434.267H331.278C331.061 434.267 330.843 434.093 330.843 433.832C330.843 433.615 331.017 433.398 331.278 433.398H341.459C341.676 433.398 341.894 433.572 341.894 433.832C341.894 434.093 341.72 434.267 341.459 434.267ZM321.098 434.267H310.917C310.7 434.267 310.482 434.093 310.482 433.832C310.482 433.615 310.656 433.398 310.917 433.398H321.098C321.315 433.398 321.533 433.572 321.533 433.832C321.489 434.093 321.315 434.267 321.098 434.267ZM300.693 434.267H290.513C290.295 434.267 290.078 434.093 290.078 433.832C290.078 433.615 290.252 433.398 290.513 433.398H300.693C300.911 433.398 301.128 433.572 301.128 433.832C301.128 434.093 300.911 434.267 300.693 434.267ZM280.289 434.267H270.109C269.891 434.267 269.673 434.093 269.673 433.832C269.673 433.615 269.848 433.398 270.109 433.398H280.289C280.507 433.398 280.724 433.572 280.724 433.832C280.724 434.093 280.507 434.267 280.289 434.267ZM259.885 434.267H249.704C249.487 434.267 249.269 434.093 249.269 433.832C249.269 433.615 249.443 433.398 249.704 433.398H259.885C260.102 433.398 260.32 433.572 260.32 433.832C260.32 434.093 260.146 434.267 259.885 434.267ZM239.524 434.267H229.3C229.082 434.267 228.865 434.093 228.865 433.832C228.865 433.615 229.039 433.398 229.3 433.398H239.48C239.698 433.398 239.915 433.572 239.915 433.832C239.915 434.093 239.741 434.267 239.524 434.267ZM219.119 434.267H216.509L216.161 423.665C216.161 423.448 216.335 423.231 216.552 423.231C216.813 423.231 216.987 423.405 216.987 423.622L217.292 433.398H219.076C219.293 433.398 219.511 433.572 219.511 433.832C219.554 434.093 219.337 434.267 219.119 434.267ZM624.815 421.319C624.815 421.319 624.771 421.319 624.815 421.319C624.554 421.319 624.38 421.102 624.38 420.885L624.858 410.718C624.858 410.5 625.076 410.283 625.293 410.327C625.511 410.327 625.728 410.544 625.685 410.761L625.206 420.928C625.206 421.145 625.032 421.319 624.815 421.319ZM216.291 413.933C216.074 413.933 215.856 413.759 215.856 413.542L215.552 403.375C215.552 403.157 215.726 402.94 215.943 402.94C216.204 402.94 216.378 403.114 216.378 403.331L216.683 413.498C216.726 413.716 216.509 413.933 216.291 413.933ZM625.772 400.985C625.728 400.985 625.728 400.985 625.772 400.985C625.511 400.985 625.337 400.768 625.337 400.55L625.815 390.383C625.815 390.166 626.033 389.949 626.25 389.992C626.468 389.992 626.685 390.21 626.642 390.427L626.163 400.594C626.163 400.811 625.989 400.985 625.772 400.985ZM215.639 393.555C215.421 393.555 215.204 393.381 215.204 393.164L214.899 382.997C214.899 382.78 215.073 382.563 215.291 382.563C215.508 382.563 215.726 382.736 215.726 382.954L216.03 393.121C216.074 393.381 215.9 393.555 215.639 393.555ZM626.685 380.651C626.424 380.651 626.25 380.434 626.25 380.216L626.729 370.049C626.729 369.832 626.947 369.615 627.164 369.658C627.382 369.658 627.599 369.875 627.556 370.093L627.077 380.26C627.121 380.477 626.947 380.651 626.685 380.651ZM215.03 373.221C214.812 373.221 214.595 373.047 214.595 372.83L214.29 362.663C214.29 362.446 214.464 362.228 214.682 362.228C214.899 362.228 215.117 362.402 215.117 362.619L215.421 372.786C215.421 373.004 215.247 373.221 215.03 373.221ZM627.643 360.317C627.382 360.317 627.208 360.099 627.208 359.882L627.686 349.715C627.686 349.498 627.904 349.281 628.121 349.324C628.339 349.324 628.556 349.541 628.513 349.758L628.034 359.926C628.078 360.143 627.86 360.317 627.643 360.317ZM214.377 352.843C214.16 352.843 213.942 352.67 213.942 352.452L213.637 342.285C213.637 342.068 213.812 341.851 214.029 341.851C214.29 341.851 214.464 342.025 214.464 342.242L214.769 352.409C214.812 352.67 214.638 352.843 214.377 352.843ZM628.6 339.982C628.339 339.982 628.165 339.765 628.165 339.548L628.643 329.381C628.643 329.164 628.861 328.946 629.078 328.99C629.296 328.99 629.513 329.207 629.47 329.424L628.991 339.591C628.991 339.765 628.817 339.982 628.6 339.982ZM213.725 332.509C213.507 332.509 213.289 332.335 213.289 332.118L212.985 321.951C212.985 321.734 213.159 321.517 213.376 321.517C213.637 321.517 213.812 321.69 213.812 321.908L214.116 332.075C214.16 332.292 213.986 332.509 213.725 332.509C213.768 332.509 213.768 332.509 213.725 332.509ZM629.557 319.605C629.557 319.605 629.513 319.605 629.557 319.605C629.296 319.605 629.122 319.388 629.122 319.17L629.6 309.003C629.6 308.786 629.818 308.569 630.035 308.612C630.253 308.612 630.47 308.829 630.427 309.047L629.948 319.214C629.948 319.431 629.774 319.605 629.557 319.605ZM213.115 312.132C212.898 312.132 212.68 311.958 212.68 311.741L212.376 301.573C212.376 301.356 212.55 301.139 212.767 301.139C213.028 301.139 213.202 301.313 213.202 301.53L213.507 311.697C213.55 311.958 213.376 312.132 213.115 312.132ZM630.47 299.271C630.209 299.271 630.035 299.053 630.035 298.836L630.514 288.669C630.514 288.452 630.732 288.235 630.949 288.278C631.167 288.278 631.384 288.495 631.341 288.713L630.862 298.88C630.906 299.097 630.732 299.271 630.47 299.271ZM212.463 291.797C212.245 291.797 212.028 291.624 212.028 291.406L211.723 281.239C211.723 281.022 211.897 280.805 212.115 280.805C212.376 280.805 212.55 280.979 212.55 281.196L212.854 291.363C212.898 291.58 212.724 291.797 212.463 291.797C212.506 291.797 212.506 291.797 212.463 291.797ZM631.428 278.936C631.167 278.936 630.993 278.719 630.993 278.502L631.471 268.335C631.471 268.118 631.732 267.9 631.906 267.944C632.124 267.944 632.341 268.161 632.298 268.378L631.819 278.545C631.863 278.763 631.645 278.936 631.428 278.936ZM211.854 271.42C211.636 271.42 211.419 271.246 211.419 271.029L211.114 260.862C211.114 260.644 211.288 260.427 211.506 260.427C211.723 260.384 211.941 260.601 211.941 260.818L212.245 270.985C212.289 271.246 212.115 271.42 211.854 271.42ZM632.385 258.602C632.124 258.602 631.95 258.385 631.95 258.168L632.428 248.001C632.428 247.783 632.646 247.566 632.863 247.61C633.081 247.61 633.298 247.827 633.255 248.044L632.776 258.211C632.82 258.385 632.602 258.602 632.385 258.602ZM211.201 251.086C210.984 251.086 210.766 250.912 210.766 250.695L210.462 240.527C210.462 240.31 210.636 240.093 210.853 240.093C211.071 240.093 211.288 240.267 211.288 240.484L211.593 250.651C211.636 250.868 211.462 251.042 211.201 251.086C211.245 251.086 211.201 251.086 211.201 251.086ZM633.342 238.225C633.342 238.225 633.298 238.225 633.342 238.225C633.081 238.225 632.907 238.007 632.907 237.79L633.385 227.623C633.385 227.406 633.603 227.189 633.82 227.232C634.038 227.232 634.256 227.449 634.212 227.667L633.733 237.834C633.733 238.051 633.559 238.225 633.342 238.225ZM210.592 230.708C210.375 230.708 210.157 230.534 210.157 230.317L209.852 220.15C209.852 219.933 210.026 219.715 210.244 219.715C210.462 219.715 210.679 219.889 210.679 220.106L211.027 230.273C211.027 230.491 210.853 230.708 210.592 230.708ZM634.299 217.89C634.256 217.89 634.256 217.89 634.299 217.89C634.038 217.89 633.864 217.673 633.864 217.456L634.343 207.289C634.343 207.072 634.56 206.854 634.778 206.898C634.995 206.898 635.213 207.115 635.169 207.332L634.691 217.499C634.691 217.717 634.517 217.89 634.299 217.89ZM209.939 210.374C209.722 210.374 209.504 210.2 209.504 209.983L209.2 199.816C209.2 199.598 209.374 199.381 209.591 199.381C209.852 199.381 210.026 199.555 210.026 199.772L210.331 209.939C210.375 210.157 210.201 210.33 209.939 210.374C209.983 210.374 209.939 210.374 209.939 210.374ZM635.213 197.556C634.952 197.556 634.778 197.339 634.778 197.122L635.256 186.955C635.256 186.737 635.474 186.52 635.691 186.564C635.909 186.564 636.126 186.781 636.083 186.998L635.604 197.165C635.648 197.383 635.43 197.556 635.213 197.556ZM209.33 189.996C209.113 189.996 208.895 189.822 208.895 189.605L208.591 179.438C208.591 179.221 208.765 179.004 208.982 179.004C209.2 179.004 209.417 179.177 209.417 179.395L209.722 189.562C209.765 189.779 209.591 189.996 209.33 189.996ZM636.17 177.222C635.909 177.222 635.735 177.005 635.735 176.788L636.126 168.228H635.43C635.213 168.228 634.995 168.054 634.995 167.794C634.995 167.576 635.169 167.359 635.43 167.359H637.04L636.605 176.831C636.605 177.005 636.387 177.222 636.17 177.222ZM208.678 169.662C208.46 169.662 208.243 169.488 208.243 169.271L208.199 167.359H217.379C217.597 167.359 217.814 167.533 217.814 167.794C217.814 168.011 217.64 168.228 217.379 168.228H209.069L209.113 169.271C209.113 169.445 208.939 169.619 208.678 169.662C208.721 169.662 208.678 169.662 208.678 169.662ZM625.25 168.185H615.069C614.852 168.185 614.634 168.011 614.634 167.75C614.634 167.533 614.808 167.316 615.069 167.316H625.25C625.467 167.316 625.685 167.49 625.685 167.75C625.685 167.968 625.467 168.185 625.25 168.185ZM604.845 168.185H594.665C594.447 168.185 594.23 168.011 594.23 167.75C594.23 167.533 594.404 167.316 594.665 167.316H604.845C605.063 167.316 605.28 167.49 605.28 167.75C605.28 167.968 605.106 168.185 604.845 168.185ZM584.441 168.185H574.26C574.043 168.185 573.825 168.011 573.825 167.75C573.825 167.533 573.999 167.316 574.26 167.316H584.441C584.658 167.316 584.876 167.49 584.876 167.75C584.876 167.968 584.702 168.185 584.441 168.185ZM564.08 168.185H553.856C553.639 168.185 553.421 168.011 553.421 167.75C553.421 167.533 553.595 167.316 553.856 167.316H564.037C564.254 167.316 564.472 167.49 564.472 167.75C564.472 167.968 564.298 168.185 564.08 168.185ZM543.676 168.185H533.495C533.278 168.185 533.06 168.011 533.06 167.75C533.06 167.533 533.234 167.316 533.495 167.316H543.676C543.893 167.316 544.111 167.49 544.111 167.75C544.111 167.968 543.893 168.185 543.676 168.185ZM523.271 168.185H513.091C512.873 168.185 512.656 168.011 512.656 167.75C512.656 167.533 512.83 167.316 513.091 167.316H523.271C523.489 167.316 523.706 167.49 523.706 167.75C523.706 167.968 523.532 168.185 523.271 168.185ZM502.867 168.185H492.686C492.469 168.185 492.251 168.011 492.251 167.75C492.251 167.533 492.425 167.316 492.686 167.316H502.867C503.084 167.316 503.302 167.49 503.302 167.75C503.302 167.968 503.128 168.185 502.867 168.185ZM482.506 168.185H472.325C472.108 168.185 471.89 168.011 471.89 167.75C471.89 167.533 472.064 167.316 472.325 167.316H482.506C482.723 167.316 482.941 167.49 482.941 167.75C482.897 167.968 482.723 168.185 482.506 168.185ZM462.101 168.185H451.921C451.703 168.185 451.486 168.011 451.486 167.75C451.486 167.533 451.66 167.316 451.921 167.316H462.101C462.319 167.316 462.537 167.49 462.537 167.75C462.537 167.968 462.319 168.185 462.101 168.185ZM441.697 168.185H431.517C431.299 168.185 431.082 168.011 431.082 167.75C431.082 167.533 431.256 167.316 431.517 167.316H441.697C441.915 167.316 442.132 167.49 442.132 167.75C442.132 167.968 441.958 168.185 441.697 168.185ZM421.293 168.185H411.112C410.895 168.185 410.677 168.011 410.677 167.75C410.677 167.533 410.851 167.316 411.112 167.316H421.293C421.51 167.316 421.728 167.49 421.728 167.75C421.728 167.968 421.554 168.185 421.293 168.185ZM400.932 168.185H390.708C390.49 168.185 390.273 168.011 390.273 167.75C390.273 167.533 390.447 167.316 390.708 167.316H400.888C401.106 167.316 401.323 167.49 401.323 167.75C401.323 167.968 401.149 168.185 400.932 168.185ZM380.527 168.185H370.347C370.129 168.185 369.912 168.011 369.912 167.75C369.912 167.533 370.086 167.316 370.347 167.316H380.527C380.745 167.316 380.962 167.49 380.962 167.75C380.962 167.968 380.745 168.185 380.527 168.185ZM360.123 168.185H349.942C349.725 168.185 349.507 168.011 349.507 167.75C349.507 167.533 349.681 167.316 349.942 167.316H360.123C360.34 167.316 360.558 167.49 360.558 167.75C360.558 167.968 360.384 168.185 360.123 168.185ZM339.718 168.185H329.538C329.321 168.185 329.103 168.011 329.103 167.75C329.103 167.533 329.277 167.316 329.538 167.316H339.718C339.936 167.316 340.154 167.49 340.154 167.75C340.154 167.968 339.98 168.185 339.718 168.185ZM319.358 168.185H309.177C308.96 168.185 308.742 168.011 308.742 167.75C308.742 167.533 308.916 167.316 309.177 167.316H319.358C319.575 167.316 319.793 167.49 319.793 167.75C319.749 167.968 319.575 168.185 319.358 168.185ZM298.953 168.185H288.773C288.555 168.185 288.338 168.011 288.338 167.75C288.338 167.533 288.512 167.316 288.773 167.316H298.953C299.171 167.316 299.388 167.49 299.388 167.75C299.388 167.968 299.171 168.185 298.953 168.185ZM278.549 168.185H268.368C268.151 168.185 267.933 168.011 267.933 167.75C267.933 167.533 268.107 167.316 268.368 167.316H278.549C278.766 167.316 278.984 167.49 278.984 167.75C278.984 167.968 278.81 168.185 278.549 168.185ZM258.144 168.185H247.964C247.746 168.185 247.529 168.011 247.529 167.75C247.529 167.533 247.703 167.316 247.964 167.316H258.144C258.362 167.316 258.579 167.49 258.579 167.75C258.579 167.968 258.405 168.185 258.144 168.185ZM237.783 168.185H227.559C227.342 168.185 227.124 168.011 227.124 167.75C227.124 167.533 227.298 167.316 227.559 167.316H237.74C237.957 167.316 238.175 167.49 238.175 167.75C238.175 167.968 238.001 168.185 237.783 168.185Z" fill="#DDE8FE"/>
<path d="M408.936 210.113C408.936 210.113 414.983 271.202 412.373 292.015L397.45 449.865H526.185C526.185 449.865 518.963 315.347 518.963 305.18C518.963 295.013 516.831 210.113 516.831 210.113L496.644 199.946L445.873 199.294L408.936 210.113Z" fill="url(#paint0_linear)"/>
<path d="M443.785 200.25L418.377 207.376C418.377 207.376 428.558 258.124 434.605 264.164C440.696 270.247 433.561 274.765 438.651 279.849C443.742 284.932 472.021 323.211 472.021 323.211L443.785 200.25Z" fill="#92B5F9"/>
<path d="M497.95 201.901L472.063 323.211C472.063 323.211 499.603 274.591 501.996 272.202C504.345 269.856 501.996 259.906 501.996 255.213C501.996 250.521 516.657 209.983 516.657 209.983C516.657 209.983 503.214 201.901 497.95 201.901Z" fill="#92B5F9"/>
<path d="M445.917 199.294L418.725 202.032C418.725 202.032 428.558 251.998 434.605 258.037C440.696 264.12 433.561 268.639 438.651 273.723C443.741 278.806 472.02 323.168 472.02 323.168L445.917 199.294Z" fill="#DDE8FE"/>
<path d="M496.688 199.946L472.063 323.211C472.063 323.211 499.603 268.509 501.996 266.162C504.345 263.816 501.996 253.866 501.996 249.174C501.996 244.525 516.918 205.899 516.918 205.899C516.918 205.899 501.952 199.946 496.688 199.946Z" fill="#DDE8FE"/>
<path d="M468.453 449.865L472.064 323.211L471.281 449.865H468.453Z" fill="#92B5F9"/>
<path d="M482.027 466.81H385.138V476.977H482.027V466.81Z" fill="#7C9AF2"/>
<path d="M473.761 524.033H393.448L390.881 477.021H476.284L473.761 524.033Z" fill="#7C9AF2"/>
<path d="M476.284 477.021H390.881L393.448 524.033H404.02C405.064 516.733 407.109 508.913 411.112 502.656C418.29 491.359 453.617 486.884 475.893 485.189L476.284 477.021Z" fill="#4951EC"/>
<path d="M546.199 549.494H327.797C327.797 535.416 339.196 524.033 353.292 524.033H520.704C534.756 524.033 546.199 535.416 546.199 549.494Z" fill="#4951EC"/>
<path d="M310.656 216.457L303.26 189.953L270.63 198.295C270.63 198.295 275.285 212.763 278.504 214.719C280.897 216.196 288.076 220.584 291.73 222.8L320.88 280.544L341.85 254.648L310.656 216.457Z" fill="#F79D9C"/>
<path d="M464.799 67.9042C464.799 67.9042 489.641 64.8628 500.256 69.9463C510.872 74.9864 531.711 95.451 526.186 135.12C526.186 135.12 530.667 136.554 531.929 142.593C533.19 148.676 533.321 159.495 522.792 169.532C512.264 179.568 494.557 178.439 485.421 178.439C476.284 178.439 450.572 170.748 444.003 156.584C437.433 142.376 464.799 67.9042 464.799 67.9042Z" fill="#0B0754"/>
<path d="M476.85 73.683C470.193 73.0747 464.624 76.1161 460.187 81.1127C454.531 97.6668 445.525 126.039 443.437 143.549C444.351 150.588 446.7 157.583 450.05 163.101C450.616 164.057 451.268 164.969 451.877 165.838C460.665 172.747 473.63 176.918 481.592 178.091C506.347 174.746 513.351 151.935 512.742 126.734C512.568 119.956 517.441 98.84 506.913 85.1535C499.821 75.9858 487.639 72.5967 476.85 73.683Z" fill="#0B0754"/>
<path d="M452.095 160.494C452.095 160.494 453.357 177.7 452.095 185.521C450.833 193.342 445.917 199.294 445.917 199.294L472.064 323.211L496.689 199.946C496.689 199.946 490.554 196.209 488.814 185.521C487.074 174.832 487.117 147.329 487.117 147.329L452.095 160.494Z" fill="#FFBFBD"/>
<path d="M472.064 323.211L491.207 227.232C476.589 228.84 462.058 226.971 451.268 224.755L472.064 323.211Z" fill="#0B0754"/>
<path d="M491.207 227.232C491.076 227.232 490.946 227.275 490.815 227.275C486.03 246.871 475.022 290.32 471.281 294.057C467.67 297.663 456.706 249.782 451.312 224.755C451.312 224.755 451.312 224.755 451.268 224.755L472.021 323.168L491.207 227.232Z" fill="#0B0754"/>
<path opacity="0.53" d="M457.576 158.409C461.318 173.008 470.411 186.737 487.726 182.175C487.944 182.132 488.118 182.045 488.335 182.002C487.073 169.792 487.073 147.329 487.073 147.329L457.576 158.409Z" fill="#EF7F7F"/>
<path d="M481.591 77.1154C481.591 77.1154 496.688 74.7692 504.954 86.8915C513.22 99.0138 509.435 119.348 509.435 124.431C509.435 129.515 511.871 166.447 487.769 172.182C463.666 177.917 455.487 151.587 455.487 135.685C455.487 119.782 461.404 79.0706 481.591 77.1154Z" fill="#FFBFBD"/>
<path opacity="0.53" d="M464.928 91.2798C464.102 93.1047 463.275 95.0599 462.579 97.102C470.932 94.582 479.416 92.6268 487.9 91.3233C491.293 103.098 498.515 111.18 510.305 111.18C510.436 106.487 510.175 101.186 508.957 96.233C495.122 90.5847 479.416 82.5031 464.928 91.2798Z" fill="#FD5E5A"/>
<path d="M305.826 191.56C305.522 191.213 281.419 168.272 276.633 169.705C268.672 171.791 286.335 184.913 288.25 187.389C289.207 188.606 290.077 190.17 290.817 191.647C290.207 191.821 289.598 191.995 289.076 192.125C284.552 193.211 272.413 195.471 270.673 198.295C270.673 198.295 270.325 214.154 274.502 214.241C278.678 214.328 282.898 212.807 287.38 213.241C289.598 213.459 291.904 212.372 293.644 211.199C293.905 211.026 294.166 210.808 294.428 210.634C293.862 211.59 293.688 212.72 294.297 213.893C296.429 218.238 311.221 210.765 311.874 207.984C312.526 205.247 309.22 195.775 305.826 191.56ZM302.433 205.942C301.084 206.29 298.474 207.202 296.472 208.636C295.907 207.159 293.079 199.512 293.557 196.47C295.602 194.298 300.127 194.211 302.302 195.167C302.607 195.427 302.824 195.775 302.911 196.253C303.607 199.077 305.087 205.29 302.433 205.942Z" fill="#FFBFBD"/>
<path d="M304 251.259C304 251.259 338.413 339.504 351.595 346.326C364.778 353.147 413.026 279.718 413.026 279.718C413.026 279.718 414.897 210.157 408.937 210.157C402.976 210.157 378.526 239.224 371.478 256.69C364.299 274.461 364.56 283.455 354.945 266.162C345.113 248.522 327.841 224.799 327.841 224.799C318.009 234.662 304 251.259 304 251.259Z" fill="#DDE8FE"/>
<path d="M500.3 70.0767C500.3 70.0767 491.816 69.0339 486.682 73.0312C481.592 77.072 470.324 78.9837 463.755 110.137C457.185 141.333 462.493 144.939 462.493 144.939C462.493 144.939 469.498 159.365 460.448 170.401C451.399 181.437 433.735 177.266 423.816 171.443C409.415 163.014 411.982 133.73 418.03 114.569C418.856 111.875 419.291 110.311 420.292 108.051C422.206 103.75 422.815 98.7965 425.6 94.2778C434.519 79.6355 450.746 66.2097 479.504 66.9484C479.46 67.0353 492.425 66.2966 500.3 70.0767Z" fill="#0B0754"/>
<path d="M420.944 105.792C419.16 111.18 419.421 110.397 418.073 114.655C417.768 115.568 417.507 116.48 417.246 117.436C422.902 114.178 423.99 113.265 430.472 110.006C442.306 103.967 455.01 99.1007 467.931 95.6248C468.192 94.9296 468.453 94.2778 468.714 93.6261C452.051 95.1468 435.606 98.1448 420.944 105.792Z" fill="#130025"/>
<path d="M424.511 94.8861C456.01 78.4189 477.197 76.9416 513.351 79.2879V87.9777C483.027 88.1081 453.052 96.3199 427.861 109.137C421.074 112.613 417.463 114.96 417.42 115.003L424.511 94.8861Z" fill="#7C9AF2"/>
<path d="M512.22 110.224C525.411 110.224 536.105 98.8048 536.105 84.719C536.105 70.6332 525.411 59.2144 512.22 59.2144C499.029 59.2144 488.335 70.6332 488.335 84.719C488.335 98.8048 499.029 110.224 512.22 110.224Z" fill="#8792CE"/>
<path d="M512.96 110.224C525.743 110.224 536.105 98.8048 536.105 84.719C536.105 70.6332 525.743 59.2144 512.96 59.2144C500.177 59.2144 489.814 70.6332 489.814 84.719C489.814 98.8048 500.177 110.224 512.96 110.224Z" fill="#EAE9F3"/>
<path d="M512.22 110.224C525.411 110.224 536.105 98.8048 536.105 84.719C536.105 70.6332 525.411 59.2144 512.22 59.2144C499.029 59.2144 488.335 70.6332 488.335 84.719C488.335 98.8048 499.029 110.224 512.22 110.224Z" fill="#4951EC"/>
<path d="M512.959 110.224C525.742 110.224 536.105 98.8048 536.105 84.719C536.105 70.6332 525.742 59.2144 512.959 59.2144C500.176 59.2144 489.814 70.6332 489.814 84.719C489.814 98.8048 500.176 110.224 512.959 110.224Z" fill="#92B5F9"/>
<path d="M504.127 79.8527C504.127 71.3802 507.869 63.8635 513.655 59.2579C513.438 59.2579 513.177 59.2579 512.959 59.2579C500.168 59.2579 489.814 70.685 489.814 84.7625C489.814 98.84 500.168 110.267 512.959 110.267C518.049 110.267 522.748 108.442 526.577 105.401C514.134 104.966 504.127 93.713 504.127 79.8527Z" fill="#EAE9F3"/>
<path d="M516.789 83.6763C516.789 85.7618 515.266 87.4563 513.352 87.4563C511.437 87.4563 509.915 85.7618 509.915 83.6763C509.915 81.5907 511.437 79.8962 513.352 79.8962C515.266 79.8962 516.789 81.5473 516.789 83.6763Z" fill="#7C9AF2"/>
<path d="M245.744 200.38C245.439 200.38 245.135 200.294 244.83 200.12C244.091 199.598 243.917 198.643 244.439 197.904L304.956 110.311C305.478 109.572 306.435 109.398 307.175 109.919C307.914 110.441 308.088 111.397 307.566 112.135L247.049 199.685C246.744 200.12 246.222 200.38 245.744 200.38Z" fill="#4951EC"/>
<path d="M141.852 310.785C141.46 310.785 141.069 310.654 140.764 310.35C140.111 309.742 140.068 308.742 140.677 308.091L241.176 200.815C241.785 200.163 242.786 200.12 243.439 200.728C244.091 201.336 244.135 202.336 243.526 202.987L143.026 310.263C142.722 310.611 142.287 310.785 141.852 310.785Z" fill="#4951EC"/>
<path d="M242.351 203.509C242.046 203.509 241.698 203.422 241.437 203.205L160.603 145.374C159.907 144.853 159.733 143.853 160.255 143.158C160.777 142.463 161.777 142.289 162.474 142.81L243.308 200.641C244.004 201.163 244.178 202.162 243.656 202.857C243.308 203.292 242.83 203.509 242.351 203.509Z" fill="#4951EC"/>
<path d="M285.466 388.124C284.726 388.124 284.074 387.646 283.9 386.907L240.785 202.292C240.568 201.423 241.133 200.598 241.96 200.38C242.83 200.163 243.657 200.728 243.874 201.554L286.989 386.169C287.206 387.038 286.641 387.863 285.814 388.081C285.684 388.124 285.553 388.124 285.466 388.124Z" fill="#4951EC"/>
<path d="M259.664 206.505C262.205 196.95 256.509 187.146 246.941 184.609C237.373 182.071 227.557 187.759 225.016 197.315C222.475 206.87 228.171 216.673 237.739 219.211C247.306 221.749 257.123 216.06 259.664 206.505Z" fill="#4951EC"/>
<path d="M253.793 201.032C253.793 207.332 248.659 212.459 242.351 212.459C236.042 212.459 230.909 207.332 230.909 201.032C230.909 194.732 236.042 189.605 242.351 189.605C248.659 189.605 253.793 194.732 253.793 201.032Z" fill="#BADCFF"/>
<path d="M157.949 184.478H81.4215C76.8534 184.478 73.1118 180.785 73.1118 176.179V111.918C73.1118 107.356 76.8098 103.619 81.4215 103.619H157.949C162.517 103.619 166.259 107.313 166.259 111.918V176.179C166.259 180.785 162.517 184.478 157.949 184.478Z" fill="#E4EDFF"/>
<path d="M161.604 104.488C162.169 105.618 162.474 106.835 162.474 108.182V172.443C162.474 177.005 158.776 180.742 154.164 180.742H77.6365C76.3313 180.742 75.0696 180.437 73.9385 179.873C75.2872 182.61 78.1151 184.478 81.378 184.478H157.949C162.517 184.478 166.259 180.785 166.259 176.179V111.918C166.259 108.659 164.344 105.879 161.604 104.488Z" fill="#4951EC"/>
<path d="M157.949 343.632H81.4215C76.8534 343.632 73.1118 339.939 73.1118 335.333V271.116C73.1118 266.553 76.8098 262.817 81.4215 262.817H157.949C162.517 262.817 166.259 266.51 166.259 271.116V335.377C166.259 339.939 162.517 343.632 157.949 343.632Z" fill="#E4EDFF"/>
<path d="M161.604 263.686C162.169 264.815 162.474 266.032 162.474 267.379V331.64C162.474 336.202 158.776 339.939 154.164 339.939H77.6365C76.3313 339.939 75.0696 339.635 73.9385 339.07C75.2872 341.807 78.1151 343.676 81.378 343.676H157.949C162.517 343.676 166.259 339.982 166.259 335.377V271.116C166.259 267.857 164.344 265.033 161.604 263.686Z" fill="#4951EC"/>
<path d="M258.188 125.17H346.68C351.596 125.17 355.555 121.216 355.555 116.306V53.175C355.555 48.2652 351.596 44.3114 346.68 44.3114H258.188C253.272 44.3114 249.313 48.2652 249.313 53.175V116.306C249.356 121.173 253.316 125.17 258.188 125.17Z" fill="#E4EDFF"/>
<path d="M254.62 45.1804C254.011 46.31 253.619 47.5266 253.619 48.8735V113.135C253.619 117.697 257.883 121.434 263.103 121.434H350.42C351.943 121.434 353.335 121.129 354.641 120.565C353.074 123.302 349.855 125.17 346.157 125.17H258.796C253.576 125.17 249.312 121.477 249.312 116.871V52.6102C249.356 49.3515 251.487 46.5273 254.62 45.1804Z" fill="#4951EC"/>
<path d="M247.05 358.665H335.541C340.457 358.665 344.416 362.619 344.416 367.529V430.661C344.416 435.57 340.457 439.524 335.541 439.524H247.05C242.133 439.524 238.174 435.57 238.174 430.661V367.529C238.174 362.663 242.133 358.665 247.05 358.665Z" fill="#E4EDFF"/>
<path d="M243.439 438.657C242.829 437.57 242.438 436.31 242.438 434.963V370.746C242.438 366.183 246.702 362.447 251.922 362.447H339.239C340.762 362.447 342.154 362.751 343.459 363.316C341.893 360.579 338.674 358.71 334.976 358.71H247.659C242.438 358.71 238.174 362.403 238.174 367.009V431.27C238.174 434.485 240.306 437.31 243.439 438.657Z" fill="#4951EC"/>
<path d="M106.829 127.864C106.829 129.385 105.611 130.601 104.088 130.601C102.565 130.601 101.347 129.385 101.347 127.864C101.347 126.343 102.565 125.127 104.088 125.127C105.611 125.127 106.829 126.343 106.829 127.864Z" fill="#7C9AF2"/>
<path d="M137.631 120.173C137.631 121.129 136.848 121.911 135.891 121.911C134.934 121.911 134.15 121.129 134.15 120.173C134.15 119.218 134.934 118.436 135.891 118.436C136.848 118.436 137.631 119.218 137.631 120.173Z" fill="#7C9AF2"/>
<path d="M117.88 169.662C104.654 169.662 93.9077 158.93 93.9077 145.722C93.9077 139.769 96.083 134.077 100.042 129.732L100.651 129.081L101.086 129.863C101.347 130.341 101.739 130.732 102.174 131.036L102.783 131.427L102.304 131.992C98.9544 135.772 97.0837 140.638 97.0837 145.722C97.0837 157.149 106.394 166.447 117.836 166.447C128.713 166.447 137.675 158.105 138.545 147.373C134.543 146.591 131.628 143.071 131.628 138.943V123.736L133.498 120.912L134.064 121.607C134.368 121.998 134.804 122.302 135.326 122.433L136.196 122.65L134.847 124.692V138.943C134.847 141.898 137.283 144.331 140.242 144.331C143.2 144.331 145.637 141.898 145.637 138.943V124.736L144.114 122.65L144.984 122.389C145.463 122.216 145.898 121.911 146.202 121.52L146.724 120.782L148.9 123.693V138.987C148.9 143.158 145.898 146.677 141.852 147.416C140.894 159.929 130.54 169.662 117.88 169.662Z" fill="#7C9AF2"/>
<path d="M145.94 120.173C145.94 121.129 145.157 121.911 144.2 121.911C143.243 121.911 142.46 121.129 142.46 120.173C142.46 119.218 143.243 118.436 144.2 118.436C145.157 118.436 145.94 119.218 145.94 120.173Z" fill="#7C9AF2"/>
<path d="M127.755 140.899H121.272V134.425H114.094V140.899H107.611V148.068H114.094V154.542H121.272V148.068H127.755V140.899Z" fill="#7C9AF2"/>
<path d="M318.486 85.9356H316.398L312.091 80.0265L308.828 93.3654L306.348 70.207L299.648 85.2839L296.733 79.9396L292.992 86.6742L287.858 80.4176L285.552 91.8012L283.377 72.2057L276.024 85.5011H258.274C257.839 85.5011 257.447 85.8487 257.447 86.3266C257.447 86.7611 257.795 87.1522 258.274 87.1522H277.721L281.724 79.8962L284.813 107.66L289.294 85.588L293.427 90.6281L296.733 84.6756L299.953 90.4978L304.956 79.2879L308.001 107.486L313.396 85.3708L314.962 87.4998H319.661C319.183 87.0218 318.791 86.457 318.486 85.9356Z" fill="#7C9AF2"/>
<path d="M334.192 75.1168C334.192 75.1168 336.933 71.2933 342.371 71.2933C347.244 71.2933 350.55 75.2037 350.55 79.7658C350.55 85.0232 345.982 91.2798 334.148 96.711C322.315 91.2798 317.747 85.0232 317.747 79.7658C317.747 75.2037 321.097 71.2933 325.926 71.2933C331.451 71.2933 334.192 75.1168 334.192 75.1168Z" fill="#FA7167"/>
<path opacity="0.66" d="M310.83 412.325L268.673 406.937C265.976 406.59 264.105 404.157 264.453 401.463L267.324 379.217C267.672 376.523 270.109 374.655 272.806 375.002L314.964 380.39C317.661 380.738 319.532 383.171 319.184 385.865L316.312 408.111C315.964 410.761 313.484 412.673 310.83 412.325Z" fill="white"/>
<path d="M285.075 383.518L283.943 380.911C283.595 380.173 282.856 379.695 282.029 379.695H262.582C261.451 379.695 260.494 380.607 260.494 381.78V394.989H260.537V419.842C260.537 420.971 261.451 421.927 262.625 421.927H320.01C321.141 421.927 322.098 421.015 322.098 419.842V386.82C322.098 385.691 321.185 384.735 320.01 384.735H286.989C286.162 384.778 285.423 384.257 285.075 383.518Z" fill="#7C9AF2"/>
<path d="M303.826 403.766C303.826 410.109 298.693 415.236 292.341 415.236C285.989 415.236 280.855 410.109 280.855 403.766C280.855 397.422 285.989 392.295 292.341 392.295C298.693 392.295 303.826 397.422 303.826 403.766Z" fill="#EAE9F3"/>
<path d="M301.303 400.637H295.56V394.859H289.208V400.637H283.422V406.981H289.208V412.716H295.56V406.981H301.303V400.637Z" fill="#FA7167"/>
<path d="M119.157 294.703C121.383 292.48 121.383 288.876 119.157 286.653C116.931 284.431 113.323 284.431 111.097 286.653C108.871 288.876 108.871 292.48 111.097 294.703C113.323 296.926 116.931 296.926 119.157 294.703Z" fill="#FA7167"/>
<path d="M123.811 306.158H132.077V298.207H123.811V306.158Z" fill="#7C9AF2"/>
<path d="M125.03 308.82H130.859V306.604H125.03V308.82Z" fill="#7C9AF2"/>
<path d="M122.927 291.624C122.927 289.842 122.361 288.148 121.448 286.757V281.283C122.753 281.283 123.841 280.197 123.841 278.893V274.548H132.107V278.893C132.107 280.197 133.194 281.283 134.5 281.283V295.36C134.5 296.577 133.499 297.576 132.281 297.576H123.667C122.753 297.576 121.926 297.011 121.622 296.186C122.448 294.882 122.927 293.318 122.927 291.624Z" fill="#7C9AF2"/>
<path d="M121.81 274.558H134.079V271.647H121.81V274.558Z" fill="#7C9AF2"/>
<path d="M105.567 290.798C105.524 291.059 105.524 291.363 105.524 291.624C105.524 295.795 108.482 299.271 112.398 300.096C111.179 300.965 110.222 302.138 109.7 303.616C108.743 306.179 109.178 309.003 110.353 311.393C111.745 314.261 114.138 316.52 116.879 318.128L115.835 321.734C101.564 317.736 95.4736 301.921 105.567 290.798Z" fill="#7C9AF2"/>
<path d="M109.196 326.011H121.117V318.016H109.196V326.011Z" fill="#7C9AF2"/>
<path d="M99.2153 330.293H143.548V328.99C143.548 327.382 142.243 326.035 140.59 326.035H102.174C100.564 326.035 99.2153 327.339 99.2153 328.99V330.293Z" fill="#7C9AF2"/>
<path d="M116.635 315.568H139.432V311.571H116.635V315.568Z" fill="white"/>
<path d="M516.614 209.983C516.614 209.983 512.22 258.472 518.833 295.404C520.486 304.702 546.155 308.786 560.164 319.344C583.526 336.897 599.798 360.621 603.974 370.049C613.459 365.791 613.372 323.168 608.194 306.266C602.582 295.013 516.614 209.983 516.614 209.983Z" fill="#DDE8FE"/>
<path d="M653.05 271.116L562.688 260.166L506.086 367.92H579.35L653.05 271.116Z" fill="#0B0754"/>
<path opacity="0.44" d="M579.351 367.92L653.05 271.116L562.688 260.21L561.078 263.295C575.218 266.988 602.54 275.634 606.586 288.191C610.936 301.573 579.351 348.498 565.69 367.964H579.351V367.92Z" fill="#0B0754"/>
<path d="M559.337 255.3L501.735 365.965L506.085 367.92L562.687 260.166L653.049 271.116L647.568 266.771L559.337 255.3Z" fill="#4951EC"/>
<path d="M719.919 252.91L724.966 272.202L741.237 265.902L738.323 248.826L719.919 252.91Z" fill="#FFCECD"/>
<path d="M647.263 209.157C645.871 207.158 636.343 194.949 634.69 196.079C633.08 197.209 638.91 205.421 639.824 206.681C639.824 206.681 636.474 206.42 634.821 210.156C633.733 212.677 640.65 224.668 643.565 229.404C646.089 228.622 649.874 225.581 649.743 222.931C649.743 218.021 648.308 210.678 647.263 209.157Z" fill="#FFCECD"/>
<path opacity="0.53" d="M734.146 249.739L719.919 252.91L721.747 259.949C725.314 259.341 729.012 257.386 731.231 253.562C731.84 252.606 732.928 251.259 734.146 249.739Z" fill="#F79D9C"/>
<path d="M715.177 542.238L713.219 553.274L704.474 553.926L705.997 534.547L715.177 542.238Z" fill="#FB9390"/>
<path d="M714.742 551.579C714.742 551.579 706.693 551.71 704.91 550.319C703.126 548.929 701.299 551.623 698.427 555.229C695.556 558.835 684.94 558.401 683.635 561.225C682.634 563.397 714.22 562.746 715.83 562.702C716.961 562.702 714.742 551.579 714.742 551.579Z" fill="#0B0754"/>
<path d="M738.844 540.5L736.886 551.579L728.141 552.188L729.62 532.809L738.844 540.5Z" fill="#FB9390"/>
<path d="M738.41 549.841C738.41 549.841 730.361 549.972 728.578 548.581C726.794 547.191 724.967 549.885 722.095 553.491C719.224 557.097 709.174 557.619 707.782 560.4C706.346 563.18 738.105 562.746 738.802 561.833C739.498 561.008 738.41 549.841 738.41 549.841Z" fill="#0B0754"/>
<path d="M720.354 390.036L721.268 469.2L727.446 546.148L739.019 548.103C739.019 548.103 748.634 412.108 758.596 397.118C768.559 382.128 757.291 357.319 757.204 357.275L720.354 390.036Z" fill="#3E4EDD"/>
<path d="M753.157 394.424C757.464 387.95 760.597 379.391 759.814 369.658C759.553 366.486 754.462 363.01 753.853 360.317L720.397 390.036L721.311 469.2L724.748 512.084C730.925 475.152 742.368 422.145 744.673 406.937C745.631 405.547 748.894 400.811 753.157 394.424Z" fill="#4951EC"/>
<path d="M707.085 353.061C707.085 353.061 701.212 425.273 700.733 449.431C700.254 474.11 703.343 548.103 703.343 548.103L716.961 548.147C716.961 548.147 737.191 427.793 740.541 405.286C740.541 405.286 738.627 408.545 748.59 393.512C758.553 378.522 751.244 357.362 751.2 357.319L733.493 363.923L707.085 353.061Z" fill="#4951EC"/>
<path d="M768.429 317.997L755.856 339.07L761.338 351.627C761.338 351.627 794.663 325.427 791.836 318.258C789.443 312.218 756.117 276.503 747.111 266.684C745.501 264.902 742.935 264.294 740.672 265.076L725.228 270.42C725.184 270.377 769.821 313.348 768.429 317.997Z" fill="#E8605D"/>
<path d="M711.653 264.772C711.653 264.772 707.694 366.399 697.557 386.994C697.557 386.994 743.63 380.216 764.774 380.216C764.774 380.216 764.295 294.144 754.071 275.069C743.804 255.952 721.616 259.471 711.653 264.772Z" fill="#FA7167"/>
<path d="M734.972 302.225C744.848 297.011 747.981 289.755 748.198 280.544C748.329 273.853 725.836 277.329 711.044 278.285C710.783 283.499 710.391 289.929 709.956 297.098C715.612 303.311 727.837 306.005 734.972 302.225Z" fill="#E8605D"/>
<path d="M659.662 269.03C659.662 269.03 691.553 296.316 716.96 295.317C742.368 294.317 745.718 288.191 747.893 281.413C750.068 274.635 735.581 265.38 721.05 262.6C706.519 259.819 680.589 260.079 676.63 256.43C672.671 252.78 652.179 225.19 650.483 220.41L638.17 225.668L659.662 269.03Z" fill="#FA7167"/>
<path d="M726.532 221.453C726.532 221.453 722.225 223.582 718.527 229.013C714.873 234.445 710.914 237.356 710.914 237.356L712.654 240.136C712.654 240.136 708.738 242.961 709.086 247.262C709.913 256.734 724.618 258.428 731.927 252.91C733.928 251.433 740.063 249.521 742.107 246.176C747.502 237.138 745.936 223.235 726.532 221.453Z" fill="#FFCECD"/>
<path d="M733.755 241.744C733.755 241.744 728.882 232.707 731.188 226.363C731.188 226.363 725.836 226.276 721.529 223.843C713.785 219.455 723.183 203.205 734.842 214.806C734.842 214.806 733.842 206.941 742.064 208.332C750.287 209.722 753.289 213.024 751.81 220.845C750.33 228.666 753.724 225.19 756.247 229.752C758.771 234.314 745.545 250.694 739.367 251.303C733.189 251.911 733.189 251.911 733.189 251.911C733.189 251.911 742.021 246.958 739.541 243.221C737.061 239.485 733.755 241.744 733.755 241.744Z" fill="#0B0754"/>
<path d="M543.067 330.728C544.72 329.424 558.468 337.94 566.386 343.067C566.386 342.98 566.429 342.85 566.429 342.763C558.99 337.245 545.981 330.684 548.94 328.773C550.463 327.817 583.136 340.938 583.179 340.938C586.616 342.502 586.79 342.633 590.314 344.197C589.488 342.155 580.917 328.251 586.703 328.946L605.803 353.886C609.022 359.187 608.935 362.402 608.108 365.183C607.108 368.572 602.322 377.696 594.534 379.565C587.008 381.346 566.647 369.832 563.471 366.877C560.034 363.923 536.671 343.545 540.413 337.853C540.413 337.853 559.903 356.841 561.948 354.494C562.079 353.93 542.675 341.112 541.196 336.072C540.108 332.466 557.032 343.415 564.472 348.933C557.772 343.415 541.935 331.64 543.067 330.728Z" fill="#FB9390"/>
<path d="M188.403 562.398H128.451C115.356 562.398 104.74 551.797 104.74 538.719V386.603C104.74 373.525 115.356 362.923 128.451 362.923H188.403C201.498 362.923 212.114 373.525 212.114 386.603V538.719C212.114 551.797 201.498 562.398 188.403 562.398Z" fill="#4951EC"/>
<path d="M188.402 362.923H185.357C198.452 362.923 209.068 373.525 209.068 386.603V538.719C209.068 551.797 198.452 562.398 185.357 562.398H188.402C201.498 562.398 212.113 551.797 212.113 538.719V386.603C212.113 373.525 201.498 362.923 188.402 362.923Z" fill="#4951EC"/>
<path d="M128.451 559.357C117.052 559.357 107.786 550.102 107.786 538.718V386.603C107.786 375.22 117.052 365.965 128.451 365.965H188.403C199.801 365.965 209.068 375.22 209.068 386.603V538.718C209.068 550.102 199.801 559.357 188.403 559.357H128.451Z" fill="#E4EDFF"/>
<path d="M169.391 376.567H149.204C148.595 376.567 148.073 376.089 148.073 375.437C148.073 374.829 148.551 374.307 149.204 374.307H169.391C170 374.307 170.522 374.785 170.522 375.437C170.478 376.089 170 376.567 169.391 376.567Z" fill="#7C9AF2"/>
<path d="M171.436 383.996H147.159C146.463 383.996 145.941 383.431 145.941 382.78C145.941 382.084 146.507 381.563 147.159 381.563H171.436C172.132 381.563 172.654 382.128 172.654 382.78C172.654 383.431 172.088 383.996 171.436 383.996Z" fill="#7C9AF2"/>
<path d="M140.415 382.78C140.415 383.692 139.676 384.474 138.719 384.474C137.805 384.474 137.022 383.736 137.022 382.78C137.022 381.867 137.762 381.085 138.719 381.085C139.676 381.085 140.415 381.824 140.415 382.78Z" fill="#7C9AF2"/>
<path d="M158.427 555.49C163.473 555.49 167.564 551.405 167.564 546.366C167.564 541.326 163.473 537.241 158.427 537.241C153.381 537.241 149.291 541.326 149.291 546.366C149.291 551.405 153.381 555.49 158.427 555.49Z" fill="#92B5F9"/>
<path d="M156.905 555.49C161.951 555.49 166.042 551.405 166.042 546.366C166.042 541.326 161.951 537.241 156.905 537.241C151.86 537.241 147.769 541.326 147.769 546.366C147.769 551.405 151.86 555.49 156.905 555.49Z" fill="#DDE8FE"/>
<path d="M198.192 531.984H118.315C115.617 531.984 113.442 529.811 113.442 527.118V404.026C113.442 401.332 115.617 399.16 118.315 399.16H198.192C200.889 399.16 203.065 401.332 203.065 404.026V527.118C203.065 529.811 200.889 531.984 198.192 531.984Z" fill="#92B5F9"/>
<path d="M115.443 526.944V404.2C115.443 402.723 116.618 401.55 118.097 401.55H198.323C199.802 401.55 200.977 402.723 200.977 404.2V526.9C200.977 528.378 199.802 529.551 198.323 529.551H118.141C116.662 529.594 115.443 528.378 115.443 526.944Z" fill="white"/>
<path d="M198.54 401.55H117.923C116.575 401.55 115.443 402.853 115.443 404.417V422.97H201.02V404.417C201.02 402.853 199.932 401.55 198.54 401.55Z" fill="#BED1F9"/>
<path d="M184.096 426.924H135.456V430.183H184.096V426.924Z" fill="#7C9AF2"/>
<path d="M123.971 428.532L128.582 431.66V425.447L123.971 428.532Z" fill="#7C9AF2"/>
<path d="M192.189 428.532L187.577 431.66V425.447L192.189 428.532Z" fill="#7C9AF2"/>
<path d="M143.2 417.018H122.056C119.88 417.018 118.097 415.236 118.097 413.064V410.978C118.097 408.806 119.88 407.024 122.056 407.024H143.2C145.375 407.024 147.159 408.806 147.159 410.978V413.064C147.159 415.236 145.375 417.018 143.2 417.018Z" fill="#7C9AF2"/>
<path d="M194.756 417.018H189.622C188.491 417.018 187.577 416.105 187.577 414.975V409.066C187.577 407.937 188.491 407.024 189.622 407.024H194.756C195.887 407.024 196.8 407.937 196.8 409.066V414.975C196.8 416.105 195.887 417.018 194.756 417.018Z" fill="#7C9AF2"/>
<path d="M192.927 408.675H191.448V415.149H192.927V408.675Z" fill="white"/>
<path d="M189.434 411.04V412.777H194.959V411.04H189.434Z" fill="white"/>
<path d="M129.235 443.348H119.75V525.075H129.235V443.348Z" fill="#DDE8FE"/>
<path d="M140.59 443.348H131.106V525.075H140.59V443.348Z" fill="#DDE8FE"/>
<path d="M152.032 443.348H142.548V525.075H152.032V443.348Z" fill="#DDE8FE"/>
<path d="M163.474 443.348H153.99V525.075H163.474V443.348Z" fill="#DDE8FE"/>
<path d="M174.916 443.348H165.432V525.075H174.916V443.348Z" fill="#DDE8FE"/>
<path d="M186.358 443.348H176.874V525.075H186.358V443.348Z" fill="#DDE8FE"/>
<path d="M197.801 443.348H188.316V525.075H197.801V443.348Z" fill="#DDE8FE"/>
<path d="M129.235 434.006H119.75V440.219H129.235V434.006Z" fill="#7C9AF2"/>
<path d="M140.59 434.006H131.106V440.219H140.59V434.006Z" fill="#7C9AF2"/>
<path d="M152.032 434.006H142.548V440.219H152.032V434.006Z" fill="#7C9AF2"/>
<path d="M163.474 434.006H153.99V440.219H163.474V434.006Z" fill="#7C9AF2"/>
<path d="M174.916 434.006H165.432V440.219H174.916V434.006Z" fill="#7C9AF2"/>
<path d="M186.358 434.006H176.874V440.219H186.358V434.006Z" fill="#FA7167"/>
<path d="M197.801 434.006H188.316V440.219H197.801V434.006Z" fill="#FA7167"/>
<path d="M198.714 452.776H118.097V454.818H198.714V452.776Z" fill="white"/>
<path d="M198.714 464.985H118.097V467.027H198.714V464.985Z" fill="white"/>
<path d="M198.714 477.195H118.097V479.237H198.714V477.195Z" fill="white"/>
<path d="M198.714 489.36H118.097V491.402H198.714V489.36Z" fill="white"/>
<path d="M198.714 501.57H118.097V503.612H198.714V501.57Z" fill="white"/>
<path d="M198.54 513.779H117.923V515.821H198.54V513.779Z" fill="white"/>
<path d="M157.165 467.766L149.421 464.421C149.682 464.768 159.428 476.63 159.167 476.326C161.125 471.937 165.475 462.205 167.476 457.729L157.165 467.766Z" fill="#FA7167"/>
<defs>
<linearGradient id="paint0_linear" x1="462" y1="272" x2="461.818" y2="449.865" gradientUnits="userSpaceOnUse">
<stop stop-color="#DDE8FE"/>
<stop offset="1" stop-color="white" stop-opacity="0"/>
</linearGradient>
</defs>
</svg>
